<?xml version="1.0" encoding="utf-8"?>
<!-- Generator: Adobe Illustrator 23.0.3, SVG Export Plug-In . SVG Version: 6.00 Build 0)  -->
<svg version="1.1" xmlns="http://www.w3.org/2000/svg" xmlns:xlink="http://www.w3.org/1999/xlink" x="0px" y="0px"
	 viewBox="0 0 812.83 239.13" style="enable-background:new 0 0 812.83 239.13;" xml:space="preserve">
<style type="text/css">
	.st0{display:none;}
	.st1{display:inline;}
	.st2{fill:#231F20;}
	.st3{fill:#F7941D;}
	.st4{fill:#FFFFFF;}
</style>
<g id="Layer_4" class="st0">
	<g id="Layer_3" class="st1">
		<rect x="-22.98" y="-75.05" class="st2" width="1874.3" height="419.36"/>
	</g>
</g>
<g id="LOGO_GTS">
	<g id="CIRCLE">
		<circle class="st3" cx="113.62" cy="119.78" r="101.39"/>
	</g>
	<g id="DIAMOND_PLAY">
		<path class="st4" d="M175.27,119.15c-27.73,14.12-55.1,28.05-82.78,42.14c-0.01-27.74-0.01-55.14-0.02-82.96
			C120.15,91.97,147.52,105.47,175.27,119.15z"/>
		<path class="st4" d="M92.47,70.47c0-8.43,0-16.76,0-25.62c24.08,20.36,71.22,60.57,71.16,60.69
			C139.97,93.88,116.32,82.22,92.47,70.47z"/>
		<path class="st4" d="M92.51,193.43c-0.01-8.29-0.01-16.15-0.02-24.23c23.45-11.94,46.96-23.92,70.46-35.89
			C163.03,133.42,116.31,173.29,92.51,193.43z"/>
		<path class="st4" d="M80.45,121.07c-7.55,12.02-15,23.88-22.74,36.21c0-25.16-0.01-49.8-0.01-74.44
			C57.83,82.81,73.01,108.31,80.45,121.07z"/>
		<path class="st4" d="M86.04,48.56c0.01,22.92,0.02,45.26,0.02,67.6c-0.12,0.04-16.61-27.72-24.87-41.88
			C69.34,65.85,77.48,57.42,86.04,48.56z"/>
		<path class="st4" d="M86.07,125.85c0,21.11,0,42.22,0.01,63.95c-8.51-8.64-16.62-16.87-24.82-25.2
			C69.47,151.52,85.94,125.81,86.07,125.85z"/>
	</g>
</g>
</svg>
