<svg xmlns="http://www.w3.org/2000/svg" xmlns:xlink="http://www.w3.org/1999/xlink" viewBox="0 0 812.83 239.13"><circle cx="113.62" cy="119.78" r="101.39" fill="#f7941d"/><g fill="#fff"><path d="M271.12 81.26c-5.12 4.35-9.66 6.08-16 6.08-6.53 0-11.7-2.1-15.62-6.46-3.65-4.03-5.76-9.73-5.76-15.6 0-6.9 2.82-13.38 7.55-17.47 3.78-3.2 8.38-4.8 14.14-4.8 3.58 0 7.1.77 10.1 2.1 2.18 1.02 3.52 1.98 6.08 4.35l-6.66 6.98c-3-2.62-5.9-3.84-9.15-3.84-6.85 0-11.58 5.06-11.58 12.35 0 7.55 5.06 12.8 12.22 12.8 3.65 0 6.27-1.15 8.5-3.65l6.16 7.16z"/><use xlink:href="#B"/><use xlink:href="#B" x="52.73"/><path d="M394.77 86.5H384.4V43.82h14.66c10.1 0 15.87 5.12 15.87 14 0 8.96-5.95 14.78-15.23 14.78h-4.93v13.9zm2.88-22.4c4.3 0 6.78-2.18 6.78-5.9 0-3.52-2.43-5.9-6.08-5.9h-3.58v11.8h2.88zm34.3-3.2h14.08v8.38h-14.08v8.83h14.08v8.38H421.6V43.82h24.45v8.38h-14.08v8.7zm13.82-29.7l-9.4 8.58h-6.4l6.14-8.58h9.67zm20.67 55.3h-10.37V43.82h13.82c5.63 0 9.73 1.02 12.54 3.2 2.94 2.3 4.6 6.14 4.6 10.82 0 6.46-2.75 10.82-8.26 13l9.4 15.68h-12.42L466.44 70v16.5zm3.33-22.33c4.3 0 6.78-2.18 6.78-5.9 0-3.58-2.43-5.95-6.14-5.95h-3.97v11.84h3.33zm37.57 16.2l-1.86 6.14h-11.07l14.08-42.68h13.18L535.7 86.5h-11.4l-1.86-6.14h-15.1zm7.55-24.32l-5 15.93h9.98l-5-15.93zm41.92 30.46h-10.37V52.2h-9.86v-8.38h30v8.38h-9.8v34.3zm27.52 0h-10.37V43.82h10.37V86.5zm33.2-42.68h10.7L615.38 86.5h-11.26L591.9 43.82h10.7l7.23 26.05 7.73-26.05zM645.2 60.9h14.08v8.38H645.2v8.83h14.08v8.38h-24.45V43.82h24.45v8.38H645.2v8.7zm-400.7 74.46l-1.86 6.14h-11.07l14.08-42.68h13.18l14.02 42.68h-11.4l-1.86-6.14h-15.1zm7.55-24.32l-5 15.93h9.98l-5-15.93z"/><use xlink:href="#C"/><path d="M323.93 98.82h12.48c7.36 0 11.9 1.34 15.8 4.67 4.54 3.84 6.98 9.6 6.98 16.25 0 6.72-2.5 12.93-6.78 16.83-3.52 3.2-8.7 4.93-14.85 4.93h-13.63V98.82zM334.3 133h1.6c7.55 0 12.8-5.25 12.8-12.93 0-3.78-1.54-7.68-3.9-9.86-2.05-1.86-5.38-3.07-8.5-3.07h-1.98V133zm44.66 8.5H368.6V98.82h10.37v42.68zm54.66-21.24c0 12.22-9.98 22.08-22.33 22.08-12.74 0-22.85-9.73-22.85-22 0-6.2 2.5-11.97 7.17-16.38 4.1-3.84 9.66-5.95 15.93-5.95 12.6-.01 22.08 9.52 22.08 22.26zM399 120.2c0 7.04 5.3 12.54 12.1 12.54 6.66 0 12.03-5.5 12.03-12.35 0-7.3-5.12-12.8-11.97-12.8-6.97.01-12.15 5.38-12.15 12.6zm65.02-21.38h10.7l-12.86 42.68H450.6l-12.22-42.68h10.7l7.23 26.05 7.73-26.05zm28.6 42.68h-10.37V98.82h10.37v42.68z"/><use xlink:href="#D"/><use xlink:href="#C" x="261.68"/><path d="M594.07 115.9h14.08v8.38h-14.08v8.83h14.08v8.38H583.7V98.82h24.45v8.38h-14.08v8.7zm48.38 17.22v8.38H618.2V98.82h10.37v34.3h13.88zm32.77 0v8.38h-24.25V98.82h10.37v34.3h13.88zm16.96-17.22h14.08v8.38h-14.08v8.83h14.08v8.38H681.8V98.82h24.45v8.38h-14.08v8.7zm-413.44 56.3l.06 2.24c0 7.04-2.3 12.48-7.04 16.9-4.3 3.84-9.86 6.02-15.68 6.02-12.67 0-22.33-9.54-22.33-22.08 0-12.67 9.6-22.27 22.2-22.27 7.17 0 13.63 3.07 17.98 8.45l-7.87 6.08c-2.75-3.4-5.76-4.93-9.8-4.93-6.85 0-12.03 5.44-12.03 12.74 0 7.04 5.5 12.6 12.48 12.6 4.93 0 8.96-2.82 10.7-7.36h-10.5v-8.38h21.82zm23.86 24.3h-10.37v-34.3h-9.86v-8.38h30v8.38h-9.8v34.3z"/><use xlink:href="#D" x="-183.63" y="55"/><path d="M175.27 119.15L92.5 161.3l-.02-82.96 82.8 40.82zm-82.8-48.68V44.85l71.16 60.7-71.16-35.07zm.03 122.96V169.2l70.46-35.9c.08.1-46.64 39.98-70.44 60.12zm-12.05-72.36l-22.74 36.2V82.84c.13-.03 15.3 25.47 22.75 38.23zm5.6-72.5l.02 67.6c-.12.04-16.6-27.72-24.87-41.88l24.85-25.72zm.03 77.3l.01 63.95-24.82-25.2 24.8-38.75z"/></g><defs ><path id="B" d="M321.75 65.26c0 12.22-9.98 22.08-22.33 22.08-12.74 0-22.85-9.73-22.85-22 0-6.2 2.5-11.97 7.17-16.38 4.1-3.84 9.66-5.95 15.93-5.95 12.6-.01 22.08 9.52 22.08 22.26zm-34.62-.07c0 7.04 5.3 12.54 12.1 12.54 6.66 0 12.03-5.5 12.03-12.35 0-7.3-5.12-12.8-11.97-12.8-6.97.01-12.15 5.38-12.15 12.6z"/><path id="C" d="M289.5 123.65c0 3.2.45 5.18 1.47 6.66 1.1 1.47 3.07 2.43 5.25 2.43 2.37 0 4.6-1.15 5.57-2.82.77-1.4 1.1-3.2 1.1-6.27V98.82h10.37v24.38c0 6.27-1.47 11-4.42 14.2-2.88 3.14-7.42 4.93-12.54 4.93-5.3 0-10.1-1.92-13.18-5.3-2.75-3.07-3.97-7.17-3.97-13.82v-24.4h10.37v24.83z"/><path id="D" d="M511.83 128.58c-.06.26-.06.58-.06.7 0 2.1 2.3 3.9 5.06 3.9 2.5 0 4.42-1.47 4.42-3.4 0-1.98-1.15-2.88-6.14-4.67-9.34-3.33-13-7.23-13-13.76 0-8 5.9-13.38 14.78-13.38 5.76 0 10.5 2.43 13 6.6 1.22 1.98 1.8 3.84 2.24 6.85h-10.56c-.32-2.94-1.8-4.3-4.74-4.3-2.56 0-4.22 1.34-4.22 3.4 0 1.28.64 2.3 1.98 3.07.77.5 1.6.9 4.86 2.1 4.86 1.86 7.17 3.07 9.1 4.8 2.37 2.18 3.58 5.12 3.58 8.58 0 7.94-6.14 13.25-15.3 13.25-9.34 0-15.17-5.3-15.17-13.76h10.17z"/></defs></svg>