<?xml version="1.0" encoding="utf-8"?>
<!-- Generator: Adobe Illustrator 23.0.3, SVG Export Plug-In . SVG Version: 6.00 Build 0)  -->
<svg version="1.1" xmlns="http://www.w3.org/2000/svg" xmlns:xlink="http://www.w3.org/1999/xlink" x="0px" y="0px"
	 viewBox="0 0 812.83 239.13" style="enable-background:new 0 0 812.83 239.13;" xml:space="preserve">
<style type="text/css">
	.st0{display:none;}
	.st1{display:inline;}
	.st2{fill:#231F20;}
	.st3{fill:#F7941D;}
	.st4{fill:#FFFFFF;}
</style>
<g id="Layer_4" class="st0">
	<g id="Layer_3" class="st1">
		<rect x="-22.98" y="-75.05" class="st2" width="1874.3" height="419.36"/>
	</g>
</g>
<g id="LOGO_GTS">
	<g id="CIRCLE">
		<circle class="st3" cx="109.62" cy="119.78" r="101.39"/>
	</g>
	<g>
		<path class="st4" d="M309.48,79.09c0.08,1.09,0.08,2.44,0.08,2.94c0,9.24-3.02,16.38-9.24,22.18c-5.63,5.04-12.94,7.9-20.58,7.9
			c-16.63,0-29.32-12.52-29.32-28.98c0-16.63,12.6-29.23,29.15-29.23c9.41,0,17.89,4.03,23.6,11.09l-10.33,7.98
			c-3.61-4.45-7.56-6.47-12.85-6.47c-8.99,0-15.79,7.14-15.79,16.72c0,9.24,7.22,16.55,16.38,16.55c6.47,0,11.76-3.7,14.03-9.66
			h-13.78v-11H309.48z"/>
		<path class="st4" d="M330.9,111.01h-13.61V54.99h18.14c7.39,0,12.77,1.34,16.46,4.2c3.86,3.02,6.05,8.06,6.05,14.2
			c0,8.48-3.61,14.2-10.84,17.05l12.35,20.58h-16.3L330.9,89.34V111.01z M335.27,81.7c5.63,0,8.9-2.86,8.9-7.73
			c0-4.7-3.19-7.81-8.06-7.81h-5.21V81.7H335.27z"/>
		<path class="st4" d="M380.63,77.41h18.48v11h-18.48v11.59h18.48v11h-32.09V54.99h32.09v11h-18.48V77.41z"/>
		<path class="st4" d="M421.12,102.95l-2.44,8.06h-14.53l18.48-56.03h17.3l18.4,56.03h-14.95l-2.44-8.06H421.12z M431.03,71.03
			l-6.55,20.92h13.1L431.03,71.03z"/>
		<path class="st4" d="M482.27,111.01h-13.61V65.99h-12.94v-11h39.4v11h-12.85V111.01z"/>
		<path class="st4" d="M547.7,111.01h-13.61V65.99h-12.94v-11h39.4v11H547.7V111.01z"/>
		<path class="st4" d="M580.04,111.01h-13.61V54.99h13.61v22.93h18.4V54.99h13.61v56.03h-13.61V88.92h-18.4V111.01z"/>
		<path class="st4" d="M638,111.01h-13.61V54.99H638V111.01z"/>
		<path class="st4" d="M662.7,111.01h-13.61V54.99h13.61l20.41,31.5v-31.5h13.61v56.03h-13.61L662.7,79.09V111.01z"/>
		<path class="st4" d="M765.01,79.09c0.08,1.09,0.08,2.44,0.08,2.94c0,9.24-3.02,16.38-9.24,22.18c-5.63,5.04-12.94,7.9-20.58,7.9
			c-16.63,0-29.32-12.52-29.32-28.98c0-16.63,12.6-29.23,29.15-29.23c9.41,0,17.89,4.03,23.6,11.09l-10.33,7.98
			c-3.61-4.45-7.56-6.47-12.85-6.47c-8.99,0-15.79,7.14-15.79,16.72c0,9.24,7.22,16.55,16.38,16.55c6.47,0,11.76-3.7,14.03-9.66
			h-13.78v-11H765.01z"/>
		<path class="st4" d="M783.32,94.05c-0.08,0.34-0.08,0.76-0.08,0.92c0,2.77,3.02,5.12,6.64,5.12c3.28,0,5.8-1.93,5.8-4.45
			c0-2.6-1.51-3.78-8.06-6.13c-12.26-4.37-17.05-9.49-17.05-18.06c0-10.5,7.73-17.56,19.4-17.56c7.56,0,13.78,3.19,17.05,8.65
			c1.6,2.6,2.35,5.04,2.94,8.99h-13.86c-0.42-3.86-2.35-5.63-6.22-5.63c-3.36,0-5.54,1.76-5.54,4.45c0,1.68,0.84,3.02,2.6,4.03
			c1.01,0.67,2.1,1.18,6.38,2.77c6.38,2.44,9.41,4.03,11.93,6.3c3.11,2.86,4.7,6.72,4.7,11.26c0,10.42-8.06,17.39-20.08,17.39
			c-12.26,0-19.91-6.97-19.91-18.06H783.32z"/>
		<path class="st4" d="M263.2,174.05c-0.08,0.34-0.08,0.76-0.08,0.92c0,2.77,3.02,5.12,6.64,5.12c3.28,0,5.8-1.93,5.8-4.45
			c0-2.6-1.51-3.78-8.06-6.13c-12.26-4.37-17.05-9.49-17.05-18.06c0-10.5,7.73-17.56,19.4-17.56c7.56,0,13.78,3.19,17.05,8.65
			c1.6,2.6,2.35,5.04,2.94,8.99h-13.86c-0.42-3.86-2.35-5.63-6.22-5.63c-3.36,0-5.54,1.76-5.54,4.45c0,1.68,0.84,3.02,2.6,4.03
			c1.01,0.67,2.1,1.18,6.38,2.77c6.38,2.44,9.41,4.03,11.93,6.3c3.11,2.86,4.7,6.72,4.7,11.26c0,10.42-8.06,17.39-20.08,17.39
			c-12.26,0-19.91-6.97-19.91-18.06H263.2z"/>
		<path class="st4" d="M320.23,191.01h-13.61v-45.02h-12.94v-11h39.4v11h-12.85V191.01z"/>
		<path class="st4" d="M352.15,167.58c0,4.2,0.59,6.8,1.93,8.74c1.43,1.93,4.03,3.19,6.89,3.19c3.11,0,6.05-1.51,7.31-3.7
			c1.01-1.85,1.43-4.2,1.43-8.23v-32.59h13.61v32c0,8.23-1.93,14.45-5.8,18.65c-3.78,4.12-9.74,6.47-16.46,6.47
			c-6.97,0-13.27-2.52-17.3-6.97c-3.61-4.03-5.21-9.41-5.21-18.14v-32h13.61V167.58z"/>
		<path class="st4" d="M393.56,134.99h16.38c9.66,0,15.62,1.76,20.75,6.13c5.96,5.04,9.16,12.6,9.16,21.34
			c0,8.82-3.28,16.97-8.9,22.09c-4.62,4.2-11.42,6.47-19.49,6.47h-17.89V134.99z M407.17,179.84h2.1c9.91,0,16.8-6.89,16.8-16.97
			c0-4.96-2.02-10.08-5.12-12.94c-2.69-2.44-7.06-4.03-11.17-4.03h-2.6V179.84z"/>
		<path class="st4" d="M462.02,191.01h-13.61v-56.03h13.61V191.01z"/>
		<path class="st4" d="M529.98,163.13c0,16.04-13.1,28.98-29.32,28.98c-16.72,0-29.99-12.77-29.99-28.9c0-8.15,3.28-15.71,9.41-21.5
			c5.38-5.04,12.68-7.81,20.92-7.81C517.55,133.89,529.98,146.41,529.98,163.13z M484.53,163.04c0,9.24,6.97,16.46,15.88,16.46
			c8.74,0,15.79-7.22,15.79-16.21c0-9.58-6.72-16.8-15.71-16.8C491.34,146.49,484.53,153.55,484.53,163.04z"/>
		<path class="st4" d="M549.38,174.05c-0.08,0.34-0.08,0.76-0.08,0.92c0,2.77,3.02,5.12,6.64,5.12c3.28,0,5.8-1.93,5.8-4.45
			c0-2.6-1.51-3.78-8.06-6.13c-12.26-4.37-17.05-9.49-17.05-18.06c0-10.5,7.73-17.56,19.4-17.56c7.56,0,13.78,3.19,17.05,8.65
			c1.6,2.6,2.35,5.04,2.94,8.99h-13.86c-0.42-3.86-2.35-5.63-6.22-5.63c-3.36,0-5.54,1.76-5.54,4.45c0,1.68,0.84,3.02,2.6,4.03
			c1.01,0.67,2.1,1.18,6.38,2.77c6.38,2.44,9.41,4.03,11.93,6.3c3.11,2.86,4.7,6.72,4.7,11.26c0,10.42-8.06,17.39-20.08,17.39
			c-12.26,0-19.91-6.97-19.91-18.06H549.38z"/>
	</g>
	<circle class="st3" cx="955.94" cy="119.78" r="101.39"/>
	<g id="DIAMOND_2_">
		<path class="st4" d="M1017.64,120.82c-27.73,14.11-55.11,28.05-82.78,42.14c0-27.74-0.01-55.14-0.01-82.96
			C962.52,93.64,989.9,107.14,1017.64,120.82z"/>
		<path class="st4" d="M934.85,75.13c0-8.43,0-16.76,0-25.62c24.08,20.36,71.22,60.58,71.15,60.7
			C982.35,98.55,958.69,86.89,934.85,75.13z"/>
		<path class="st4" d="M934.88,192.1c-0.01-8.29-0.01-16.15-0.02-24.23c23.45-11.94,46.96-23.92,70.46-35.89
			C1005.4,132.09,958.68,171.96,934.88,192.1z"/>
		<path class="st4" d="M927.82,122.74c-11.39,13.56-18.8,20.21-31.74,36.21c0-25.16-0.01-49.8-0.01-74.44
			C896.2,84.48,916.73,110.2,927.82,122.74z"/>
		<path class="st4" d="M930.41,50.22c0.01,22.92,0.01,45.26,0.02,67.6c-0.12,0.04,0,0-32.59-37.97
			C905.99,71.42,921.85,59.09,930.41,50.22z"/>
		<path class="st4" d="M930.44,127.52c0,21.11,0,42.22,0,63.95c-32.56-27.03,0,0-32.56-27.03
			C928.44,127.52,930.31,127.48,930.44,127.52z"/>
		<path class="st4" d="M897.88,164.43c32.56-36.91,32.43-36.95,32.56-36.91c0,21.11,0,42.22,0,63.95"/>
	</g>
	<text transform="matrix(1 0 0 1 1071.8937 111.0135)"><tspan x="0" y="0" class="st4" style="font-family:'Montserrat-Bold'; font-size:72px;">Great Things</tspan><tspan x="0" y="72" class="st4" style="font-family:'Montserrat-Bold'; font-size:72px;">Studios</tspan></text>
	<g id="DIAMOND_PLAY_2_">
		<path class="st4" d="M171.27,119.15c-27.73,14.12-55.1,28.05-82.78,42.14c-0.01-27.74-0.01-55.14-0.02-82.96
			C116.15,91.97,143.52,105.47,171.27,119.15z"/>
		<path class="st4" d="M88.47,70.47c0-8.43,0-16.76,0-25.62c24.08,20.36,71.22,60.57,71.16,60.69
			C135.97,93.88,112.32,82.22,88.47,70.47z"/>
		<path class="st4" d="M88.51,193.43c-0.01-8.29-0.01-16.15-0.02-24.23c23.45-11.94,46.96-23.92,70.46-35.89
			C159.03,133.42,112.31,173.29,88.51,193.43z"/>
		<path class="st4" d="M76.45,121.07c-7.55,12.02-15,23.88-22.74,36.21c0-25.16-0.01-49.8-0.01-74.44
			C53.83,82.81,69.01,108.31,76.45,121.07z"/>
		<path class="st4" d="M82.04,48.56c0.01,22.92,0.02,45.26,0.02,67.6c-0.12,0.04-16.61-27.72-24.87-41.88
			C65.34,65.85,73.48,57.42,82.04,48.56z"/>
		<path class="st4" d="M82.07,125.85c0,21.11,0,42.22,0.01,63.95c-8.51-8.64-16.62-16.87-24.82-25.2
			C65.47,151.52,81.94,125.81,82.07,125.85z"/>
	</g>
</g>
</svg>
