<svg id="LOGO_GTS" data-name="LOGO GTS" xmlns="http://www.w3.org/2000/svg" viewBox="0 0 146.7 145.3"><defs><style>.cls-1{fill:#fff;}</style></defs><title>CoopGTS-diamond-white</title><path class="cls-1" d="M357.2,328.3l50.2-106.1,64.1,82.9Z" transform="translate(-357.2 -190.3)"/><path class="cls-1" d="M475.2,310c6.6,8.4,13,16.8,19.8,25.6-39.8-1.7-117.9-5.5-118-5.7Z" transform="translate(-357.2 -190.3)"/><path class="cls-1" d="M384.9,193.1l18.7,24.2q-21.3,45.1-42.7,90.3C360.7,307.5,376.7,231.6,384.9,193.1Z" transform="translate(-357.2 -190.3)"/><path class="cls-1" d="M445.5,257c-1.7-17.9-3.4-35.5-5.2-53.8l57.5,74.5C497.7,277.8,462.8,264,445.5,257Z" transform="translate(-357.2 -190.3)"/><path class="cls-1" d="M498.9,331.5l-52.2-67.6c.1-.1,38,14.9,57.2,22.7C502.3,301.3,500.6,316,498.9,331.5Z" transform="translate(-357.2 -190.3)"/><path class="cls-1" d="M439.2,254.2l-49.4-63.9,44.3,6C436,215.8,439.4,254.2,439.2,254.2Z" transform="translate(-357.2 -190.3)"/></svg>