<?xml version="1.0" ?><svg data-name="Layer 1" id="Layer_1" viewBox="0 0 32 32" xmlns="http://www.w3.org/2000/svg"><title/><path d="M14,19.5v2a1.5,1.5,0,0,0,3,0v-2A1.5,1.5,0,0,0,14,19.5Zm2,0v2a0.5,0.5,0,0,1-1,0v-2A0.5,0.5,0,0,1,16,19.5Z"/><path d="M22,9.5a6.5,6.5,0,1,0-10.95,4.73L12,27c0,1,1.77,2,3.5,2S19,28,19,27l0.95-12.81A6.48,6.48,0,0,0,22,9.5ZM15.5,4A5.35,5.35,0,0,1,21,9H10A5.35,5.35,0,0,1,15.5,4ZM10,10H21a5.35,5.35,0,0,1-5.47,5A5.35,5.35,0,0,1,10,10Zm8,17a3.08,3.08,0,0,1-2.5,1A3,3,0,0,1,13,27L12.12,15a6.44,6.44,0,0,0,6.77,0Z"/></svg>