<svg xmlns="http://www.w3.org/2000/svg" xmlns:xlink="http://www.w3.org/1999/xlink" viewBox="0 0 178 183.3"><style><![CDATA[.By{enable-background:new}.Bz{fill:#3c5185}.CA{opacity:.5}.CB{opacity:.3}.CC{fill:#fff}.CD{fill-opacity:0}.CE{opacity:.098}.CF{opacity:.902}.CG{fill:#5d7dbe}.CH{fill:#f2b1b5}.CI{fill:#7ea7df}.CJ{opacity:.43}.CK{opacity:.83}.CL{fill:#63749d}.CM{fill:#e3edf7}.CN{fill:#d1e1f2}.CO{opacity:.02}.CP{opacity:.04}.CQ{opacity:.06}.CR{opacity:.078}.CS{opacity:.118}.CT{opacity:.137}.CU{opacity:.157}.CV{opacity:.177}.CW{opacity:.196}.CX{opacity:.216}.CY{opacity:.235}.CZ{opacity:.255}.Ca{opacity:.275}.Cb{opacity:.294}.Cc{opacity:.314}.Cd{opacity:.333}.Ce{opacity:.353}.Cf{opacity:.373}.Cg{opacity:.392}.Ch{opacity:.412}.Ci{opacity:.45}.Cj{opacity:.47}.Ck{opacity:.53}.Cl{opacity:.55}.Cm{opacity:.57}.Cn{opacity:.588}.Co{opacity:.608}.Cp{opacity:.628}.Cq{opacity:.647}.Cr{opacity:.667}.Cs{opacity:.686}.Ct{opacity:.706}.Cu{opacity:.726}.Cv{opacity:.745}.Cw{opacity:.765}.Cx{opacity:.784}.Cy{opacity:.804}.Cz{opacity:.824}.DA{opacity:.843}.DB{opacity:.863}.DC{opacity:.882}.DD{opacity:.922}.DE{opacity:.94}.DF{opacity:.96}.DG{opacity:.98}.DH{fill:#dbeaf9}.DI{opacity:.024}.DJ{opacity:.073}.DK{opacity:.122}.DL{opacity:.146}.DM{opacity:.195}.DN{opacity:.244}.DO{opacity:.268}.DP{opacity:.293}.DQ{opacity:.317}.DR{opacity:.342}.DS{opacity:.366}.DT{opacity:.415}.DU{opacity:.463}.DV{opacity:.488}.DW{opacity:.512}.DX{opacity:.537}.DY{opacity:.585}.DZ{opacity:.634}.Da{opacity:.683}.Db{opacity:.707}.Dc{opacity:.732}.Dd{opacity:.756}.De{opacity:.805}.Df{opacity:.854}.Dg{opacity:.878}.Dh{opacity:.927}.Di{opacity:.976}.Dj{fill:#231f20}]]></style><linearGradient id="A" gradientUnits="userSpaceOnUse" x1="114.857" y1="179.256" x2="62.522" y2="8.598"><stop offset=".122" stop-color="#fff"/><stop offset="1" stop-color="#e1ebf7"/></linearGradient><path d="M174 99.1c0 42.4-41.9 80.9-84.4 80.9S7.7 141.6 7.7 99.1 23 10.3 65.4 10.3 174 56.7 174 99.1z" fill="url(#A)"/><g class="Bz CB"><path d="M63.3 59L44.9 69.4l81.1 47.8 18.3-11.4z" class="CD"/><path d="M63.3 59l-18 10.2 81 47.8 18-11.2z" class="By DI"/><path d="M63.3 59L45.6 69l81 47.8 17.7-11z" opacity=".05" class="By"/><path d="M63.3 59L46 68.8l80.9 47.8 17.4-10.8z" class="By DJ"/><path d="M63.3 59l-17 9.6 81 47.8 17-10.6z" class="By CE"/><path d="M63.3 59l-16.6 9.4 80.9 47.8 16.7-10.4z" class="By DK"/><path d="M63.3 59l-16.2 9.2 80.8 47.8 16.4-10.2z" class="By DL"/><path d="M63.3 59l-15.9 9 80.9 47.8 16-10z" opacity=".17" class="By"/><path d="M63.3 59l-15.5 8.8 80.8 47.8 15.7-9.8z" class="By DM"/><path d="M63.3 59l-15.2 8.6 80.8 47.8 15.4-9.6z" opacity=".22" class="By"/><path d="M63.3 59l-14.8 8.4 80.8 47.8 15-9.4z" class="By DN"/><path d="M63.3 59l-14.5 8.2 80.8 47.8 14.7-9.2z" class="By DO"/><path d="M63.3 59l-14.1 8 80.7 47.8 14.4-9z" class="By DP"/><path d="M63.3 59l-13.8 7.8 80.8 47.8 14-8.8z" class="By DQ"/><path d="M63.3 59l-13.4 7.6 80.7 47.8 13.7-8.6z" class="By DR"/><path d="M63.3 59l-13.1 7.4 80.7 47.8 13.4-8.4z" class="By DS"/><path d="M63.3 59l-12.7 7.2 80.6 47.8 13.1-8.2z" opacity=".4" class="By"/><path d="M63.3 59l-12.4 7 80.7 47.8 12.7-8z" class="By DT"/><path d="M63.3 59l-12 6.8 80.6 47.7 12.4-7.7z" opacity=".44" class="By"/><path d="M63.3 59l-11.7 6.6 80.6 47.7 12.1-7.5z" class="By DU"/><path d="M63.3 59L52 65.4l80.6 47.7 11.7-7.3z" class="By DV"/><path d="M63.3 59l-11 6.2 80.6 47.7 11.4-7.1z" class="By DW"/><path d="M63.3 59l-10.6 6 80.5 47.7 11.1-6.9z" class="By DX"/><path d="M63.3 59L53 64.8l80.6 47.7 10.7-6.7z" opacity=".56" class="By"/><path d="M63.3 59l-9.9 5.6 80.5 47.7 10.4-6.5z" class="By DY"/><path d="M63.3 59l-9.6 5.4 80.5 47.7 10.1-6.3z" opacity=".6" class="By"/><path d="M63.3 59l-9.2 5.2 80.5 47.7 9.7-6.1z" class="By DZ"/><path d="M63.3 59l-8.9 5 80.5 47.7 9.4-5.9z" opacity=".66" class="By"/><path d="M63.3 59l-8.5 4.8 80.4 47.7 9.1-5.7z" class="By Da"/><path d="M63.3 59l-8.2 4.6 80.4 47.7 8.8-5.5z" class="By Db"/><path d="M63.3 59l-7.8 4.4 80.4 47.7 8.4-5.3z" class="By Dc"/><path d="M63.3 59l-7.5 4.2 80.4 47.7 8.1-5.1z" class="By Dd"/><path d="M63.3 59l-7.1 4 80.3 47.7 7.8-4.9z" opacity=".78" class="By"/><path d="M63.3 59l-6.8 3.8 80.4 47.7 7.4-4.7z" class="By De"/><path d="M63.3 59l-6.4 3.6 80.3 47.7 7.1-4.5z" class="By CK"/><path d="M63.3 59l-6 3.4 80.2 47.7 6.8-4.3z" class="By Df"/><path d="M63.3 59l-5.7 3.2 80.3 47.7 6.4-4.1z" class="By Dg"/><path d="M63.3 59L58 62l80.2 47.7 6.1-3.9z" class="By CF"/><path d="M63.3 59l-5 2.8 80.2 47.7 5.8-3.7z" class="By Dh"/><path d="M63.3 59l-4.6 2.6 80.2 47.7 5.4-3.5z" opacity=".95" class="By"/><path d="M63.3 59L59 61.4l80.2 47.7 5.1-3.3z" class="By Di"/><path d="M63.3 59l-3.9 2.2 80.1 47.7 4.8-3.1z"/></g><g class="Bz CB"><path d="M13.6 84.9L9.8 87l16.8 10 3.8-2.4z" class="CD"/><path d="M13.6 84.9l-5.4 2.9 16.9 9.9 5.3-3.1z" class="By DI"/><path d="M13.6 84.9l-3.7 2 16.9 10 3.6-2.3z" opacity=".05" class="By"/><path d="M13.6 84.9l-3.6 2 16.8 9.9 3.6-2.2z" class="By DJ"/><path d="M13.6 84.9l-3.5 2 16.8 9.9 3.5-2.2z" class="By CE"/><path d="M13.6 84.9l-3.4 1.9L27 96.7l3.4-2.1z" class="By DK"/><path d="M13.6 84.9l-3.4 1.9L27 96.7l3.4-2.1z" class="By DL"/><path d="M13.6 84.9l-3.3 1.8 16.8 10 3.3-2.1z" opacity=".17" class="By"/><path d="M13.6 84.9l-3.2 1.8 16.8 9.9 3.2-2z" class="By DM"/><path d="M13.6 84.9l-3.1 1.8 16.7 9.9 3.2-2z" opacity=".22" class="By"/><path d="M13.6 84.9l-3.1 1.7 16.8 9.9 3.1-1.9z" class="By DN"/><path d="M13.6 84.9l-3 1.7 16.8 9.9 3-1.9z" class="By DO"/><path d="M13.6 84.9l-2.9 1.6 16.7 10 3-1.9z" class="By DP"/><path d="M13.6 84.9l-2.8 1.6 16.7 9.9 2.9-1.8z" class="By DQ"/><path d="M13.6 84.9l-2.8 1.6 16.8 9.9 2.8-1.8z" class="By DR"/><path d="M13.6 84.9l-2.7 1.5 16.8 9.9 2.7-1.7z" class="By DS"/><path d="M13.6 84.9L11 86.4l16.7 9.9 2.7-1.7z" opacity=".4" class="By"/><path d="M13.6 84.9L11 86.3l16.8 9.9 2.6-1.6z" class="By DT"/><path d="M13.6 84.9l-2.5 1.4 16.8 9.9 2.5-1.6z" opacity=".44" class="By"/><path d="M13.6 84.9l-2.4 1.3 16.7 10 2.5-1.6z" class="By DU"/><path d="M13.6 84.9l-2.3 1.3L28 96.1l2.4-1.5z" class="By DV"/><path d="M13.6 84.9l-2.3 1.3 16.8 9.9 2.3-1.5z" class="By DW"/><path d="M13.6 84.9l-2.2 1.2L28.1 96l2.3-1.4z" class="By DX"/><path d="M13.6 84.9l-2.1 1.2L28.2 96l2.2-1.4z" opacity=".56" class="By"/><path d="M13.6 84.9l-2 1.1 16.7 9.9 2.1-1.3z" class="By DY"/><path d="M13.6 84.9l-2 1.1 16.7 9.9 2.1-1.3z" opacity=".6" class="By"/><path d="M13.6 84.9L11.7 86l16.7 9.9 2-1.3z" class="By DZ"/><path d="M13.6 84.9l-1.8 1 16.7 9.9 1.9-1.2z" opacity=".66" class="By"/><path d="M13.6 84.9l-1.8 1 16.7 9.9 1.9-1.2z" class="By Da"/><path d="M13.6 84.9l-1.7.9 16.7 9.9 1.8-1.1z" class="By Db"/><path d="M13.6 84.9l-1.6.9 16.7 9.9 1.7-1.1z" class="By Dc"/><path d="M13.6 84.9l-1.5.8 16.7 9.9 1.6-1z" class="By Dd"/><path d="M13.6 84.9l-1.5.8 16.7 9.9 1.6-1z" opacity=".78" class="By"/><path d="M13.6 84.9l-1.4.8 16.7 9.9 1.5-1z" class="By De"/><path d="M13.6 84.9l-1.3.7L29 95.5l1.4-.9z" class="By CK"/><path d="M13.6 84.9l-1.2.7L29 95.5l1.4-.9z" class="By Df"/><path d="M13.6 84.9l-1.2.6 16.7 9.9 1.3-.8z" class="By Dg"/><path d="M13.6 84.9l-1.1.6 16.7 9.9 1.2-.8z" class="By CF"/><path d="M13.6 84.9l-1 .6 16.6 9.9 1.2-.8z" class="By Dh"/><path d="M13.6 84.9l-.9.5 16.6 9.9 1.1-.7z" opacity=".95" class="By"/><path d="M13.6 84.9l-.9.5 16.7 9.9 1-.7z" class="By Di"/><path d="M13.6 84.9l-.8.4 16.6 9.9 1-.6z"/></g><g class="Bz CB"><path d="M89.4 131.4l-10.7 6.1 47.4 27.9 10.7-6.7z" class="CD"/><path d="M89.4 131.4l-10.5 6 47.4 27.9 10.5-6.6z" class="By DI"/><path d="M89.4 131.4l-10.3 5.8 47.3 28 10.4-6.5z" opacity=".05" class="By"/><path d="M89.4 131.4l-10.1 5.7 47.3 28 10.2-6.4z" class="By DJ"/><path d="M89.4 131.4l-9.9 5.6 47.3 28 10-6.3z" class="By CE"/><path d="M89.4 131.4l-9.7 5.5 47.3 27.9 9.8-6.1z" class="By DK"/><path d="M89.4 131.4l-9.5 5.4 47.3 27.9 9.6-6z" class="By DL"/><path d="M89.4 131.4l-9.3 5.3 47.3 27.9 9.4-5.9z" opacity=".17" class="By"/><path d="M89.4 131.4l-9.1 5.1 47.3 28 9.2-5.8z" class="By DM"/><path d="M89.4 131.4l-8.9 5 47.3 28 9-5.7z" opacity=".22" class="By"/><path d="M89.4 131.4l-8.7 4.9 47.3 28 8.8-5.6z" class="By DN"/><path d="M89.4 131.4l-8.5 4.8 47.3 27.9 8.6-5.4z" class="By DO"/><path d="M89.4 131.4l-8.3 4.7 47.3 27.9 8.4-5.3z" class="By DP"/><path d="M89.4 131.4l-8 4.6 47.2 27.9 8.2-5.2z" class="By DQ"/><path d="M89.4 131.4l-7.8 4.4 47.2 28 8-5.1z" class="By DR"/><path d="M89.4 131.4l-7.6 4.3 47.2 28 7.8-5z" class="By DS"/><path d="M89.4 131.4l-7.4 4.2 47.2 27.9 7.6-4.8z" opacity=".4" class="By"/><path d="M89.4 131.4l-7.2 4.1 47.1 27.9 7.5-4.7z" class="By DT"/><path d="M89.4 131.4l-7 4 47.1 27.9 7.3-4.6z" opacity=".44" class="By"/><path d="M89.4 131.4l-6.8 3.9 47.1 27.9 7.1-4.5z" class="By DU"/><path d="M89.4 131.4l-6.6 3.7 47.1 28 6.9-4.4z" class="By DV"/><path d="M89.4 131.4L83 135l47.1 27.9 6.7-4.2z" class="By DW"/><path d="M89.4 131.4l-6.2 3.5 47.1 27.9 6.5-4.1z" class="By DX"/><path d="M89.4 131.4l-6 3.4 47.1 27.9 6.3-4z" opacity=".56" class="By"/><path d="M89.4 131.4l-5.8 3.3 47.1 27.9 6.1-3.9z" class="By DY"/><path d="M89.4 131.4l-5.6 3.2 47.1 27.9 5.9-3.8z" opacity=".6" class="By"/><path d="M89.4 131.4l-5.4 3 47.1 27.9 5.7-3.6z" class="By DZ"/><path d="M89.4 131.4l-5.2 2.9 47.1 27.9 5.5-3.5z" opacity=".66" class="By"/><path d="M89.4 131.4l-5 2.8 47.1 27.9 5.3-3.4z" class="By Da"/><path d="M89.4 131.4l-4.8 2.7 47.1 27.9 5.1-3.3z" class="By Db"/><path d="M89.4 131.4l-4.6 2.6 47.1 27.9 4.9-3.2z" class="By Dc"/><path d="M89.4 131.4l-4.3 2.5 47 27.9 4.7-3.1z" class="By Dd"/><path d="M89.4 131.4l-4.1 2.3 46.9 27.9 4.6-2.9z" opacity=".78" class="By"/><path d="M89.4 131.4l-3.9 2.2 46.9 27.9 4.4-2.8z" class="By De"/><path d="M89.4 131.4l-3.7 2.1 46.9 27.9 4.2-2.7z" class="By CK"/><path d="M89.4 131.4l-3.5 2 46.9 27.9 4-2.6z" class="By Df"/><path d="M89.4 131.4l-3.3 1.9 46.9 27.9 3.8-2.5z" class="By Dg"/><path d="M89.4 131.4l-3.1 1.7 46.9 27.9 3.6-2.3z" class="By CF"/><path d="M89.4 131.4l-2.9 1.6 46.9 27.9 3.4-2.2z" class="By Dh"/><path d="M89.4 131.4l-2.7 1.5 46.9 27.9 3.2-2.1z" opacity=".95" class="By"/><path d="M89.4 131.4l-2.5 1.4 46.9 27.9 3-2z" class="By Di"/><path d="M89.4 131.4l-2.3 1.3 46.9 27.9 2.8-1.9z"/></g><path d="M134.6 160l29.6-17.1v-.4l-42.5-23-22.4 19.9z" class="CL"/><path d="M134.6 159.6l29.6-17.1-42.5-23.4L99.3 139z" class="Bz"/><path d="M133.5 159.2l29.5-17.1.2-5.4-42.7-18.4-22.4 19.9z" class="CC"/><path d="M116.9 109.2l47.3 26.9v.4l-29.6 17.1-47.2-27.3z" class="CL"/><path d="M116.9 108.8l47.3 27.3-29.6 17.1-47.2-27.3z" class="Bz"/><path d="M123.1 115.2l13.3 7.6-23.8 13.7-13.3-7.6z" class="CC"/><path d="M87.8 126.1v6.6l46.8 27.3.4-.2v-6.4z" class="CL"/><path d="M87.4 125.9v6.6l47.2 27.5v-6.8z" class="Bz"/><path d="M134.6 153.1l24.9-14.3v-.3l-35.8-19.4-18.8 16.8z" class="CM"/><path d="M134.6 152.8l24.9-14.3-35.8-19.7-18.8 16.7z" class="CN"/><path d="M133.6 152.5l24.9-14.4.1-4.5-35.9-15.5-18.8 16.8z" class="CC"/><path d="M119.7 110.5l39.8 22.6v.3l-24.9 14.3-39.7-22.9z" class="CM"/><path d="M119.7 110.1l39.8 23-24.9 14.3-39.7-22.9z" class="CN"/><path d="M124.9 115.5l11.2 6.4-20 11.5-11.2-6.4z" class="CC"/><path d="M95.3 124.6v5.6l39.3 22.9.4-.2v-5.3z" class="CM"/><path d="M94.9 124.5v5.5l39.7 23.1v-5.7z" fill="#dae7f5"/><linearGradient id="B" gradientUnits="userSpaceOnUse" x1="57.695" y1="23.612" x2="156.843" y2="97.493"><stop offset=".038" stop-color="#a5cbef"/><stop offset=".189" stop-color="#b0d1f1"/><stop offset=".453" stop-color="#cee3f6"/><stop offset=".665" stop-color="#eaf3fb"/><stop offset=".856" stop-color="#c0dbf4"/><stop offset="1" stop-color="#a5cbef"/></linearGradient><path d="M63 61l77.5 47.4 4.6-2.7c.9-.5 1.4-1.5 1.4-2.5V59.1c0-2-1.1-3.8-2.8-4.8L66 9.3a3.19 3.19 0 0 0-3 0L58.5 12l1.6 44.2A5.91 5.91 0 0 0 63 61z" fill="url(#B)"/><path d="M59.9 63.2l77.5 44.8c2.7 1.5 6-.4 6-3.5V61.2c0-2-1.1-3.8-2.8-4.8L63.1 11.7c-2.7-1.5-6 .4-6 3.5v43.2c0 2 1.1 3.8 2.8 4.8z" class="CC"/><path d="M139.4 105.4c-.2 0-.3 0-.4-.1L61.5 60.5c-.8-.4-1.2-1.2-1.2-2.1V15.2c0-.6.5-.9.9-.9.2 0 .3 0 .4.1l77.5 44.7c.8.4 1.2 1.2 1.2 2.1v7.6c0 .7-.3 1.3-.8 1.8L138 72c-.6.6-1 1.4-1 2.3v12.8c0 1.5.8 3 2 3.8.7.5 1.2 1.3 1.2 2.2v11.3c0 .3-.1.5-.3.6 0 .3-.3.4-.5.4zm.1-18.5a.65.65 0 0 1-.6-.6v-9.2a.65.65 0 0 1 .6-.6.65.65 0 0 1 .6.6v9.2a.65.65 0 0 1-.6.6z" fill="#a5cbef"/><linearGradient id="C" gradientUnits="userSpaceOnUse" x1="87.606" y1="62.609" x2="107.333" y2="62.609"><stop offset="0" stop-color="#3c5185"/><stop offset=".6" stop-color="#445c95"/><stop offset="1" stop-color="#4a65a3"/></linearGradient><path d="M97.4 51.2c-5.4-3.1-9.9-.6-9.9 5.7s4.4 14 9.9 17.1c5.4 3.1 9.9.6 9.9-5.7s-4.4-14-9.9-17.1z" fill="url(#C)"/><linearGradient id="D" gradientUnits="userSpaceOnUse" x1="86.32" y1="62.909" x2="106.047" y2="62.909"><stop offset="0" stop-color="#4a65a3"/><stop offset=".4" stop-color="#445c95"/><stop offset="1" stop-color="#3c5185"/></linearGradient><path d="M96.1 51.5c-5.4-3.1-9.9-.6-9.9 5.7s4.4 14 9.9 17.1c5.4 3.1 9.9.6 9.9-5.7s-4.4-14-9.9-17.1z" fill="url(#D)"/><linearGradient id="E" gradientUnits="userSpaceOnUse" x1="93.764" y1="62.574" x2="101.176" y2="62.574"><stop offset=".15" stop-color="#ff9800"/><stop offset="1" stop-color="#ffc107"/></linearGradient><path d="M100.7 66.2l-5.5.6c-.6.1-1.4-.8-1.4-1.5v-6.4c0-.7.8-.8 1.4-.1l5.5 5.8c.6.6.6 1.5 0 1.6l-5.5.6c-.6.1-1.4-.8-1.4-1.5v-6.4c0-.7.8-.8 1.4-.1l5.5 5.8c.6.6.6 1.5 0 1.6z" fill="url(#E)"/><path d="M85.2 110l-.6-.2c-1-.3-2.1-.1-2.9.5l-.6-.5-.6 1.5-3.1-.3.7 2.8c0 .2.2.3.4.4l1.3.4a3.23 3.23 0 0 0 3-.7l2.8-2.7c.2-.4.1-1.1-.4-1.2z" class="Bz"/><path d="M85.2 110l-.6-.2c-1-.3-2.1-.1-2.9.5l-.6-.5-.6 1.5-3.1-.3.4 1.4c.2.6.6 1.1 1.3 1.3l.5.2a3.23 3.23 0 0 0 3-.7l2.8-2.7c.1-.1.2-.2.2-.3-.2-.1-.3-.2-.4-.2z" class="CG"/><path d="M80.8 111c.7-.6.5-1.3-.4-1.6s-2.1.1-2.8.7-.5 1.3.4 1.6 2.1 0 2.8-.7z" fill="#f9f7f9"/><path d="M79.1 111.1c-.6 0-1-.5-1-1v-4c0-.6.5-1 1-1 .6 0 1 .5 1 1v4c0 .6-.5 1-1 1z" fill="#ef9ea3"/><linearGradient id="F" gradientUnits="userSpaceOnUse" x1="81.733" y1="96.159" x2="77.484" y2="96.159"><stop offset="0" stop-color="#a8d9fb"/><stop offset="1" stop-color="#fff"/></linearGradient><path d="M79.1 110.5c-.1 0-.1 0 0 0-1 0-1.7-.8-1.6-1.7l.4-9.7-.4-15.6c0-.9.7-1.6 1.6-1.7.9 0 2.7.7 2.7 1.6l-.6 15.8-.4 9.8c-.2.8-.9 1.5-1.7 1.5z" fill="url(#F)"/><path d="M89.5 113.9l-.5-.3c-.9-.5-2-.6-2.9-.2l-.5-.6-1 1.3-3-1v2.9c0 .2.1.4.3.4l1.2.7c1 .6 2.2.6 3.1 0l3.4-2c.4-.2.4-.9-.1-1.2z" class="Bz"/><path d="M89.5 113.9l-.5-.3c-.9-.5-2-.6-2.9-.2l-.5-.6-1 1.3-3-1v1.5c0 .7.3 1.3.9 1.6l.5.3c1 .6 2.2.6 3.1 0l3.4-2 .3-.3-.3-.3z" class="CG"/><path d="M85 113.9c.8-.5.8-1.2 0-1.6-.8-.5-2.1-.5-2.8 0-.8.5-.8 1.2 0 1.6.7.5 2 .5 2.8 0z" fill="#f9f7f9"/><path d="M83.6 113.8c-.6 0-1-.5-1-1v-4c0-.6.5-1 1-1 .6 0 1 .5 1 1v4a1.08 1.08 0 0 1-1 1z" fill="#ef9ea3"/><path d="M79.1 86.2a1.1 1.1 0 0 1-1-.6L76 81.9c-2.2-3.8-1.2-8.8 2.3-11.4l.6-.4c.5-.4 1.3-.3 1.7.2s.3 1.3-.2 1.7l-.6.4a6.53 6.53 0 0 0-1.7 8.4l2.1 3.7c.3.6.1 1.3-.4 1.6-.3 0-.5.1-.7.1z" class="CG"/><linearGradient id="G" gradientUnits="userSpaceOnUse" x1="86.102" y1="96.859" x2="77.484" y2="96.859"><stop offset="0" stop-color="#a8d9fb"/><stop offset="1" stop-color="#fff"/></linearGradient><path d="M77.6 87.5l-.1-4L84 81l-.1 3.6c.7.1 1.3.7 1.3 1.5l.9 14.2-.9 10.9c-.1.8-.8 1.5-1.6 1.5-.2 0-.3 0-.5-.1a1.63 1.63 0 0 1-1.1-1.7l.9-10.6-1.5-9.6-2.9-1.7c-.6-.3-.9-.9-.9-1.5z" fill="url(#G)"/><linearGradient id="H" gradientUnits="userSpaceOnUse" x1="86.102" y1="98.654" x2="83.381" y2="98.654"><stop offset="0" stop-color="#a8d9fb"/><stop offset="1" stop-color="#fff"/></linearGradient><path d="M85.2 86.1c-.1-.9-.8-1.6-1.7-1.5h-.1c.7.1 1.3.7 1.4 1.5l.9 14.2-.9 10.9c-.1.8-.7 1.4-1.4 1.5h.2c.8 0 1.5-.6 1.6-1.5l.9-10.9-.9-14.2z" fill="url(#H)"/><path d="M76.9 83.5l.2-1.5.2-3.2c.1.7.4 1.3.7 1.9l2.1 3.7c.3.6.1 1.3-.4 1.6-.2.1-.4.2-.6.2a1.1 1.1 0 0 1-1-.6l-1.2-2.1z" class="By CB Dj"/><path d="M77.1 64.3l5.1 2.9c2.3 1.3 3.6 3.7 3.6 6.3V88c-2.1 1.4-7.6-.6-8.7-2.8l.3-3.2c.2-1.3.2-2.5.2-3.8l-.5-13.9z" class="CG"/><g class="CH"><path d="M79.1 67.5v-6.9h6v1c0 3.2-2.7 5.9-6 5.9z"/><path d="M81.1 68.6c-.7 0-1.3-.6-1.3-1.2v-3.8h2.5v3.8c.1.7-.5 1.2-1.2 1.2z"/></g><path d="M85.9 76.7c-.2-.1-.6-.3-.7-.9l-.5-3.7c-.1-.6-.7-1.1-1.3-1s-.7.8-.6 1.4l.1 3.6c.2 1.4 1.1 2.4 2.4 2.8.2.1.4.1.6.1v-2.3z" class="By CB Dj"/><path d="M86.3 78.5c-.3 0-.7-.1-1-.2-1.3-.4-2.2-1.5-2.4-2.8l-.5-3.7c-.1-.6.4-1.2 1-1.3s1.2.4 1.3 1l.5 3.7c.1.6.6.8.7.9.2 0 .7.2 1.1-.3l3.4-3.9c.4-.5 1.2-.5 1.7-.1s.5 1.2.1 1.7l-3.4 3.9c-.6.7-1.6 1.1-2.5 1.1z" class="CG"/><g class="CH"><path d="M89.9 72.5l.6-.6c.4-.5 1.2-.5 1.7-.1s.5 1.2.1 1.7l-.7.8-1.7-1.8z"/><circle cx="91.9" cy="72.3" r="1.4"/><path d="M93.2 69.8l-1.8 1.9c-.1.1-.3.1-.4 0s-.1-.3 0-.4l1.8-1.9c.1-.1.3-.1.4 0s.1.3 0 .4z"/></g><path d="M85.5 59.3c-1-1.2-3.5-.9-4.8-.4-1.7.5-3.7 1.1-4 3.1-.1.5 0 1 0 1.5 0 1.2-.3 2.4-.8 3.4-.8 1.5-1.1 2.5-.3 4 .5.9.8 2.4 1.7 2.9 1 .6 3.1 1 4 .2 1.3-1 2-3.4 1.9-5-.1-1.7-1-3.4-.5-5 .3-1 1.7-2.1 2.4-2.8.8-.4 1.1-1.1.4-1.9z" class="Bz"/><path d="M85.5 59.3c-.6-.7-1.7-.9-2.8-.8.8 0 1.5.3 2 .8.7.8.3 1.4-.3 2.1-.8.7-2.1 1.8-2.4 2.8-.5 1.6.3 3.3.5 5 .1 1.6-.5 4-1.9 5-.3.2-.7.3-1.2.4.7.1 1.5 0 1.9-.4 1.3-1 2-3.4 1.9-5-.1-1.7-1-3.4-.5-5 .3-1 1.7-2.1 2.4-2.8.8-.6 1.1-1.3.4-2.1z" class="CL"/><linearGradient id="I" gradientUnits="userSpaceOnUse" x1="11.98" y1="80.459" x2="43.927" y2="80.459"><stop offset="0" stop-color="#3c5185"/><stop offset="1" stop-color="#4a65a3"/></linearGradient><path d="M11.9 75v10.3c0 1.1.6 2 1.5 2.6l11 6.3c2.2 1.2 4.8 1.2 6.9 0l11-6.3c.9-.5 1.5-1.5 1.5-2.5l.1-10.4-16-9.2-16 9.2z" fill="url(#I)"/><path d="M37.1 88.9v2l2.9-1.7-.1-1c0-.4-.2-.7-.4-.9v-7.9l-12.2-7.2-1 1.6 11.3 6.7v7.2a1.58 1.58 0 0 0-.5 1.2z" class="By CB Dj"/><path d="M27.9 59.7L4 72.8v.7l23.9 13.8 23.9-13.8v-.7z" fill="#4a65a3"/><path d="M27.9 59L4 72.8l23.9 13.8 23.9-13.8z" class="Bz"/><path d="M40.2 87.3v-7.9L28 72.2l-1 1.6 11.3 6.7v7.2c-.3.3-.5.7-.5 1.2v3.6l.4.2 2.8-1.6-.4-3c.1-.3-.1-.6-.4-.8z" fill="#ffda6a"/><linearGradient id="J" gradientUnits="userSpaceOnUse" x1="27.475" y1="82.409" x2="41.101" y2="82.409"><stop offset=".15" stop-color="#ff9800"/><stop offset="1" stop-color="#ffc107"/></linearGradient><path d="M40.6 87.1v-7.9L28.4 72l-1 1.6 11.3 6.7v7.2c-.3.3-.5.7-.5 1.2v4.1l2.8-1.6v-3.3c.1-.4-.1-.7-.4-.8z" fill="url(#J)"/><linearGradient id="K" gradientUnits="userSpaceOnUse" x1="25.099" y1="72.759" x2="30.726" y2="72.759"><stop offset=".15" stop-color="#ff9800"/><stop offset="1" stop-color="#ffc107"/></linearGradient><path d="M29.9 71.6c-1.1-.6-2.9-.6-4 0s-1.1 1.7 0 2.3 2.9.6 4 0 1.1-1.6 0-2.3z" fill="url(#K)"/><g class="Bz"><path d="M82.4 55.8l-.3.2H80l-.2-.2c-.7-.6-1.1-1.6-1.1-2.5v-1h5v.9c0 1-.5 1.9-1.3 2.6z"/><path d="M81.5 56.6h-.8a.68.68 0 0 1-.7-.7h2.3c-.1.4-.4.7-.8.7z"/></g><path d="M82.9 51.3c-1-.6-2.6-.6-3.5 0-1 .6-1 1.5 0 2 1 .6 2.6.6 3.5 0 1-.6 1-1.5 0-2z" fill="#2842a2"/><linearGradient id="L" gradientUnits="userSpaceOnUse" x1="76.602" y1="48.334" x2="85.774" y2="48.334"><stop offset=".021" stop-color="#ffc107"/><stop offset=".143" stop-color="#ffbc06"/><stop offset="1" stop-color="#ff9800"/></linearGradient><path d="M81.2 42.9c-2.5 0-4.6 2.1-4.6 4.6 0 1.6.8 3 2.1 3.8v1c0 .4.3.7.7 1 1 .6 2.6.6 3.5 0 .5-.3.7-.6.7-1v-1c1.3-.8 2.1-2.2 2.1-3.8 0-2.6-2-4.6-4.5-4.6z" fill="url(#L)" class="By CK"/><path d="M78.6 48c0-1.7 1.3-3 3-3 1.5 0 1.4-1.3-.5-1.3s-3.5 1.6-3.5 3.5c-.1 1.3 1 1.8 1 .8z" class="CC"/><path d="M82.9 53.7c-1 .6-2.6.6-3.5 0-.5-.3-.7-.6-.7-1v.3c0 .4.3.7.7 1 1 .6 2.6.6 3.5 0 .5-.3.7-.6.7-1v-.3c0 .4-.2.7-.7 1zm0 1c-1 .6-2.6.6-3.5 0-.3-.2-.5-.3-.6-.6.1.2.1.4.3.6l.3.3c1 .6 2.6.6 3.5 0 .1-.1.2-.1.3-.2.1-.2.2-.5.3-.7-.1.3-.3.4-.6.6z" class="CA By" fill="#6e84b5"/><linearGradient id="M" gradientUnits="userSpaceOnUse" x1="73.644" y1="42.059" x2="88.781" y2="42.059"><stop offset=".021" stop-color="#ffc107"/><stop offset=".143" stop-color="#ffbc06"/><stop offset="1" stop-color="#ff9800"/></linearGradient><path d="M81.1 42.5c-.2 0-.4-.2-.4-.4v-2.9c0-.2.2-.4.4-.4s.4.2.4.4v2.9c0 .2-.2.4-.4.4zm3.1.5l1.4-2.5c.1-.2 0-.4-.1-.5-.2-.1-.4 0-.5.1l-1.4 2.5c-.1.2 0 .4.1.5.1 0 .1.1.2.1s.2 0 .3-.2zm1.9 2.2l2.5-1.4c.2-.1.2-.3.1-.5s-.3-.2-.5-.1l-2.5 1.4c-.2.1-.2.3-.1.5.1.1.2.2.3.2 0-.1.1-.1.2-.1zm-9.3-.2c.1-.2 0-.4-.1-.5L74.2 43c-.2-.1-.4 0-.5.1-.1.2 0 .4.1.5l2.5 1.5c.1 0 .1.1.2.1s.2-.1.3-.2zm1.8-1.8c.2-.1.2-.3.1-.5l-1.4-2.5c-.1-.2-.3-.2-.5-.1s-.2.3-.1.5l1.4 2.5c.1.1.2.2.3.2.1-.1.2-.1.2-.1z" fill="url(#M)"/><path d="M143.8 54.2l-35.2-20.4v28c0 .8.6 1.9 1.3 2.3l6.1 3.5 30.6 17.6V59.1c0-2-1.1-3.9-2.8-4.9z" class="By CA CI"/><linearGradient id="N" gradientUnits="userSpaceOnUse" x1="111.536" y1="57.424" x2="162.336" y2="57.424"><stop offset="0" stop-color="#fff"/><stop offset=".243" stop-color="#eef5fc"/><stop offset=".723" stop-color="#c1dbf4"/><stop offset=".996" stop-color="#a5cbef"/></linearGradient><path d="M111.9 25.9c.7-.7 1.8-.8 2.6-.3L161 52.5c.7.4 1.3 1.5 1.3 2.3v33c0 .8-.5 1.5-1.3 1.7-.3.1-.6 0-.9-.1l-47.3-27.3c-.7-.4-1.3-1.5-1.3-2.3V26.7c0-.3.2-.6.4-.8z" fill="url(#N)"/><path d="M111.5 26.8c0-.8.6-1.2 1.3-.8L160 53.3c.7.4 1.3 1.5 1.3 2.3v33c0 .8-.6 1.2-1.3.8l-47.1-27.2c-.7-.4-1.3-1.5-1.3-2.3l-.1-33.1z" fill="#f6f9fc"/><linearGradient id="O" gradientUnits="userSpaceOnUse" x1="111.583" y1="42.622" x2="161.383" y2="42.622"><stop offset="0" stop-color="#3c5185"/><stop offset=".128" stop-color="#41588e"/><stop offset=".695" stop-color="#5573b1"/><stop offset="1" stop-color="#5d7dbe"/></linearGradient><path d="M160 53.3l-47.1-27.2c-.7-.4-1.3-.1-1.3.8v3.7l49.8 28.7v-3.7c-.1-.9-.7-1.9-1.4-2.3z" fill="url(#O)"/><path d="M157.1 59.9l-30.9-17.8v-1l30.9 17.7zm0 3.9L126.2 46v-1l30.9 17.8zm0 4L126.2 50v-1l30.9 17.7zm0 3.9l-30.9-17.8v-1l30.9 17.8zm0 4l-43.7-25.1v-1l43.7 25zm0 3.9l-43.7-25.1v-1l43.7 25.1zm-13-3.5l-30.7-17.6v-1L144.1 75z" class="CM"/><path d="M113.4 33.8v13l11.5 6.5v-13z" class="CN"/><path d="M115.1 29.4c-.3-.2-.6 0-.6.4s.3.9.6 1.1c.4.2.6 0 .6-.4.1-.4-.2-.9-.6-1.1zm2.2 1.3c-.3-.2-.6 0-.6.4s.3.9.6 1.1c.4.2.6 0 .6-.4.1-.5-.2-.9-.6-1.1zm2.2 1.2c-.3-.2-.6 0-.6.4s.3.9.6 1.1c.4.2.6 0 .6-.4s-.3-.9-.6-1.1z" class="CC"/><path d="M120.7 44.9l-2.6.3c-.3 0-.7-.4-.7-.7v-3c0-.3.4-.4.7-.1l2.6 2.8c.3.3.3.7 0 .7l-2.6.3c-.3 0-.7-.4-.7-.7v-3c0-.3.4-.4.7-.1l2.6 2.8c.3.3.3.7 0 .7z" class="Bz"/><path d="M70.7 41.3l-13.6-7.8v18.2l12.5 7.2c.4.2.7.2 1 .1l.9-.7a1.75 1.75 0 0 0 .7-1.4V43.8c0-.9-.7-2-1.5-2.5z" class="By CA CI"/><linearGradient id="P" gradientUnits="userSpaceOnUse" x1="69.689" y1="43.644" x2="40.023" y2="43.644"><stop offset=".004" stop-color="#a5cbef"/><stop offset=".277" stop-color="#c1dbf4"/><stop offset=".757" stop-color="#eef5fc"/><stop offset="1" stop-color="#fff"/></linearGradient><path d="M68.2 42.3c.8.5 1.4 1.6 1.4 2.5V58c0 .5-.3 1-.7 1.4l-.9.7c-.2.1.5-.6.1-.8L41.8 44c-.8-.5-1.4-1.6-1.4-2.5l.2-13.5c0-.3-.6-.4-.6-.4l.7-.3c.6-.2 1.3-.2 1.9.1l25.6 14.9z" fill="url(#P)"/><path d="M67.1 43c.8.5 1.4 1.6 1.4 2.5v13.6c0 .9-.6 1.3-1.4.8L40.6 44.6c-.8-.5-1.4-1.6-1.4-2.5l.2-13.5c0-.9.7-1.3 1.4-.8L67.1 43z" fill="#f6f9fc"/><path d="M65.2 45.7c.2.1.4.4.4.7v3.8c0 .2-.2.4-.4.2L42.5 37.2c-.2-.1-.4-.4-.4-.7v-3.7c0-.2.2-.4.4-.2l22.7 13.1zm0 6.5c.2.1.4.4.4.7v3.8c0 .3-.2.4-.4.2L42.5 43.7c-.2-.1-.4-.4-.4-.7v-3.7c0-.3.2-.4.4-.2l22.7 13.1z" fill="#a5cbef"/><g fill="#4a65a3"><path d="M45.2 36.5l-.3-.3.4-.1c.1 0 .1-.1.1-.2-.1-.1-.2-.2-.3-.2l-.4.1v-.3c0-.1-.1-.2-.2-.3-.1 0-.2 0-.2.1v.3l-.3-.3c-.1-.1-.2-.1-.3 0s0 .2.1.3l.3.3-.4.1c-.1 0-.1.1-.1.2s.1.1.2.2h.1l.4-.1v.2c0 .1.1.2.2.3.1 0 .2 0 .2-.1v-.2l.3.3s.1 0 .1.1h.2c.1-.2 0-.3-.1-.4zm2.3 1.3l-.3-.3.4-.1c.1 0 .1-.1.1-.2-.1-.1-.2-.2-.3-.2l-.4.1v-.3c0-.1-.1-.2-.2-.3-.1 0-.2 0-.2.1v.3l-.3-.3c-.1-.1-.2-.1-.3 0s0 .2.1.3l.3.3-.5.1c-.1 0-.1.1-.1.2s.1.1.2.2h.1l.4-.1v.2c0 .1.1.2.2.3.1 0 .2 0 .2-.1v-.2l.3.3s.1 0 .1.1h.2c.1-.2.1-.3 0-.4z"/><use xlink:href="#j"/><path d="M51.9 40.4l-.3-.3.4-.1c.1 0 .1-.1.1-.2-.1-.1-.2-.2-.3-.2l-.4.1v-.3c0-.1-.1-.2-.2-.3s-.2.1-.2.2v.3l-.4-.3c-.1-.1-.2-.1-.3 0s0 .2.1.3l.3.3-.4.1c-.1 0-.1.1-.1.2s.1.1.2.2h.1l.4-.1v.2c0 .1.1.2.2.3.1 0 .2 0 .2-.1v-.2l.3.3s.1 0 .1.1h.2c.2-.3.1-.4 0-.5z"/><use xlink:href="#j" x="4.5" y="2.6"/><path d="M56.4 43.1l-.4-.3.4-.1c.1 0 .1-.1.1-.2-.1-.1-.2-.2-.3-.2l-.4.1v-.3c0-.1-.1-.2-.2-.3-.1 0-.2 0-.2.1v.3l-.3-.3c-.1-.1-.2-.1-.3 0s0 .2.1.3l.3.3-.4.1c-.1 0-.1.1-.1.2s.1.1.2.2h.1l.4-.1v.2c0 .1.1.2.2.3.1 0 .2 0 .2-.1v-.2l.3.3s.1 0 .1.1h.2c.1-.2.1-.4 0-.4zm-11.2-.2l-.3-.3.4-.1c.1 0 .1-.1.1-.2-.1-.1-.2-.2-.3-.2l-.4.1v-.3c0-.1-.1-.2-.2-.3-.1 0-.2 0-.2.1v.3l-.3-.3c-.1-.1-.2-.1-.3 0s0 .2.1.3l.2.3-.4.1c-.1 0-.1.1-.1.2s.1.1.2.2h.1l.4-.1v.2c0 .1.1.2.2.3.1 0 .2 0 .2-.1v-.2l.3.3s.1 0 .1.1h.2c.2-.2.1-.3 0-.4z"/><use xlink:href="#j" x="-2.2" y="5.1"/><path d="M49.7 45.5l-.3-.2.4-.1c.1 0 .1-.1.1-.2-.1-.1-.2-.2-.3-.2l-.4.1v-.3c0-.1-.1-.2-.2-.3-.1 0-.2 0-.2.1v.3l-.3-.3c-.1-.1-.2-.1-.3 0s0 .2.1.3l.3.3-.4.1c-.1 0-.1.1-.1.2s.1.1.2.2h.1l.4-.1v.2c0 .1.1.2.2.3.1 0 .2 0 .2-.1v-.2l.3.3s.1 0 .1.1h.2c0-.2 0-.4-.1-.5zm2.2 1.4l-.3-.3.4-.1c.1 0 .1-.1.1-.2-.1-.1-.2-.2-.3-.2l-.4.1v-.3c0-.1-.1-.2-.2-.3s-.2 0-.2.1v.3l-.3-.3c-.1-.1-.2-.1-.3 0s0 .2.1.3l.3.3-.4.1c-.1 0-.1.1-.1.2s.1.1.2.2h.1l.4-.1v.2c0 .1.1.2.2.3.1 0 .2 0 .2-.1v-.2l.3.3s.1 0 .1.1h.2c.1-.2 0-.4-.1-.4zm2.3 1.3l-.3-.3.4-.1c.1 0 .1-.1.1-.2-.1-.1-.2-.2-.3-.2l-.4.1v-.3c0-.1-.1-.2-.2-.3s-.2 0-.2.1v.3L53 47c-.1-.1-.2-.1-.3 0s0 .2.1.3l.3.3-.4.1c-.1 0-.1.1-.1.2s.1.1.2.2h.1l.4-.1v.2c0 .1.1.2.2.3.1 0 .2 0 .2-.1v-.2l.3.3s.1 0 .1.1h.2c0-.2 0-.3-.1-.4zm2.2 1.3l-.4-.3.4-.1c.1 0 .1-.1.1-.2-.1-.1-.2-.2-.3-.2l-.4.1v-.3c0-.1-.1-.2-.2-.3-.1 0-.2 0-.2.1v.3l-.3-.3c-.1-.1-.2-.1-.3 0s0 .2.1.3l.3.3-.4.1c-.1 0-.1.1-.1.2s.1.1.2.2h.1l.4-.1v.2c0 .1.1.2.2.3.1 0 .2 0 .2-.1v-.2l.3.3s.1 0 .1.1h.2c.1-.2.1-.3 0-.4z"/></g><path d="M71.4 29.4v-3c0-.5-.4-1.2-.9-1.5L57 17.1v14.7l13.5 7.8h.2c.1 0 .1.1.2.1h.3l.2-.2c0-.1.1-.2.1-.3v-5.1l1.3-.6a.78.78 0 0 0 .4-.4c.1-.2.1-.4 0-.6l-1.8-3.1z" class="By CA CI"/><linearGradient id="Q" gradientUnits="userSpaceOnUse" x1="37.836" y1="20.742" x2="71.659" y2="20.742"><stop offset="0" stop-color="#3c5185"/><stop offset="1" stop-color="#4a65a3"/></linearGradient><path d="M37.8 6c0-1.2.8-1.7 1.9-1.1l29.4 17c.5.3.9.9.9 1.5v3l1.6 3.1c.2.4 0 .8-.3 1l-1.3.6v5.1c0 .5-.4.8-.9.5L38.7 19c-.5-.3-.9-.9-.9-1.5V6z" fill="url(#Q)"/><linearGradient id="R" gradientUnits="userSpaceOnUse" x1="38.084" y1="20.674" x2="71.677" y2="20.674"><stop offset="0" stop-color="#4a65a3"/><stop offset="1" stop-color="#3c5185"/></linearGradient><path d="M71.2 30.4l-.4.2c.1-.2.1-.4 0-.6l-1.6-3.1v-3c0-.5-.4-1.2-.9-1.5L38.4 5.2c-.1-.1-.2-.1-.3-.1.3-.5.9-.6 1.6-.2l29.4 17c.5.3.9.9.9 1.5v3l1.6 3.1c.1.3 0 .8-.4.9zm-2.1 1v5.2c.4.2.8 0 .8-.5V31l-.8.4z" fill="url(#R)"/><path d="M66.9 24.7L49.3 14.6v-1.2l17.6 10.1zm0 3.9L49.3 18.5v-1.2l17.6 10.1zm-7.8-.4l-9.8-5.6v-1.1l9.8 5.6zM39.7 7.4v10.9l7.9 4.6v-11z" fill="#f8fbfe"/><path d="M78.5 22c0 2.8 1 6 2.6 8.8.6 1.1 1.3 2.1 2.1 3.1.2.3.5.6.8.9l.1.1c.2.3.5.5.7.7l.1.1c.2.2.5.4.7.6.1 0 .1.1.2.1a3.04 3.04 0 0 0 .7.5c.1 0 .1.1.2.1l.9.6c.3.2.5.3.8.4.1 0 .2.1.2.1l.6.3c.1 0 .1 0 .2.1.1 0 .2.1.3.1h.1c.1 0 .2.1.3.1h.4c.1 0 .2 0 .4.1h1.6c.1 0 .2 0 .3-.1h.2c.7-.2 1.3-.5 1.8-1 2-.8 3.3-2.9 3.3-6.2 0-1.3-.2-2.7-.6-4.1L79.9 17.3c-.9 1.1-1.4 2.7-1.4 4.7z" class="CA CI"/><linearGradient id="S" gradientUnits="userSpaceOnUse" x1="100.214" y1="40.314" x2="81.094" y2="9.118"><stop offset="0" stop-color="#fff"/><stop offset="1" stop-color="#7ea7df"/></linearGradient><path d="M91 14.9c-5-2.9-9.1-.5-9.1 5.2 0 5.8 4.1 12.8 9.1 15.7s9.1.5 9.1-5.2c0-5.8-4.1-12.9-9.1-15.7z" fill="url(#S)"/><linearGradient id="T" gradientUnits="userSpaceOnUse" x1="98.836" y1="41.186" x2="79.716" y2="9.99"><stop offset="0" stop-color="#7ea7df"/><stop offset="1" stop-color="#fff"/></linearGradient><path d="M89.6 15.7c-5-2.9-9.1-.5-9.1 5.2 0 5.8 4.1 12.8 9.1 15.7s9.1.5 9.1-5.2-4.1-12.8-9.1-15.7z" fill="url(#T)"/><path d="M92.6 28.5l-5.1-2.6c-2.1-1-4.5.5-4.4 2.9v1c1.7 2.9 4 5.5 6.5 6.9 1.8 1 3.4 1.4 4.8 1.2l.1-5.1c0-1.8-.3-3.5-1.9-4.3z" fill="#f3f8fe"/><path d="M92.8 30.6c-.7 0-1.3.6-1.2 1.4l.3 5.7c.9.3 1.8.3 2.6.2v-.1l-.3-5.9c-.1-.8-.7-1.4-1.4-1.3z" fill="#48486a" class="By CB"/><path d="M92.8 30.6c-.7.1-1.2.7-1.1 1.5l.7 5.8c.9.2 1.8.2 2.6-.1l-.8-6.1c0-.7-.7-1.2-1.4-1.1z" class="CH"/><path d="M93.6 37.5h.1c.8-.1 1.4-.8 1.3-1.6l-.5-4.2c-.1-.8-.8-1.4-1.6-1.3s-1.4.8-1.3 1.6l.5 4.2c0 .8.7 1.4 1.5 1.3z" fill="#f3f8fe"/><path d="M89.1 29.8c.7 0 1.1-.6 1.1-1.2l-.2-2.7-2.4.1.2 2.7c.1.7.7 1.2 1.3 1.1z" class="CH"/><g class="CN"><path d="M90.1 27l.7.4-.9 4.4-1.5-1.9z"/><path d="M88.4 29.9l-.7-3.6h-.3l-.9 4.3z"/></g><path d="M88.7 26.9c1.2-.1 2.1-1.3 2-2.5l-.5-4-5.7.6.3 2.8c.3 1.9 2 3.3 3.9 3.1z" class="CH"/><g class="Bz"><path d="M84.5 20.8c0-.2.1-.3.1-.4l.3-.6c.1-.2.3-.3.5-.4.5-.3.9-.6 1.5-.6 1.1-.1 2.4-.1 3.3.7.2.2.4.4.4.6v.1s.1 0 .1.1c.2.1.4.2.6.4l.3.6.3 1.3c.1.9-.1 1.7-.4 2.5-.1.4-.4 1.4-.9 1.5-.1 0-.2-.1-.2-.2v-.3c0-.4.1-.8.1-1.3 0-.1 0-.3-.1-.4s-.3-.1-.4 0c-.3.2-.3.5-.4.7 0 .1-.1.1-.2.2-.1 0-.2-.1-.2-.2-.3-.6.2-1.5-.4-2.1-.7-.6-1.2 0-1.8.3-.2.1-.5.2-.7.1-.3-.1-.4-.4-.5-.7s-.3-.6-.6-.4c-.1.1-.3.3-.5.2-.1-.1-.2-.5-.2-.6-.1-.4-.1-.8 0-1.1z"/><path d="M85.1 25c.1.1.2.2.2.4v.1c.1.2.4-.2.4-.3.3-.3.6-.2 1-.2.2 0 .4.1.5.2s.1.2.2.3c0 .1.1.2.2.3.2.2.5.1.7 0 .3-.2.6-.5.7-.8.1-.2.1-.8.5-.6.3.2 0 .7 0 .9 0 .4.3.8.2 1.1 0 .2-.3.4-.4.6s-.3.3-.6.4c-.2.1-.4.1-.6.2-.5.1-.9.2-1.4.1-.5 0-.9-.2-1.2-.6-.3-.3-.3-.6-.3-1 0-.2-.1-.4-.1-.7 0 0 .1-.4 0-.4z"/><g class="CB"><path d="M103.3 153.7l-11.8 6.8c-.8.4-.8 1.6 0 2l11.8 6.7c.7.4 1.6.4 2.4 0l11.8-6.7c.8-.4.8-1.6 0-2l-11.8-6.8c-.7-.4-1.7-.4-2.4 0z" class="CD"/><path d="M103.3 153.7l-11.8 6.8c-.8.4-.8 1.6 0 2l11.8 6.6c.7.4 1.6.4 2.4 0l11.8-6.6c.8-.4.8-1.6 0-2l-11.8-6.8c-.7-.4-1.7-.4-2.4 0z" class="By CO"/><path d="M103.3 153.8l-11.7 6.8c-.8.4-.8 1.6 0 2l11.7 6.6c.7.4 1.6.4 2.4 0l11.7-6.6c.8-.4.8-1.6 0-2l-11.7-6.8a2.11 2.11 0 0 0-2.4 0z" class="By CP"/><path d="M103.3 153.8l-11.7 6.7c-.8.4-.8 1.6 0 2l11.7 6.6c.7.4 1.6.4 2.4 0l11.7-6.6c.8-.4.8-1.5 0-2l-11.7-6.7c-.7-.4-1.7-.4-2.4 0z" class="By CQ"/><use xlink:href="#k" class="By CR"/><use xlink:href="#k" y="0.1" class="By CE"/><use xlink:href="#l" class="By CS"/><path d="M103.3 154l-11.4 6.6c-.8.4-.7 1.5 0 1.9l11.4 6.4c.7.4 1.6.4 2.3 0l11.4-6.4a1.05 1.05 0 0 0 0-1.9l-11.4-6.6a1.95 1.95 0 0 0-2.3 0z" class="By CT"/><use xlink:href="#m" class="By CU"/><path d="M103.3 154L92 160.5c-.7.4-.7 1.5 0 1.9l11.3 6.4c.7.4 1.6.4 2.3 0l11.3-6.4c.7-.4.8-1.5 0-1.9l-11.3-6.5c-.7-.4-1.5-.4-2.3 0z" class="By CV"/><path d="M103.3 154.1L92 160.6c-.7.4-.7 1.5 0 1.9l11.3 6.3c.7.4 1.6.4 2.3 0l11.3-6.3c.7-.4.8-1.5 0-1.9l-11.3-6.5c-.7-.4-1.5-.4-2.3 0z" class="By CW"/><path d="M103.3 154.1l-11.2 6.5c-.7.4-.7 1.5 0 1.9l11.2 6.3c.7.4 1.6.4 2.3 0l11.2-6.3c.7-.4.7-1.5 0-1.9l-11.2-6.5c-.7-.4-1.5-.4-2.3 0z" class="By CX"/><path d="M103.3 154.1l-11.1 6.4c-.7.4-.7 1.5 0 1.9l11.2 6.3c.7.4 1.5.4 2.2 0l11.2-6.3c.7-.4.7-1.5 0-1.9l-11.1-6.4c-.8-.4-1.6-.4-2.4 0z" class="By CY"/><path d="M103.4 154.2l-11.1 6.4c-.7.4-.7 1.5 0 1.9l11.1 6.3c.7.4 1.5.4 2.2 0l11.1-6.3c.7-.4.7-1.5 0-1.9l-11.1-6.4c-.7-.4-1.5-.4-2.2 0z" class="By CZ"/><use xlink:href="#n" class="By Ca"/><use xlink:href="#o" class="By Cb"/><path d="M103.4 154.3l-10.9 6.3c-.7.4-.7 1.5 0 1.9l10.9 6.2c.7.4 1.5.4 2.2 0l10.9-6.2c.7-.4.7-1.4 0-1.9l-10.9-6.3c-.7-.4-1.5-.4-2.2 0z" class="By Cc"/><use xlink:href="#p" class="By Cd"/><path d="M103.4 154.4l-10.8 6.2c-.7.4-.7 1.4 0 1.8l10.8 6.1c.7.4 1.5.4 2.2 0l10.8-6.1c.7-.4.7-1.4 0-1.8l-10.8-6.2c-.7-.4-1.5-.4-2.2 0z" class="By Ce"/><path d="M103.4 154.4l-10.7 6.2c-.7.4-.7 1.4 0 1.8l10.8 6.1c.7.4 1.5.4 2.2 0l10.8-6.1c.7-.4.7-1.4 0-1.8l-10.7-6.2c-.9-.4-1.7-.4-2.4 0z" class="By Cf"/><use xlink:href="#q" class="By Cg"/><use xlink:href="#r" class="By Ch"/><use xlink:href="#r" class="By CJ"/><use xlink:href="#s" class="By Ci"/><path d="M103.4 154.6l-10.5 6c-.7.4-.7 1.4 0 1.8l10.5 5.9c.7.4 1.5.4 2.1 0l10.5-5.9c.7-.4.7-1.4 0-1.8l-10.5-6c-.6-.4-1.4-.4-2.1 0z" class="By Cj"/><use xlink:href="#t" class="By CA"/><use xlink:href="#u" class="By CA"/><use xlink:href="#v" class="By Ck"/><path d="M103.4 154.7l-10.2 5.9c-.7.4-.7 1.4 0 1.7l10.2 5.8c.6.4 1.4.4 2.1 0l10.2-5.8c.7-.4.7-1.4 0-1.7l-10.2-5.9c-.6-.3-1.4-.3-2.1 0z" class="By Cl"/><path d="M103.4 154.8l-10.2 5.9c-.7.4-.7 1.4 0 1.7l10.2 5.7c.6.4 1.4.4 2.1 0l10.2-5.7c.7-.4.7-1.3 0-1.7l-10.2-5.9c-.6-.4-1.4-.4-2.1 0z" class="By Cm"/><use xlink:href="#w" class="By Cn"/><use xlink:href="#w" y="0.1" class="By Co"/><use xlink:href="#x" class="By Cp"/><use xlink:href="#y" class="By Cq"/><use xlink:href="#z" class="By Cr"/><path d="M103.5 155l-9.8 5.7a1.03 1.03 0 0 0 0 1.7l9.8 5.5c.6.3 1.4.3 2 0l9.8-5.5c.6-.4.7-1.3 0-1.7l-9.8-5.7c-.6-.4-1.4-.4-2 0z" class="By Cs"/><path d="M103.5 155l-9.8 5.6a1.03 1.03 0 0 0 0 1.7l9.8 5.5c.6.3 1.4.3 2 0l9.8-5.5c.6-.4.7-1.3 0-1.7l-9.8-5.6c-.6-.3-1.4-.3-2 0z" class="By Ct"/><path d="M103.5 155.1l-9.7 5.6a1.03 1.03 0 0 0 0 1.7l9.7 5.5c.6.3 1.4.3 2 0l9.7-5.5a1.03 1.03 0 0 0 0-1.7l-9.7-5.6c-.6-.4-1.4-.4-2 0z" class="By Cu"/><path d="M103.5 155.1l-9.7 5.6c-.6.4-.6 1.3 0 1.6l9.7 5.4a2.12 2.12 0 0 0 1.9 0l9.7-5.4c.6-.4.6-1.3 0-1.6l-9.7-5.6c-.5-.3-1.3-.3-1.9 0z" class="By Cv"/><path d="M103.5 155.2l-9.6 5.5c-.6.4-.6 1.3 0 1.6l9.6 5.4a2.12 2.12 0 0 0 1.9 0l9.6-5.4c.6-.4.6-1.3 0-1.6l-9.6-5.5c-.5-.4-1.3-.4-1.9 0z" class="By Cw"/><path d="M103.5 155.2l-9.5 5.5c-.6.4-.6 1.3 0 1.6l9.6 5.4a2.12 2.12 0 0 0 1.9 0l9.6-5.4c.6-.4.6-1.3 0-1.6l-9.5-5.5c-.7-.4-1.5-.4-2.1 0z" class="By Cx"/><path d="M103.5 155.2l-9.5 5.5c-.6.4-.6 1.3 0 1.6l9.5 5.3a2.12 2.12 0 0 0 1.9 0l9.5-5.3c.6-.4.6-1.3 0-1.6l-9.5-5.5c-.5-.3-1.3-.3-1.9 0z" class="By Cy"/><path d="M103.5 155.3l-9.4 5.4c-.6.4-.6 1.3 0 1.6l9.4 5.3a2.12 2.12 0 0 0 1.9 0l9.4-5.3c.6-.4.6-1.2 0-1.6l-9.4-5.4c-.5-.4-1.3-.4-1.9 0z" class="By Cz"/><path d="M103.5 155.3l-9.4 5.4c-.6.4-.6 1.2 0 1.6l9.4 5.3a2.12 2.12 0 0 0 1.9 0l9.4-5.3c.6-.3.6-1.2 0-1.6l-9.4-5.4c-.5-.3-1.3-.3-1.9 0z" class="By DA"/><path d="M103.5 155.3l-9.3 5.4c-.6.4-.6 1.2 0 1.6l9.3 5.2a2.12 2.12 0 0 0 1.9 0l9.3-5.2c.6-.3.6-1.2 0-1.6l-9.3-5.4c-.5-.3-1.3-.3-1.9 0z" class="By DB"/><path d="M103.5 155.4l-9.3 5.3c-.6.4-.6 1.2 0 1.6l9.3 5.2a2.12 2.12 0 0 0 1.9 0l9.3-5.2c.6-.3.6-1.2 0-1.6l-9.3-5.3c-.5-.4-1.3-.4-1.9 0z" class="By DC"/><path d="M103.5 155.4l-9.2 5.3c-.6.3-.6 1.2 0 1.6l9.2 5.2a2.12 2.12 0 0 0 1.9 0l9.2-5.2c.6-.3.6-1.2 0-1.6l-9.2-5.3c-.5-.3-1.3-.3-1.9 0z" class="By CF"/><path d="M103.6 155.5l-9.1 5.3c-.6.3-.6 1.2 0 1.6l9.1 5.2c.6.3 1.3.3 1.8 0l9.1-5.2c.6-.3.6-1.2 0-1.6l-9.1-5.3c-.5-.4-1.3-.4-1.8 0z" class="By DD"/><path d="M103.6 155.5l-9.1 5.2c-.6.3-.6 1.2 0 1.5l9.1 5.1c.6.3 1.3.3 1.8 0l9.1-5.1c.6-.3.6-1.2 0-1.5l-9.1-5.2c-.5-.3-1.3-.3-1.8 0z" class="By DE"/><use xlink:href="#AA" class="By DF"/><path d="M103.6 155.6l-9 5.2c-.6.3-.6 1.2 0 1.5l9 5.1a1.91 1.91 0 0 0 1.8 0l9-5.1c.6-.3.6-1.2 0-1.5l-9-5.2c-.6-.4-1.3-.4-1.8 0z" class="By DG"/><path d="M103.6 155.6l-8.9 5.1c-.6.3-.6 1.2 0 1.5l8.9 5a1.91 1.91 0 0 0 1.8 0l8.9-5c.6-.3.6-1.2 0-1.5l-8.9-5.1c-.6-.3-1.3-.3-1.8 0z"/></g></g><linearGradient id="U" gradientUnits="userSpaceOnUse" x1="92.879" y1="161.265" x2="116.179" y2="161.265"><stop offset=".004" stop-color="#a5cbef"/><stop offset=".188" stop-color="#b2d2f1"/><stop offset="1" stop-color="#e6f1fa"/></linearGradient><path d="M103.5 154.6l-10.6 4.8v1.8a1.1 1.1 0 0 0 .6 1l10.1 5.7c.6.4 1.4.4 2 0l10-5.6a1.1 1.1 0 0 0 .6-1v-1.6l-10.6-5c-.7-.5-1.5-.5-2.1-.1z" fill="url(#U)"/><use xlink:href="#w" y="-2.1" class="DH"/><g class="Bz CB"><use xlink:href="#AB" class="CD"/><path d="M87.1 163.1l-11.8 6.8c-.8.4-.8 1.6 0 2l11.8 6.6c.7.4 1.6.4 2.4 0l11.8-6.6c.8-.4.8-1.6 0-2l-11.8-6.8c-.7-.4-1.6-.4-2.4 0z" class="By CO"/><path d="M87.1 163.2L75.4 170c-.8.4-.8 1.6 0 2l11.7 6.6c.7.4 1.6.4 2.4 0l11.7-6.6c.8-.4.8-1.6 0-2l-11.7-6.8c-.7-.4-1.6-.4-2.4 0z" class="By CP"/><use xlink:href="#AC" class="By CQ"/><path d="M87.1 163.3L75.5 170c-.8.4-.8 1.5 0 2l11.6 6.5c.7.4 1.6.4 2.3 0L101 172c.8-.4.8-1.5 0-2l-11.6-6.7c-.6-.5-1.5-.5-2.3 0z" class="By CR"/><path d="M87.1 163.3L75.5 170c-.8.4-.8 1.5 0 2l11.6 6.5c.7.4 1.6.4 2.3 0L101 172c.8-.4.8-1.5 0-2l-11.6-6.7c-.6-.4-1.5-.4-2.3 0z" class="By CE"/><use xlink:href="#l" x="-16.1" y="9.4" class="By CS"/><path d="M87.2 163.4L75.8 170c-.8.4-.7 1.5 0 1.9l11.4 6.4c.7.4 1.6.4 2.3 0l11.4-6.4a1.05 1.05 0 0 0 0-1.9l-11.4-6.6c-.7-.4-1.6-.4-2.3 0z" class="By CT"/><path d="M87.2 163.4L75.8 170c-.7.4-.7 1.5 0 1.9l11.4 6.4c.7.4 1.6.4 2.3 0l11.4-6.4a1.05 1.05 0 0 0 0-1.9l-11.4-6.6c-.7-.4-1.6-.4-2.3 0z" class="By CU"/><use xlink:href="#AD" class="By CV"/><path d="M87.2 163.5L75.9 170c-.7.4-.7 1.5 0 1.9l11.3 6.3c.7.4 1.6.4 2.3 0l11.3-6.3c.7-.4.8-1.5 0-1.9l-11.3-6.5c-.7-.4-1.6-.4-2.3 0z" class="By CW"/><path d="M87.2 163.5L76 170c-.7.4-.7 1.5 0 1.9l11.2 6.3c.7.4 1.6.4 2.3 0l11.2-6.3c.7-.4.7-1.5 0-1.9l-11.2-6.5c-.7-.4-1.6-.4-2.3 0z" class="By CX"/><path d="M87.2 163.6L76.1 170c-.7.4-.7 1.5 0 1.9l11.2 6.3c.7.4 1.5.4 2.2 0l11.2-6.3c.7-.4.7-1.5 0-1.9l-11.1-6.4c-.8-.5-1.7-.5-2.4 0z" class="By CY"/><path d="M87.2 163.6L76.1 170c-.7.4-.7 1.5 0 1.9l11.1 6.3c.7.4 1.5.4 2.2 0l11.1-6.3c.7-.4.7-1.5 0-1.9l-11.1-6.4c-.6-.4-1.5-.4-2.2 0z" class="By CZ"/><use xlink:href="#AE" class="By Ca"/><use xlink:href="#AF" class="By Cb"/><path d="M87.2 163.7L76.3 170c-.7.4-.7 1.5 0 1.9l10.9 6.2c.7.4 1.5.4 2.2 0l10.9-6.2c.7-.4.7-1.4 0-1.9l-10.9-6.3c-.6-.4-1.5-.4-2.2 0z" class="By Cc"/><path d="M87.2 163.7L76.3 170c-.7.4-.7 1.4 0 1.8l10.9 6.1c.7.4 1.5.4 2.2 0l10.9-6.1c.7-.4.7-1.4 0-1.8l-10.9-6.3c-.6-.4-1.5-.4-2.2 0z" class="By Cd"/><path d="M87.2 163.8L76.4 170c-.7.4-.7 1.4 0 1.8l10.8 6.1c.7.4 1.5.4 2.2 0l10.8-6.1c.7-.4.7-1.4 0-1.8l-10.8-6.2c-.6-.4-1.5-.4-2.2 0z" class="By Ce"/><path d="M87.2 163.8L76.5 170c-.7.4-.7 1.4 0 1.8l10.8 6.1c.7.4 1.5.4 2.2 0l10.8-6.1c.7-.4.7-1.4 0-1.8l-10.7-6.2c-.8-.4-1.7-.4-2.4 0z" class="By Cf"/><use xlink:href="#AG" class="By Cg"/><path d="M87.2 163.9L76.6 170c-.7.4-.7 1.4 0 1.8l10.6 6c.7.4 1.5.4 2.1 0l10.6-6c.7-.4.7-1.4 0-1.8l-10.6-6.1c-.5-.4-1.4-.4-2.1 0z" class="By Ch"/><path d="M87.2 163.9L76.6 170c-.7.4-.7 1.4 0 1.8l10.6 6c.7.4 1.5.4 2.1 0l10.6-6c.7-.4.7-1.4 0-1.8l-10.6-6.1c-.6-.4-1.4-.4-2.1 0z" class="By CJ"/><path d="M87.3 164l-10.5 6.1c-.7.4-.7 1.4 0 1.8l10.5 5.9c.7.4 1.5.4 2.1 0l10.5-5.9c.7-.4.7-1.4 0-1.8L89.4 164c-.7-.4-1.5-.4-2.1 0z" class="By Ci"/><path d="M87.3 164l-10.5 6c-.7.4-.7 1.4 0 1.8l10.5 5.9c.7.4 1.5.4 2.1 0l10.5-5.9c.7-.4.7-1.4 0-1.8l-10.5-6c-.7-.4-1.5-.4-2.1 0z" class="By Cj"/><path d="M87.3 164l-10.4 6c-.7.4-.7 1.4 0 1.8l10.4 5.9c.7.4 1.4.4 2.1 0l10.4-5.9c.7-.4.7-1.4 0-1.8l-10.4-6c-.7-.3-1.5-.3-2.1 0z" class="By CA"/><use xlink:href="#AH" class="By CA"/><path d="M87.3 164.1L77 170c-.7.4-.7 1.4 0 1.8l10.3 5.8c.6.4 1.4.4 2.1 0l10.3-5.8c.7-.4.7-1.4 0-1.8l-10.3-5.9c-.7-.4-1.5-.4-2.1 0z" class="By Ck"/><path d="M87.3 164.2l-10.2 5.9c-.7.4-.7 1.4 0 1.7l10.2 5.8c.6.4 1.4.4 2.1 0l10.2-5.8c.7-.4.7-1.4 0-1.7l-10.2-5.9c-.7-.4-1.5-.4-2.1 0z" class="By Cl"/><path d="M87.3 164.2l-10.2 5.9c-.7.4-.7 1.4 0 1.7l10.2 5.7c.6.4 1.4.4 2.1 0l10.2-5.7c.7-.4.7-1.3 0-1.7l-10.2-5.9c-.7-.4-1.5-.4-2.1 0z" class="By Cm"/><path d="M87.3 164.2L77.2 170c-.7.4-.7 1.3 0 1.7l10.1 5.7c.6.4 1.4.4 2 0l10.1-5.7c.7-.4.7-1.3 0-1.7l-10.1-5.8c-.6-.3-1.4-.3-2 0z" class="By Cn"/><use xlink:href="#w" x="-16.2" y="9.5" class="By Co"/><use xlink:href="#x" x="-16.2" y="9.4" class="By Cp"/><use xlink:href="#y" x="-16.2" y="9.4" class="By Cq"/><use xlink:href="#z" x="-16.2" y="9.4" class="By Cr"/><path d="M87.3 164.4l-9.8 5.7a1.03 1.03 0 0 0 0 1.7l9.8 5.5c.6.3 1.4.3 2 0l9.8-5.5c.6-.4.7-1.3 0-1.7l-9.8-5.7c-.6-.3-1.4-.3-2 0z" class="By Cs"/><use xlink:href="#AI" class="By Ct"/><path d="M87.3 164.5l-9.7 5.6a1.03 1.03 0 0 0 0 1.7l9.7 5.5c.6.3 1.4.3 2 0l9.7-5.5a1.03 1.03 0 0 0 0-1.7l-9.7-5.6c-.6-.4-1.3-.4-2 0z" class="By Cu"/><path d="M87.3 164.5l-9.7 5.6c-.6.4-.6 1.3 0 1.6l9.7 5.4a2.12 2.12 0 0 0 1.9 0l9.7-5.4c.6-.4.6-1.3 0-1.6l-9.7-5.6c-.5-.3-1.2-.3-1.9 0z" class="By Cv"/><path d="M87.3 164.6l-9.6 5.5c-.6.4-.6 1.3 0 1.6l9.6 5.4a2.12 2.12 0 0 0 1.9 0l9.6-5.4c.6-.4.6-1.3 0-1.6l-9.6-5.5c-.5-.4-1.2-.4-1.9 0z" class="By Cw"/><use xlink:href="#AJ" class="By Cx"/><path d="M87.4 164.6l-9.5 5.5c-.6.4-.6 1.3 0 1.6l9.5 5.3a2.12 2.12 0 0 0 1.9 0l9.5-5.3c.6-.4.6-1.3 0-1.6l-9.5-5.5a2.12 2.12 0 0 0-1.9 0z" class="By Cy"/><path d="M87.4 164.7l-9.4 5.4c-.6.4-.6 1.3 0 1.6l9.4 5.3a2.12 2.12 0 0 0 1.9 0l9.4-5.3c.6-.4.6-1.2 0-1.6l-9.4-5.4a1.65 1.65 0 0 0-1.9 0z" class="By Cz"/><use xlink:href="#AK" class="By DA"/><use xlink:href="#AL" class="By DB"/><use xlink:href="#AM" class="By DC"/><path d="M87.4 164.8l-9.2 5.3c-.6.3-.6 1.2 0 1.6l9.2 5.2a2.12 2.12 0 0 0 1.9 0l9.2-5.2c.6-.3.6-1.2 0-1.6l-9.2-5.3a2.12 2.12 0 0 0-1.9 0z" class="By CF"/><path d="M87.4 164.9l-9.1 5.3c-.6.3-.6 1.2 0 1.6l9.1 5.2c.6.3 1.3.3 1.8 0l9.1-5.2c.6-.3.6-1.2 0-1.6l-9.1-5.3c-.5-.4-1.2-.4-1.8 0z" class="By DD"/><use xlink:href="#AN" class="By DE"/><path d="M87.4 164.9l-9 5.2c-.6.3-.6 1.2 0 1.5l9 5.1c.6.3 1.3.3 1.8 0l9-5.1c.6-.3.6-1.2 0-1.5l-9-5.2c-.5-.3-1.2-.3-1.8 0z" class="By DF"/><use xlink:href="#AO" class="By DG"/><use xlink:href="#AP"/></g><linearGradient id="V" gradientUnits="userSpaceOnUse" x1="76.736" y1="170.702" x2="100.036" y2="170.702"><stop offset=".004" stop-color="#a5cbef"/><stop offset=".188" stop-color="#b2d2f1"/><stop offset="1" stop-color="#e6f1fa"/></linearGradient><use xlink:href="#AQ" fill="url(#V)"/><use xlink:href="#w" x="-16.2" y="7.3" class="DH"/><g class="Bz CB"><use xlink:href="#AB" x="-1.1" y="-19" class="CD"/><path d="M86 144.2L74.2 151c-.8.4-.8 1.6 0 2l11.8 6.6c.7.4 1.6.4 2.4 0l11.8-6.6c.8-.4.8-1.6 0-2l-11.8-6.8c-.7-.5-1.6-.5-2.4 0z" class="By CO"/><path d="M86 144.2L74.3 151c-.8.4-.8 1.6 0 2l11.7 6.6c.7.4 1.6.4 2.4 0l11.7-6.6c.8-.4.8-1.6 0-2l-11.7-6.8c-.7-.4-1.6-.4-2.4 0z" class="By CP"/><use xlink:href="#AC" x="-1.1" y="-19" class="By CQ"/><path d="M86.1 144.3L74.5 151c-.8.4-.8 1.5 0 2l11.6 6.5c.7.4 1.6.4 2.3 0L100 153c.8-.4.8-1.5 0-2l-11.6-6.7a1.95 1.95 0 0 0-2.3 0z" class="By CR"/><path d="M86.1 144.3L74.5 151c-.8.4-.8 1.5 0 2l11.6 6.5c.7.4 1.6.4 2.3 0L100 153c.8-.4.8-1.5 0-2l-11.6-6.7c-.7-.4-1.6-.4-2.3 0z" class="By CE"/><use xlink:href="#l" x="-17.2" y="-9.6" class="By CS"/><path d="M86.1 144.4L74.7 151c-.8.4-.7 1.5 0 1.9l11.4 6.4c.7.4 1.6.4 2.3 0l11.4-6.4a1.05 1.05 0 0 0 0-1.9l-11.4-6.6c-.7-.4-1.6-.4-2.3 0z" class="By CT"/><path d="M86.1 144.4L74.7 151c-.7.4-.7 1.5 0 1.9l11.4 6.4c.7.4 1.6.4 2.3 0l11.4-6.4a1.05 1.05 0 0 0 0-1.9l-11.4-6.6c-.7-.4-1.6-.4-2.3 0z" class="By CU"/><path d="M86.1 144.5L74.8 151c-.7.4-.7 1.5 0 1.9l11.3 6.4c.7.4 1.6.4 2.3 0l11.3-6.4c.7-.4.8-1.5 0-1.9l-11.3-6.5a1.95 1.95 0 0 0-2.3 0z" class="By CV"/><path d="M86.1 144.5L74.8 151c-.7.4-.7 1.5 0 1.9l11.3 6.3c.7.4 1.6.4 2.3 0l11.3-6.3c.7-.4.8-1.5 0-1.9l-11.3-6.5c-.7-.4-1.6-.4-2.3 0z" class="By CW"/><path d="M86.1 144.5L74.9 151c-.7.4-.7 1.5 0 1.9l11.2 6.3c.7.4 1.6.4 2.3 0l11.2-6.3c.7-.4.7-1.5 0-1.9l-11.2-6.5c-.7-.4-1.6-.4-2.3 0z" class="By CX"/><path d="M86.1 144.6L75 151c-.7.4-.7 1.5 0 1.9l11.2 6.3c.7.4 1.5.4 2.2 0l11.2-6.3c.7-.4.7-1.5 0-1.9l-11.1-6.4c-.8-.4-1.7-.4-2.4 0z" class="By CY"/><path d="M86.1 144.6L75 151c-.7.4-.7 1.5 0 1.9l11.1 6.3c.7.4 1.5.4 2.2 0l11.1-6.3c.7-.4.7-1.5 0-1.9l-11.1-6.4c-.6-.4-1.5-.4-2.2 0z" class="By CZ"/><use xlink:href="#AE" x="-1.1" y="-19" class="By Ca"/><use xlink:href="#AF" x="-1.1" y="-19" class="By Cb"/><path d="M86.1 144.7L75.2 151c-.7.4-.7 1.5 0 1.9l10.9 6.2c.7.4 1.5.4 2.2 0l10.9-6.2c.7-.4.7-1.4 0-1.9l-10.9-6.3c-.6-.4-1.5-.4-2.2 0z" class="By Cc"/><path d="M86.1 144.8l-10.9 6.3c-.7.4-.7 1.4 0 1.8l10.9 6.1c.7.4 1.5.4 2.2 0l10.9-6.1c.7-.4.7-1.4 0-1.8l-10.9-6.3c-.6-.4-1.5-.4-2.2 0z" class="By Cd"/><path d="M86.1 144.8L75.3 151c-.7.4-.7 1.4 0 1.8l10.8 6.1c.7.4 1.5.4 2.2 0l10.8-6.1c.7-.4.7-1.4 0-1.8l-10.8-6.2c-.6-.4-1.5-.4-2.2 0z" class="By Ce"/><path d="M86.1 144.8L75.4 151c-.7.4-.7 1.4 0 1.8l10.8 6.1c.7.4 1.5.4 2.2 0l10.8-6.1c.7-.4.7-1.4 0-1.8l-10.7-6.2c-.8-.4-1.7-.4-2.4 0z" class="By Cf"/><use xlink:href="#AG" x="-1.1" y="-19" class="By Cg"/><path d="M86.2 144.9L75.6 151c-.7.4-.7 1.4 0 1.8l10.6 6c.7.4 1.5.4 2.1 0l10.6-6c.7-.4.7-1.4 0-1.8l-10.6-6.1a1.99 1.99 0 0 0-2.1 0z" class="By Ch"/><path d="M86.2 144.9L75.6 151c-.7.4-.7 1.4 0 1.8l10.6 6c.7.4 1.5.4 2.1 0l10.6-6c.7-.4.7-1.4 0-1.8l-10.6-6.1c-.6-.3-1.5-.3-2.1 0z" class="By CJ"/><path d="M86.2 145l-10.5 6.1c-.7.4-.7 1.4 0 1.8l10.5 5.9c.7.4 1.5.4 2.1 0l10.5-5.9c.7-.4.7-1.4 0-1.8L88.3 145a1.99 1.99 0 0 0-2.1 0z" class="By Ci"/><path d="M86.2 145l-10.5 6c-.7.4-.7 1.4 0 1.8l10.5 5.9c.7.4 1.5.4 2.1 0l10.5-5.9c.7-.4.7-1.4 0-1.8l-10.5-6a1.99 1.99 0 0 0-2.1 0z" class="By Cj"/><path d="M86.2 145.1l-10.4 6c-.7.4-.7 1.4 0 1.8l10.4 5.9c.7.4 1.4.4 2.1 0l10.4-5.9c.7-.4.7-1.4 0-1.8l-10.4-6a1.99 1.99 0 0 0-2.1 0z" class="By CA"/><use xlink:href="#AH" x="-1.1" y="-19" class="By CA"/><path d="M86.2 145.1L75.9 151c-.7.4-.7 1.4 0 1.8l10.3 5.8c.6.4 1.4.4 2.1 0l10.3-5.8c.7-.4.7-1.4 0-1.8l-10.3-5.9c-.7-.3-1.5-.3-2.1 0z" class="By Ck"/><path d="M86.2 145.2L76 151.1c-.7.4-.7 1.4 0 1.7l10.2 5.8c.6.4 1.4.4 2.1 0l10.2-5.8c.7-.4.7-1.4 0-1.7l-10.2-5.9c-.7-.4-1.5-.4-2.1 0z" class="By Cl"/><path d="M86.2 145.2L76 151.1c-.7.4-.7 1.4 0 1.7l10.2 5.7c.6.4 1.4.4 2.1 0l10.2-5.7c.7-.4.7-1.3 0-1.7l-10.2-5.9c-.7-.4-1.5-.4-2.1 0z" class="By Cm"/><use xlink:href="#w" x="-17.3" y="-9.5" class="By Cn"/><path d="M86.2 145.3l-10.1 5.8c-.7.4-.7 1.3 0 1.7l10.1 5.7c.6.4 1.4.4 2 0l10.1-5.7c.7-.4.7-1.3 0-1.7l-10.1-5.8c-.6-.4-1.3-.4-2 0z" class="By Co"/><path d="M86.2 145.3l-10 5.8c-.7.4-.7 1.3 0 1.7l10 5.6c.6.4 1.4.4 2 0l10-5.6c.7-.4.7-1.3 0-1.7l-10-5.8c-.6-.3-1.3-.3-2 0z" class="By Cp"/><path d="M86.2 145.4l-9.9 5.7c-.7.4-.6 1.3 0 1.7l10 5.6c.6.4 1.4.4 2 0l10-5.6c.7-.4.7-1.3 0-1.7l-9.9-5.7c-.8-.4-1.5-.4-2.2 0z" class="By Cq"/><path d="M86.2 145.4l-9.9 5.7a1.03 1.03 0 0 0 0 1.7l9.9 5.6c.6.3 1.4.3 2 0l9.9-5.6c.7-.4.7-1.3 0-1.7l-9.9-5.7c-.6-.4-1.3-.4-2 0z" class="By Cr"/><path d="M86.2 145.4l-9.8 5.7a1.03 1.03 0 0 0 0 1.7l9.8 5.5c.6.3 1.4.3 2 0l9.8-5.5c.6-.4.7-1.3 0-1.7l-9.8-5.7c-.6-.3-1.3-.3-2 0z" class="By Cs"/><use xlink:href="#AI" x="-1.1" y="-19" class="By Ct"/><path d="M86.2 145.5l-9.7 5.6a1.03 1.03 0 0 0 0 1.7l9.7 5.5c.6.3 1.4.3 2 0l9.7-5.5a1.03 1.03 0 0 0 0-1.7l-9.7-5.6c-.6-.3-1.3-.3-2 0z" class="By Cu"/><path d="M86.3 145.6l-9.7 5.6c-.6.4-.6 1.3 0 1.6l9.7 5.4a2.12 2.12 0 0 0 1.9 0l9.7-5.4c.6-.4.6-1.3 0-1.6l-9.7-5.6a1.65 1.65 0 0 0-1.9 0z" class="By Cv"/><path d="M86.3 145.6l-9.6 5.5c-.6.4-.6 1.3 0 1.6l9.6 5.4a2.12 2.12 0 0 0 1.9 0l9.6-5.4c.6-.4.6-1.3 0-1.6l-9.6-5.5a1.65 1.65 0 0 0-1.9 0z" class="By Cw"/><use xlink:href="#AJ" x="-1.1" y="-19" class="By Cx"/><path d="M86.3 145.7l-9.5 5.5c-.6.4-.6 1.3 0 1.6l9.5 5.3a2.12 2.12 0 0 0 1.9 0l9.5-5.3c.6-.4.6-1.3 0-1.6l-9.5-5.5a1.65 1.65 0 0 0-1.9 0z" class="By Cy"/><path d="M86.3 145.7l-9.4 5.4c-.6.4-.6 1.3 0 1.6l9.4 5.3a2.12 2.12 0 0 0 1.9 0l9.4-5.3c.6-.4.6-1.2 0-1.6l-9.4-5.4a2.12 2.12 0 0 0-1.9 0z" class="By Cz"/><use xlink:href="#AK" x="-1.1" y="-19" class="By DA"/><use xlink:href="#AL" x="-1.1" y="-19" class="By DB"/><use xlink:href="#AM" x="-1.1" y="-19" class="By DC"/><use xlink:href="#AR" class="By CF"/><path d="M86.3 145.9l-9.1 5.3c-.6.3-.6 1.2 0 1.6l9.1 5.2c.6.3 1.3.3 1.8 0l9.1-5.2c.6-.3.6-1.2 0-1.6l-9.1-5.3c-.5-.3-1.2-.3-1.8 0z" class="By DD"/><use xlink:href="#AN" x="-1.1" y="-19" class="By DE"/><path d="M86.3 146l-9 5.2c-.6.3-.6 1.2 0 1.5l9 5.1c.6.3 1.3.3 1.8 0l9-5.1c.6-.3.6-1.2 0-1.5l-9-5.2c-.5-.4-1.2-.4-1.8 0z" class="By DF"/><use xlink:href="#AO" x="-1.1" y="-19" class="By DG"/><use xlink:href="#AP" x="-1.1" y="-19"/></g><use xlink:href="#AQ" x="-1.1" y="-19" fill="url(#V)"/><path d="M86.2 143.1l-10.1 5.8c-.7.4-.7 1.3 0 1.7l10.1 5.7c.6.4 1.4.4 2 0l10.1-5.7c.7-.4.7-1.3 0-1.7l-10.1-5.8c-.6-.3-1.4-.3-2 0z" class="DH"/><g class="Bz CB"><path d="M69.9 153.5L58 160.4c-.8.4-.8 1.6 0 2l11.8 6.7c.7.4 1.6.4 2.4 0l11.8-6.7c.8-.4.8-1.6 0-2l-11.8-6.8c-.7-.5-1.6-.5-2.3-.1z" class="CD"/><path d="M69.9 153.6l-11.8 6.8c-.8.4-.8 1.6 0 2l11.8 6.6c.7.4 1.6.4 2.4 0l11.8-6.6c.8-.4.8-1.6 0-2l-11.8-6.8c-.8-.5-1.7-.5-2.4 0z" class="By CO"/><path d="M69.9 153.6l-11.7 6.8c-.8.4-.8 1.6 0 2l11.7 6.6c.7.4 1.6.4 2.4 0l11.7-6.6c.8-.4.8-1.6 0-2l-11.7-6.8c-.8-.4-1.7-.4-2.4 0z" class="By CP"/><path d="M69.9 153.7l-11.7 6.7c-.8.4-.8 1.6 0 2l11.7 6.6c.7.4 1.6.4 2.4 0l11.7-6.6c.8-.4.8-1.5 0-2l-11.7-6.7c-.8-.5-1.7-.5-2.4 0z" class="By CQ"/><use xlink:href="#k" x="-33.4" y="-0.1" class="By CR"/><use xlink:href="#k" x="-33.4" y="-0.1" class="By CE"/><path d="M69.9 153.8l-11.5 6.6c-.8.4-.7 1.5 0 2l11.5 6.5c.7.4 1.6.4 2.3 0l11.5-6.5c.8-.4.8-1.5 0-2l-11.5-6.6a1.95 1.95 0 0 0-2.3 0z" class="By CS"/><path d="M69.9 153.8l-11.4 6.6c-.8.4-.7 1.5 0 1.9l11.4 6.4c.7.4 1.6.4 2.3 0l11.4-6.4a1.05 1.05 0 0 0 0-1.9l-11.4-6.6c-.7-.4-1.6-.4-2.3 0z" class="By CT"/><use xlink:href="#m" x="-33.4" y="-0.2" class="By CU"/><use xlink:href="#AD" x="-17.3" y="-9.5" class="By CV"/><path d="M69.9 153.9l-11.3 6.5c-.7.4-.7 1.5 0 1.9l11.3 6.3c.7.4 1.6.4 2.3 0l11.3-6.3c.7-.4.8-1.5 0-1.9l-11.3-6.5c-.7-.4-1.6-.4-2.3 0z" class="By CW"/><path d="M69.9 154l-11.2 6.5c-.7.4-.7 1.5 0 1.9l11.2 6.3c.7.4 1.6.4 2.3 0l11.2-6.3c.7-.4.7-1.5 0-1.9L72.2 154a1.95 1.95 0 0 0-2.3 0z" class="By CX"/><path d="M69.9 154l-11.1 6.4c-.7.4-.7 1.5 0 1.9l11.2 6.3c.7.4 1.5.4 2.2 0l11.2-6.3c.7-.4.7-1.5 0-1.9L72.3 154c-.8-.4-1.7-.4-2.4 0z" class="By CY"/><path d="M69.9 154l-11.1 6.4c-.7.4-.7 1.5 0 1.9l11.1 6.3c.7.4 1.5.4 2.2 0l11.1-6.3c.7-.4.7-1.5 0-1.9L72.1 154c-.6-.4-1.4-.4-2.2 0z" class="By CZ"/><use xlink:href="#n" x="-33.4" y="-0.1" class="By Ca"/><use xlink:href="#o" x="-33.4" y="-0.2" class="By Cb"/><path d="M70 154.1l-11 6.3c-.7.4-.7 1.5 0 1.9l10.9 6.2c.7.4 1.5.4 2.2 0l10.9-6.2c.7-.4.7-1.4 0-1.9l-10.9-6.3c-.6-.4-1.4-.4-2.1 0z" class="By Cc"/><use xlink:href="#p" x="-33.4" y="-0.1" class="By Cd"/><path d="M70 154.2l-10.8 6.2c-.7.4-.7 1.4 0 1.8l10.8 6.1c.7.4 1.5.4 2.2 0l10.8-6c.7-.4.7-1.4 0-1.8l-10.8-6.2c-.7-.5-1.5-.5-2.2-.1z" class="By Ce"/><path d="M70 154.3l-10.7 6.2c-.7.4-.7 1.4 0 1.8l10.7 6c.7.4 1.5.4 2.2 0l10.8-6.1c.7-.4.7-1.4 0-1.8l-10.7-6.2c-.8-.3-1.6-.3-2.3.1z" class="By Cf"/><use xlink:href="#q" x="-33.4" y="-0.1" class="By Cg"/><use xlink:href="#r" x="-33.4" y="-0.2" class="By Ch"/><use xlink:href="#r" x="-33.4" y="-0.1" class="By CJ"/><use xlink:href="#s" x="-33.4" y="-0.2" class="By Ci"/><path d="M70 154.4l-10.5 6c-.7.4-.7 1.4 0 1.8l10.5 5.9c.7.4 1.5.4 2.1 0l10.5-5.9c.7-.4.7-1.4 0-1.8l-10.5-6c-.6-.3-1.4-.3-2.1 0z" class="By Cj"/><use xlink:href="#t" x="-33.4" y="-0.1" class="By CA"/><use xlink:href="#u" x="-33.4" y="-0.2" class="By CA"/><use xlink:href="#v" x="-33.4" y="-0.1" class="By Ck"/><path d="M70 154.6l-10.2 5.9c-.7.4-.7 1.4 0 1.7L70 168c.6.4 1.4.4 2.1 0l10.2-5.8c.7-.4.7-1.4 0-1.7l-10.2-5.9c-.6-.4-1.4-.4-2.1 0z" class="By Cl"/><path d="M70 154.6l-10.2 5.9c-.7.4-.7 1.4 0 1.7l10.2 5.7c.6.4 1.4.4 2.1 0l10.2-5.7c.7-.4.7-1.3 0-1.7l-10.2-5.9c-.6-.3-1.4-.3-2.1 0z" class="By Cm"/><path d="M70 154.7l-10.1 5.8c-.7.4-.7 1.3 0 1.7l10.1 5.7c.6.4 1.4.4 2 0l10.1-5.7c.7-.4.7-1.3 0-1.7L72 154.7c-.5-.4-1.3-.4-2 0z" class="By Cn"/><path d="M70.1 154.7L60 160.5c-.7.4-.7 1.3 0 1.7l10.1 5.7c.6.4 1.4.4 2 0l10.1-5.7c.7-.4.7-1.3 0-1.7l-10.1-5.8c-.6-.4-1.4-.4-2 0z" class="By Co"/><path d="M70.1 154.7l-10 5.8c-.7.4-.7 1.3 0 1.7l10 5.6c.6.4 1.4.4 2 0l10-5.6c.7-.4.7-1.3 0-1.7l-10-5.8c-.6-.3-1.4-.3-2 0z" class="By Cp"/><path d="M70.1 154.8l-9.9 5.7c-.7.4-.6 1.3 0 1.7l10 5.6c.6.4 1.4.4 2 0l10-5.6c.7-.4.7-1.3 0-1.7l-9.9-5.7c-.8-.4-1.6-.4-2.2 0z" class="By Cq"/><path d="M70.1 154.8l-9.9 5.7a1.03 1.03 0 0 0 0 1.7l9.9 5.6c.6.3 1.4.3 2 0l9.9-5.6c.7-.4.7-1.3 0-1.7l-9.9-5.7c-.6-.3-1.4-.3-2 0z" class="By Cr"/><path d="M70.1 154.9l-9.8 5.7a1.03 1.03 0 0 0 0 1.7l9.8 5.5c.6.3 1.4.3 2 0l9.8-5.5c.7-.4.7-1.3 0-1.7l-9.8-5.7c-.6-.4-1.4-.4-2 0z" class="By Cs"/><path d="M70.1 154.9l-9.8 5.6a1.03 1.03 0 0 0 0 1.7l9.8 5.5c.6.3 1.4.3 2 0l9.8-5.5c.6-.4.7-1.3 0-1.7l-9.8-5.6c-.6-.4-1.4-.4-2 0z" class="By Ct"/><path d="M70.1 154.9l-9.7 5.6a1.03 1.03 0 0 0 0 1.7l9.7 5.5c.6.3 1.4.3 2 0l9.7-5.5a1.03 1.03 0 0 0 0-1.7l-9.7-5.6c-.6-.3-1.4-.3-2 0z" class="By Cu"/><path d="M70.1 155l-9.7 5.6c-.6.4-.6 1.3 0 1.6l9.7 5.4a2.12 2.12 0 0 0 1.9 0l9.7-5.4c.6-.4.6-1.3 0-1.6L72 155c-.5-.4-1.3-.4-1.9 0z" class="By Cv"/><path d="M70.1 155l-9.6 5.5c-.6.4-.6 1.3 0 1.6l9.6 5.4a2.12 2.12 0 0 0 1.9 0l9.6-5.4c.6-.4.6-1.3 0-1.6L72 155c-.5-.3-1.3-.3-1.9 0z" class="By Cw"/><path d="M70.1 155l-9.5 5.5c-.6.4-.6 1.3 0 1.6l9.6 5.4a2.12 2.12 0 0 0 1.9 0l9.6-5.4c.6-.4.6-1.3 0-1.6l-9.5-5.5c-.7-.3-1.5-.3-2.1 0z" class="By Cx"/><path d="M70.1 155.1l-9.5 5.5c-.6.4-.6 1.3 0 1.6l9.5 5.3a2.12 2.12 0 0 0 1.9 0l9.5-5.3c.6-.4.6-1.3 0-1.6l-9.5-5.5c-.5-.4-1.3-.4-1.9 0z" class="By Cy"/><path d="M70.1 155.1l-9.4 5.4c-.6.4-.6 1.3 0 1.6l9.4 5.3a2.12 2.12 0 0 0 1.9 0l9.4-5.3c.6-.4.6-1.2 0-1.6l-9.4-5.4c-.5-.3-1.3-.3-1.9 0z" class="By Cz"/><path d="M70.1 155.2l-9.4 5.4c-.6.4-.6 1.2 0 1.6l9.4 5.3a2.12 2.12 0 0 0 1.9 0l9.4-5.3c.6-.3.6-1.2 0-1.6l-9.4-5.4c-.5-.4-1.3-.4-1.9 0z" class="By DA"/><path d="M70.1 155.2l-9.3 5.4c-.6.4-.6 1.2 0 1.6l9.3 5.2a2.12 2.12 0 0 0 1.9 0l9.3-5.2c.6-.3.6-1.2 0-1.6l-9.3-5.4a2.12 2.12 0 0 0-1.9 0z" class="By DB"/><use xlink:href="#AM" x="-17.3" y="-9.6" class="By DC"/><use xlink:href="#AR" x="-16.2" y="9.4" class="By CF"/><path d="M70.1 155.3l-9.1 5.3c-.6.3-.6 1.2 0 1.6l9.1 5.2c.6.3 1.3.3 1.8 0l9.1-5.2c.6-.3.6-1.2 0-1.6l-9-5.3a2.12 2.12 0 0 0-1.9 0z" class="By DD"/><path d="M70.2 155.3l-9.1 5.2c-.6.3-.6 1.2 0 1.5l9.1 5.1c.6.3 1.3.3 1.8 0l9.1-5.1c.6-.3.6-1.2 0-1.5l-9.1-5.2c-.6-.3-1.3-.3-1.8 0z" class="By DE"/><use xlink:href="#AA" x="-33.4" y="-0.1" class="By DF"/><path d="M70.2 155.4l-9 5.2c-.6.3-.6 1.2 0 1.5l9 5.1a1.91 1.91 0 0 0 1.8 0l9-5.1c.6-.3.6-1.2 0-1.5l-9-5.2c-.6-.3-1.3-.3-1.8 0z" class="By DG"/><path d="M70.2 155.5l-8.9 5.1c-.6.3-.6 1.2 0 1.5l8.9 5a1.91 1.91 0 0 0 1.8 0l8.9-5c.6-.3.6-1.2 0-1.5l-8.9-5.1c-.6-.4-1.3-.4-1.8 0z"/></g><linearGradient id="W" gradientUnits="userSpaceOnUse" x1="59.468" y1="161.165" x2="82.768" y2="161.165"><stop offset=".004" stop-color="#a5cbef"/><stop offset=".188" stop-color="#b2d2f1"/><stop offset="1" stop-color="#e6f1fa"/></linearGradient><path d="M70 154.5l-10.6 4.8v1.8a1.1 1.1 0 0 0 .6 1l10.1 5.7c.6.4 1.4.4 2 0l10-5.6a1.1 1.1 0 0 0 .6-1v-1.6l-10.6-5c-.6-.5-1.4-.5-2.1-.1z" fill="url(#W)"/><path d="M70 152.5l-10.1 5.8c-.7.4-.7 1.3 0 1.7l10.1 5.7c.6.4 1.4.4 2 0l10.1-5.7c.7-.4.7-1.3 0-1.7L72 152.5c-.5-.3-1.3-.3-2 0z" class="DH"/><g class="Bz"><use xlink:href="#AS"/><path d="M107.8 162.1c-.2 0-.3 0-.4-.1l-6.7-3.8c-.4-.2-.6-.8-.3-1.2.2-.4.8-.6 1.2-.3l6.7 3.8c.4.2.6.8.3 1.2-.2.3-.5.4-.8.4z"/><use xlink:href="#AS" x="1.1" y="19"/><path d="M83.9 152.5c-.3 0-.6-.2-.8-.5-.2-.4-.1-1 .3-1.2L90 147c.4-.2 1-.1 1.2.3s.1 1-.3 1.2l-6.6 3.8c-.1.2-.2.2-.4.2zm6.2 15.2c.6.3 1.5.3 2.1 0s.6-.9 0-1.2-1.5-.3-2.1 0c-.5.3-.5.9 0 1.2zm-5.6 3.4c.6.3 1.5.3 2.1 0s.6-.9 0-1.2-1.5-.3-2.1 0c-.5.3-.5.8 0 1.2zm-8.4-11.3h-10c-.5 0-.9-.4-.9-.9s.4-.9.9-.9h10c.5 0 .9.4.9.9s-.4.9-.9.9z"/><path d="M71 162.7c-.5 0-.9-.4-.9-.9l.1-5.8c0-.5.4-.9.9-.9s.9.4.9.9l-.1 5.8c0 .5-.4.9-.9.9z"/></g><path d="M107 123.7v2.1c0 2.4 1.5 4.6 4.2 6.1 2.6 1.5 6 2.2 9.4 2.2s6.8-.7 9.4-2.2c2.7-1.6 4.2-3.8 4.2-6.1v-2.1h-.4c-.6-1.6-1.9-3-3.8-4.1-5.2-3-13.6-3-18.8 0-1.9 1.1-3.2 2.5-3.8 4.1h-.4zm2.6 2.2c0-1.5 1.1-2.9 3-4 2.2-1.3 5.2-1.9 8.1-1.9 3 0 5.9.6 8.1 1.9 1.9 1.1 3 2.5 3 4s-1.1 2.9-3 4c-4.4 2.5-11.9 2.5-16.3 0-1.9-1.2-2.9-2.6-2.9-4z" class="CI"/><g class="CC By"><path d="M129 130.3c-4.5 2.6-12 2.6-16.5 0s-4.5-6.9 0-9.5 12-2.6 16.5 0 4.5 6.8 0 9.5z" opacity=".2"/><path d="M120.9 125.8c-2 1.1-5.2 1.1-7.1 0-2-1.1-2-3 0-4.1s5.2-1.1 7.1 0c2 1.1 2 2.9 0 4.1z" class="CJ"/></g><linearGradient id="X" gradientUnits="userSpaceOnUse" x1="134.371" y1="123.784" x2="107.096" y2="123.784"><stop offset="0" stop-color="#3c5185"/><stop offset=".128" stop-color="#41588e"/><stop offset=".695" stop-color="#5573b1"/><stop offset="1" stop-color="#5d7dbe"/></linearGradient><path d="M111.3 129.9c-2.7-1.6-4.2-3.8-4.2-6.1 0-2.4 1.5-4.6 4.2-6.1 5.2-3 13.6-3 18.8 0 2.7 1.6 4.2 3.8 4.2 6.1 0 2.4-1.5 4.6-4.2 6.1-2.6 1.5-6 2.2-9.4 2.2s-6.8-.7-9.4-2.2zm1.3-10.2c-1.9 1.1-3 2.5-3 4s1.1 2.9 3 4c4.4 2.5 11.9 2.5 16.3 0 1.9-1.1 3-2.5 3-4s-1.1-2.9-3-4c-2.2-1.3-5.2-1.9-8.1-1.9-3.1 0-6 .7-8.2 1.9z" fill="url(#X)"/><path d="M141.1 138.8a1.1 1.1 0 0 0 1-.6c.3-.6.1-1.3-.4-1.6l-11.2-6.5c-.6-.3-2 1-1.2 2.1l11.2 6.5c.1 0 .4.1.6.1z" class="Bz"/><linearGradient id="Y" gradientUnits="userSpaceOnUse" x1="139.451" y1="139.843" x2="142.669" y2="133.125"><stop offset="0" stop-color="#3c5185"/><stop offset=".128" stop-color="#41588e"/><stop offset=".695" stop-color="#5573b1"/><stop offset="1" stop-color="#5d7dbe"/></linearGradient><path d="M146.7 143.9l-15.7-9c-1.6-2.2 1.3-5 2.5-4.3l15.7 9c1.2.7 1.6 2.2.9 3.4-.5.8-1.3 1.3-2.2 1.3-.3-.1-.8-.2-1.2-.4z" fill="url(#Y)"/><path d="M147 140.9l-13.4-7.8c-.4-.5.3-1.1.6-1l13.4 7.8c.3.2.4.5.2.8a.55.55 0 0 1-.5.3c-.1 0-.2 0-.3-.1z" class="By CB CC"/><radialGradient id="Z" cx="157.386" cy="8304.69" r="12.759" gradientTransform="matrix(1 0 0 0.5172 0 -4179.6265)" gradientUnits="userSpaceOnUse"><stop offset=".529" stop-color="#3c5185"/><stop offset=".569" stop-color="#66769f"/><stop offset=".615" stop-color="#8e9ab8"/><stop offset=".664" stop-color="#b1bace"/><stop offset=".716" stop-color="#ced3e0"/><stop offset=".771" stop-color="#e3e6ee"/><stop offset=".832" stop-color="#f3f4f7"/><stop offset=".901" stop-color="#fcfcfd"/><stop offset="1" stop-color="#fff"/></radialGradient><path d="M148.4 110.4c4.9-2.8 13-2.8 17.9 0s4.9 7.5 0 10.3-13 2.8-17.9 0-4.9-7.5 0-10.3z" fill="url(#Z)"/><linearGradient id="a" gradientUnits="userSpaceOnUse" x1="148.193" y1="114.209" x2="166.269" y2="114.209"><stop offset="0" stop-color="#fff"/><stop offset="1" stop-color="#7ea7df"/></linearGradient><path d="M166.2 111.8h-1c-.4-.5-1-.9-1.6-1.3-3.5-2-9.3-2-12.8 0-.7.4-1.2.8-1.6 1.3h-1v2.4c0 1.3.9 2.7 2.6 3.7 3.5 2 9.3 2 12.8 0 1.8-1 2.6-2.4 2.6-3.7v-2.4z" fill="url(#a)"/><linearGradient id="b" gradientUnits="userSpaceOnUse" x1="148.193" y1="111.809" x2="166.269" y2="111.809"><stop offset="0" stop-color="#7ea7df"/><stop offset="1" stop-color="#fff"/></linearGradient><path d="M150.8 108.1c3.5-2 9.3-2 12.8 0s3.5 5.4 0 7.4-9.3 2-12.8 0-3.5-5.4 0-7.4z" fill="url(#b)"/><path d="M153.9 113.4c-.2-.1-.2-.2-.2-.4s.1-.3.3-.4.4-.2.6-.2.4 0 .6.1.2.2.2.4-.1.3-.3.4-.4.2-.6.2c-.3 0-.5 0-.6-.1zm2.2-1.1l-.9-.5.5-.4c.2-.2.4-.3.6-.3.2-.1.4-.1.7-.1l1.2-.1c.3 0 .5-.1.7-.3a.55.55 0 0 0 .3-.5c0-.2-.1-.3-.3-.4s-.4-.2-.7-.1c-.3 0-.5.1-.7.2l-.9-.6c.5-.3 1.1-.5 1.7-.5s1.1.1 1.6.4.7.6.7 1-.2.7-.7 1.1c-.3.2-.7.4-1.1.5-.2 0-.4.1-.5.1h-1.1c-.2 0-.4.1-.7.3l-.4.2z" class="Bz"/><linearGradient id="c" gradientUnits="userSpaceOnUse" x1="19.736" y1="117.759" x2="36.362" y2="117.759"><stop offset="0" stop-color="#5d7dbe"/><stop offset="1" stop-color="#4a65a3"/></linearGradient><path d="M32.1 124.2l-.8-2.9-6.6 3.7-1.6 6.3-1 2.1-2.4-1.3 7.9-28.1 3.3-1.9 1.5.7 3.9 21.2-1 2.1-3.2-1.9zm-2.6-13.6l-3.3 8.7 4.6-2.5-1.3-6.2z" fill="url(#c)"/><linearGradient id="d" gradientUnits="userSpaceOnUse" x1="22.161" y1="118.059" x2="38.442" y2="118.059"><stop offset="0" stop-color="#3c5185"/><stop offset="1" stop-color="#4a65a3"/></linearGradient><path d="M35.3 126l-1.3-4.7-6.6 3.7-1.6 6.3-3.7 2.1 7.5-29.1 2.8-1.6 6 21.5-3.1 1.8zm-4.2-15.1l-2.2 8.4 3.9-2.2-1.7-6.2z" fill="url(#d)"/><linearGradient id="e" gradientUnits="userSpaceOnUse" x1="33.72" y1="145.614" x2="65.779" y2="145.614"><stop offset="0" stop-color="#5d7dbe"/><stop offset="1" stop-color="#4a65a3"/></linearGradient><path d="M64.5 142.2c-.6-.6-1.4-1.2-2.4-1.9l-7.4-4.6-21 9.6-.1 2.9 8.3 5.1c2.6 1.6 5.1 2.3 7.4 2.2 2-.1 3.8-.6 5.2-1.5 1.3-.8 2.1-1.7 2.3-2.6.1-.3.1-.6 0-.9v-1.7c.2 0 .6.1 1.2.1 1.7.1 3.4-.3 5.1-1.3 1.4-.8 2.2-1.8 2.4-3v-.5l.1-3.4-1.1 1.5zm-12.7 9.7c-1.1.7-2.5.1-3.6 0-1-.1-1.8.2-3-.5l-5-3.1 5.8-3.4 4.6 2.9c2.6 1.6 3 3 1.2 4.1zm4.1-3.2c.2 0 .4.1.6.1l-.3.2-.3-.3zm3.4-3.4c-.5.3-3-.4-3.6-.3-1.4.2-.8 1.5-2.5.4l-4.1-2.5 5.5-3.2 4.1 2.5c1.2.7 1.8 1.4 1.9 2 .2.6-.3.5-1.3 1.1z" fill="url(#e)"/><linearGradient id="f" gradientUnits="userSpaceOnUse" x1="33.796" y1="142.809" x2="65.763" y2="142.809"><stop offset="0" stop-color="#3c5185"/><stop offset="1" stop-color="#4a65a3"/></linearGradient><path d="M42 150.4l-8.3-5.1 21.1-12.5 7.4 4.6c1.3.8 2.2 1.6 2.8 2.4s.8 1.5.7 2.1c-.2 1.2-1 2.2-2.4 3-1.6 1-3.3 1.4-5.1 1.3-.6 0-1-.1-1.2-.1s-.5-.1-1-.2c.9.9 1.2 1.8 1 2.8s-1 1.8-2.3 2.6c-1.5.9-3.2 1.4-5.2 1.5-2.4 0-4.9-.8-7.5-2.4zm-1.8-5.1l5 3.1c1.2.7 2.3 1.2 3.3 1.3s2.1-.1 3.3-.8c1.9-1.1 1.5-2.5-1.2-4.2l-4.6-2.9-5.8 3.5zm9.1-5.4l4.1 2.5c2.3 1.4 4.3 1.6 6.1.6 1-.6 1.4-1.2 1.3-1.8s-.8-1.3-1.9-2l-4.1-2.5-5.5 3.2z" fill="url(#f)"/><linearGradient id="g" gradientUnits="userSpaceOnUse" x1="55.369" y1="104.309" x2="71.106" y2="104.309"><stop offset="0" stop-color="#5d7dbe"/><stop offset="1" stop-color="#4a65a3"/></linearGradient><path d="M71.1 115.2l-.6-1-1.9-3.6-2.9 1.2-1.4-.7c-1.3-.7-2.5-2-3.5-3.8s-1.5-3.7-1.6-5.9c-.1-2.1.4-3.5 1.3-4.3.9-.7 2.1-.7 3.5 0 .8.4 1.1 2.3 1.1 2.3l.4 4.3 2.9-1.2 2.2-2.3c-1.9-3.8-4.3-6.5-7-8-1.2-.7-2.4-1-3.4-1l-.3.1-3.9 1.4.5.8c-.9 1.4-1.3 3.4-1.2 5.9.1 3.4 1 6.6 2.8 9.7 1.7 3.1 3.9 5.3 6.4 6.7h.1l1.3.8.5.8 2.9-1.2c.7 0 1.3-.4 1.8-1z" fill="url(#g)"/><linearGradient id="h" gradientUnits="userSpaceOnUse" x1="52.438" y1="105.364" x2="68.175" y2="105.364"><stop offset="0" stop-color="#3c5185"/><stop offset="1" stop-color="#4a65a3"/></linearGradient><path d="M61.3 112.4c1.8 1 3.3.8 4.4-.6l2.5 4.6c-1.8 1.9-4 2.2-6.5.8-2.6-1.4-4.7-3.6-6.4-6.7s-2.7-6.4-2.8-9.7c-.1-3.4.6-5.7 2.2-7.1s3.6-1.4 6.1-.1c2.7 1.5 5.1 4.1 7 8l-2.2 2.3c-1.2-2.6-2.7-4.4-4.5-5.4-1.4-.8-2.6-.8-3.5 0-.9.7-1.4 2.1-1.3 4.3.1 2.1.6 4.1 1.6 5.9.9 1.7 2.1 3 3.4 3.7z" fill="url(#h)"/><defs ><path id="j" d="M49.7 39.1l-.3-.3.4-.1c.1 0 .1-.1.1-.2-.1-.1-.2-.2-.3-.2l-.4.1v-.3c0-.1-.1-.2-.2-.3s-.2 0-.2.1v.3l-.3-.3c-.1-.1-.2-.1-.3 0s0 .2.1.3l.3.3-.4.1c-.1 0-.1.1-.1.2s.1.1.2.2h.1l.4-.1v.2c0 .1.1.2.2.3.1 0 .2 0 .2-.1v-.2l.3.3s.1 0 .1.1h.2c0-.2 0-.3-.1-.4z"/><path id="k" d="M103.3 153.8l-11.6 6.7c-.8.4-.8 1.5 0 2l11.6 6.5c.7.4 1.6.4 2.3 0l11.6-6.5c.8-.4.8-1.5 0-2l-11.6-6.7c-.7-.4-1.6-.4-2.3 0z"/><path id="l" d="M103.3 153.9l-11.5 6.6c-.8.4-.7 1.5 0 2l11.5 6.5c.7.4 1.6.4 2.3 0l11.5-6.5c.8-.4.8-1.5 0-2l-11.5-6.6c-.7-.4-1.6-.4-2.3 0z"/><path id="m" d="M103.3 154l-11.4 6.6c-.7.4-.7 1.5 0 1.9l11.4 6.4c.7.4 1.6.4 2.3 0l11.4-6.4a1.05 1.05 0 0 0 0-1.9l-11.4-6.6c-.7-.4-1.6-.4-2.3 0z"/><path id="n" d="M103.4 154.2l-11 6.4c-.7.4-.7 1.5 0 1.9l11 6.2c.7.4 1.5.4 2.2 0l11-6.2c.7-.4.7-1.5 0-1.9l-11-6.4c-.7-.4-1.5-.4-2.2 0z"/><path id="o" d="M103.4 154.3l-11 6.3c-.7.4-.7 1.5 0 1.9l11 6.2c.7.4 1.5.4 2.2 0l11-6.2c.7-.4.7-1.5 0-1.9l-11-6.3c-.7-.4-1.5-.4-2.2 0z"/><path id="p" d="M103.4 154.3l-10.9 6.3c-.7.4-.7 1.4 0 1.8l10.9 6.1c.7.4 1.5.4 2.2 0l10.9-6.1c.7-.4.7-1.4 0-1.8l-10.9-6.3c-.7-.4-1.5-.4-2.2 0z"/><path id="q" d="M103.4 154.4l-10.7 6.2c-.7.4-.7 1.4 0 1.8l10.7 6c.7.4 1.5.4 2.2 0l10.7-6c.7-.4.7-1.4 0-1.8l-10.7-6.2c-.7-.4-1.5-.4-2.2 0z"/><path id="r" d="M103.4 154.5l-10.6 6.1c-.7.4-.7 1.4 0 1.8l10.6 6c.7.4 1.5.4 2.1 0l10.6-6c.7-.4.7-1.4 0-1.8l-10.6-6.1c-.6-.4-1.4-.4-2.1 0z"/><path id="s" d="M103.4 154.6l-10.5 6.1c-.7.4-.7 1.4 0 1.8l10.5 5.9c.7.4 1.5.4 2.1 0l10.5-5.9c.7-.4.7-1.4 0-1.8l-10.5-6.1c-.6-.4-1.4-.4-2.1 0z"/><path id="t" d="M103.4 154.6l-10.4 6c-.7.4-.7 1.4 0 1.8l10.4 5.9c.7.4 1.4.4 2.1 0l10.4-5.9c.7-.4.7-1.4 0-1.8l-10.4-6c-.6-.4-1.4-.4-2.1 0z"/><path id="u" d="M103.4 154.7l-10.3 6c-.7.4-.7 1.4 0 1.8l10.4 5.8c.6.4 1.4.4 2.1 0l10.4-5.8c.7-.4.7-1.4 0-1.8l-10.3-6c-.8-.4-1.6-.4-2.3 0z"/><path id="v" d="M103.4 154.7l-10.3 5.9c-.7.4-.7 1.4 0 1.8l10.3 5.8c.6.4 1.4.4 2.1 0l10.3-5.8c.7-.4.7-1.4 0-1.8l-10.3-5.9c-.6-.4-1.4-.4-2.1 0z"/><path id="w" d="M103.5 154.8l-10.1 5.8c-.7.4-.7 1.3 0 1.7l10.1 5.7c.6.4 1.4.4 2 0l10.1-5.7c.7-.4.7-1.3 0-1.7l-10.1-5.8c-.6-.4-1.4-.4-2 0z"/><path id="x" d="M103.5 154.9l-10 5.8c-.7.4-.7 1.3 0 1.7l10 5.6c.6.4 1.4.4 2 0l10-5.6c.7-.4.7-1.3 0-1.7l-10-5.8c-.6-.4-1.4-.4-2 0z"/><path id="y" d="M103.5 154.9l-9.9 5.7c-.7.4-.6 1.3 0 1.7l10 5.6c.6.4 1.4.4 2 0l10-5.6c.7-.4.7-1.3 0-1.7l-9.9-5.7c-.8-.3-1.6-.3-2.2 0z"/><path id="z" d="M103.5 155l-9.9 5.7a1.03 1.03 0 0 0 0 1.7l9.9 5.6c.6.3 1.4.3 2 0l9.9-5.6c.7-.4.7-1.3 0-1.7l-9.9-5.7c-.6-.4-1.4-.4-2 0z"/><path id="AA" d="M103.6 155.5l-9 5.2c-.6.3-.6 1.2 0 1.5l9 5.1c.6.3 1.3.3 1.8 0l9-5.1c.6-.3.6-1.2 0-1.5l-9-5.2c-.6-.3-1.3-.3-1.8 0z"/><path id="AB" d="M87.1 163.1l-11.8 6.8c-.8.4-.8 1.6 0 2l11.8 6.7c.7.4 1.6.4 2.4 0l11.8-6.7c.8-.4.8-1.6 0-2l-11.8-6.8c-.7-.4-1.6-.4-2.4 0z"/><path id="AC" d="M87.1 163.2l-11.7 6.7c-.8.4-.8 1.6 0 2l11.7 6.6c.7.4 1.6.4 2.4 0l11.7-6.6c.8-.4.8-1.5 0-2l-11.7-6.7c-.7-.4-1.6-.4-2.4 0z"/><path id="AD" d="M87.2 163.4l-11.3 6.5c-.7.4-.7 1.5 0 1.9l11.3 6.4c.7.4 1.6.4 2.3 0l11.3-6.4c.7-.4.8-1.5 0-1.9l-11.3-6.5c-.7-.4-1.6-.4-2.3 0z"/><path id="AE" d="M87.2 163.6l-11 6.4c-.7.4-.7 1.5 0 1.9l11 6.2c.7.4 1.5.4 2.2 0l11-6.2c.7-.4.7-1.5 0-1.9l-11-6.4c-.6-.4-1.5-.4-2.2 0z"/><path id="AF" d="M87.2 163.7l-11 6.3c-.7.4-.7 1.5 0 1.9l11 6.2c.7.4 1.5.4 2.2 0l11-6.2c.7-.4.7-1.5 0-1.9l-11-6.3c-.6-.4-1.5-.4-2.2 0z"/><path id="AG" d="M87.2 163.9l-10.7 6.2c-.7.4-.7 1.4 0 1.8l10.7 6c.7.4 1.5.4 2.2 0l10.7-6c.7-.4.7-1.4 0-1.8l-10.7-6.2c-.6-.4-1.5-.4-2.2 0z"/><path id="AH" d="M87.3 164.1l-10.3 6c-.7.4-.7 1.4 0 1.8l10.4 5.8c.6.4 1.4.4 2.1 0l10.4-5.8c.7-.4.7-1.4 0-1.8l-10.3-6c-.9-.4-1.7-.4-2.3 0z"/><path id="AI" d="M87.3 164.5l-9.8 5.6a1.03 1.03 0 0 0 0 1.7l9.8 5.5c.6.3 1.4.3 2 0l9.8-5.5c.6-.4.7-1.3 0-1.7l-9.8-5.6c-.6-.4-1.3-.4-2 0z"/><path id="AJ" d="M87.4 164.6l-9.5 5.5c-.6.4-.6 1.3 0 1.6l9.6 5.4a2.12 2.12 0 0 0 1.9 0l9.6-5.4c.6-.4.6-1.3 0-1.6l-9.5-5.5c-.8-.3-1.5-.3-2.1 0z"/><path id="AK" d="M87.4 164.7l-9.4 5.4c-.6.4-.6 1.2 0 1.6l9.4 5.3a2.12 2.12 0 0 0 1.9 0l9.4-5.3c.6-.3.6-1.2 0-1.6l-9.4-5.4a2.12 2.12 0 0 0-1.9 0z"/><path id="AL" d="M87.4 164.8l-9.3 5.4c-.6.4-.6 1.2 0 1.6l9.3 5.2a2.12 2.12 0 0 0 1.9 0l9.3-5.2c.6-.3.6-1.2 0-1.6l-9.3-5.4a1.65 1.65 0 0 0-1.9 0z"/><path id="AM" d="M87.4 164.8l-9.3 5.3c-.6.4-.6 1.2 0 1.6l9.3 5.2a2.12 2.12 0 0 0 1.9 0l9.3-5.2c.6-.3.6-1.2 0-1.6l-9.3-5.3a2.12 2.12 0 0 0-1.9 0z"/><path id="AN" d="M87.4 164.9l-9.1 5.2c-.6.3-.6 1.2 0 1.5l9.1 5.1c.6.3 1.3.3 1.8 0l9.1-5.1c.6-.3.6-1.2 0-1.5l-9.1-5.2c-.5-.3-1.2-.3-1.8 0z"/><path id="AO" d="M87.4 165l-9 5.2c-.6.3-.6 1.2 0 1.5l9 5.1a1.91 1.91 0 0 0 1.8 0l9-5.1c.6-.3.6-1.2 0-1.5l-9-5.2c-.5-.3-1.2-.3-1.8 0z"/><path id="AP" d="M87.4 165l-8.9 5.1c-.6.3-.6 1.2 0 1.5l8.9 5a1.91 1.91 0 0 0 1.8 0l8.9-5c.6-.3.6-1.2 0-1.5l-8.9-5.1c-.5-.3-1.2-.3-1.8 0z"/><path id="AQ" d="M87.3 164l-10.6 4.8v1.8a1.1 1.1 0 0 0 .6 1l10.1 5.7c.6.4 1.4.4 2 0l10-5.6a1.1 1.1 0 0 0 .6-1v-1.6l-10.6-5c-.7-.4-1.5-.4-2.1-.1z"/><path id="AR" d="M86.3 145.9l-9.2 5.3c-.6.3-.6 1.2 0 1.6l9.2 5.2a2.12 2.12 0 0 0 1.9 0l9.2-5.2c.6-.3.6-1.2 0-1.6l-9.2-5.3a1.65 1.65 0 0 0-1.9 0z"/><path id="AS" d="M90.6 152.6c-.2 0-.3 0-.4-.1l-6.7-3.8c-.4-.2-.6-.8-.3-1.2.2-.4.8-.6 1.2-.3l6.7 3.8c.4.2.6.8.3 1.2-.2.2-.5.4-.8.4z"/></defs></svg>