<svg xmlns="http://www.w3.org/2000/svg" xmlns:xlink="http://www.w3.org/1999/xlink" viewBox="0 0 256 256"><path d="M236 47h-6v8a2 2 0 1 1-4 0v-8h-36v8a2 2 0 1 1-4 0v-8h-36v8a2 2 0 1 1-4 0v-8h-36v8a2 2 0 1 1-4 0v-8H70v8a2 2 0 1 1-4 0v-8H30v8a2 2 0 1 1-4 0v-8h-1a8 8 0 0 0-8 8v156a8 8 0 0 0 8 8h211a8 8 0 0 0 8-8V55a8 8 0 0 0-8-8zm-45.07 59.4a9.87 9.87 0 1 1 9.87-9.87 9.88 9.88 0 0 1-9.87 9.87zm0 25.73a9.87 9.87 0 1 1 9.87-9.87 9.88 9.88 0 0 1-9.87 9.87zm0 25.73a9.87 9.87 0 1 1 9.87-9.86 9.88 9.88 0 0 1-9.87 9.87zm0 6a9.87 9.87 0 1 1-9.87 9.87 9.88 9.88 0 0 1 9.87-9.86zm-31.46-57.46a9.87 9.87 0 1 1 9.87-9.87 9.88 9.88 0 0 1-9.87 9.87zm0 25.73a9.87 9.87 0 1 1 9.87-9.87 9.88 9.88 0 0 1-9.87 9.87zm0 25.73a9.87 9.87 0 1 1 9.87-9.87 9.88 9.88 0 0 1-9.87 9.88zm0 25.73a9.87 9.87 0 1 1 9.87-9.87 9.88 9.88 0 0 1-9.87 9.88zm0 6a9.87 9.87 0 1 1-9.87 9.87 9.88 9.88 0 0 1 9.87-9.86zM128 106.4a9.87 9.87 0 1 1 9.87-9.87 9.88 9.88 0 0 1-9.87 9.87zm0 25.73a9.87 9.87 0 1 1 9.87-9.87 9.88 9.88 0 0 1-9.87 9.87zm0 25.73a9.87 9.87 0 1 1 9.87-9.87 9.88 9.88 0 0 1-9.87 9.88zm0 25.73a9.87 9.87 0 1 1 9.87-9.87 9.88 9.88 0 0 1-9.87 9.88zm0 6a9.87 9.87 0 1 1-9.87 9.87 9.88 9.88 0 0 1 9.87-9.86zM70 70.67H30a2 2 0 0 1 0-4h40a2 2 0 0 1 0 4zm2 98.92l-4.15 4.15 4.15 4.14a2 2 0 1 1-2.83 2.83l-4.15-4.15-4.15 4.15a2 2 0 1 1-2.83-2.83l4.15-4.15-4.15-4.15a2 2 0 1 1 2.83-2.83l4.15 4.15 4.15-4.15a2 2 0 1 1 2.83 2.83zm-7 20a9.87 9.87 0 1 1-9.87 9.87 9.88 9.88 0 0 1 9.94-9.86zm0-31.73a9.87 9.87 0 1 1 9.93-9.86 9.88 9.88 0 0 1-9.86 9.87zm0-25.73a9.87 9.87 0 1 1 9.87-9.87 9.88 9.88 0 0 1-9.8 9.87zm-31.47 0a9.87 9.87 0 1 1 9.87-9.87 9.88 9.88 0 0 1-9.8 9.87zm0 25.73a9.87 9.87 0 1 1 9.94-9.86 9.88 9.88 0 0 1-9.87 9.87zm0 25.73a9.87 9.87 0 1 1 9.87-9.87 9.88 9.88 0 0 1-9.8 9.88zm0 6a9.87 9.87 0 1 1-9.87 9.87 9.88 9.88 0 0 1 9.94-9.86zm188.8-25.73a9.87 9.87 0 1 1-9.87 9.87 9.88 9.88 0 0 1 9.94-9.86zm0-6a9.87 9.87 0 1 1 9.87-9.87 9.88 9.88 0 0 1-9.8 9.88zm0-25.73a9.87 9.87 0 1 1 9.87-9.87 9.88 9.88 0 0 1-9.8 9.87zm0-25.73a9.87 9.87 0 1 1 9.87-9.87 9.88 9.88 0 0 1-9.8 9.87zM90 66.67h136a2 2 0 0 1 0 4H90a2 2 0 0 1 0-4zm6.53 122.93a9.87 9.87 0 1 1-9.87 9.87 9.88 9.88 0 0 1 9.87-9.87zm0-6a9.87 9.87 0 1 1 9.87-9.87 9.88 9.88 0 0 1-9.87 9.87zm0-25.73a9.87 9.87 0 1 1 9.87-9.87 9.88 9.88 0 0 1-9.87 9.87zm0-25.73a9.87 9.87 0 1 1 9.87-9.87 9.88 9.88 0 0 1-9.87 9.86zm0-25.73a9.87 9.87 0 1 1 9.87-9.87 9.88 9.88 0 0 1-9.87 9.86z" fill="#effafe"/><g fill="#eb5639"><circle cx="33.6" cy="199.47" r="5.87"/><circle cx="33.6" cy="173.73" r="5.87"/><circle cx="33.6" cy="148" r="5.87"/><circle cx="33.6" cy="122.27" r="5.87"/></g><g fill="#effafe"><circle cx="65.07" cy="122.27" r="5.87"/><circle cx="65.07" cy="148" r="5.87"/><circle cx="65.07" cy="199.47" r="5.87"/><circle cx="96.53" cy="122.27" r="5.87"/><circle cx="96.53" cy="148" r="5.87"/><circle cx="96.53" cy="199.47" r="5.87"/><circle cx="96.53" cy="173.73" r="5.87"/></g><g fill="#40bdff"><circle cx="190.93" cy="96.53" r="5.87"/><circle cx="190.93" cy="148" r="5.87"/><circle cx="190.93" cy="122.27" r="5.87"/><circle cx="190.93" cy="173.73" r="5.87"/></g><path d="M236 47h-5a8 8 0 0 1 8 8v156a8 8 0 0 1-8 8h5a8 8 0 0 0 8-8V55a8 8 0 0 0-8-8z" fill="#e4ebed"/><g fill="#effafe"><circle cx="222.4" cy="96.53" r="5.87"/><circle cx="222.4" cy="148" r="5.87"/><circle cx="222.4" cy="122.27" r="5.87"/><circle cx="128" cy="122.27" r="5.87"/><circle cx="128" cy="148" r="5.87"/><circle cx="128" cy="199.47" r="5.87"/><circle cx="128" cy="173.73" r="5.87"/><circle cx="128" cy="96.53" r="5.87"/><circle cx="159.47" cy="199.47" r="5.87"/><circle cx="159.47" cy="122.27" r="5.87"/><circle cx="159.47" cy="96.53" r="5.87"/><circle cx="159.47" cy="148" r="5.87"/><circle cx="159.47" cy="173.73" r="5.87"/><circle cx="222.4" cy="173.73" r="5.87"/><circle cx="96.53" cy="96.53" r="5.87"/></g><g fill="#e4ebed"><use xlink:href="#B"/><path d="M128,90.67a5.84,5.84,0,0,0-1.5.2,5.86,5.86,0,0,1,0,11.33A5.86,5.86,0,1,0,128,90.67Z"/><use xlink:href="#B" x="62.94"/><use xlink:href="#B" x="125.87"/></g><g fill="#2197f7"><use xlink:href="#B" x="94.4"/><use xlink:href="#C"/><use xlink:href="#D"/><use xlink:href="#E"/></g><g fill="#e4ebed"><use xlink:href="#C" x="-94.4"/><path d="M128,116.4a5.84,5.84,0,0,0-1.5.2,5.86,5.86,0,0,1,0,11.33A5.86,5.86,0,1,0,128,116.4Z"/><use xlink:href="#C" x="-31.46"/><use xlink:href="#C" x="31.47"/><use xlink:href="#D" x="-94.4"/><use xlink:href="#D" x="-62.93"/><use xlink:href="#D" x="-31.46"/><use xlink:href="#D" x="31.47"/><use xlink:href="#E" x="-94.4"/></g><use xlink:href="#E" x="-157.33" fill="#d84936"/><g fill="#e4ebed"><use xlink:href="#F"/><use xlink:href="#F" x="-31.46"/><use xlink:href="#D" x="-125.86"/><use xlink:href="#C" x="-125.86"/></g><g fill="#d84936"><use xlink:href="#F" x="-62.93"/><use xlink:href="#D" x="-157.33"/><use xlink:href="#C" x="-157.33"/></g><g fill="#e4ebed"><path d="M128,193.6a5.84,5.84,0,0,0-1.5.2,5.86,5.86,0,0,1,0,11.33A5.86,5.86,0,1,0,128,193.6Z"/><use xlink:href="#F" x="62.94"/><use xlink:href="#E" x="-62.93"/><use xlink:href="#E" x="-31.46"/><use xlink:href="#E" x="31.47"/></g><g fill="#263238"><path d="M236 42.5h-5.5V35a2.5 2.5 0 0 0-5 0v7.5h-35V35a2.5 2.5 0 0 0-5 0v7.5h-35V35a2.5 2.5 0 0 0-5 0v7.5h-35V35a2.5 2.5 0 0 0-5 0v7.5h-35V35a2.5 2.5 0 0 0-5 0v7.5h-35V35a2.5 2.5 0 0 0-5 0v7.5H20A12.51 12.51 0 0 0 7.5 55v156A12.51 12.51 0 0 0 20 223.5h216a12.51 12.51 0 0 0 12.5-12.5V55A12.51 12.51 0 0 0 236 42.5zm7.5 168.5a7.51 7.51 0 0 1-7.5 7.5H20a7.51 7.51 0 0 1-7.5-7.5V55a7.51 7.51 0 0 1 7.5-7.5h5.5V55a2.5 2.5 0 1 0 5 0v-7.5h35V55a2.5 2.5 0 1 0 5 0v-7.5h35V55a2.5 2.5 0 1 0 5 0v-7.5h35V55a2.5 2.5 0 1 0 5 0v-7.5h35V55a2.5 2.5 0 1 0 5 0v-7.5h35V55a2.5 2.5 0 1 0 5 0v-7.5h5.5a7.51 7.51 0 0 1 7.5 7.5zM30 71.17h40a2.5 2.5 0 0 0 0-5H30a2.5 2.5 0 0 0 0 5zm60 0h136a2.5 2.5 0 0 0 0-5H90a2.5 2.5 0 0 0 0 5z"/><use xlink:href="#G"/><path d="M128,86.17a10.37,10.37,0,1,0,10.37,10.37A10.38,10.38,0,0,0,128,86.17Zm0,15.73a5.37,5.37,0,1,1,5.37-5.37A5.37,5.37,0,0,1,128,101.9Z"/><use xlink:href="#H"/><use xlink:href="#G" x="94.4"/><use xlink:href="#H" x="62.93"/><path d="M33.6 111.9A10.37 10.37 0 1 0 44 122.27a10.38 10.38 0 0 0-10.4-10.37zm0 15.73a5.37 5.37 0 1 1 5.4-5.36 5.37 5.37 0 0 1-5.4 5.36z"/><use xlink:href="#H" x="-94.4" y="25.73"/><use xlink:href="#H" x="-62.94" y="25.73"/><path d="M128 111.9a10.37 10.37 0 1 0 10.37 10.37A10.38 10.38 0 0 0 128 111.9zm0 15.73a5.37 5.37 0 1 1 5.37-5.37 5.37 5.37 0 0 1-5.37 5.37z"/><use xlink:href="#H" y="25.73"/><use xlink:href="#H" x="31.46" y="25.73"/><use xlink:href="#H" x="62.93" y="25.73"/><path d="M33.6 137.63A10.37 10.37 0 1 0 44 148a10.38 10.38 0 0 0-10.4-10.37zm0 15.73A5.37 5.37 0 1 1 39 148a5.37 5.37 0 0 1-5.4 5.37zm31.47-15.73A10.37 10.37 0 1 0 75.43 148a10.38 10.38 0 0 0-10.36-10.37zm0 15.73a5.37 5.37 0 1 1 5.36-5.36 5.37 5.37 0 0 1-5.36 5.37zm31.46-15.73A10.37 10.37 0 1 0 106.9 148a10.38 10.38 0 0 0-10.37-10.37zm0 15.73a5.37 5.37 0 1 1 5.37-5.36 5.37 5.37 0 0 1-5.37 5.37zM128 137.63A10.37 10.37 0 1 0 138.37 148 10.38 10.38 0 0 0 128 137.63zm0 15.73a5.37 5.37 0 1 1 5.37-5.37 5.37 5.37 0 0 1-5.37 5.38z"/><path d="M159.47 137.63A10.37 10.37 0 1 0 169.83 148a10.38 10.38 0 0 0-10.36-10.37zm0 15.73a5.37 5.37 0 1 1 5.37-5.37 5.37 5.37 0 0 1-5.37 5.38zm31.46-15.73A10.37 10.37 0 1 0 201.3 148a10.38 10.38 0 0 0-10.37-10.37zm0 15.73a5.37 5.37 0 1 1 5.37-5.36 5.37 5.37 0 0 1-5.37 5.37zm31.47-15.73A10.37 10.37 0 1 0 232.77 148a10.38 10.38 0 0 0-10.37-10.37zm0 15.73a5.37 5.37 0 1 1 5.37-5.37 5.37 5.37 0 0 1-5.37 5.38zm-188.8 10A10.37 10.37 0 1 0 44 173.73a10.38 10.38 0 0 0-10.4-10.36zm0 15.73a5.37 5.37 0 1 1 5.4-5.37 5.37 5.37 0 0 1-5.4 5.37z"/><use xlink:href="#H" x="-62.94" y="77.2"/><path d="M128,163.37a10.37,10.37,0,1,0,10.37,10.37A10.38,10.38,0,0,0,128,163.37Zm0,15.73a5.37,5.37,0,1,1,5.37-5.37A5.37,5.37,0,0,1,128,179.1Z"/><use xlink:href="#H" y="77.2"/><use xlink:href="#H" x="31.46" y="77.2"/><use xlink:href="#H" x="62.93" y="77.2"/><path d="M57.74 181.06a2.5 2.5 0 0 0 3.54 0l3.8-3.8 3.8 3.8a2.503 2.503 0 0 0 3.54-3.54l-3.8-3.8 3.8-3.8a2.503 2.503 0 1 0-3.54-3.54l-3.8 3.8-3.8-3.8a2.503 2.503 0 1 0-3.54 3.54l3.8 3.8-3.8 3.8a2.5 2.5 0 0 0 0 3.54zM33.6 189.1A10.37 10.37 0 1 0 44 199.47a10.38 10.38 0 0 0-10.4-10.37zm0 15.73a5.37 5.37 0 1 1 5.4-5.36 5.37 5.37 0 0 1-5.4 5.36z"/><use xlink:href="#H" x="-94.4" y="102.93"/><use xlink:href="#H" x="-62.94" y="102.93"/><path d="M128 189.1a10.37 10.37 0 1 0 10.37 10.37A10.38 10.38 0 0 0 128 189.1zm0 15.73a5.37 5.37 0 1 1 5.37-5.37 5.37 5.37 0 0 1-5.37 5.37z"/><use xlink:href="#H" y="102.93"/></g><path d="M149.57,16.8h-4v-4a1,1,0,1,0-2,0v4h-4a1,1,0,0,0,0,2h4v4a1,1,0,0,0,2,0v-4h4a1,1,0,0,0,0-2Z" fill="#fd0"/><g fill="#40bdff"><path d="M230.54,235.4h-4v-4a1,1,0,0,0-2,0v4h-4a1,1,0,0,0,0,2h4v4a1,1,0,0,0,2,0v-4h4a1,1,0,1,0,0-2Z"/><use xlink:href="#I"/><use xlink:href="#I" x="128.34" y="4.95"/></g><use xlink:href="#I" x="71.84" y="220.15" fill="#fd0"/><path d="M32.5 236.45h-2.6l1.83-1.83a1 1 0 0 0-1.41-1.41L28.5 235v-2.6a1 1 0 0 0-2 0v2.6l-1.83-1.83a1 1 0 0 0-1.41 1.41l1.83 1.83h-2.6a1 1 0 0 0 0 2h2.6l-1.83 1.83a1 1 0 0 0 1.41 1.41l1.83-1.83v2.6a1 1 0 1 0 2 0v-2.6l1.83 1.83a1 1 0 0 0 1.41-1.41l-1.83-1.83h2.6a1 1 0 1 0 0-2z" fill="#40bdff"/><defs ><path id="B" d="M96.53,90.67a5.84,5.84,0,0,0-1.5.2,5.86,5.86,0,0,1,0,11.33,5.86,5.86,0,1,0,1.5-11.53Z"/><path id="C" d="M190.93,116.4a5.84,5.84,0,0,0-1.5.2,5.86,5.86,0,0,1,0,11.33,5.86,5.86,0,1,0,1.5-11.53Z"/><path id="D" d="M190.93,142.13a5.84,5.84,0,0,0-1.5.2,5.86,5.86,0,0,1,0,11.33,5.86,5.86,0,1,0,1.5-11.53Z"/><path id="E" d="M190.93,167.87a5.84,5.84,0,0,0-1.5.2,5.86,5.86,0,0,1,0,11.33,5.86,5.86,0,1,0,1.5-11.53Z"/><path id="F" d="M96.53,193.6a5.84,5.84,0,0,0-1.5.2,5.86,5.86,0,0,1,0,11.33,5.86,5.86,0,1,0,1.5-11.53Z"/><path id="G" d="M96.53 86.17a10.37 10.37 0 1 0 10.37 10.36 10.38 10.38 0 0 0-10.37-10.36zm0 15.73a5.37 5.37 0 1 1 5.37-5.37 5.37 5.37 0 0 1-5.37 5.37z"/><path id="H" d="M159.47 86.17a10.37 10.37 0 1 0 10.37 10.37 10.38 10.38 0 0 0-10.37-10.37zm0 15.73a5.37 5.37 0 1 1 5.37-5.37 5.37 5.37 0 0 1-5.37 5.37z"/><path id="I" d="M66.53 24.85a6 6 0 1 1 6-6 6 6 0 0 1-6 6zm0-10a4 4 0 1 0 4 4 4 4 0 0 0-4-4z"/></defs></svg>