<svg xmlns="http://www.w3.org/2000/svg" xmlns:xlink="http://www.w3.org/1999/xlink" viewBox="0 0 256 256"><style><![CDATA[.I{fill:#40bdff}.J{fill:#eb5639}.K{fill:#2197f7}.L{fill:#d84936}]]></style><path d="M236 47h-6v8c0 1.1-.9 2-2 2s-2-.9-2-2v-8h-36v8c0 1.1-.9 2-2 2s-2-.9-2-2v-8h-36v8c0 1.1-.9 2-2 2s-2-.9-2-2v-8h-36v8c0 1.1-.9 2-2 2s-2-.9-2-2v-8H70v8c0 1.1-.9 2-2 2s-2-.9-2-2v-8H30v8c0 1.1-.9 2-2 2s-2-.9-2-2v-8h-1c-4.4 0-8 3.6-8 8v156c0 4.4 3.6 8 8 8h211c4.4 0 8-3.6 8-8V55c0-4.4-3.6-8-8-8zm-45.1 59.4a9.86 9.86 0 1 1 0-19.8 9.86 9.86 0 1 1 0 19.8zm0 25.7a9.86 9.86 0 1 1 0-19.8 9.86 9.86 0 1 1 0 19.8zm0 25.8a9.86 9.86 0 1 1 0-19.8 9.86 9.86 0 0 1 9.9 9.9c0 5.4-4.4 9.9-9.9 9.9zm0 6a9.86 9.86 0 1 1 0 19.8 9.86 9.86 0 0 1-9.9-9.9c.1-5.5 4.5-9.9 9.9-9.9zm-31.4-57.5a9.86 9.86 0 1 1 0-19.8 9.86 9.86 0 0 1 9.9 9.9c-.1 5.5-4.5 9.9-9.9 9.9zm0 25.7a9.86 9.86 0 1 1 0-19.8 9.86 9.86 0 0 1 9.9 9.9c-.1 5.5-4.5 9.9-9.9 9.9zm0 25.8a9.86 9.86 0 1 1 0-19.8 9.86 9.86 0 0 1 9.9 9.9c-.1 5.4-4.5 9.9-9.9 9.9zm0 25.7a9.86 9.86 0 1 1 0-19.8 9.86 9.86 0 0 1 9.9 9.9c-.1 5.5-4.5 9.9-9.9 9.9zm0 6a9.86 9.86 0 1 1 0 19.8 9.86 9.86 0 1 1 0-19.8zM128 106.4a9.86 9.86 0 1 1 0-19.8 9.86 9.86 0 0 1 9.9 9.9c0 5.5-4.5 9.9-9.9 9.9zm0 25.7a9.86 9.86 0 1 1 0-19.8 9.86 9.86 0 0 1 9.9 9.9c0 5.5-4.5 9.9-9.9 9.9zm0 25.8a9.86 9.86 0 1 1 0-19.8 9.86 9.86 0 0 1 9.9 9.9c0 5.4-4.4 9.9-9.9 9.9zm0 25.7a9.86 9.86 0 1 1 0-19.8 9.86 9.86 0 1 1 0 19.8zm0 6a9.86 9.86 0 1 1 0 19.8 9.86 9.86 0 0 1-9.9-9.9c0-5.5 4.5-9.9 9.9-9.9zM70 70.7H30c-1.1 0-2-.9-2-2s.9-2 2-2h40c1.1 0 2 .9 2 2s-.9 2-2 2zm2 98.9l-4.2 4.1 4.2 4.1a1.93 1.93 0 1 1-2.8 2.8l-4.2-4.1-4.2 4.1a1.93 1.93 0 0 1-2.8 0 1.93 1.93 0 0 1 0-2.8l4.2-4.1-4.2-4.1a1.93 1.93 0 0 1 0-2.8 1.93 1.93 0 0 1 2.8 0l4.2 4.1 4.2-4.1a1.93 1.93 0 0 1 2.8 0c.8.7.8 2 0 2.8zm-7 20a9.86 9.86 0 1 1 0 19.8 9.86 9.86 0 0 1-9.9-9.9c0-5.5 4.5-9.9 9.9-9.9zm0-31.7c-5.5 0-9.8-4.5-9.8-9.9 0-5.5 4.5-9.8 9.9-9.8s9.8 4.4 9.8 9.9c0 5.3-4.4 9.8-9.9 9.8zm0-25.8a9.86 9.86 0 1 1 0-19.8 9.86 9.86 0 1 1 0 19.8zm-31.5 0a9.86 9.86 0 1 1 0-19.8 9.86 9.86 0 1 1 0 19.8zm0 25.8c-5.5 0-9.8-4.5-9.8-9.9s4.5-9.8 9.9-9.8 9.8 4.5 9.8 9.9c.1 5.3-4.4 9.8-9.9 9.8zm0 25.7a9.86 9.86 0 1 1 0-19.8 9.86 9.86 0 0 1 9.9 9.9c0 5.4-4.4 9.9-9.9 9.9zm0 6a9.86 9.86 0 1 1 0 19.8 9.86 9.86 0 0 1-9.9-9.9c.1-5.5 4.5-9.9 9.9-9.9zm188.8-25.7a9.86 9.86 0 1 1 0 19.8 9.86 9.86 0 0 1-9.9-9.9c.1-5.5 4.5-9.9 9.9-9.9zm0-6a9.86 9.86 0 1 1 0-19.8 9.86 9.86 0 0 1 9.9 9.9c0 5.4-4.4 9.8-9.9 9.9zm0-25.8a9.86 9.86 0 1 1 0-19.8 9.86 9.86 0 1 1 0 19.8zm0-25.7a9.86 9.86 0 1 1 0-19.8 9.86 9.86 0 1 1 0 19.8zM90 66.7h136c1.1 0 2 .9 2 2s-.9 2-2 2H90c-1.1 0-2-.9-2-2s.9-2 2-2zm6.5 122.9a9.86 9.86 0 1 1 0 19.8 9.86 9.86 0 0 1-9.9-9.9c.1-5.5 4.5-9.9 9.9-9.9zm0-6a9.86 9.86 0 1 1 0-19.8 9.86 9.86 0 1 1 0 19.8zm0-25.7a9.86 9.86 0 1 1 0-19.8 9.86 9.86 0 0 1 9.9 9.9c0 5.4-4.4 9.9-9.9 9.9zm0-25.8a9.86 9.86 0 1 1 0-19.8 9.86 9.86 0 1 1 0 19.8zm0-25.7a9.86 9.86 0 1 1 0-19.8 9.86 9.86 0 1 1 0 19.8z" fill="#effafe"/><g class="J"><circle cx="33.6" cy="199.5" r="5.9"/><circle cx="33.6" cy="173.7" r="5.9"/><circle cx="33.6" cy="148" r="5.9"/><circle cx="33.6" cy="122.3" r="5.9"/><circle cx="65.1" cy="122.3" r="5.9"/></g><g class="I"><circle cx="65.1" cy="148" r="5.9"/><circle cx="65.1" cy="199.5" r="5.9"/><circle cx="96.5" cy="122.3" r="5.9"/></g><g class="J"><circle cx="96.5" cy="148" r="5.9"/><circle cx="96.5" cy="199.5" r="5.9"/><circle cx="96.5" cy="173.7" r="5.9"/></g><g class="I"><circle cx="190.9" cy="96.5" r="5.9"/><circle cx="190.9" cy="148" r="5.9"/><circle cx="190.9" cy="122.3" r="5.9"/><circle cx="190.9" cy="173.7" r="5.9"/></g><path d="M236 47h-5c4.4 0 8 3.6 8 8v156c0 4.4-3.6 8-8 8h5c4.4 0 8-3.6 8-8V55c0-4.4-3.6-8-8-8z" fill="#e4ebed"/><circle cx="222.4" cy="96.5" r="5.9" class="J"/><circle cx="222.4" cy="148" r="5.9" class="I"/><circle cx="222.4" cy="122.3" r="5.9" class="J"/><g class="I"><circle cx="128" cy="122.3" r="5.9"/><circle cx="128" cy="148" r="5.9"/><circle cx="128" cy="199.5" r="5.9"/><circle cx="128" cy="173.7" r="5.9"/></g><circle cx="128" cy="96.5" r="5.9" class="J"/><circle cx="159.5" cy="199.5" r="5.9" class="I"/><g class="J"><circle cx="159.5" cy="122.3" r="5.9"/><circle cx="159.5" cy="96.5" r="5.9"/><circle cx="159.5" cy="148" r="5.9"/><circle cx="159.5" cy="173.7" r="5.9"/><circle cx="222.4" cy="173.7" r="5.9"/></g><circle cx="96.5" cy="96.5" r="5.9" class="I"/><use xlink:href="#B" class="K"/><g class="L"><use xlink:href="#B" x="31.5"/><use xlink:href="#B" x="63"/><use xlink:href="#B" x="125.9"/></g><g class="K"><use xlink:href="#B" x="94.4"/><use xlink:href="#C"/><use xlink:href="#D"/><use xlink:href="#E"/><use xlink:href="#C" x="-94.4"/><use xlink:href="#C" x="-62.9"/></g><g class="L"><use xlink:href="#C" x="-31.4"/><use xlink:href="#C" x="31.5"/><use xlink:href="#D" x="-94.4"/></g><use xlink:href="#D" x="-62.9" class="K"/><use xlink:href="#D" x="-31.4" class="L"/><use xlink:href="#D" x="31.5" class="K"/><g class="L"><use xlink:href="#E" x="-94.4"/><use xlink:href="#E" x="-157.3"/><use xlink:href="#D" x="-94.4" y="51.5"/></g><g class="K"><use xlink:href="#D" x="-125.8" y="51.5"/><use xlink:href="#D" x="-125.8"/></g><g class="L"><use xlink:href="#C" x="-125.8"/><use xlink:href="#D" x="-157.3" y="51.5"/><use xlink:href="#D" x="-157.3"/><use xlink:href="#D" x="-157.3" y="-25.7"/></g><g class="K"><use xlink:href="#D" x="-62.9" y="51.5"/><use xlink:href="#D" x="-31.4" y="51.5"/><use xlink:href="#E" x="-62.9"/></g><g class="L"><use xlink:href="#E" x="-31.4"/><use xlink:href="#E" x="31.5"/></g><g fill="#263238"><path d="M236 42.5h-5.5V35c0-1.4-1.1-2.5-2.5-2.5s-2.5 1.1-2.5 2.5v7.5h-35V35c0-1.4-1.1-2.5-2.5-2.5s-2.5 1.1-2.5 2.5v7.5h-35V35c0-1.4-1.1-2.5-2.5-2.5s-2.5 1.1-2.5 2.5v7.5h-35V35c0-1.4-1.1-2.5-2.5-2.5s-2.5 1.1-2.5 2.5v7.5h-35V35c0-1.4-1.1-2.5-2.5-2.5s-2.5 1.1-2.5 2.5v7.5h-35V35c0-1.4-1.1-2.5-2.5-2.5s-2.5 1.1-2.5 2.5v7.5H20c-6.9 0-12.5 5.6-12.5 12.5v156c0 6.9 5.6 12.5 12.5 12.5h216c6.9 0 12.5-5.6 12.5-12.5V55c0-6.9-5.6-12.5-12.5-12.5zm7.5 168.5c0 4.1-3.4 7.5-7.5 7.5H20c-4.1 0-7.5-3.4-7.5-7.5V55c0-4.1 3.4-7.5 7.5-7.5h5.5V55c0 1.4 1.1 2.5 2.5 2.5s2.5-1.1 2.5-2.5v-7.5h35V55c0 1.4 1.1 2.5 2.5 2.5s2.5-1.1 2.5-2.5v-7.5h35V55c0 1.4 1.1 2.5 2.5 2.5s2.5-1.1 2.5-2.5v-7.5h35V55c0 1.4 1.1 2.5 2.5 2.5s2.5-1.1 2.5-2.5v-7.5h35V55c0 1.4 1.1 2.5 2.5 2.5s2.5-1.1 2.5-2.5v-7.5h35V55c0 1.4 1.1 2.5 2.5 2.5s2.5-1.1 2.5-2.5v-7.5h5.5c4.1 0 7.5 3.4 7.5 7.5v156zM30 71.2h40c1.4 0 2.5-1.1 2.5-2.5s-1.1-2.5-2.5-2.5H30c-1.4 0-2.5 1.1-2.5 2.5s1.1 2.5 2.5 2.5zm60 0h136c1.4 0 2.5-1.1 2.5-2.5s-1.1-2.5-2.5-2.5H90c-1.4 0-2.5 1.1-2.5 2.5s1.1 2.5 2.5 2.5z"/><use xlink:href="#F"/><use xlink:href="#G"/><use xlink:href="#H"/><path d="M190.9 86.2c-5.7 0-10.4 4.6-10.4 10.4 0 5.7 4.6 10.4 10.4 10.4s10.4-4.6 10.4-10.4-4.6-10.4-10.4-10.4zm0 15.7c-3 0-5.4-2.4-5.4-5.4s2.4-5.4 5.4-5.4 5.4 2.4 5.4 5.4-2.4 5.4-5.4 5.4z"/><use xlink:href="#G" x="94.4"/><use xlink:href="#I"/><path d="M65.1 111.9c-5.7 0-10.4 4.6-10.4 10.4 0 5.7 4.6 10.4 10.4 10.4 5.7 0 10.4-4.6 10.4-10.4-.1-5.8-4.7-10.4-10.4-10.4zm0 15.7c-3 0-5.4-2.4-5.4-5.4s2.4-5.4 5.4-5.4 5.4 2.4 5.4 5.4-2.5 5.4-5.4 5.4zm31.4-15.7c-5.7 0-10.4 4.6-10.4 10.4s4.6 10.4 10.4 10.4c5.7 0 10.4-4.6 10.4-10.4s-4.6-10.4-10.4-10.4zm0 15.7c-3 0-5.4-2.4-5.4-5.4s2.4-5.4 5.4-5.4 5.4 2.4 5.4 5.4-2.4 5.4-5.4 5.4zm31.5-15.7c-5.7 0-10.4 4.6-10.4 10.4 0 5.7 4.6 10.4 10.4 10.4s10.4-4.6 10.4-10.4-4.7-10.4-10.4-10.4zm0 15.7c-3 0-5.4-2.4-5.4-5.4s2.4-5.4 5.4-5.4 5.4 2.4 5.4 5.4-2.4 5.4-5.4 5.4z"/><use xlink:href="#H" y="25.7"/><use xlink:href="#F" x="94.4" y="25.7"/><use xlink:href="#G" x="94.4" y="25.7"/><path d="M33.6 137.6c-5.7 0-10.4 4.7-10.3 10.4 0 5.7 4.7 10.4 10.4 10.3 5.7 0 10.3-4.7 10.3-10.4 0-5.6-4.7-10.3-10.4-10.3zm0 15.8c-3 0-5.4-2.4-5.3-5.4 0-3 2.4-5.4 5.4-5.3 3 0 5.3 2.4 5.3 5.4 0 2.9-2.4 5.3-5.4 5.3zm31.5-15.8c-5.7 0-10.4 4.6-10.4 10.4 0 5.7 4.6 10.4 10.4 10.4s10.4-4.6 10.4-10.4c-.1-5.7-4.7-10.4-10.4-10.4zm0 15.8c-3 0-5.4-2.4-5.4-5.4s2.4-5.4 5.4-5.4 5.4 2.4 5.4 5.4c-.1 3-2.5 5.4-5.4 5.4z"/><use xlink:href="#J"/><use xlink:href="#K"/><path d="M159.5 137.6c-5.7 0-10.4 4.6-10.4 10.4s4.6 10.4 10.4 10.4c5.7 0 10.4-4.6 10.4-10.4-.1-5.7-4.7-10.4-10.4-10.4zm0 15.8c-3 0-5.4-2.4-5.4-5.4s2.4-5.4 5.4-5.4 5.4 2.4 5.4 5.4c-.1 3-2.5 5.4-5.4 5.4z"/><use xlink:href="#J" x="94.4"/><use xlink:href="#K" x="94.4"/><use xlink:href="#I" y="51.5"/><use xlink:href="#F" y="77.2"/><use xlink:href="#G" y="77.2"/><use xlink:href="#H" y="77.2"/><use xlink:href="#F" x="94.4" y="77.2"/><use xlink:href="#G" x="94.4" y="77.2"/><path d="M57.7 181.1c1 1 2.6 1 3.5 0l3.8-3.8 3.8 3.8c1 1 2.6 1 3.5 0 1-1 1-2.6 0-3.5l-3.8-3.8 3.8-3.8c1-1 1-2.6 0-3.5-1-1-2.6-1-3.5 0l-3.8 3.8-3.8-3.8c-1-1-2.6-1-3.5 0s-1 2.6 0 3.5l3.8 3.8-3.8 3.8c-.9.9-.9 2.5 0 3.5zm-24.1 8c-5.7 0-10.4 4.7-10.3 10.4 0 5.7 4.7 10.4 10.4 10.3 5.7 0 10.3-4.7 10.3-10.4s-4.7-10.3-10.4-10.3zm0 15.7c-3 0-5.4-2.4-5.3-5.4 0-3 2.4-5.4 5.4-5.3 3 0 5.3 2.4 5.3 5.4 0 2.9-2.4 5.3-5.4 5.3z"/><use xlink:href="#H" x="-94.4" y="102.9"/><use xlink:href="#F" y="102.9"/><use xlink:href="#G" y="102.9"/><use xlink:href="#H" y="102.9"/></g><path d="M149.6 16.8h-4v-4a.94.94 0 1 0-2 0v4h-4a.94.94 0 0 0-1 1 .94.94 0 0 0 1 1h4v4a.94.94 0 1 0 2 0v-4h4a.94.94 0 0 0 1-1c0-.6-.5-1-1-1z" fill="#fd0"/><g class="I"><path d="M230.5 235.4h-4v-4a.94.94 0 1 0-2 0v4h-4a.94.94 0 1 0 0 2h4v4a.94.94 0 1 0 2 0v-4h4a.94.94 0 1 0 0-2z"/><use xlink:href="#L"/><use xlink:href="#L" x="128.4" y="4.9"/></g><use xlink:href="#L" x="71.9" y="220.1" fill="#fd0"/><path d="M32.5 236.4h-2.6l1.8-1.8a.97.97 0 0 0-.1-1.4 1.05 1.05 0 0 0-1.3 0l-1.8 1.8v-2.6a.94.94 0 0 0-1-1 .94.94 0 0 0-1 1v2.6l-1.8-1.8a.97.97 0 0 0-1.4.1 1.05 1.05 0 0 0 0 1.3l1.8 1.8h-2.6a.94.94 0 1 0 0 2h2.6l-1.8 1.8a.97.97 0 0 0 .1 1.4 1.05 1.05 0 0 0 1.3 0l1.8-1.8v2.6a.94.94 0 0 0 1 1 .94.94 0 0 0 1-1v-2.6l1.8 1.8a.97.97 0 0 0 1.4-.1 1.05 1.05 0 0 0 0-1.3l-1.8-1.8h2.6a.94.94 0 1 0 0-2z" class="I"/><defs ><path id="B" d="M96.5 90.7c-.5 0-1 .1-1.5.2 3.1.8 5 4 4.2 7.2-.5 2-2.1 3.6-4.2 4.2 3.1.8 6.3-1.1 7.2-4.2s-1.1-6.3-4.2-7.2c-.5-.2-1-.2-1.5-.2z"/><path id="C" d="M190.9 116.4c-.5 0-1 .1-1.5.2 3.1.8 5 4 4.2 7.2-.5 2-2.1 3.6-4.2 4.2 3.1.8 6.3-1.1 7.2-4.2s-1.1-6.3-4.2-7.2c-.5-.1-1-.2-1.5-.2z"/><path id="D" d="M190.9 142.1c-.5 0-1 .1-1.5.2 3.1.8 5 4 4.2 7.2-.5 2-2.1 3.6-4.2 4.2 3.1.8 6.3-1.1 7.2-4.2.8-3.1-1.1-6.3-4.2-7.2-.5-.1-1-.2-1.5-.2z"/><path id="E" d="M190.9 167.9c-.5 0-1 .1-1.5.2 3.1.8 5 4 4.2 7.2-.5 2-2.1 3.6-4.2 4.2 3.1.8 6.3-1.1 7.2-4.2.8-3.1-1.1-6.3-4.2-7.2-.5-.2-1-.2-1.5-.2z"/><path id="F" d="M96.5 86.2c-5.7 0-10.4 4.6-10.4 10.4 0 5.7 4.6 10.4 10.4 10.4 5.7 0 10.4-4.6 10.4-10.4s-4.6-10.4-10.4-10.4zm0 15.7c-3 0-5.4-2.4-5.4-5.4s2.4-5.4 5.4-5.4 5.4 2.4 5.4 5.4-2.4 5.4-5.4 5.4z"/><path id="G" d="M128 86.2c-5.7 0-10.4 4.6-10.4 10.4 0 5.7 4.6 10.4 10.4 10.4 5.7 0 10.4-4.6 10.4-10.4s-4.7-10.4-10.4-10.4zm0 15.7c-3 0-5.4-2.4-5.4-5.4s2.4-5.4 5.4-5.4 5.4 2.4 5.4 5.4-2.4 5.4-5.4 5.4z"/><path id="H" d="M159.5 86.2c-5.7 0-10.4 4.6-10.4 10.4 0 5.7 4.6 10.4 10.4 10.4 5.7 0 10.4-4.6 10.4-10.4-.1-5.8-4.7-10.4-10.4-10.4zm0 15.7c-3 0-5.4-2.4-5.4-5.4s2.4-5.4 5.4-5.4 5.4 2.4 5.4 5.4c-.1 3-2.5 5.4-5.4 5.4z"/><path id="I" d="M33.6 111.9c-5.7 0-10.4 4.7-10.3 10.4 0 5.7 4.7 10.4 10.4 10.3 5.7 0 10.3-4.7 10.3-10.4s-4.7-10.3-10.4-10.3zm0 15.7c-3 0-5.4-2.4-5.3-5.4s2.4-5.4 5.4-5.3c3 0 5.3 2.4 5.3 5.4 0 2.9-2.4 5.3-5.4 5.3z"/><path id="J" d="M96.5 137.6c-5.7 0-10.4 4.6-10.4 10.4 0 5.7 4.6 10.4 10.4 10.4 5.7 0 10.4-4.6 10.4-10.4 0-5.7-4.6-10.4-10.4-10.4zm0 15.8c-3 0-5.4-2.4-5.4-5.4s2.4-5.4 5.4-5.4 5.4 2.4 5.4 5.4-2.4 5.4-5.4 5.4z"/><path id="K" d="M128 137.6c-5.7 0-10.4 4.6-10.4 10.4 0 5.7 4.6 10.4 10.4 10.4 5.7 0 10.4-4.6 10.4-10.4 0-5.7-4.7-10.4-10.4-10.4zm0 15.8c-3 0-5.4-2.4-5.4-5.4s2.4-5.4 5.4-5.4 5.4 2.4 5.4 5.4-2.4 5.4-5.4 5.4z"/><path id="L" d="M66.5 24.9a6.02 6.02 0 0 1-6-6 6.02 6.02 0 0 1 6-6 6.02 6.02 0 0 1 6 6 6.02 6.02 0 0 1-6 6zm0-10c-2.2 0-4 1.8-4 4s1.8 4 4 4 4-1.8 4-4-1.8-4-4-4z"/></defs></svg>