<svg xmlns="http://www.w3.org/2000/svg" xmlns:xlink="http://www.w3.org/1999/xlink" viewBox="0 0 256 256"><style><![CDATA[.Ck{fill:#3c5185}.Cl{opacity:.3}.Cm{fill:#fff}.Cn{fill:#f2b1b5}.Co{opacity:.5}.Cp{opacity:0}.Cq{opacity:.098}.Cr{opacity:.902}.Cs{opacity:.43}.Ct{fill:#7ea7df}.Cu{opacity:.02}.Cv{opacity:.04}.Cw{opacity:.06}.Cx{opacity:.078}.Cy{opacity:.118}.Cz{opacity:.137}.DA{opacity:.157}.DB{opacity:.177}.DC{opacity:.196}.DD{opacity:.216}.DE{opacity:.235}.DF{opacity:.255}.DG{opacity:.275}.DH{opacity:.294}.DI{opacity:.314}.DJ{opacity:.333}.DK{opacity:.353}.DL{opacity:.373}.DM{opacity:.392}.DN{opacity:.412}.DO{opacity:.45}.DP{opacity:.47}.DQ{opacity:.53}.DR{opacity:.55}.DS{opacity:.57}.DT{opacity:.588}.DU{opacity:.608}.DV{opacity:.628}.DW{opacity:.647}.DX{opacity:.667}.DY{opacity:.686}.DZ{opacity:.706}.Da{opacity:.726}.Db{opacity:.745}.Dc{opacity:.765}.Dd{opacity:.784}.De{opacity:.804}.Df{opacity:.824}.Dg{opacity:.843}.Dh{opacity:.863}.Di{opacity:.882}.Dj{opacity:.922}.Dk{opacity:.94}.Dl{opacity:.96}.Dm{opacity:.98}.Dn{fill:#4a65a3}]]></style><linearGradient id="A" gradientUnits="userSpaceOnUse" x1="149.504" y1="212.484" x2="100.343" y2="52.176"><stop offset=".11" stop-color="#fff"/><stop offset="1" stop-color="#e1ebf7"/></linearGradient><path d="M210.6 139.6c0 42.4-41.9 72.4-84.4 72.4s-81.9-29.9-81.9-72.4 25.4-88.4 67.9-88.4 98.4 46 98.4 88.4z" fill="url(#A)"/><path d="M81.1 59.1v37.5L94.4 89V51.7z" class="Ck"/><path d="M81.1 96.6l-5.3-3V56l5.3 3.1z" fill="#4f6291"/><path d="M94.4 51.7l-5.7-3.2L75.8 56l5.3 3.1z" class="Ck"/><path d="M94.1 51.6l-5.3-2.9-12.2 7.1 4.9 2.8z" class="Cm"/><linearGradient id="B" gradientUnits="userSpaceOnUse" x1="91.493" y1="77.298" x2="101.524" y2="77.298"><stop offset=".15" stop-color="#ff9800"/><stop offset="1" stop-color="#ffc107"/></linearGradient><path d="M91.5 61.3v37.5l10-5.7V55.8z" fill="url(#B)"/><linearGradient id="C" gradientUnits="userSpaceOnUse" x1="86.186" y1="78.525" x2="91.493" y2="78.525"><stop offset=".15" stop-color="#ff9800"/><stop offset="1" stop-color="#ffc107"/></linearGradient><path d="M91.5 98.8l-5.3-3V58.2l5.3 3.1z" fill="url(#C)"/><path d="M101.5 55.8l-5.7-3.2-9.6 5.6 5.3 3.1z" fill="#ffda6a"/><path d="M101.2 55.7l-5.3-2.9-9 5.2 4.9 2.8z" class="Cm"/><linearGradient id="D" gradientUnits="userSpaceOnUse" x1="109.005" y1="82.514" x2="95.726" y2="82.514"><stop offset="0" stop-color="#7ea7df"/><stop offset="1" stop-color="#a5cbef"/></linearGradient><path d="M95.7 67.5V105l13.3-7.6V60z" fill="url(#D)"/><linearGradient id="E" gradientUnits="userSpaceOnUse" x1="95.726" y1="84.694" x2="90.419" y2="84.694"><stop offset="0" stop-color="#7ea7df"/><stop offset="1" stop-color="#a5cbef"/></linearGradient><path d="M95.7 105l-5.3-3.1V64.4l5.3 3.1z" fill="url(#E)"/><path d="M109 60l-5.7-3.2-12.9 7.6 5.3 3.1z" fill="#a5cbef"/><path d="M108.6 60l-5.2-3-12.2 7.2L96 67z" class="Cm"/><g class="Ck Cl"><path d="M71.8 122.9l.3-.5c.2-.3.4-.6.7-.9.1-.1.1-.1.2-.1l.1-.1h.1l.2-.2 45.1-26c1.6-.9 4.3-.9 6 0l86 49.6c1 .6 1.4 1.4 1.2 2.1h.1v1.6c0 1.7-.9 3.3-2.4 4.2L165.3 178c-1.6.9-4.3.9-6 0l-85.8-49.5c-1.9-1.2-2.7-3.6-1.7-5.6z" class="Cp"/><path d="M72.1 122.9l.3-.5c.2-.3.4-.6.7-.8.1-.1.1-.1.2-.1l.1-.1h.1l.2-.2 44.9-25.9c1.6-.9 4.3-.9 5.9 0l85.7 49.5c1 .6 1.4 1.4 1.2 2.1h.1v1.6c0 1.7-.9 3.3-2.4 4.1l-43.7 25.1c-1.6.9-4.3.9-5.9 0L74 128.3c-2.1-1-2.8-3.4-1.9-5.4z" opacity=".024"/><path d="M72.4 122.9l.3-.5c.2-.3.4-.6.7-.8.1-.1.1-.1.2-.1l.1-.1h.1l.2-.2 44.6-25.8c1.6-.9 4.3-.9 5.9 0l85.3 49.3c1 .6 1.4 1.4 1.1 2.1h.1v1.6c0 1.7-.9 3.3-2.4 4.1l-43.5 25c-1.6.9-4.3.9-5.9 0L74 128.3c-1.8-1.1-2.5-3.5-1.6-5.4z" opacity=".05"/><path d="M72.8 122.8l.3-.5c.2-.3.4-.6.7-.8.1 0 .1-.1.2-.1l.1-.1h.1l.2-.2 44.4-25.6c1.6-.9 4.3-.9 5.9 0l85 49.1c1 .6 1.4 1.4 1.1 2.1h.1v1.6c0 1.7-.9 3.3-2.4 4.1l-43.2 24.9c-1.6.9-4.3.9-5.9 0l-84.9-49c-2-1.1-2.7-3.5-1.7-5.5z" opacity=".073"/><path d="M73.1 122.8l.3-.5c.2-.3.4-.6.7-.8.1 0 .1-.1.2-.1l.1-.1h.1l.2-.2 44.1-25.5c1.6-.9 4.2-.9 5.8 0l84.7 49c1 .6 1.4 1.4 1.1 2.1h.1v1.6c0 1.7-.9 3.2-2.4 4.1l-43 24.7c-1.6.9-4.2.9-5.8 0l-84.6-48.9c-1.9-1.1-2.6-3.5-1.6-5.4z" class="Cq"/><path d="M73.4 122.8l.2-.5c.2-.3.4-.6.7-.8.1 0 .1-.1.2-.1l.1-.1h.1l.2-.2 43.9-25.3c1.6-.9 4.2-.9 5.8 0l84.4 48.8c1 .6 1.4 1.4 1.1 2.1h.1v1.6c0 1.7-.9 3.2-2.3 4.1L165.1 177c-1.6.9-4.2.9-5.8 0L75 128.1c-1.8-1-2.6-3.4-1.6-5.3z" opacity=".122"/><path d="M73.7 122.7l.2-.5c.2-.3.4-.6.7-.8.1 0 .1-.1.2-.1l.1-.1h.1l.2-.2 43.7-25.2c1.6-.9 4.2-.9 5.8 0l84.1 48.6c1 .6 1.3 1.3 1.1 2.1h.1v1.6a4.58 4.58 0 0 1-2.3 4l-42.5 24.5c-1.6.9-4.2.9-5.8 0l-84-48.5c-1.9-1.1-2.7-3.4-1.7-5.4z" opacity=".146"/><path d="M74 122.7l.2-.5c.2-.3.4-.6.7-.8.1 0 .1-.1.2-.1l.1-.1h.1c.1 0 .1-.1.2-.2l43.4-25.1c1.6-.9 4.2-.9 5.7 0l83.8 48.5c1 .6 1.3 1.3 1.1 2.1h.1v1.6a4.58 4.58 0 0 1-2.3 4L165 176.4c-1.6.9-4.2.9-5.7 0L75.6 128c-1.8-1.1-2.5-3.4-1.6-5.3z" opacity=".17"/><path d="M74.3 122.6l.2-.5c.2-.3.4-.6.7-.8.1 0 .1-.1.2-.1l.1-.1h.1c.1 0 .1-.1.2-.2L119 96c1.6-.9 4.1-.9 5.7 0l83.5 48.3c1 .6 1.3 1.3 1.1 2.1h.1v1.6c0 1.6-.9 3.2-2.3 4L165 176.1c-1.6.9-4.1.9-5.7 0l-83.4-48.2c-1.8-1-2.5-3.3-1.6-5.3z" opacity=".195"/><path d="M74.6 122.6l.2-.5c.2-.3.4-.6.7-.8.1 0 .1-.1.2-.1l.1-.1h.1c.1 0 .1-.1.2-.1L119 96.2c1.6-.9 4.1-.9 5.7 0l83.2 48.1c1 .6 1.3 1.3 1.1 2h.1v1.6c0 1.6-.9 3.2-2.3 4l-41.8 24c-1.6.9-4.1.9-5.7 0l-83.1-48c-1.8-1.1-2.5-3.4-1.6-5.3z" opacity=".22"/><path d="M74.9 122.6l.2-.5c.2-.3.4-.6.7-.8.1 0 .1-.1.2-.1l.1-.1h.1c.1 0 .1-.1.2-.1l42.7-24.7c1.6-.9 4.1-.9 5.7 0l82.9 48c1 .6 1.3 1.3 1.1 2h.1v1.6c0 1.6-.9 3.1-2.3 3.9L165 175.7c-1.6.9-4.1.9-5.7 0l-82.7-47.9c-1.9-1-2.6-3.3-1.7-5.2z" opacity=".244"/><path d="M75.3 122.5l.2-.5c.2-.3.4-.6.7-.8.1 0 .1-.1.2-.1l.1-.1h.1c.1 0 .1-.1.2-.1l42.5-24.5c1.5-.9 4.1-.9 5.6 0l82.6 47.8c.9.5 1.3 1.3 1.1 2h.1v1.5c0 1.6-.9 3.1-2.3 3.9L165 175.4c-1.5.9-4.1.9-5.6 0L77 127.7c-2-1-2.7-3.3-1.7-5.2z" opacity=".268"/><path d="M75.6 122.5l.2-.5c.2-.3.4-.6.7-.8.1 0 .1-.1.2-.1l.1-.1h.1c.1 0 .1-.1.2-.1l42.2-24.4c1.5-.9 4.1-.9 5.6 0l82.3 47.6c.9.5 1.3 1.3 1.1 2h.1v1.5c0 1.6-.9 3.1-2.3 3.9L165 175.2c-1.5.9-4.1.9-5.6 0l-82.1-47.5c-1.9-1.1-2.6-3.3-1.7-5.2z" opacity=".293"/><path d="M75.9 122.5l.2-.5c.2-.3.4-.6.7-.8.1 0 .1-.1.2-.1l.1-.1h.1c.1 0 .1-.1.2-.1l42-24.2c1.5-.9 4-.9 5.6 0l82 47.5c.9.5 1.3 1.3 1.1 2h.1v1.5c0 1.6-.9 3.1-2.2 3.9L164.8 175c-1.5.9-4 .9-5.6 0l-81.8-47.4c-1.7-1-2.4-3.3-1.5-5.1z" opacity=".317"/><path d="M76.2 122.4l.2-.5c.2-.3.4-.6.7-.8.1 0 .1-.1.2-.1l.1-.1h.1c.1 0 .1-.1.2-.1l41.7-24.1c1.5-.9 4-.9 5.5 0l81.6 47.3c.9.5 1.3 1.3 1.1 2h.1v1.5c0 1.6-.9 3.1-2.2 3.9l-40.7 23.4c-1.5.9-4 .9-5.5 0l-81.5-47.2c-1.8-1.1-2.5-3.3-1.6-5.2z" opacity=".342"/><path d="M76.5 122.4l.2-.5c.2-.3.4-.6.7-.8.1 0 .1-.1.2-.1l.1-.1h.1c.1 0 .1-.1.2-.1l41.5-24c1.5-.9 4-.9 5.5 0l81.3 47.1c.9.5 1.3 1.3 1.1 2h.1v1.5c0 1.6-.8 3-2.2 3.8l-40.4 23.3c-1.5.9-4 .9-5.5 0l-81.2-47.1c-1.9-.9-2.6-3.2-1.7-5z" opacity=".366"/><path d="M76.8 122.4l.2-.5c.2-.3.4-.6.7-.8.1 0 .1-.1.2-.1l.1-.1h.1c.1 0 .1-.1.2-.1L119.6 97c1.5-.9 4-.9 5.5 0l81 47c.9.5 1.3 1.3 1.1 2h.1v1.5c0 1.6-.8 3-2.2 3.8l-40.2 23.1c-1.5.9-4 .9-5.5 0l-80.9-46.9c-1.9-1.1-2.6-3.3-1.7-5.1z" opacity=".4"/><path d="M77.1 122.3l.2-.5c.2-.3.4-.6.7-.8.1 0 .1-.1.2-.1l.1-.1h.1c.1 0 .1-.1.2-.1l41-23.7c1.5-.9 3.9-.9 5.4 0l80.7 46.8c.9.5 1.3 1.3 1.1 2h.1v1.5c0 1.6-.8 3-2.2 3.8l-40 23c-1.5.9-3.9.9-5.4 0l-80.6-46.7c-1.8-1.1-2.4-3.3-1.6-5.1z" opacity=".415"/><path d="M77.5 122.3l.2-.5c.2-.3.4-.6.7-.8 0 0 .1-.1.2-.1l.1-.1h.1c.1 0 .1-.1.2-.1l40.8-23.6c1.5-.9 3.9-.9 5.4 0l80.4 46.6c.9.5 1.3 1.3 1.1 1.9h.1v1.5c0 1.6-.8 3-2.2 3.8l-39.7 22.9c-1.5.9-3.9.9-5.4 0L79 127.3c-1.8-1-2.4-3.2-1.5-5z" opacity=".44"/><path d="M77.8 122.2l.2-.5c.1-.3.4-.6.6-.8 0 0 .1-.1.2-.1l.1-.1h.1c.1 0 .1-.1.2-.1l40.6-23.4c1.5-.9 3.9-.9 5.4 0l80.1 46.5c.9.5 1.3 1.3 1 1.9h.1v1.5c0 1.5-.8 3-2.2 3.7l-39.5 22.7c-1.5.9-3.9.9-5.4 0l-80-46.4c-1.7-.9-2.4-3.1-1.5-4.9z" opacity=".463"/><path d="M78.1 122.2l.2-.5c.1-.3.4-.6.6-.8 0 0 .1-.1.2-.1l.1-.1h.1c.1 0 .1-.1.2-.1l40.3-23.3c1.5-.8 3.9-.8 5.3 0l79.8 46.3c.9.5 1.2 1.2 1 1.9h.1v1.5c0 1.5-.8 3-2.2 3.7l-39.3 22.6c-1.5.8-3.9.8-5.3 0l-79.7-46.2c-1.6-.9-2.3-3.1-1.4-4.9z" opacity=".488"/><path d="M78.4 122.2l.2-.5c.1-.3.4-.6.6-.8 0 0 .1-.1.2-.1l.1-.1h.1c.1 0 .1-.1.2-.1l40.1-23.1c1.5-.8 3.8-.8 5.3 0l79.5 46.1c.9.5 1.2 1.2 1 1.9h.1v1.5c0 1.5-.8 2.9-2.1 3.7l-39 22.5c-1.5.8-3.8.8-5.3 0L80 127.1c-1.8-1-2.5-3.1-1.6-4.9z" opacity=".512"/><path d="M78.7 122.1l.2-.5c.1-.3.4-.5.6-.8 0 0 .1-.1.2-.1l.1-.1h.1c.1 0 .1-.1.2-.1l39.8-23c1.4-.8 3.8-.8 5.3 0l79.2 46c.9.5 1.2 1.2 1 1.9h.1v1.4c0 1.5-.8 2.9-2.1 3.7l-38.8 22.3c-1.4.8-3.8.8-5.3 0L80.2 127c-1.7-1-2.3-3.1-1.5-4.9z" opacity=".537"/><path d="M79 122.1l.2-.5c.1-.3.4-.5.6-.7 0 0 .1-.1.2-.1l.1-.1h.1c.1 0 .1-.1.2-.1L120 97.7c1.4-.8 3.8-.8 5.2 0l78.9 45.8c.9.5 1.2 1.2 1 1.9h.1v1.4c0 1.5-.8 2.9-2.1 3.7l-38.6 22.2c-1.4.8-3.8.8-5.2 0L80.5 127c-1.7-1-2.3-3.1-1.5-4.9z" opacity=".56"/><path d="M79.3 122.1l.2-.5c.1-.3.4-.5.6-.7 0 0 .1-.1.2-.1l.1-.1h.1c.1 0 .1-.1.2-.1l39.4-22.7c1.4-.8 3.8-.8 5.2 0l78.6 45.7c.9.5 1.2 1.2 1 1.9h.1v1.4c0 1.5-.8 2.9-2.1 3.6l-38.3 22.1c-1.4.8-3.8.8-5.2 0L81 127c-1.9-1.1-2.5-3.2-1.7-4.9z" opacity=".585"/><path d="M79.7 122l.2-.5c.1-.3.4-.5.6-.7 0 0 .1-.1.2-.1l.1-.1h.1c.1 0 .1-.1.2-.1l39.1-22.6c1.4-.8 3.8-.8 5.2 0l78.3 45.5c.9.5 1.2 1.2 1 1.9h.1v1.4c0 1.5-.8 2.9-2.1 3.6l-38.1 21.9c-1.4.8-3.8.8-5.2 0l-78.1-45.4a3.53 3.53 0 0 1-1.6-4.8z" opacity=".6"/><path d="M80 122l.2-.5c.1-.3.4-.5.6-.7 0 0 .1-.1.2-.1l.1-.1h.1c.1 0 .1-.1.2-.1L120.2 98c1.4-.8 3.7-.8 5.1 0l77.9 45.3c.9.5 1.2 1.2 1 1.9h.1v1.4c0 1.5-.8 2.9-2.1 3.6L164.4 172c-1.4.8-3.7.8-5.1 0l-77.8-45.2c-1.7-1-2.4-3.1-1.5-4.8z" opacity=".634"/><path d="M80.3 122l.2-.5c.1-.3.4-.5.6-.7 0 0 .1-.1.2-.1l.1-.1h.1c.1 0 .1-.1.2-.1l38.6-22.3c1.4-.8 3.7-.8 5.1 0l77.6 45.2c.9.5 1.2 1.2 1 1.8h.1v1.4c0 1.5-.8 2.8-2.1 3.6l-37.6 21.7c-1.4.8-3.7.8-5.1 0l-77.5-45.1c-1.7-1.1-2.4-3.1-1.5-4.8z" opacity=".66"/><path d="M80.6 121.9l.2-.4c.1-.3.4-.5.6-.7 0 0 .1-.1.2-.1l.1-.1h.1c.1 0 .1-.1.2-.1l38.4-22.2c1.4-.8 3.7-.8 5.1 0l77.3 45c.9.5 1.2 1.2 1 1.8h.1v1.4c0 1.5-.8 2.8-2.1 3.5l-37.4 21.5c-1.4.8-3.7.8-5.1 0L82 126.6c-1.6-.9-2.2-3-1.4-4.7z" opacity=".683"/><path d="M80.9 121.9l.2-.4c.1-.3.4-.5.6-.7 0 0 .1-.1.2-.1l.1-.1h.1c.1 0 .1-.1.2-.1l38.2-22c1.4-.8 3.7-.8 5 0l77 44.8c.9.5 1.2 1.2 1 1.8h.1v1.4c0 1.5-.8 2.8-2 3.5l-37.2 21.4c-1.4.8-3.7.8-5 0l-76.9-44.7c-1.8-1.1-2.4-3.1-1.6-4.8z" opacity=".707"/><path d="M81.2 121.9l.2-.4c.1-.3.4-.5.6-.7 0 0 .1-.1.2-.1l.1-.1h.1c.1 0 .1-.1.2-.1l37.9-21.9c1.4-.8 3.6-.8 5 0l76.7 44.7c.8.5 1.2 1.2 1 1.8h.1v1.4c0 1.4-.8 2.8-2 3.5l-36.9 21.3c-1.4.8-3.6.8-5 0l-76.6-44.6c-1.8-1.1-2.4-3.2-1.6-4.8z" opacity=".732"/><path d="M81.5 121.8l.2-.4c.1-.3.4-.5.6-.7 0 0 .1-.1.2-.1l.1-.1h.1c.1 0 .1-.1.2-.1l37.7-21.8c1.4-.8 3.6-.8 5 0l76.4 44.5c.8.5 1.2 1.2 1 1.8h.1v1.4c0 1.4-.8 2.8-2 3.5l-36.7 21.1c-1.4.8-3.6.8-5 0L83 126.4c-1.7-.9-2.3-2.9-1.5-4.6z" opacity=".756"/><path d="M81.8 121.8l.2-.4c.1-.3.4-.5.6-.7 0 0 .1-.1.2-.1l.1-.1h.1c.1 0 .1-.1.2-.1l37.4-21.6c1.4-.8 3.6-.8 5 0l76.1 44.3c.8.5 1.2 1.2 1 1.8h.1v1.4c0 1.4-.8 2.7-2 3.5l-36.5 21c-1.4.8-3.6.8-5 0l-76-44.2c-1.6-1.2-2.3-3.2-1.5-4.8z" opacity=".78"/><path d="M82.2 121.7l.2-.4c.1-.3.4-.5.6-.7 0 0 .1-.1.2-.1l.1-.1h.1c.1 0 .1-.1.2-.1l37.2-21.5c1.4-.8 3.6-.8 4.9 0l75.8 44.2c.8.5 1.1 1.1 1 1.8h.1v1.4c0 1.4-.8 2.7-2 3.4l-36.2 20.9c-1.4.8-3.6.8-4.9 0l-75.7-44.1c-1.8-1-2.4-3-1.6-4.7z" opacity=".805"/><path d="M82.5 121.7l.2-.4c.1-.3.3-.5.6-.7 0 0 .1-.1.2-.1l.1-.1h.1c.1 0 .1-.1.2-.1l37-21.3c1.3-.8 3.5-.8 4.9 0l75.5 44c.8.5 1.1 1.1 1 1.8h.1v1.3c0 1.4-.8 2.7-2 3.4l-36 20.7c-1.3.8-3.5.8-4.9 0l-75.4-43.9c-1.8-1-2.4-3-1.6-4.6z" opacity=".83"/><path d="M82.8 121.7l.2-.4c.1-.3.3-.5.6-.7l.1-.1s.1 0 .1-.1h.1c.1 0 .1-.1.2-.1L120.8 99c1.3-.8 3.5-.8 4.9 0l75.2 43.8c.8.5 1.1 1.1.9 1.7h.1v1.3c0 1.4-.7 2.7-2 3.4l-35.8 20.6c-1.3.8-3.5.8-4.9 0l-75.1-43.7c-1.5-.8-2.1-2.8-1.3-4.4z" opacity=".854"/><path d="M83.1 121.6l.2-.4c.1-.3.3-.5.6-.7l.1-.1s.1 0 .1-.1h.1c.1 0 .1-.1.2-.1l36.5-21.1c1.3-.8 3.5-.8 4.8 0l74.9 43.7c.8.5 1.1 1.1.9 1.7h.1v1.3c0 1.4-.7 2.7-1.9 3.4L164 169.7c-1.3.8-3.5.8-4.8 0l-74.7-43.6c-1.6-.9-2.2-2.8-1.4-4.5z" opacity=".878"/><path d="M83.4 121.6l.2-.4c.1-.3.3-.5.6-.7l.1-.1s.1 0 .1-.1h.1c.1 0 .1-.1.2-.1l36.2-20.9c1.3-.8 3.5-.8 4.8 0l74.6 43.5c.8.5 1.1 1.1.9 1.7h.1v1.3c0 1.4-.7 2.7-1.9 3.3L164 169.5c-1.3.8-3.5.8-4.8 0L84.8 126c-1.6-.9-2.2-2.8-1.4-4.4z" class="Cr"/><path d="M83.7 121.6l.2-.4c.1-.3.3-.5.6-.7l.1-.1s.1 0 .1-.1h.1c.1 0 .1-.1.2-.1l36-20.8c1.3-.8 3.5-.8 4.8 0l74.2 43.3c.8.5 1.1 1.1.9 1.7h.1v1.3c0 1.4-.7 2.6-1.9 3.3L164 169.2c-1.3.8-3.5.8-4.8 0L85.1 126c-1.6-.9-2.1-2.8-1.4-4.4z" opacity=".927"/><path d="M84 121.5l.2-.4c.1-.3.3-.5.6-.7l.1-.1s.1 0 .1-.1h.1c.1 0 .1-.1.2-.1L121 99.4c1.3-.8 3.4-.8 4.7 0l73.9 43.2c.8.5 1.1 1.1.9 1.7h.1v1.3c0 1.4-.7 2.6-1.9 3.3l-34.8 20c-1.3.8-3.4.8-4.7 0l-73.8-43.1c-1.5-.8-2.1-2.7-1.4-4.3z" opacity=".95"/><path d="M84.4 121.5l.2-.4c.1-.3.3-.5.6-.7l.1-.1s.1 0 .1-.1h.1c.1 0 .1-.1.2-.1l35.5-20.5c1.3-.7 3.4-.7 4.7 0l73.6 43c.8.5 1.1 1.1.9 1.7h.1v1.3c0 1.4-.7 2.6-1.9 3.3L164 168.8c-1.3.7-3.4.7-4.7 0l-73.5-42.9c-1.6-.9-2.2-2.8-1.4-4.4z" opacity=".976"/><path d="M84.7 121.5l.2-.4c.1-.3.3-.5.6-.7l.1-.1s.1 0 .1-.1h.1c.1 0 .1-.1.2-.1l35.3-20.4c1.3-.7 3.4-.7 4.7 0l73.3 42.8c.8.5 1.1 1.1.9 1.7h.1v1.3a3.86 3.86 0 0 1-1.9 3.3L164 168.6c-1.3.7-3.4.7-4.7 0L86 125.8c-1.5-.9-2.1-2.8-1.3-4.3z"/></g><linearGradient id="F" gradientUnits="userSpaceOnUse" x1="199.988" y1="158.999" x2="64.08" y2="99.066"><stop offset=".038" stop-color="#a5cbef"/><stop offset=".223" stop-color="#b9d7f2"/><stop offset=".525" stop-color="#d4e6f7"/><stop offset=".794" stop-color="#e4f0fa"/><stop offset="1" stop-color="#eaf3fb"/></linearGradient><path d="M208.3 144.2v-1.6l-85.1-50c-1.6-.9-3.5-1.5-5.1-.6l-44.7 25.7a2.17 2.17 0 0 0-1 1.1l-.2.5a4.22 4.22 0 0 0 1.7 5.4l83.6 48.2c1.6.9 4.2.9 5.8 0l42.8-24.6c1.3-.9 2.2-2.5 2.2-4.1z" fill="url(#F)"/><path d="M207.1 143.8c1.6-.9 1.6-2.4 0-3.4l-83.7-48.3c-1.6-.9-4.2-.9-5.8 0l-43.9 25.4c-1.6.9-1.6 2.4 0 3.4l83.7 48.3c1.6.9 4.2.9 5.8 0l43.9-25.4z" fill="#f3f8fe"/><path d="M205.3 143.7c1.5-.9 1.5-2.3 0-3.2l-81.9-47.2c-1.5-.9-4.1-.9-5.6 0l-7.7 4.5c-.5.3-.5.9-.1 1.3l.8.6c.6.3.6 1.1 0 1.5l-20.9 12a1.91 1.91 0 0 1-1.8 0l-1.8-1c-.4-.2-.9-.2-1.3 0l-9.6 5.5c-1.5.9-1.5 2.3 0 3.2l81.9 47.2c1.5.9 4.1.9 5.6 0l42.4-24.4zM94.8 108.4h.1l9.2-5.3c.1-.1.2-.2.1-.4-.1-.1-.2-.2-.4-.1l-9.2 5.3c-.1.1-.2.2-.1.4.1 0 .2.1.3.1z" fill="#a5cbef"/><g class="Cl Ct"><path d="M180.9 145.3c0-1.5-1.1-3.3-2.3-4l-66.8-37.9c-.9-.5-2.1-.6-3-.1l-1.9 1c-.5.2-.9.7-.9 1.6v12.8c0 1.5 1.1 3.3 2.3 4l67.3 38.2c.5.3.9.4 1.3.3l1.5-.6c1.6-.6 2.6-2.1 2.6-3.8l-.1-11.5z" class="Cp"/><path d="M180.9 145.3c0-1.5-1.1-3.3-2.3-4l-66.8-37.9c-.9-.5-2.1-.6-3-.1l-1.9 1c-.5.2-.9.7-.9 1.6v12.5c0 1.5 1.1 3.3 2.3 4l67.3 38.2c.5.3.9.4 1.3.3l1.5-.6c1.6-.6 2.6-2.1 2.6-3.8l-.1-11.2z" opacity=".024"/><path d="M180.9 145.3c0-1.5-1.1-3.3-2.3-4l-66.8-37.9c-.9-.5-2.1-.6-3-.1l-1.9 1c-.5.2-.9.7-.9 1.6v12.3c0 1.5 1.1 3.3 2.3 4l67.3 38.2c.5.3.9.4 1.3.3l1.5-.6c1.6-.6 2.6-2.1 2.6-3.8l-.1-11z" opacity=".05"/><path d="M180.9 145.3c0-1.5-1.1-3.3-2.3-4l-66.8-37.9c-.9-.5-2.1-.6-3-.1l-1.9 1c-.5.2-.9.7-.9 1.6V118c0 1.5 1.1 3.3 2.3 4l67.3 38.2c.5.3.9.4 1.3.3l1.5-.6c1.6-.6 2.6-2.1 2.6-3.8l-.1-10.8z" opacity=".073"/><path d="M180.9 145.3c0-1.5-1.1-3.3-2.3-4l-66.8-37.9c-.9-.5-2.1-.6-3-.1l-1.9 1c-.5.2-.9.7-.9 1.6v11.8c0 1.5 1.1 3.3 2.3 4l67.3 38.2c.5.3.9.4 1.3.3l1.5-.6c1.6-.6 2.6-2.1 2.6-3.8l-.1-10.5z" class="Cq"/><path d="M180.9 145.3c0-1.5-1.1-3.3-2.3-4l-66.8-37.9c-.9-.5-2.1-.6-3-.1l-1.9 1c-.5.2-.9.7-.9 1.6v11.6c0 1.5 1.1 3.3 2.3 4l67.3 38.2c.5.3.9.4 1.3.3l1.5-.6c1.6-.6 2.6-2.1 2.6-3.8l-.1-10.3z" opacity=".122"/><path d="M180.9 145.3c0-1.5-1.1-3.3-2.3-4l-66.8-37.9c-.9-.5-2.1-.6-3-.1l-1.9 1c-.5.2-.9.7-.9 1.6v11.4c0 1.5 1.1 3.3 2.3 4l67.3 38.2c.5.3.9.4 1.3.3l1.5-.6c1.6-.6 2.6-2.1 2.6-3.8l-.1-10.1z" opacity=".146"/><path d="M180.9 145.3c0-1.5-1.1-3.3-2.3-4l-66.8-37.9c-.9-.5-2.1-.6-3-.1l-1.9 1c-.5.2-.9.7-.9 1.6V117c0 1.5 1.1 3.3 2.3 4l67.3 38.2c.5.3.9.4 1.3.3l1.5-.6c1.6-.6 2.6-2.1 2.6-3.8l-.1-9.8z" opacity=".17"/><path d="M180.9 145.3c0-1.5-1.1-3.3-2.3-4l-66.8-37.9c-.9-.5-2.1-.6-3-.1l-1.9 1c-.5.2-.9.7-.9 1.6v10.9c0 1.5 1.1 3.3 2.3 4l67.3 38.2c.5.3.9.4 1.3.3l1.5-.6c1.6-.6 2.6-2.1 2.6-3.8l-.1-9.6z" opacity=".195"/><path d="M180.9 145.3c0-1.5-1.1-3.3-2.3-4l-66.8-37.9c-.9-.5-2.1-.6-3-.1l-1.9 1c-.5.2-.9.7-.9 1.6v10.7c0 1.5 1.1 3.3 2.3 4l67.3 38.2c.5.3.9.4 1.3.3l1.5-.6c1.6-.6 2.6-2.1 2.6-3.8l-.1-9.4z" opacity=".22"/><path d="M180.9 145.3c0-1.5-1.1-3.3-2.3-4l-66.8-37.9c-.9-.5-2.1-.6-3-.1l-1.9 1c-.5.2-.9.7-.9 1.6v10.5c0 1.5 1.1 3.3 2.3 4l67.3 38.2c.5.3.9.4 1.3.3l1.5-.6c1.6-.6 2.6-2.1 2.6-3.8l-.1-9.2z" opacity=".244"/><path d="M180.9 145.3c0-1.5-1.1-3.3-2.3-4l-66.8-37.9c-.9-.5-2.1-.6-3-.1l-1.9 1c-.5.2-.9.7-.9 1.6v10.2c0 1.5 1.1 3.3 2.3 4l67.3 38.2c.5.3.9.4 1.3.3l1.5-.6c1.6-.6 2.6-2.1 2.6-3.8l-.1-8.9z" opacity=".268"/><path d="M180.9 145.3c0-1.5-1.1-3.3-2.3-4l-66.8-37.9c-.9-.5-2.1-.6-3-.1l-1.9 1c-.5.2-.9.7-.9 1.6v10c0 1.5 1.1 3.3 2.3 4l67.3 38.2c.5.3.9.4 1.3.3l1.5-.6c1.6-.6 2.6-2.1 2.6-3.8l-.1-8.7z" opacity=".293"/><path d="M180.9 145.3c0-1.5-1.1-3.3-2.3-4l-66.8-37.9c-.9-.5-2.1-.6-3-.1l-1.9 1c-.5.2-.9.7-.9 1.6v9.8c0 1.5 1.1 3.3 2.3 4l67.3 38.2c.5.3.9.4 1.3.3l1.5-.6c1.6-.6 2.6-2.1 2.6-3.8l-.1-8.5z" opacity=".317"/><path d="M180.9 145.3c0-1.5-1.1-3.3-2.3-4l-66.8-37.9c-.9-.5-2.1-.6-3-.1l-1.9 1c-.5.2-.9.7-.9 1.6v9.5c0 1.5 1.1 3.3 2.3 4l67.3 38.2c.5.3.9.4 1.3.3l1.5-.6c1.6-.6 2.6-2.1 2.6-3.8l-.1-8.2z" opacity=".342"/><path d="M180.9 145.3c0-1.5-1.1-3.3-2.3-4l-66.8-37.9c-.9-.5-2.1-.6-3-.1l-1.9 1c-.5.2-.9.7-.9 1.6v9.3c0 1.5 1.1 3.3 2.3 4l67.3 38.2c.5.3.9.4 1.3.3l1.5-.6c1.6-.6 2.6-2.1 2.6-3.8l-.1-8z" opacity=".366"/><path d="M180.9 145.3c0-1.5-1.1-3.3-2.3-4l-66.8-37.9c-.9-.5-2.1-.6-3-.1l-1.9 1c-.5.2-.9.7-.9 1.6v9.1c0 1.5 1.1 3.3 2.3 4l67.3 38.2c.5.3.9.4 1.3.3l1.5-.6c1.6-.6 2.6-2.1 2.6-3.8l-.1-7.8z" opacity=".4"/><path d="M180.9 145.3c0-1.5-1.1-3.3-2.3-4l-66.8-37.9c-.9-.5-2.1-.6-3-.1l-1.9 1c-.5.2-.9.7-.9 1.6v8.8c0 1.5 1.1 3.3 2.3 4l67.3 38.2c.5.3.9.4 1.3.3l1.5-.6c1.6-.6 2.6-2.1 2.6-3.8l-.1-7.5z" opacity=".415"/><path d="M180.9 145.3c0-1.5-1.1-3.3-2.3-4l-66.8-37.9c-.9-.5-2.1-.6-3-.1l-1.9 1c-.5.2-.9.7-.9 1.6v8.6c0 1.5 1.1 3.3 2.3 4l67.3 38.2c.5.3.9.4 1.3.3l1.5-.6c1.6-.6 2.6-2.1 2.6-3.8l-.1-7.3z" opacity=".44"/><path d="M180.9 145.3c0-1.5-1.1-3.3-2.3-4l-66.8-37.9c-.9-.5-2.1-.6-3-.1l-1.9 1c-.5.2-.9.7-.9 1.6v8.4c0 1.5 1.1 3.3 2.3 4l67.3 38.2c.5.3.9.4 1.3.3l1.5-.6c1.6-.6 2.6-2.1 2.6-3.8l-.1-7.1z" opacity=".463"/><path d="M180.9 145.3c0-1.5-1.1-3.3-2.3-4l-66.8-37.9c-.9-.5-2.1-.6-3-.1l-1.9 1c-.5.2-.9.7-.9 1.6v8.1c0 1.5 1.1 3.3 2.3 4l67.3 38.2c.5.3.9.4 1.3.3l1.5-.6c1.6-.6 2.6-2.1 2.6-3.8l-.1-6.8z" opacity=".488"/><path d="M180.9 145.3c0-1.5-1.1-3.3-2.3-4l-66.8-37.9c-.9-.5-2.1-.6-3-.1l-1.9 1c-.5.2-.9.7-.9 1.6v7.9c0 1.5 1.1 3.3 2.3 4l67.3 38.2c.5.3.9.4 1.3.3l1.5-.6c1.6-.6 2.6-2.1 2.6-3.8l-.1-6.6z" opacity=".512"/><path d="M180.9 145.3c0-1.5-1.1-3.3-2.3-4l-66.8-37.9c-.9-.5-2.1-.6-3-.1l-1.9 1c-.5.2-.9.7-.9 1.6v7.7c0 1.5 1.1 3.3 2.3 4l67.3 38.2c.5.3.9.4 1.3.3l1.5-.6c1.6-.6 2.6-2.1 2.6-3.8l-.1-6.4z" opacity=".537"/><path d="M180.9 145.3c0-1.5-1.1-3.3-2.3-4l-66.8-37.9c-.9-.5-2.1-.6-3-.1l-1.9 1c-.5.2-.9.7-.9 1.6v7.4c0 1.5 1.1 3.3 2.3 4l67.3 38.2c.5.3.9.4 1.3.3l1.5-.6c1.6-.6 2.6-2.1 2.6-3.8l-.1-6.1z" opacity=".56"/><path d="M180.9 145.3c0-1.5-1.1-3.3-2.3-4l-66.8-37.9c-.9-.5-2.1-.6-3-.1l-1.9 1c-.5.2-.9.7-.9 1.6v7.2c0 1.5 1.1 3.3 2.3 4l67.3 38.2c.5.3.9.4 1.3.3l1.5-.6c1.6-.6 2.6-2.1 2.6-3.8l-.1-5.9z" opacity=".585"/><path d="M180.9 145.3c0-1.5-1.1-3.3-2.3-4l-66.8-37.9c-.9-.5-2.1-.6-3-.1l-1.9 1c-.5.2-.9.7-.9 1.6v7c0 1.5 1.1 3.3 2.3 4l67.3 38.2c.5.3.9.4 1.3.3l1.5-.6c1.6-.6 2.6-2.1 2.6-3.8l-.1-5.7z" opacity=".6"/><path d="M180.9 145.3c0-1.5-1.1-3.3-2.3-4l-66.8-37.9c-.9-.5-2.1-.6-3-.1l-1.9 1c-.5.2-.9.7-.9 1.6v6.8c0 1.5 1.1 3.3 2.3 4l67.3 38.2c.5.3.9.4 1.3.3l1.5-.6c1.6-.6 2.6-2.1 2.6-3.8l-.1-5.5z" opacity=".634"/><path d="M180.9 145.3c0-1.5-1.1-3.3-2.3-4l-66.8-37.9c-.9-.5-2.1-.6-3-.1l-1.9 1c-.5.2-.9.7-.9 1.6v6.5c0 1.5 1.1 3.3 2.3 4l67.3 38.2c.5.3.9.4 1.3.3l1.5-.6c1.6-.6 2.6-2.1 2.6-3.8l-.1-5.2z" opacity=".66"/><path d="M180.9 145.3c0-1.5-1.1-3.3-2.3-4l-66.8-37.9c-.9-.5-2.1-.6-3-.1l-1.9 1c-.5.2-.9.7-.9 1.6v6.3c0 1.5 1.1 3.3 2.3 4l67.3 38.2c.5.3.9.4 1.3.3l1.5-.6c1.6-.6 2.6-2.1 2.6-3.8l-.1-5z" opacity=".683"/><path d="M180.9 145.3c0-1.5-1.1-3.3-2.3-4l-66.8-37.9c-.9-.5-2.1-.6-3-.1l-1.9 1c-.5.2-.9.7-.9 1.6v6.1c0 1.5 1.1 3.3 2.3 4l67.3 38.2c.5.3.9.4 1.3.3l1.5-.6c1.6-.6 2.6-2.1 2.6-3.8l-.1-4.8z" opacity=".707"/><path d="M180.9 145.3c0-1.5-1.1-3.3-2.3-4l-66.8-37.9c-.9-.5-2.1-.6-3-.1l-1.9 1c-.5.2-.9.7-.9 1.6v5.8c0 1.5 1.1 3.3 2.3 4l67.3 38.2c.5.3.9.4 1.3.3l1.5-.6c1.6-.6 2.6-2.1 2.6-3.8l-.1-4.5z" opacity=".732"/><path d="M180.9 145.3c0-1.5-1.1-3.3-2.3-4l-66.8-37.9c-.9-.5-2.1-.6-3-.1l-1.9 1c-.5.2-.9.7-.9 1.6v5.6c0 1.5 1.1 3.3 2.3 4l67.3 38.2c.5.3.9.4 1.3.3l1.5-.6c1.6-.6 2.6-2.1 2.6-3.8l-.1-4.3z" opacity=".756"/><path d="M180.9 145.3c0-1.5-1.1-3.3-2.3-4l-66.8-37.9c-.9-.5-2.1-.6-3-.1l-1.9 1c-.5.2-.9.7-.9 1.6v5.4c0 1.5 1.1 3.3 2.3 4l67.3 38.2c.5.3.9.4 1.3.3l1.5-.6c1.6-.6 2.6-2.1 2.6-3.8l-.1-4.1z" opacity=".78"/><path d="M180.9 145.3c0-1.5-1.1-3.3-2.3-4l-66.8-37.9c-.9-.5-2.1-.6-3-.1l-1.9 1c-.5.2-.9.7-.9 1.6v5.1c0 1.5 1.1 3.3 2.3 4l67.3 38.2c.5.3.9.4 1.3.3l1.5-.6c1.6-.6 2.6-2.1 2.6-3.8l-.1-3.8z" opacity=".805"/><path d="M180.9 145.3c0-1.5-1.1-3.3-2.3-4l-66.8-37.9c-.9-.5-2.1-.6-3-.1l-1.9 1c-.5.2-.9.7-.9 1.6v4.9c0 1.5 1.1 3.3 2.3 4l67.3 38.2c.5.3.9.4 1.3.3l1.5-.6c1.6-.6 2.6-2.1 2.6-3.8l-.1-3.6z" opacity=".83"/><path d="M180.9 145.3c0-1.5-1.1-3.3-2.3-4l-66.8-37.9c-.9-.5-2.1-.6-3-.1l-1.9 1c-.5.2-.9.7-.9 1.6v4.7c0 1.5 1.1 3.3 2.3 4l67.3 38.2c.5.3.9.4 1.3.3l1.5-.6c1.6-.6 2.6-2.1 2.6-3.8l-.1-3.4z" opacity=".854"/><path d="M180.9 145.3c0-1.5-1.1-3.3-2.3-4l-66.8-37.9c-.9-.5-2.1-.6-3-.1l-1.9 1c-.5.2-.9.7-.9 1.6v4.4c0 1.5 1.1 3.3 2.3 4l67.3 38.2c.5.3.9.4 1.3.3l1.5-.6c1.6-.6 2.6-2.1 2.6-3.8l-.1-3.1z" opacity=".878"/><path d="M180.9 145.3c0-1.5-1.1-3.3-2.3-4l-66.8-37.9c-.9-.5-2.1-.6-3-.1l-1.9 1c-.5.2-.9.7-.9 1.6v4.2c0 1.5 1.1 3.3 2.3 4l67.3 38.2c.5.3.9.4 1.3.3l1.5-.6c1.6-.6 2.6-2.1 2.6-3.8l-.1-2.9z" class="Cr"/><path d="M180.9 145.3c0-1.5-1.1-3.3-2.3-4l-66.8-37.9c-.9-.5-2.1-.6-3-.1l-1.9 1c-.5.2-.9.7-.9 1.6v4c0 1.5 1.1 3.3 2.3 4l67.3 38.2c.5.3.9.4 1.3.3l1.5-.6c1.6-.6 2.6-2.1 2.6-3.8l-.1-2.7z" opacity=".927"/><path d="M180.9 145.3c0-1.5-1.1-3.3-2.3-4l-66.8-37.9c-.9-.5-2.1-.6-3-.1l-1.9 1c-.5.2-.9.7-.9 1.6v3.8c0 1.5 1.1 3.3 2.3 4l67.3 38.2c.5.3.9.4 1.3.3l1.5-.6c1.6-.6 2.6-2.1 2.6-3.8l-.1-2.5z" opacity=".95"/><path d="M180.9 145.3c0-1.5-1.1-3.3-2.3-4l-66.8-37.9c-.9-.5-2.1-.6-3-.1l-1.9 1c-.5.2-.9.7-.9 1.6v3.5c0 1.5 1.1 3.3 2.3 4l67.3 38.2c.5.3.9.4 1.3.3l1.5-.6c1.6-.6 2.6-2.1 2.6-3.8l-.1-2.2z" opacity=".976"/><path d="M180.9 145.3c0-1.5-1.1-3.3-2.3-4l-66.8-37.9c-.9-.5-2.1-.6-3-.1l-1.9 1c-.5.2-.9.7-.9 1.6v3.3c0 1.5 1.1 3.3 2.3 4l67.3 38.2c.5.3.9.4 1.3.3l1.5-.6c1.6-.6 2.6-2.1 2.6-3.8l-.1-2z"/></g><linearGradient id="G" gradientUnits="userSpaceOnUse" x1="109.353" y1="91.334" x2="183.43" y2="91.334"><stop offset="0" stop-color="#3c5185"/><stop offset=".6" stop-color="#445c95"/><stop offset="1" stop-color="#4a65a3"/></linearGradient><path d="M109.4 45.3l1.9-1c.9-.5 2.1-.5 3 .1l66.8 37.9c1.3.7 2.3 2.5 2.3 4v47.9c0 1.7-1 3.2-2.6 3.8l-1.5.6-65.6-40c-1.3-.7-2.3-2.5-2.3-4l-2-49.3z" fill="url(#G)"/><linearGradient id="H" gradientUnits="userSpaceOnUse" x1="180.147" y1="138.682" x2="109.48" y2="46.182"><stop offset="0" stop-color="#3c5185"/><stop offset=".6" stop-color="#445c95"/><stop offset="1" stop-color="#4a65a3"/></linearGradient><path d="M108.5 46.9c0-1.5 1.1-2.1 2.3-1.3l67.3 38.2c1.3.7 2.3 2.5 2.3 4V137c0 1.5-1.1 2.1-2.3 1.3l-67.3-38.2c-1.3-.7-2.3-2.5-2.3-4V46.9z" fill="url(#H)"/><path d="M110.8 100.1l67.3 38.2c1.3.7 2.3.1 2.3-1.3v-9.4l-.2-.1-71.8-40.9V96c.1 1.6 1.1 3.4 2.4 4.1z" class="Cm"/><linearGradient id="I" gradientUnits="userSpaceOnUse" x1="137.972" y1="85.674" x2="154.905" y2="85.674"><stop offset=".15" stop-color="#ff9800"/><stop offset="1" stop-color="#ffc107"/></linearGradient><path d="M153.8 93.9l-12.6 1.3c-1.5.1-3.3-1.7-3.3-3.4V77.5c0-1.7 1.8-1.8 3.3-.3l12.6 13c1.5 1.5 1.5 3.6 0 3.7l-12.6 1.3c-1.5.1-3.3-1.7-3.3-3.4V77.5c0-1.7 1.8-1.8 3.3-.3l12.6 13c1.5 1.5 1.5 3.6 0 3.7z" fill="url(#I)"/><path d="M171.8 129.9c-.2 0-.3 0-.5-.1L116 98.3c-.5-.3-.6-.9-.4-1.3.3-.5.9-.6 1.4-.4l55.4 31.5c.5.3.6.9.4 1.3-.3.3-.6.5-1 .5z" class="Ck"/><linearGradient id="J" gradientUnits="userSpaceOnUse" x1="115.467" y1="104.614" x2="142.824" y2="104.614"><stop offset=".15" stop-color="#ff9800"/><stop offset="1" stop-color="#ffc107"/></linearGradient><path d="M141.8 112.8c-.2 0-.3 0-.5-.1L116 98.3c-.5-.3-.6-.9-.4-1.3.3-.5.9-.6 1.4-.4l25.4 14.4c.5.3.6.9.4 1.3-.3.3-.6.5-1 .5z" fill="url(#J)"/><path d="M143.3 113.6c-.6 1-1.5 1-2 0-.6-1-.6-2.5 0-3.5s1.5-1 2 0c.6.9.6 2.5 0 3.5z" fill="#ffc107"/><use xlink:href="#g" class="Dn"/><path d="M63.9 157.5l-3.8 2.1c-1.3.7-2.8.7-4.1-.1l-.3-.2c-.5-.3-.7-.8-.7-1.3v.5c0 .5.3 1 .7 1.3l.3.2c1.3.7 2.8.8 4.1.1l3.8-2.1c.3-.2.4-.5.3-.8-.1.1-.2.3-.3.3z" class="Ck"/><path d="M61.1 157.3l.4-.2-.5-1.1h-.5l.6 1.3zm-.9.2l.4-.2-.6-1.2-.5.1z" class="Cm"/><use xlink:href="#g" x="6.1" y="4.3" class="Dn"/><path d="M70 161.9l-3.8 2.1c-1.3.7-2.8.7-4.1-.1l-.3-.2c-.5-.3-.7-.8-.7-1.3v.5c0 .5.3 1 .7 1.3l.3.2c1.3.7 2.8.8 4.1.1l3.8-2.1c.3-.2.4-.5.3-.8 0 .1-.1.2-.3.3zm-13.7-32.4c-.3 0-.6-.1-.8-.3l-2.2-2.1c-1.6-1.6-2.5-3.7-2.4-6 .1-2.2 1.2-4.3 2.9-5.7l2.4-2c.5-.4 1.2-.3 1.6.2s.3 1.2-.2 1.6l-2.4 2c-1.2 1-2 2.5-2 4-.1 1.6.5 3.1 1.7 4.2l2.2 2.1c.5.4.5 1.2 0 1.7-.2.2-.5.3-.8.3z" class="Ck"/><g class="Ct"><path d="M56.8 158.7c-1.1 0-1.8-.9-1.8-2l.6-12.9-.9-14.1c0-1.1.9-2 2-2s3.3.9 3.3 2l-1.3 27c.1 1.1-.8 2-1.9 2zm6.4 4.4c-1.1 0-2-.9-2-2l.3-13.8-1.7-13.3c0-1.1 2.2-2 3.3-2s2 .9 2 2v27a1.95 1.95 0 0 1-1.9 2.1z"/><path d="M55.4 127.3l-.9 6.5c0 .8.4 1.6 1.1 2l5.3 3c1.4.8 3.2-.2 3.2-1.9v-13.2c0-.8 1.7-.3 1-.7l-7.5-4.3c-1.3-.8-2.2 7-2.2 8.6z"/></g><path d="M57.1 127.5c.5.4.5 1.2 0 1.7-.2.2-.5.4-.8.4s-.6-.1-.8-.3l-1.3-1.2c0-.3.1-.6.1-.8.1-.8.1-1.6.1-2.4.2.2.3.4.5.6l2.2 2z" fill="#1e2943" class="Cl"/><g class="Cn"><path d="M59.9 115.2c-.6 0-1.2-.5-1.2-1.2v-4.6c0-.6.5-1.2 1.2-1.2.6 0 1.2.5 1.2 1.2v4.6c0 .7-.5 1.2-1.2 1.2z"/><path d="M60.6 113.8h-1.7V106h5.8v3.7c0 2.3-1.9 4.1-4.1 4.1z"/></g><linearGradient id="K" gradientUnits="userSpaceOnUse" x1="56.673" y1="108.42" x2="66.112" y2="108.42"><stop offset=".15" stop-color="#ff9800"/><stop offset="1" stop-color="#ffc107"/></linearGradient><path d="M66 104.5c-.3-.6-1-1-1.6-.7a.78.78 0 0 1-.8.1c-.4-.2-.5-.4-1-.3-.2 0-.5.2-.7.2-.4 0-.7-.4-1.2-.2-.4.1-.5.1-.9.1-.3 0-.6 0-.8.1-.5.2-.5.6-.8 1-.3.3-.6.1-.9.4-.3.2-.3.6-.2 1 .1.1.2.3.1.5 0 .1-.2.2-.2.2-.3.3-.1.8.2 1.2 0 .1.1.1.1.2s-.1.2-.2.3c-.3.4-.2 1.1.1 1.4.2.2.4.3.5.5 0 .1 0 .3-.1.4-.1.5.1 1.1.6 1.3.5.3 0 1.2.9 1.3.6.1 1.2-.7 1.4-1.3 0 .1.4-.1.4-.2.1-.1.1-.4.2-.5.1-.4.2-.7.2-1 0-.1 0-1.6.1-1.6.3 0 .6 0 .8-.1.6-.2.4-.7.6-1.1.1-.2.4-.3.5-.5s.1-.6.1-.8c.6.1 1.3.2 1.8 0 .4-.2 1.1-.5 1.1-1-.2-.5-.2-.7-.3-.9z" fill="url(#K)"/><path d="M66.1 105.1c0 .5-.6.8-1.1 1-.3.1-.7.1-1 .1.2 0 .3-.1.5-.1.4-.2 1.1-.5 1.1-1 0-.2 0-.5-.1-.7-.2-.4-.5-.7-.9-.7.6-.1 1.1.2 1.4.7.1.3.1.5.1.7z" opacity=".2" fill="#ef9ea3"/><circle cx="61.7" cy="109.3" r=".8" class="Cn"/><path d="M67.2 161.6l.4-.2-.5-1.1h-.5l.6 1.3zm-.9.3l.5-.3-.6-1.1h-.5z" class="Cm"/><path d="M62.8 120.4l5.9-.2a5.91 5.91 0 0 0 4.8-2.9l4.3-7.8c.3-.6.1-1.3-.5-1.6s-1.3-.1-1.6.5l-4.3 7.8c-.6 1-1.6 1.7-2.8 1.7l-5.9.2c-.6 0-1.1.6-1.1 1.2s.5 1.1 1.2 1.1z" class="Cn"/><linearGradient id="L" gradientUnits="userSpaceOnUse" x1="54.486" y1="123.456" x2="77.17" y2="123.456"><stop offset=".004" stop-color="#3c5185"/><stop offset="1" stop-color="#5d7dbe"/></linearGradient><path d="M76.5 109.3c-.6-.3-1.4-.1-1.8.5l-3.4 6.3c-.5 1-1.6 1.6-2.7 1.7l-3.3.1c-.4-1.1-1-2-2.1-2.7a.76.76 0 0 0-.4-.2l-3.4-1.9a2.44 2.44 0 0 0-2.6 0c-1.4.8-2.1 2.3-2 3.8l.4 6.3-.2 4c-.1.8-.5 5.7-.3 6.5.1.5 1.4 1.5 3.2 2.5.2.1.3-4 .5-3.9s.3 4.3.5 4.4c2.2 1 4.9 1.7 6.7.8l-.2-7.7.4-4.8c.1-1.4.3-3 .2-4.5l2.9-.1c2-.1 3.9-1.2 4.9-3l3.4-6.3c.2-.7-.1-1.5-.7-1.8z" fill="url(#L)"/><path d="M75.6 109c.1.1.3 0 .3-.1l1.4-2.5c.1-.1 0-.3-.1-.3-.1-.1-.3 0-.3.1l-1.4 2.5c0 .1 0 .2.1.3z" class="Cn"/><g class="Ck Cl"><path d="M68.8 161.3l63.7 36.7c.8.5.8 1.6 0 2.1l-19 10.9h-1.2l-64.7-37.3c-.2-.1-.2-.3 0-.4l20.9-12h.3z" class="Cp"/><path d="M68.8 161.4l63.6 36.7c.8.5.8 1.6 0 2.1L113.6 211h-1.2l-64.5-37.2c-.1-.1-.1-.3 0-.4l20.8-11.9c0-.1 0-.1.1-.1z" class="Cu"/><path d="M68.9 161.4l63.4 36.6c.8.5.8 1.6 0 2.1l-18.7 10.7h-1.2L48 173.6c-.1-.1-.1-.3 0-.4l20.7-11.9c0 .1.1.1.2.1z" class="Cv"/><path d="M68.9 161.5l63.3 36.5c.8.5.8 1.6 0 2.1l-18.7 10.7h-1.2L48 173.7c-.1-.1-.1-.3 0-.4l20.6-11.8h.3z" class="Cw"/><path d="M69 161.5l63.2 36.4c.8.5.8 1.6 0 2.1l-18.6 10.6h-1.2l-64.2-37c-.1-.1-.1-.3 0-.4l20.5-11.8c.1.1.2.1.3.1z" class="Cx"/><path d="M69 161.6l63 36.4c.8.5.8 1.6 0 2.1l-18.5 10.6h-1.2l-64-36.9c-.1-.1-.1-.3 0-.4l20.5-11.7c.1-.1.1-.1.2-.1z" class="Cq"/><path d="M69 161.6l62.9 36.3c.8.5.8 1.6 0 2.1l-18.4 10.6h-1.2l-63.9-36.9c-.1-.1-.1-.3 0-.4l20.4-11.7h.2z" class="Cy"/><path d="M69.1 161.7l62.8 36.2c.8.5.8 1.6 0 2.1l-18.3 10.5h-1.2l-63.8-36.8c-.1-.1-.1-.3 0-.4l20.3-11.6h.2z" class="Cz"/><path d="M69.1 161.7l62.6 36.2c.8.5.8 1.6 0 2.1l-18.3 10.5h-1.2l-63.6-36.7c-.1-.1-.1-.3 0-.4l20.2-11.6c.2-.1.3-.1.3-.1z" class="DA"/><path d="M69.2 161.8l62.5 36.1c.8.5.8 1.6 0 2.1l-18.2 10.4h-1.2l-63.5-36.6c-.1-.1-.1-.3 0-.4L69 161.8h.2z" class="DB"/><path d="M69.2 161.8l62.4 36c.8.5.8 1.6 0 2.1l-18.1 10.4h-1.2L49 173.7c-.1-.1-.1-.3 0-.4l20-11.5h.2z" class="DC"/><path d="M69.3 161.9l62.3 35.9c.8.5.8 1.6 0 2.1l-18 10.3h-1.2l-63.2-36.5c-.1-.1-.1-.3 0-.4l20-11.5c0 .1 0 .1.1.1z" class="DD"/><path d="M69.3 162l62.1 35.9c.8.5.8 1.6 0 2.1l-17.9 10.3h-1.2l-63.1-36.4c-.1-.1-.1-.3 0-.4l19.9-11.4c.1-.1.2-.1.2-.1z" class="DE"/><path d="M69.4 162l62 35.8c.8.5.8 1.6 0 2.1l-17.9 10.2h-1.2l-63-36.3c-.1-.1-.1-.3 0-.4L69.2 162h.2z" class="DF"/><path d="M69.4 162.1l61.9 35.7c.8.5.8 1.6 0 2.1L113.5 210h-1.2l-62.9-36.3c-.1-.1-.1-.3 0-.4L69.1 162c.2.1.3.1.3.1z" class="DG"/><path d="M69.5 162.1l61.7 35.6c.8.5.8 1.6 0 2.1l-17.7 10.1h-1.2l-62.7-36.2c-.1-.1-.1-.3 0-.4L69.3 162c.1.1.1.1.2.1z" class="DH"/><path d="M69.5 162.2l61.6 35.6c.8.5.8 1.6 0 2.1L113.5 210h-1.2l-62.6-36.1c-.1-.1-.1-.3 0-.4l19.6-11.2c.1-.1.2-.1.2-.1z" class="DI"/><path d="M69.6 162.2l61.5 35.5c.8.5.8 1.6 0 2.1l-17.5 10.1h-1.2l-62.5-36.1c-.1-.1-.1-.3 0-.4l19.5-11.2h.2z" class="DJ"/><path d="M69.6 162.3l61.4 35.4c.8.5.8 1.6 0 2.1l-17.5 10h-1.2l-62.3-36c-.1-.1-.1-.3 0-.4l19.4-11.1h.2z" class="DK"/><path d="M69.7 162.3l61.2 35.3c.8.5.8 1.6 0 2.1l-17.4 10h-1.2l-62.2-35.9c-.1-.1-.1-.3 0-.4l19.4-11.1h.2z" class="DL"/><path d="M69.7 162.4l61.1 35.3c.8.5.8 1.6 0 2.1l-17.3 9.9h-1.2l-62.1-35.8c-.1-.1-.1-.3 0-.4l19.3-11c.1-.1.2-.1.2-.1z" class="DM"/><path d="M69.8 162.4l61 35.2c.8.5.8 1.6 0 2.1l-17.2 9.9h-1.2l-62-35.8c-.1-.1-.1-.3 0-.4l19.2-11h.2z" class="DN"/><path d="M69.8 162.5l60.8 35.1c.8.5.8 1.6 0 2.1l-17.1 9.8h-1.2l-61.8-35.7c-.1-.1-.1-.3 0-.4l19.1-11c.1.1.2.1.2.1z" class="Cs"/><path d="M69.9 162.5l60.7 35c.8.5.8 1.6 0 2.1l-17.1 9.8h-1.2l-61.7-35.6c-.1-.1-.1-.3 0-.4l19-10.9h.3z" class="DO"/><path d="M69.9 162.6l60.6 35c.8.5.8 1.6 0 2.1l-17 9.7h-1.2l-61.6-35.5c-.1-.1-.1-.3 0-.4l19-10.9h.2z" class="DP"/><path d="M70 162.6l60.5 34.9c.8.5.8 1.6 0 2.1l-16.9 9.7h-1.2L51 173.8c-.1-.1-.1-.3 0-.4l18.9-10.8c-.1 0 0 0 .1 0z" class="Co"/><path d="M70 162.7l60.3 34.8c.8.5.8 1.6 0 2l-16.8 9.6h-1.2L51 173.8c-.1-.1-.1-.3 0-.4l18.8-10.8c.1.1.2.1.2.1z" class="Co"/><path d="M70.1 162.7l60.2 34.7c.8.5.8 1.6 0 2l-16.8 9.6h-1.2l-61.2-35.3c-.1-.1-.1-.3 0-.4l18.7-10.7c.1.1.2.1.3.1z" class="DQ"/><path d="M70.1 162.8l60.1 34.7c.8.5.8 1.6 0 2l-16.7 9.6h-1.2l-61.1-35.2c-.1-.1-.1-.3 0-.3l18.6-10.7c.2-.1.3-.1.3-.1z" class="DR"/><path d="M70.2 162.8l59.9 34.6c.8.5.8 1.6 0 2l-16.6 9.5h-1.2l-60.9-35.2c-.1-.1-.1-.3 0-.3L70 162.8h.2z" class="DS"/><path d="M70.2 162.9l59.8 34.5c.8.5.8 1.6 0 2l-16.5 9.5h-1.2l-60.8-35.1c-.1-.1-.1-.3 0-.3L70 162.9h.2z" class="DT"/><path d="M70.3 162.9l59.7 34.4c.8.5.8 1.6 0 2l-16.4 9.4h-1.2l-60.7-35c-.1-.1-.1-.3 0-.3l18.4-10.5h.2z" class="DU"/><path d="M70.3 163l59.6 34.4c.8.5.8 1.6 0 2l-16.4 9.4h-1.2l-60.5-34.9c-.1-.1-.1-.3 0-.3L70.1 163h.2z" class="DV"/><path d="M70.4 163l59.4 34.3c.8.5.8 1.6 0 2l-16.3 9.3h-1.2l-60.4-34.9c-.1-.1-.1-.3 0-.3L70.2 163h.2z" class="DW"/><path d="M70.4 163.1l59.3 34.2c.8.5.8 1.6 0 2l-16.2 9.3h-1.2L52 173.8c-.1-.1-.1-.3 0-.3l18.2-10.4h.2z" class="DX"/><path d="M70.5 163.1l59.2 34.1c.8.5.8 1.6 0 2l-16.1 9.2h-1.2l-60.2-34.7c-.1-.1-.1-.3 0-.3L70.3 163c0 .1.1.1.2.1z" class="DY"/><path d="M70.5 163.2l59 34.1c.8.5.8 1.6 0 2l-16 9.2h-1.2l-60-34.6c-.1-.1-.1-.3 0-.3l18-10.3c.1-.1.1-.1.2-.1z" class="DZ"/><path d="M70.6 163.2l58.9 34c.8.5.8 1.6 0 2l-16 9.1h-1.2l-59.9-34.6c-.1-.1-.1-.3 0-.3l17.9-10.3c.1.1.2.1.3.1z" class="Da"/><path d="M70.6 163.3l58.8 33.9c.8.5.8 1.6 0 2l-15.9 9.1h-1.2l-59.8-34.5c-.1-.1-.1-.3 0-.3l17.8-10.2h.3z" class="Db"/><path d="M70.7 163.3l58.7 33.9c.8.5.8 1.6 0 2l-15.8 9.1h-1.2l-59.6-34.4c-.1-.1-.1-.3 0-.3l17.8-10.2c-.1-.1 0-.1.1-.1z" class="Dc"/><path d="M70.7 163.4l58.5 33.8c.8.5.8 1.6 0 2l-15.7 9h-1.2l-59.5-34.3c-.1-.1-.1-.3 0-.3l17.7-10.1c.1-.1.1-.1.2-.1z" class="Dd"/><path d="M70.8 163.4l58.4 33.7c.8.5.8 1.6 0 2l-15.6 9h-1.2L53 173.8c-.1-.1-.1-.3 0-.3l17.6-10.1h.2z" class="De"/><path d="M70.8 163.5l58.3 33.6c.8.5.8 1.6 0 2l-15.6 8.9h-1.2L53 173.8c-.1-.1-.1-.3 0-.3l17.5-10h.3z" class="Df"/><path d="M70.9 163.5l58.1 33.6c.8.4.8 1.6 0 2l-15.5 8.9h-1.2l-59.1-34.1c-.1-.1-.1-.3 0-.3l17.4-10c.1-.1.2-.1.3-.1z" class="Dg"/><path d="M70.9 163.6l58 33.5c.8.4.8 1.6 0 2l-15.4 8.8h-1.2l-59-34c-.1-.1-.1-.3 0-.3l17.4-10h.2z" class="Dh"/><path d="M71 163.6l57.9 33.4c.8.4.8 1.6 0 2l-15.3 8.8h-1.2l-58.9-34c-.1-.1-.1-.3 0-.3l17.3-9.9h.2z" class="Di"/><path d="M71 163.7l57.8 33.3c.8.4.8 1.6 0 2l-15.2 8.7h-1.2l-58.7-33.9c-.1-.1-.1-.3 0-.3l17.2-9.9c0 .1 0 .1.1.1z" class="Cr"/><path d="M71.1 163.7l57.6 33.3c.8.4.8 1.6 0 2l-15.2 8.7h-1.2l-58.6-33.8c-.1-.1-.1-.2 0-.3l17.1-9.8c.1-.1.2-.1.3-.1z" class="Dj"/><path d="M71.1 163.8l57.5 33.2c.8.4.8 1.6 0 2l-15.1 8.6h-1.2l-58.5-33.8c-.1-.1-.1-.2 0-.3l17-9.8c.2.1.2.1.3.1z" class="Dk"/><path d="M71.1 163.8l57.4 33.1c.8.4.8 1.6 0 2l-15 8.6h-1.2L54 173.9c-.1-.1-.1-.2 0-.3l17-9.7c0-.1.1-.1.1-.1z" class="Dl"/><path d="M71.2 163.9l57.2 33c.8.4.8 1.6 0 2l-14.9 8.6h-1.2l-58.2-33.6c-.1-.1-.1-.2 0-.3l16.9-9.7h.2z" class="Dm"/><path d="M71.2 163.9l57.1 33c.8.4.8 1.6 0 2l-14.8 8.5h-1.2l-58.1-33.5c-.1-.1-.1-.2 0-.3L71 164c.1-.1.2-.1.2-.1z"/></g><path d="M70.9 152.1l60.9 35.1-18.9 10.8L52 163z" fill="#b2caec"/><path d="M112.9 198v10.8l18.9-10.8v-10.8z" fill="#98b9e5"/><g class="Ct"><path d="M112.9 208.8L52 173.7V163l60.9 35z"/><path d="M115.5 180.6c-.5.4-1.1.7-1.6.9l-.1.1c-4.4 1.8-8.4-1.6-8.4-1.6-.8-.8-1.1-2.7-1.1-4.1-.1-.3-.2-.7-.3-1.1-.3-1.1-.4-2.5-.4-3.9l17.5 10.1v.3l-3.4-2-2.2 1.3z" class="Cl"/></g><g fill="#5d7dbe"><path d="M107.3 177.5l8.1-4.7v5l4.6 2.6V172c0-1.5-.8-2.8-2-3.5-1.3-.7-2.8-.7-4.1 0l-8.8 5.1 2.2 3.9z"/><path d="M112.6 180.6l8.1-4.7v4.8l4.6 2.6V175c0-1.5-.8-2.8-2-3.5-1.3-.7-2.8-.7-4.1 0l-8.8 5.1 2.2 4z"/></g><path d="M124.6 175.2c0-1.5-.8-2.8-2-3.5-.5-.3-1.1-.5-1.7-.5.8-.1 1.6.1 2.4.5 1.3.7 2 2.1 2 3.5v8.3l-.6-.4v-7.9z" fill="#717386" opacity=".15"/><path d="M114.3 179.7c-5 3.7-10.1-.6-10.1-.6-1.1-1-1.3-4-.9-5.1l1.4-1.4 7.1 4 2.5 3.1z" fill="#5d7dbe"/><linearGradient id="M" gradientUnits="userSpaceOnUse" x1="113.635" y1="165.322" x2="126.862" y2="165.322"><stop offset=".004" stop-color="#a5cbef"/><stop offset=".214" stop-color="#b2d3f1"/><stop offset=".604" stop-color="#d5e7f8"/><stop offset="1" stop-color="#fff"/></linearGradient><path d="M126.6 164.1l-9.9-5.7c-.1-.1-.3 0-.3.2l-2.8 7.6c0 .2.1.3.2.4l9.9 5.7c.1.1.2 0 .3-.2l2.8-7.6c.1-.2 0-.3-.2-.4z" fill="url(#M)"/><path d="M126.5 164.2l-9.9-5.7c-.1-.1-.3 0-.3.2l-2.8 7.6c0 .2.1.3.2.4l9.9 5.7c.1.1.2 0 .3-.2l2.8-7.6c0-.2 0-.3-.2-.4z" class="Ck"/><linearGradient id="N" gradientUnits="userSpaceOnUse" x1="126.195" y1="165.422" x2="114.024" y2="165.422"><stop offset=".15" stop-color="#ff9800"/><stop offset="1" stop-color="#ffc107"/></linearGradient><path d="M126.2 164.6l-9.6-5.5-2.6 7.1 9.6 5.5z" fill="url(#N)"/><linearGradient id="O" gradientUnits="userSpaceOnUse" x1="106.709" y1="171.631" x2="123.75" y2="171.631"><stop offset=".004" stop-color="#a5cbef"/><stop offset=".214" stop-color="#b2d3f1"/><stop offset=".604" stop-color="#d5e7f8"/><stop offset="1" stop-color="#fff"/></linearGradient><path d="M113.1 166.9l-6.4 3.4s0 .5.1.6l9.7 5.6c.2.1.6.1.8 0l6.3-3.6c.3-.2.1-.6.1-.6l-9.8-5.4c-.3-.2-.6-.2-.8 0z" fill="url(#O)"/><path d="M113.1 166.5l-6.3 3.6c-.1.1-.1.3 0 .4l9.7 5.6c.2.1.6.1.8 0l6.3-3.6c.1-.1.1-.3 0-.4l-9.7-5.6c-.3-.2-.6-.2-.8 0z" class="Cm"/><path d="M112.5 171.1l-1.6.9v.1l2.6 1.5h.2l1.6-.9v-.1l-2.6-1.5h-.2z" fill="#dae7f5"/><g fill="#d1e1f2"><use xlink:href="#h"/><path d="M114.5 167.5l.5.3v.1l-.3.2h-.1l-.5-.3v-.1l.4-.2zm.8.4l.5.3v.1l-.3.2h-.1l-.5-.3v-.1l.4-.2z"/><use xlink:href="#h" x="2.4" y="1.4"/><path d="M116.9 168.8l.5.3v.1l-.3.2h-.1l-.5-.3v-.1l.4-.2zm.8.5l.5.3v.1l-.3.2h-.1l-.5-.3v-.1l.4-.2zm.8.4l.5.3v.1l-.3.2h-.1l-.5-.3v-.1l.4-.2c-.1 0 0 0 0 0zm.8.5l.5.3v.1l-.3.2h-.1l-.5-.3v-.1l.4-.2c-.1 0 0 0 0 0z"/><use xlink:href="#h" x="6.3" y="3.7"/><use xlink:href="#h" x="7.1" y="4.1"/><use xlink:href="#h" x="7.9" y="4.6"/><use xlink:href="#i"/><use xlink:href="#i" x="0.8" y="0.5"/><use xlink:href="#j"/><use xlink:href="#k"/><use xlink:href="#i" x="3.2" y="1.8"/><use xlink:href="#k" x="1.5" y="0.9"/><use xlink:href="#k" x="2.3" y="1.3"/><use xlink:href="#k" x="3.1" y="1.8"/><use xlink:href="#i" x="6.3" y="3.7"/><path d="M119.8 171.7l.4-.2h.2l.4.2s.1.1 0 .1l-.4.2h-.2l-.4-.2c0 .1 0 0 0-.1z"/><use xlink:href="#i" x="7.9" y="4.6"/><use xlink:href="#k" x="-3.3" y="-1"/><use xlink:href="#i" y="0.9"/><use xlink:href="#i" x="0.8" y="1.4"/><use xlink:href="#k" x="-0.8" y="0.4"/><use xlink:href="#k" x="-0.1" y="0.9"/><use xlink:href="#j" x="1.5" y="1.8"/><use xlink:href="#k" x="1.5" y="1.8"/><use xlink:href="#i" x="4.7" y="3.6"/><use xlink:href="#i" x="5.5" y="4.1"/><use xlink:href="#k" x="3.9" y="3.2"/><use xlink:href="#i" x="7.1" y="5"/><use xlink:href="#k" x="-4.1" y="-0.5"/><use xlink:href="#i" x="-0.8" y="1.4"/><use xlink:href="#k" x="-2.5" y="0.4"/><use xlink:href="#i" x="0.8" y="2.3"/><use xlink:href="#k" x="-0.9" y="1.3"/><use xlink:href="#i" x="2.3" y="3.2"/><use xlink:href="#i" x="3.1" y="3.6"/><use xlink:href="#i" x="3.9" y="4.1"/><use xlink:href="#j" x="3.1" y="3.6"/><use xlink:href="#k" x="3.1" y="3.6"/><path d="M119 173l.4-.2h.2l.4.2s.1.1 0 .1l-.4.2h-.2l-.4-.2c-.1.1-.1 0 0-.1z"/><use xlink:href="#k" x="-4.9" y="-0.1"/><use xlink:href="#k" x="-4.1" y="0.4"/><use xlink:href="#k" x="-3.3" y="0.8"/><use xlink:href="#i" y="2.7"/><path d="M113.5 170.8l.4-.2h.2l1.9 1.1s.1.1 0 .1l-.4.2h-.2l-1.9-1.1c-.1 0-.1-.1 0-.1z"/><use xlink:href="#i" x="3.1" y="4.5"/><use xlink:href="#k" x="1.4" y="3.6"/><use xlink:href="#i" x="4.7" y="5.5"/><use xlink:href="#i" x="5.5" y="5.9"/></g><linearGradient id="P" gradientUnits="userSpaceOnUse" x1="101.335" y1="167.055" x2="115.577" y2="167.055"><stop offset="0" stop-color="#4a65a3"/><stop offset=".4" stop-color="#445c95"/><stop offset="1" stop-color="#3c5185"/></linearGradient><path d="M113.7 165c.1-1.7-.6-4.8-1.2-5.9-.7-1.4-1.9-2.6-3.2-3.4l-1.3-.8c-1.7-1-2.4.8-3.8 2.2-5.3 5.4-1.6 14.5-1.4 19.3.1 2.4 5.8 3 7.4 3 2.4 0 5.7-1.6 5.4-2.6-2.9-7.5-2.2-7.2-1.9-11.8z" fill="url(#P)"/><g class="Cn"><path d="M108.6 157.3h.1a1.11 1.11 0 0 0 1.1-1.1v-2.6a1.11 1.11 0 0 0-1.1-1.1h-.1a1.11 1.11 0 0 0-1.1 1.1v2.6c.1.6.5 1.1 1.1 1.1z"/><path d="M106.9 154.7l.4.1c2.8.9 5.7-.7 6.6-3.4l1.2-3.7-6.9-2.2-2.3 7.1c-.3.9.1 1.8 1 2.1z"/></g><path d="M106.1 146.4c.2-.7.6-1.6 1.5-1.7.6 0 1.2.3 1.5.8.5-.6 1.3-.6 2-.5 1.3.2 2.8.5 3.9 1.3.8.6 1.8 1.3 1.6 2.5-.1.6-.6 1-1.2 1.3-.3.1-.5.1-.8.2s-.4.4-.7.6c-.4.1-.9 0-1.2.2-.4.2-.4.7-.5 1.2-.1.7-.3 1.3-.8 1.8-.3.4-.6.7-1.1.9-.4.2-.7.2-1.1.3h-.3c-1.1.1-2.3-.1-3-1-.5-.6-.7-1.3-.8-2.1-.3-2.1.3-4 1-5.8z" class="Ck"/><path d="M114.9 146.3c-1.1-.8-2.5-1.1-3.9-1.3h-.5c1.3.2 2.8.5 3.9 1.3.8.6 1.8 1.3 1.6 2.5-.1.6-.6 1-1.2 1.3-.3.1-.5.1-.8.2s-.4.4-.7.6c-.4.1-.9 0-1.2.2-.4.2-.4.7-.5 1.2-.1.7-.3 1.3-.8 1.8-.3.4-.6.7-1.1.9-.4.2-.7.2-1.1.3h-.6 1.1c.4-.1.8-.1 1.1-.3.4-.2.8-.5 1.1-.9.4-.6.7-1.1.8-1.8.1-.4.1-.9.5-1.2.4-.2.8 0 1.2-.2.3-.1.4-.4.7-.6.3-.1.5-.1.8-.2.6-.2 1.1-.7 1.2-1.3.2-1.2-.9-1.9-1.6-2.5z" fill="#63749d"/><path d="M108.7 167.5l.8-5.6c.1-.8.8-1.3 1.6-1.2s1.3.8 1.2 1.6l-.8 5.6c-.2 1.1.2 2.2 1 3 .4.4.9.7 1.4.9.2.8.5 1.8 1 3-1.6-.1-3.2-.7-4.4-1.9-1.5-1.5-2.1-3.5-1.8-5.4z" fill="#2d3d64" class="Cl"/><path d="M115 173.8h.7l1.7-.1c.8-.1 1.4-.7 1.3-1.5s-.7-1.4-1.5-1.3l-1.8.1c-1.1.1-2.2-.3-3-1.1s-1.1-1.9-1-3l.8-5.6c.1-.8-.4-1.5-1.2-1.6s-1.5.4-1.6 1.2l-.8 5.6c-.3 2 .4 3.9 1.8 5.4 1.2 1.3 2.9 1.9 4.6 1.9z" class="Cn"/><linearGradient id="Q" gradientUnits="userSpaceOnUse" x1="108.537" y1="163.348" x2="112.45" y2="163.348"><stop offset="0" stop-color="#4a65a3"/><stop offset=".4" stop-color="#445c95"/><stop offset="1" stop-color="#3c5185"/></linearGradient><path d="M108.5 166.8l.8-6c.1-.8.9-1.4 1.7-1.3s1.4.9 1.3 1.7l-.8 6-3-.4z" fill="url(#Q)"/><g class="Cn"><path d="M117.3 171.4h2.7c.2 0 .3-.1.3-.3s-.1-.3-.3-.3h-2.7c-.2 0-.3.1-.3.3s.1.3.3.3z"/><path d="M115.8 171.8l2.3-1.3c.1-.1.2-.3.1-.4s-.3-.2-.4-.1l-2.3 1.3c-.1.1-.2.3-.1.4 0 .1.2.1.4.1zm2 .5h2.7c.2 0 .3-.1.3-.3s-.1-.3-.3-.3h-2.7c-.2 0-.3.1-.3.3s.1.3.3.3zm-.5.6l2.7.3c.2 0 .3-.1.3-.3s-.1-.3-.3-.3l-2.7-.3c-.2 0-.3.1-.3.3 0 .1.1.3.3.3zm-.4.7l2.7.3c.2 0 .3-.1.3-.3s-.1-.3-.3-.3l-2.6-.3c-.2 0-.3.1-.3.3s.1.3.2.3zM81 164.7c-.6 0-1.2-.3-1.6-1l-2.9-5.7c-1.2-2.2-1.3-4.9-.5-7.3l1.9-5.5c.3-.9 1.3-1.4 2.2-1.1s1.4 1.3 1.1 2.2l-1.9 5.5c-.5 1.5-.4 3.2.3 4.6l2.9 5.7a1.82 1.82 0 0 1-.8 2.4c-.1.1-.4.2-.7.2z"/></g><linearGradient id="R" gradientUnits="userSpaceOnUse" x1="75.81" y1="148.272" x2="81.056" y2="148.272"><stop offset="0" stop-color="#a8d9fb"/><stop offset=".224" stop-color="#c3e5fc"/><stop offset=".548" stop-color="#e4f3fe"/><stop offset=".818" stop-color="#f8fcff"/><stop offset="1" stop-color="#fff"/></linearGradient><path d="M77.4 152.8c-.2 0-.4 0-.5-.1-.8-.3-1.3-1.2-1-2l2-5.9c.3-.8 1.2-1.3 2-1s1.3 1.2 1 2l-2 5.9c-.2.7-.8 1.1-1.5 1.1z" fill="url(#R)"/><path d="M90.6 166.1c-.5.4-1 .7-1.5.9l-.1.1c-4.2 1.7-8-1.5-8-1.5-.8-.7-1.1-2.6-1-3.9-.1-.3-.2-.7-.3-1.1-.2-1-.4-2.4-.4-3.8l16.8 9.7v.3l-3.3-1.9-2.2 1.2z" fill="#231f20" class="Cl"/><g class="Ck"><path d="M83.8 163.8l7.8-4.5v4.8l4.4 2.5v-8.1c0-1.4-.7-2.7-2-3.4-1.2-.7-2.7-.7-3.9 0l-8.5 4.9 2.2 3.8z"/><path d="M87.7 166.2l7.8-4.5v4.7l4.4 2.5v-8c0-1.4-.7-2.7-2-3.4-1.2-.7-2.7-.7-3.9 0l-8.5 4.9 2.2 3.8z"/></g><path d="M99.3 160.9c0-1.4-.7-2.7-2-3.4-.5-.3-1.1-.5-1.7-.5.8-.1 1.6.1 2.3.5 1.2.7 2 2 2 3.4v8l-.6-.3v-7.7z" fill="#717386" opacity=".15"/><path d="M89.4 165.2c-4.8 3.5-9.7-.6-9.7-.6-1-.9-1.2-3.8-.9-4.9l1.3-1.3 6.9 3.8 2.4 3z" class="Ck"/><linearGradient id="S" gradientUnits="userSpaceOnUse" x1="77.831" y1="153.557" x2="90.731" y2="153.557"><stop offset="0" stop-color="#a8d9fb"/><stop offset=".224" stop-color="#c3e5fc"/><stop offset=".548" stop-color="#e4f3fe"/><stop offset=".818" stop-color="#f8fcff"/><stop offset="1" stop-color="#fff"/></linearGradient><path d="M88.5 149.6c.1-1.6-.2-3.1-.8-4.2-.7-1.3-1.8-2.5-3.1-3.2l-1.3-.7c-1.6-.9-2.8.4-3.6 2.1-3.1 5.9-.2 14.1-1.9 19.7 0 0 5.8 2.8 7.4 2.8 2.3 0 5.8-.6 5.5-1.5-2.7-7.4-2.5-10.5-2.2-15z" fill="url(#S)"/><path d="M83.9 143.7h.2c.5 0 1-.4 1-1v-2.6c0-.5-.4-1-1-1h-.2c-.5 0-1 .4-1 1v2.6c0 .6.5 1 1 1z" fill="#ffcebd"/><g class="Cn"><path d="M91.1 165.7l2.1 1.5c.1.1.3.1.4-.1v-.1c.1-.1.1-.3-.1-.4l-2.1-1.5c-.1-.1-.3-.1-.4.1v.1c0 .2 0 .4.1.4zm-1.1-1.5l2.2 1.3c.1.1.3 0 .4-.1v-.1c.1-.1 0-.3-.1-.4l-2.2-1.3c-.1-.1-.3 0-.4.1v.1c-.1.1 0 .3.1.4z"/><path d="M90.9 166.3l1.9 1.8c.1.1.3.1.4 0s.1-.3 0-.4l-1.9-1.8c-.1-.1-.3-.1-.4 0s-.1.3 0 .4z"/><path d="M90.3 166.5l1.4 2.2c.1.1.2.2.4.1h.1c.1-.1.2-.2.1-.4l-1.4-2.2c-.1-.1-.2-.2-.4-.1h-.1c-.1.1-.1.3-.1.4zm-.8-.6l.6 2.5c0 .1.2.2.3.2h.1c.1 0 .2-.2.2-.3l-.6-2.5c0-.1-.2-.2-.3-.2h-.1c-.1.1-.2.2-.2.3z"/></g><path d="M88.1 159c-.8-2.1-1.2-4.5-.9-6.8v-5c.1-.7.1-1.3-.6-1.4s-1.3.1-1.4.8l-.6 5.3c-.3 2.7.1 5.5 1.1 8l2.3 5.8c1.1-.2 2.1-.4 2.5-.8l-2.4-5.9z" fill="#231f20" class="Cl"/><path d="M90.6 167.4c-.5 0-1-.3-1.2-.7l-3.1-6.5c-1.2-2.5-1.7-5.2-1.6-7.9l.2-5.3c0-.7.6-1.3 1.4-1.2.7 0 1.3.6 1.2 1.4l-.2 5.3c-.1 2.3.4 4.6 1.4 6.7l3.1 6.5c.3.6 0 1.4-.6 1.7h-.6z" class="Cn"/><linearGradient id="T" gradientUnits="userSpaceOnUse" x1="84.477" y1="150.259" x2="87.693" y2="150.259"><stop offset="0" stop-color="#a8d9fb"/><stop offset=".224" stop-color="#c3e5fc"/><stop offset=".548" stop-color="#e4f3fe"/><stop offset=".818" stop-color="#f8fcff"/><stop offset="1" stop-color="#fff"/></linearGradient><path d="M86 155c-.1 0-.1 0 0 0a1.47 1.47 0 0 1-1.5-1.5l.2-6.6c0-.8.7-1.5 1.5-1.4.8 0 1.5.7 1.4 1.5l-.2 6.6c0 .8-.6 1.4-1.4 1.4z" fill="url(#T)"/><path d="M82.8 140.9h-1.4v-7.5h6.5v2.4c0 2.8-2.3 5.1-5.1 5.1z" class="Cn"/><linearGradient id="U" gradientUnits="userSpaceOnUse" x1="77.135" y1="139.879" x2="88.757" y2="139.879"><stop offset=".15" stop-color="#ff9800"/><stop offset="1" stop-color="#ffc107"/></linearGradient><path d="M88.4 132.1c-1.1-1.3-3.7-.9-5.2-.5-1.8.6-4 1.2-4.3 3.4-.1.5 0 1.1 0 1.7 0 1.3-.3 2.5-.9 3.7-.8 1.6-1.2 2.7-.3 4.4.5 1 .8 2.6 1.9 3.2s3.3 1 4.4.3c1.4-1.1 2.1-3.7 2-5.4-.1-1.8-1-3.6-.5-5.4.3-1.1 1.8-2.3 2.6-3.1.6-.8 1-1.4.3-2.3z" fill="url(#U)"/><path d="M88.4 132.1c-.7-.8-1.8-1-3-.9.9.1 1.7.3 2.2.9.7.9.4 1.5-.4 2.2-.8.8-2.3 2-2.6 3.1-.5 1.7.4 3.6.5 5.4.1 1.7-.6 4.3-2 5.4-.3.2-.8.4-1.3.4.8.1 1.6 0 2.1-.4 1.4-1.1 2.1-3.7 2-5.4-.1-1.8-1-3.6-.5-5.4.3-1.1 1.8-2.3 2.6-3.1.7-.7 1.1-1.3.4-2.2z" fill="#ffda6a"/><path d="M182.9 99.9c.2 0 .3-.1.5-.1V86.3c0-1.5-1.1-3.3-2.3-4L169 75.5c-1.6 1.1-2.5 3.2-2.5 6.1 0 6.3 4.5 14.1 10 17.3 2.4 1.4 4.7 1.7 6.4 1z" fill="#2d3d64" class="Cl"/><linearGradient id="V" gradientUnits="userSpaceOnUse" x1="170.308" y1="85.565" x2="190.26" y2="85.565"><stop offset="0" stop-color="#7ea7df"/><stop offset="1" stop-color="#fff"/></linearGradient><path d="M180.3 74c-5.5-3.2-10-.6-10 5.8 0 6.3 4.5 14.1 10 17.3s10 .6 10-5.8-4.5-14.1-10-17.3z" fill="url(#V)"/><linearGradient id="W" gradientUnits="userSpaceOnUse" x1="188.173" y1="97.751" x2="168.673" y2="72.584"><stop offset="0" stop-color="#7ea7df"/><stop offset="1" stop-color="#fff"/></linearGradient><path d="M179 74.4c-5.5-3.2-10-.6-10 5.8s4.5 14.1 10 17.3 10 .6 10-5.8-4.5-14.2-10-17.3z" fill="url(#W)"/><path d="M177.5 91.4L174 87c-.5-.6-.4-1.5.2-2s1.5-.4 2 .2l1.8 2.2 4.5-3.5c.6-.5 1.5-.4 2 .2s.4 1.5-.2 2l-6.8 5.3z" class="Ck"/><g class="Ck Cl"><path d="M107.2 124.6l-10.5 6c-.7.4-.7 1.4 0 1.8l10.5 5.9c.7.4 1.5.4 2.1 0l10.5-5.9c.7-.4.7-1.4 0-1.8l-10.5-6c-.7-.4-1.5-.4-2.1 0z" class="Cp"/><path d="M107.2 124.6l-10.4 6c-.7.4-.7 1.4 0 1.8l10.4 5.9c.7.4 1.4.4 2.1 0l10.4-5.9c.7-.4.7-1.4 0-1.8l-10.4-6c-.7-.4-1.5-.4-2.1 0z" class="Cu"/><path d="M107.2 124.6l-10.4 6c-.7.4-.7 1.4 0 1.8l10.4 5.8c.6.4 1.4.4 2.1 0l10.4-5.8c.7-.4.7-1.4 0-1.8l-10.4-6c-.7-.3-1.5-.3-2.1 0z" class="Cv"/><path d="M107.2 124.7l-10.3 6c-.7.4-.7 1.4 0 1.8l10.3 5.8c.6.4 1.4.4 2.1 0l10.3-5.8c.7-.4.7-1.4 0-1.8l-10.3-6c-.7-.4-1.5-.4-2.1 0z" class="Cw"/><path d="M107.2 124.7l-10.3 5.9c-.7.4-.7 1.4 0 1.7l10.3 5.8c.6.4 1.4.4 2.1 0l10.3-5.8c.7-.4.7-1.4 0-1.7l-10.3-5.9c-.7-.4-1.5-.4-2.1 0z" class="Cx"/><path d="M107.2 124.7L97 130.6c-.7.4-.7 1.4 0 1.7l10.2 5.8c.6.4 1.4.4 2.1 0l10.2-5.8c.7-.4.7-1.4 0-1.7l-10.2-5.9c-.7-.3-1.5-.3-2.1 0z" class="Cq"/><path d="M107.2 124.8L97 130.7c-.7.4-.7 1.4 0 1.7l10.2 5.7c.6.4 1.4.4 2.1 0l10.2-5.7c.7-.4.7-1.3 0-1.7l-10.2-5.9c-.7-.4-1.5-.4-2.1 0z" class="Cy"/><path d="M107.2 124.8l-10.1 5.8c-.7.4-.7 1.3 0 1.7l10.1 5.7c.6.4 1.4.4 2 0l10.1-5.7c.7-.4.7-1.3 0-1.7l-10.1-5.8c-.6-.4-1.4-.4-2 0z" class="Cz"/><path d="M107.2 124.8l-10.1 5.8c-.7.4-.7 1.3 0 1.7l10.1 5.7c.6.4 1.4.4 2 0l10.1-5.7c.7-.4.7-1.3 0-1.7l-10.1-5.8c-.6-.3-1.4-.3-2 0z" class="DA"/><use xlink:href="#l" class="DB"/><use xlink:href="#l" class="DC"/><path d="M107.2 124.9l-9.9 5.7c-.7.4-.6 1.3 0 1.7l9.9 5.6c.6.3 1.4.3 2 0l9.9-5.6c.7-.4.7-1.3 0-1.7l-9.9-5.7c-.6-.3-1.4-.3-2 0z" class="DD"/><use xlink:href="#m" class="DE"/><path d="M107.2 125l-9.8 5.7a1.03 1.03 0 0 0 0 1.7l9.8 5.5c.6.3 1.4.3 2 0l9.8-5.5c.6-.4.7-1.3 0-1.7l-9.8-5.7c-.6-.4-1.3-.4-2 0z" class="DF"/><path d="M107.2 125l-9.8 5.6a1.03 1.03 0 0 0 0 1.7l9.8 5.5c.6.3 1.4.3 2 0l9.8-5.5c.6-.4.7-1.3 0-1.7l-9.8-5.6c-.6-.3-1.3-.3-2 0z" class="DG"/><path d="M107.2 125.1l-9.7 5.6a1.03 1.03 0 0 0 0 1.7l9.7 5.5c.6.3 1.4.3 2 0l9.7-5.5a1.03 1.03 0 0 0 0-1.7l-9.7-5.6c-.6-.4-1.3-.4-2 0z" class="DH"/><path d="M107.2 125.1l-9.7 5.6c-.6.4-.6 1.3 0 1.6l9.7 5.4a2.12 2.12 0 0 0 1.9 0l9.7-5.4c.6-.4.6-1.3 0-1.6l-9.7-5.6c-.5-.3-1.2-.3-1.9 0z" class="DI"/><path d="M107.2 125.1l-9.6 5.6c-.6.4-.6 1.3 0 1.6l9.6 5.4a2.12 2.12 0 0 0 1.9 0l9.6-5.4c.6-.4.6-1.3 0-1.6l-9.6-5.6c-.5-.3-1.2-.3-1.9 0z" class="DJ"/><use xlink:href="#n" class="DK"/><use xlink:href="#o" class="DL"/><path d="M107.3 125.2l-9.5 5.5c-.6.4-.6 1.3 0 1.6l9.5 5.3a2.12 2.12 0 0 0 1.9 0l9.5-5.3c.6-.4.6-1.3 0-1.6l-9.5-5.5a2.12 2.12 0 0 0-1.9 0z" class="DM"/><use xlink:href="#p" class="DN"/><use xlink:href="#q" class="Cs"/><path d="M107.3 125.3l-9.3 5.4c-.6.4-.6 1.2 0 1.6l9.3 5.2a2.12 2.12 0 0 0 1.9 0l9.3-5.2c.6-.3.6-1.2 0-1.6l-9.3-5.4a2.12 2.12 0 0 0-1.9 0z" class="DO"/><path d="M107.3 125.4l-9.3 5.3c-.6.4-.6 1.2 0 1.6l9.3 5.2a2.12 2.12 0 0 0 1.9 0l9.3-5.2c.6-.3.6-1.2 0-1.6l-9.3-5.3a1.65 1.65 0 0 0-1.9 0z" class="DP"/><use xlink:href="#r" class="Co"/><path d="M107.3 125.4l-9.2 5.3c-.6.3-.6 1.2 0 1.6l9.2 5.2c.6.3 1.3.3 1.8 0l9.2-5.2c.6-.3.6-1.2 0-1.6l-9.2-5.3c-.5-.3-1.2-.3-1.8 0z" class="Co"/><path d="M107.3 125.5l-9.1 5.3c-.6.3-.6 1.2 0 1.6l9.1 5.1c.6.3 1.3.3 1.8 0l9.1-5.1c.6-.3.6-1.2 0-1.6l-9.1-5.3c-.5-.4-1.2-.4-1.8 0z" class="DQ"/><use xlink:href="#s" class="DR"/><path d="M107.3 125.5l-9 5.2c-.6.3-.6 1.2 0 1.5l9 5.1c.6.3 1.3.3 1.8 0l9-5.1c.6-.3.6-1.2 0-1.5l-9-5.2c-.5-.3-1.2-.3-1.8 0z" class="DS"/><path d="M107.3 125.6l-9 5.2c-.6.3-.6 1.2 0 1.5l9 5a1.91 1.91 0 0 0 1.8 0l9-5c.6-.3.6-1.2 0-1.5l-9-5.2c-.5-.4-1.2-.4-1.8 0z" class="DT"/><use xlink:href="#t" class="DU"/><use xlink:href="#t" class="DV"/><path d="M107.3 125.7l-8.8 5.1c-.6.3-.6 1.2 0 1.5l8.8 5a1.91 1.91 0 0 0 1.8 0l8.8-5c.6-.3.6-1.2 0-1.5l-8.8-5.1c-.5-.3-1.2-.3-1.8 0z" class="DW"/><path d="M107.3 125.7l-8.8 5.1c-.6.3-.6 1.2 0 1.5l8.8 4.9c.5.3 1.2.3 1.8 0l8.8-4.9c.6-.3.6-1.2 0-1.5l-8.8-5.1c-.5-.3-1.2-.3-1.8 0z" class="DX"/><path d="M107.3 125.7l-8.7 5c-.6.3-.6 1.2 0 1.5l8.7 4.9c.5.3 1.2.3 1.8 0l8.7-4.9c.6-.3.6-1.2 0-1.5l-8.7-5c-.5-.3-1.2-.3-1.8 0z" class="DY"/><path d="M107.3 125.8l-8.6 5c-.6.3-.6 1.2 0 1.5l8.7 4.9a1.72 1.72 0 0 0 1.7 0l8.7-4.9c.6-.3.6-1.1 0-1.5l-8.6-5a2.12 2.12 0 0 0-1.9 0z" class="DZ"/><use xlink:href="#u" class="Da"/><path d="M107.4 125.8l-8.5 4.9c-.6.3-.6 1.1 0 1.5l8.6 4.8a1.72 1.72 0 0 0 1.7 0l8.6-4.8c.6-.3.6-1.1 0-1.5l-8.5-4.9c-.7-.3-1.4-.3-1.9 0z" class="Db"/><use xlink:href="#v" class="Dc"/><use xlink:href="#w" class="Dd"/><use xlink:href="#x" class="De"/><use xlink:href="#y" class="Df"/><use xlink:href="#z" class="Dg"/><use xlink:href="#AA" class="Dh"/><use xlink:href="#AB" class="Di"/><use xlink:href="#AC" class="Cr"/><use xlink:href="#AC" class="Dj"/><use xlink:href="#AD" class="Dk"/><use xlink:href="#AD" class="Dl"/><path d="M107.4 126.2l-7.9 4.6c-.5.3-.5 1.1 0 1.4l7.9 4.5c.5.3 1.1.3 1.6 0l7.9-4.5c.5-.3.5-1 0-1.4l-7.9-4.6c-.5-.3-1.1-.3-1.6 0z" class="Dm"/><path d="M107.4 126.3l-7.9 4.6a.75.75 0 0 0 0 1.3l7.9 4.4c.5.3 1.1.3 1.6 0l7.9-4.4a.75.75 0 0 0 0-1.3l-7.9-4.6c-.5-.3-1.1-.3-1.6 0z"/></g><linearGradient id="X" gradientUnits="userSpaceOnUse" x1="97.921" y1="131.26" x2="118.527" y2="131.26"><stop offset="0" stop-color="#3c5185"/><stop offset=".6" stop-color="#445c95"/><stop offset="1" stop-color="#4a65a3"/></linearGradient><use xlink:href="#AE" fill="url(#X)"/><linearGradient id="Y" gradientUnits="userSpaceOnUse" x1="97.921" y1="129.558" x2="118.549" y2="129.558"><stop offset="0" stop-color="#4a65a3"/><stop offset=".4" stop-color="#445c95"/><stop offset="1" stop-color="#3c5185"/></linearGradient><use xlink:href="#AF" fill="url(#Y)"/><path d="M104.7 129.7l4-2.3 2.2 3.4z" class="Cm"/><g class="Ck Cl"><path d="M122.4 133.2l-10.5 6c-.7.4-.7 1.4 0 1.8l10.5 5.9c.7.4 1.5.4 2.1 0L135 141c.7-.4.7-1.4 0-1.8l-10.5-6a1.99 1.99 0 0 0-2.1 0z" class="Cp"/><path d="M122.4 133.2l-10.4 6c-.7.4-.7 1.4 0 1.8l10.4 5.9c.7.4 1.4.4 2.1 0l10.4-5.9c.7-.4.7-1.4 0-1.8l-10.4-6a1.99 1.99 0 0 0-2.1 0z" class="Cu"/><path d="M122.4 133.3l-10.4 6c-.7.4-.7 1.4 0 1.8l10.4 5.8c.6.4 1.4.4 2.1 0l10.4-5.8c.7-.4.7-1.4 0-1.8l-10.4-6c-.6-.4-1.4-.4-2.1 0z" class="Cv"/><use xlink:href="#AG" class="Cw"/><use xlink:href="#AH" class="Cx"/><use xlink:href="#AI" class="Cq"/><use xlink:href="#AJ" class="Cy"/><use xlink:href="#AK" class="Cz"/><use xlink:href="#AL" class="DA"/><path d="M122.4 133.5l-10 5.8c-.7.4-.7 1.3 0 1.7l10 5.6c.6.4 1.4.4 2 0l10-5.6c.7-.4.7-1.3 0-1.7l-10-5.8c-.6-.4-1.3-.4-2 0z" class="DB"/><path d="M122.4 133.5l-10 5.8c-.7.4-.7 1.3 0 1.7l10 5.6c.6.4 1.4.4 2 0l10-5.6c.7-.4.7-1.3 0-1.7l-10-5.8c-.6-.3-1.3-.3-2 0z" class="DC"/><path d="M122.4 133.6l-9.9 5.7c-.7.4-.6 1.3 0 1.7l9.9 5.6c.6.3 1.4.3 2 0l9.9-5.6c.7-.4.7-1.3 0-1.7l-9.9-5.7c-.6-.4-1.3-.4-2 0z" class="DD"/><path d="M122.4 133.6l-9.9 5.7a1.03 1.03 0 0 0 0 1.7l9.9 5.6c.6.3 1.4.3 2 0l9.9-5.6c.7-.4.7-1.3 0-1.7l-9.9-5.7c-.6-.4-1.3-.4-2 0z" class="DE"/><path d="M122.4 133.6l-9.8 5.7a1.03 1.03 0 0 0 0 1.7l9.8 5.5c.6.3 1.4.3 2 0l9.8-5.5c.6-.4.7-1.3 0-1.7l-9.8-5.7c-.6-.3-1.3-.3-2 0z" class="DF"/><path d="M122.5 133.7l-9.8 5.6a1.03 1.03 0 0 0 0 1.7l9.8 5.5c.6.3 1.4.3 2 0l9.8-5.5c.6-.4.7-1.3 0-1.7l-9.8-5.6c-.7-.4-1.4-.4-2 0z" class="DG"/><path d="M122.5 133.7l-9.7 5.6a1.03 1.03 0 0 0 0 1.7l9.7 5.5c.6.3 1.4.3 2 0l9.7-5.5a1.03 1.03 0 0 0 0-1.7l-9.7-5.6c-.7-.4-1.4-.4-2 0z" class="DH"/><path d="M122.5 133.7l-9.7 5.6c-.6.4-.6 1.3 0 1.6l9.7 5.4a2.12 2.12 0 0 0 1.9 0l9.7-5.4c.6-.4.6-1.3 0-1.6l-9.7-5.6a2.12 2.12 0 0 0-1.9 0z" class="DI"/><path d="M122.5 133.8l-9.6 5.6c-.6.4-.6 1.3 0 1.6l9.6 5.4a2.12 2.12 0 0 0 1.9 0l9.6-5.4c.6-.4.6-1.3 0-1.6l-9.6-5.6a1.65 1.65 0 0 0-1.9 0z" class="DJ"/><use xlink:href="#n" x="15.2" y="8.6" class="DK"/><use xlink:href="#o" x="15.2" y="8.6" class="DL"/><path d="M122.5 133.9l-9.5 5.5c-.6.4-.6 1.3 0 1.6l9.5 5.3a2.12 2.12 0 0 0 1.9 0l9.5-5.3c.6-.4.6-1.3 0-1.6l-9.5-5.5a1.65 1.65 0 0 0-1.9 0z" class="DM"/><path d="M122.5 133.9l-9.4 5.4c-.6.4-.6 1.3 0 1.6l9.4 5.3a2.12 2.12 0 0 0 1.9 0l9.4-5.3c.6-.4.6-1.2 0-1.6l-9.4-5.4a2.12 2.12 0 0 0-1.9 0z" class="DN"/><use xlink:href="#q" x="15.2" y="8.6" class="Cs"/><use xlink:href="#AM" class="DO"/><path d="M122.5 134l-9.3 5.3c-.6.4-.6 1.2 0 1.6l9.3 5.2a2.12 2.12 0 0 0 1.9 0l9.3-5.2c.6-.3.6-1.2 0-1.6l-9.3-5.3a2.12 2.12 0 0 0-1.9 0z" class="DP"/><use xlink:href="#r" x="15.2" y="8.6" class="Co"/><use xlink:href="#AN" class="Co"/><use xlink:href="#AO" class="DQ"/><use xlink:href="#s" x="15.2" y="8.6" class="DR"/><path d="M122.5 134.2l-9 5.2c-.6.3-.6 1.2 0 1.5l9 5.1c.6.3 1.3.3 1.8 0l9-5.1c.6-.3.6-1.2 0-1.5l-9-5.2c-.5-.4-1.2-.4-1.8 0z" class="DS"/><use xlink:href="#AF" x="15.2" y="10.5" class="DT"/><use xlink:href="#t" x="15.2" y="8.6" class="DU"/><path d="M122.5 134.3l-8.9 5.1c-.6.3-.6 1.2 0 1.5l8.9 5a1.91 1.91 0 0 0 1.8 0l8.9-5c.6-.3.6-1.2 0-1.5l-8.9-5.1c-.5-.4-1.2-.4-1.8 0z" class="DV"/><use xlink:href="#AP" class="DW"/><path d="M122.6 134.3l-8.8 5.1c-.6.3-.6 1.2 0 1.5l8.8 4.9c.5.3 1.2.3 1.8 0l8.8-4.9c.6-.3.6-1.2 0-1.5l-8.8-5.1c-.6-.3-1.3-.3-1.8 0z" class="DX"/><path d="M122.6 134.4l-8.7 5c-.6.3-.6 1.2 0 1.5l8.7 4.9c.5.3 1.2.3 1.8 0l8.7-4.9c.6-.3.6-1.2 0-1.5l-8.7-5c-.6-.4-1.3-.4-1.8 0z" class="DY"/><path d="M122.6 134.4l-8.6 5c-.6.3-.6 1.2 0 1.5l8.7 4.9a1.72 1.72 0 0 0 1.7 0l8.7-4.9c.6-.3.6-1.1 0-1.5l-8.6-5c-.7-.3-1.4-.3-1.9 0z" class="DZ"/><use xlink:href="#u" x="15.2" y="8.6" class="Da"/><path d="M122.6 134.5l-8.5 4.9c-.6.3-.6 1.1 0 1.5l8.6 4.8a1.72 1.72 0 0 0 1.7 0l8.6-4.8c.6-.3.6-1.1 0-1.5l-8.5-4.9c-.7-.4-1.4-.4-1.9 0z" class="Db"/><use xlink:href="#v" x="15.2" y="8.6" class="Dc"/><use xlink:href="#w" x="15.2" y="8.6" class="Dd"/><use xlink:href="#x" x="15.2" y="8.7" class="De"/><use xlink:href="#y" x="15.2" y="8.6" class="Df"/><use xlink:href="#z" x="15.2" y="8.6" class="Dg"/><use xlink:href="#AA" x="15.2" y="8.7" class="Dh"/><use xlink:href="#AB" x="15.2" y="8.6" class="Di"/><use xlink:href="#AC" x="15.2" y="8.6" class="Cr"/><use xlink:href="#AC" x="15.2" y="8.7" class="Dj"/><use xlink:href="#AQ" class="Dk"/><use xlink:href="#AQ" class="Dl"/><path d="M122.6 134.9l-7.9 4.6c-.5.3-.5 1.1 0 1.4l7.9 4.5c.5.3 1.1.3 1.6 0l7.9-4.5c.5-.3.5-1.1 0-1.4l-7.9-4.6c-.4-.3-1.1-.3-1.6 0z" class="Dm"/><path d="M122.6 134.9l-7.9 4.6a.75.75 0 0 0 0 1.3l7.9 4.4c.5.3 1.1.3 1.6 0l7.9-4.4a.75.75 0 0 0 0-1.3l-7.9-4.6c-.4-.3-1.1-.3-1.6 0z"/></g><linearGradient id="Z" gradientUnits="userSpaceOnUse" x1="97.942" y1="131.28" x2="118.548" y2="131.28"><stop offset=".004" stop-color="#a5cbef"/><stop offset=".188" stop-color="#b2d2f1"/><stop offset="1" stop-color="#e6f1fa"/></linearGradient><use xlink:href="#AE" x="15.2" y="8.6" fill="url(#Z)"/><use xlink:href="#AF" x="15.2" y="8.6" fill="#dbeaf9"/><path d="M125.1 140.2h-.2l-4-.4-.1-2.8c0-.3.2-.7.5-.9.7-.5 2-.4 2.8.2.4.3.6.7.6 1 .5 0 1 .2 1.4.5.8.6.8 1.5.1 1.9-.4.4-.8.5-1.1.5z" class="Ck"/><g class="Ck Cl"><path d="M138.4 142.2l-10.9 6.3c-.7.4-.7 1.5 0 1.9l10.9 6.2c.7.4 1.5.4 2.2 0l10.9-6.2c.7-.4.7-1.4 0-1.9l-10.9-6.3c-.7-.4-1.5-.4-2.2 0z" class="Cp"/><path d="M138.4 142.2l-10.9 6.3c-.7.4-.7 1.4 0 1.8l10.9 6.1c.7.4 1.5.4 2.2 0l10.9-6.1c.7-.4.7-1.4 0-1.8l-10.9-6.3c-.7-.4-1.5-.4-2.2 0z" class="Cu"/><use xlink:href="#AR" class="Cv"/><use xlink:href="#AR" class="Cw"/><path d="M138.4 142.4l-10.7 6.2c-.7.4-.7 1.4 0 1.8l10.7 6c.7.4 1.5.4 2.2 0l10.7-6c.7-.4.7-1.4 0-1.8l-10.7-6.2c-.7-.4-1.5-.4-2.2 0z" class="Cx"/><path d="M138.4 142.4l-10.6 6.1c-.7.4-.7 1.4 0 1.8l10.7 6c.7.4 1.5.4 2.1 0l10.7-6c.7-.4.7-1.4 0-1.8l-10.6-6.1c-.8-.4-1.6-.4-2.3 0z" class="Cq"/><path d="M138.4 142.4l-10.6 6.1c-.7.4-.7 1.4 0 1.8l10.6 6c.7.4 1.5.4 2.1 0l10.6-6c.7-.4.7-1.4 0-1.8l-10.6-6.1c-.6-.4-1.4-.4-2.1 0z" class="Cy"/><path d="M138.4 142.5l-10.5 6.1c-.7.4-.7 1.4 0 1.8l10.6 5.9c.7.4 1.5.4 2.1 0l10.6-5.9c.7-.4.7-1.4 0-1.8l-10.5-6.1c-.8-.4-1.6-.4-2.3 0z" class="Cz"/><path d="M138.4 142.5l-10.5 6.1c-.7.4-.7 1.4 0 1.8l10.5 5.9c.7.4 1.5.4 2.1 0l10.5-5.9c.7-.4.7-1.4 0-1.8l-10.5-6.1c-.6-.4-1.4-.4-2.1 0z" class="DA"/><path d="M138.4 142.5l-10.4 6c-.7.4-.7 1.4 0 1.8l10.4 5.9c.7.4 1.5.4 2.1 0l10.4-5.9c.7-.4.7-1.4 0-1.8l-10.4-6c-.6-.4-1.4-.4-2.1 0z" class="DB"/><path d="M138.4 142.6l-10.4 6c-.7.4-.7 1.4 0 1.8l10.4 5.9c.6.4 1.4.4 2.1 0l10.4-5.9c.7-.4.7-1.4 0-1.8l-10.4-6c-.6-.4-1.4-.4-2.1 0z" class="DC"/><use xlink:href="#AG" x="16" y="9.3" class="DD"/><use xlink:href="#AH" x="16" y="9.3" class="DE"/><use xlink:href="#AI" x="16" y="9.3" class="DF"/><use xlink:href="#AJ" x="16" y="9.3" class="DG"/><use xlink:href="#AK" x="16" y="9.3" class="DH"/><use xlink:href="#AL" x="16" y="9.3" class="DI"/><use xlink:href="#l" x="31.3" y="17.9" class="DJ"/><path d="M138.5 142.8l-10 5.8c-.7.4-.6 1.3 0 1.7l10 5.6c.6.4 1.4.4 2 0l10-5.6c.7-.4.7-1.3 0-1.7l-10-5.8c-.6-.3-1.4-.3-2 0z" class="DK"/><path d="M138.5 142.9l-9.9 5.7c-.7.4-.6 1.3 0 1.7l9.9 5.6c.6.3 1.4.3 2 0l9.9-5.6c.7-.4.7-1.3 0-1.7l-9.9-5.7c-.6-.4-1.4-.4-2 0z" class="DL"/><use xlink:href="#m" x="31.3" y="17.9" class="DM"/><path d="M138.5 142.9l-9.8 5.7a1.03 1.03 0 0 0 0 1.7l9.8 5.5c.6.3 1.4.3 2 0l9.8-5.5c.6-.4.7-1.3 0-1.7l-9.8-5.7c-.6-.3-1.4-.3-2 0z" class="DN"/><path d="M138.5 143l-9.8 5.6a1.03 1.03 0 0 0 0 1.7l9.8 5.5c.6.3 1.4.3 2 0l9.8-5.5a1.03 1.03 0 0 0 0-1.7l-9.8-5.6c-.6-.4-1.4-.4-2 0z" class="Cs"/><path d="M138.5 143l-9.7 5.6a1.03 1.03 0 0 0 0 1.7l9.7 5.5c.6.3 1.3.3 2 0l9.7-5.5a1.03 1.03 0 0 0 0-1.7l-9.7-5.6c-.6-.3-1.4-.3-2 0z" class="DO"/><path d="M138.5 143l-9.6 5.6c-.6.4-.6 1.3 0 1.6l9.7 5.4a2.12 2.12 0 0 0 1.9 0l9.7-5.4c.6-.4.6-1.3 0-1.6l-9.6-5.6c-.7-.3-1.5-.3-2.1 0z" class="DP"/><path d="M138.5 143.1l-9.6 5.5c-.6.4-.6 1.3 0 1.6l9.6 5.4a2.12 2.12 0 0 0 1.9 0l9.6-5.4c.6-.4.6-1.3 0-1.6l-9.6-5.5c-.5-.4-1.3-.4-1.9 0z" class="Co"/><path d="M138.5 143.1l-9.5 5.5c-.6.4-.6 1.3 0 1.6l9.5 5.4a2.12 2.12 0 0 0 1.9 0l9.5-5.4c.6-.4.6-1.3 0-1.6l-9.5-5.5c-.5-.3-1.3-.3-1.9 0z" class="Co"/><path d="M138.5 143.1l-9.5 5.5c-.6.4-.6 1.3 0 1.6l9.5 5.3a2.12 2.12 0 0 0 1.9 0l9.5-5.3c.6-.4.6-1.3 0-1.6l-9.5-5.5c-.5-.3-1.3-.3-1.9 0z" class="DQ"/><use xlink:href="#p" x="31.2" y="17.9" class="DR"/><use xlink:href="#q" x="31.2" y="17.9" class="DS"/><use xlink:href="#AS" class="DT"/><use xlink:href="#AM" x="16" y="9.3" class="DU"/><use xlink:href="#r" x="31.2" y="17.9" class="DV"/><use xlink:href="#AN" x="16" y="9.3" class="DW"/><use xlink:href="#AO" x="16" y="9.3" class="DX"/><use xlink:href="#s" x="31.2" y="17.9" class="DY"/><path d="M138.6 143.5l-9 5.2c-.6.3-.6 1.2 0 1.5l9 5.1c.6.3 1.3.3 1.8 0l9-5.1c.6-.3.6-1.2 0-1.5l-9-5.2c-.6-.4-1.3-.4-1.8 0z" class="DZ"/><path d="M138.6 143.5l-9 5.2c-.6.3-.6 1.2 0 1.5l9 5a1.91 1.91 0 0 0 1.8 0l9-5c.6-.3.6-1.2 0-1.5l-9-5.2c-.6-.3-1.3-.3-1.8 0z" class="Da"/><path d="M138.6 143.5l-8.9 5.1c-.6.3-.6 1.2 0 1.5l8.9 5a1.91 1.91 0 0 0 1.8 0l8.9-5c.6-.3.6-1.2 0-1.5l-8.9-5.1c-.6-.3-1.3-.3-1.8 0z" class="Db"/><path d="M138.6 143.6l-8.9 5.1c-.6.3-.6 1.2 0 1.5l8.9 5a1.91 1.91 0 0 0 1.8 0l8.9-5c.6-.3.6-1.2 0-1.5l-8.9-5.1c-.6-.4-1.3-.4-1.8 0z" class="Dc"/><use xlink:href="#AP" x="16" y="9.3" class="Dd"/><path d="M138.6 143.6l-8.7 5c-.6.3-.6 1.2 0 1.5l8.8 4.9c.5.3 1.2.3 1.8 0l8.8-4.9c.6-.3.6-1.2 0-1.5l-8.7-5c-.8-.3-1.5-.3-2 0z" class="De"/><path d="M138.6 143.7l-8.7 5c-.6.3-.6 1.2 0 1.5l8.7 4.9c.5.3 1.2.3 1.8 0l8.7-4.9c.6-.3.6-1.1 0-1.5l-8.7-5c-.6-.3-1.3-.3-1.8 0z" class="Df"/><path d="M138.6 143.7l-8.6 5c-.6.3-.6 1.1 0 1.5l8.6 4.9a1.72 1.72 0 0 0 1.7 0l8.6-4.9c.6-.3.6-1.1 0-1.5l-8.6-5a1.72 1.72 0 0 0-1.7 0z" class="Dg"/><use xlink:href="#u" x="31.2" y="17.9" class="Dh"/><path d="M138.6 143.8l-8.5 4.9c-.6.3-.6 1.1 0 1.5l8.5 4.8a1.72 1.72 0 0 0 1.7 0l8.5-4.8c.6-.3.6-1.1 0-1.5l-8.5-4.9a1.72 1.72 0 0 0-1.7 0z" class="Di"/><use xlink:href="#v" x="31.2" y="17.9" class="Cr"/><path d="M138.6 143.8l-8.4 4.9c-.6.3-.5 1.1 0 1.4l8.4 4.7a1.72 1.72 0 0 0 1.7 0l8.4-4.7a.77.77 0 0 0 0-1.4l-8.4-4.9c-.5-.3-1.1-.3-1.7 0z" class="Dj"/><path d="M138.6 143.9l-8.4 4.8c-.6.3-.5 1.1 0 1.4l8.4 4.7a1.72 1.72 0 0 0 1.7 0l8.4-4.7a.77.77 0 0 0 0-1.4l-8.4-4.8c-.5-.3-1.1-.3-1.7 0z" class="Dk"/><path d="M138.6 143.9l-8.3 4.8c-.5.3-.5 1.1 0 1.4l8.3 4.7a1.72 1.72 0 0 0 1.7 0l8.3-4.7a.77.77 0 0 0 0-1.4l-8.3-4.8c-.5-.3-1.1-.3-1.7 0z" class="Dl"/><path d="M138.6 143.9l-8.3 4.8c-.5.3-.5 1.1 0 1.4l8.3 4.7c.5.3 1.1.3 1.7 0l8.3-4.7c.5-.3.6-1.1 0-1.4l-8.3-4.8c-.5-.3-1.1-.3-1.7 0z" class="Dm"/><path d="M138.6 144l-8.2 4.7c-.5.3-.5 1.1 0 1.4l8.2 4.6c.5.3 1.1.3 1.7 0l8.2-4.6c.5-.3.5-1.1 0-1.4l-8.2-4.7c-.5-.3-1.1-.3-1.7 0z"/></g><linearGradient id="a" gradientUnits="userSpaceOnUse" x1="128.737" y1="149.175" x2="150.201" y2="149.175"><stop offset="0" stop-color="#ffc107"/><stop offset=".85" stop-color="#ff9800"/></linearGradient><path d="M138.5 143.1l-9.8 4.4v1.6c0 .4.2.7.5.9l9.3 5.3a2.12 2.12 0 0 0 1.9 0l9.2-5.2c.3-.2.5-.5.5-.9v-1.5l-9.8-4.6c-.5-.4-1.2-.4-1.8 0z" fill="url(#a)"/><linearGradient id="b" gradientUnits="userSpaceOnUse" x1="128.737" y1="149.402" x2="150.224" y2="149.402"><stop offset=".15" stop-color="#ff9800"/><stop offset="1" stop-color="#ffc107"/></linearGradient><use xlink:href="#AS" y="-2" fill="url(#b)"/><path d="M139.3 150.5l-1.2-1.8-.1-.1-2.8-.6c-.1 0-.2-.1-.1-.2l2.1-1 .1-.1-.4-1.8c0-.1.1-.1.3-.1l2.5 1.2h.2l2.6-.5c.1 0 .3.1.2.1l-.5 1.7v.1l2 1.5c.1.1 0 .2-.1.2l-3.1-.1h-.1l-1.3 1.4c-.1.2-.3.1-.3.1z" class="Cm"/><path d="M198.8 184.8c-.6-1.5-1.9-2.9-3.7-3.9-5-2.9-13.1-2.9-18.1 0-1.8 1.1-3.1 2.4-3.7 3.9h-.4v2.1c0 2.3 1.5 4.4 4.1 5.9 2.5 1.4 5.8 2.2 9.1 2.2s6.6-.7 9.1-2.2c2.6-1.5 4.1-3.6 4.1-5.9v-2.1h-.5zm-4.9 5.9c-4.3 2.5-11.5 2.5-15.7 0-1.9-1.1-2.9-2.4-2.9-3.8s1-2.8 2.9-3.8c2.1-1.2 5-1.8 7.9-1.8s5.7.6 7.9 1.8c1.9 1.1 2.9 2.4 2.9 3.8-.1 1.4-1.1 2.7-3 3.8z" class="Ct"/><g class="Cm"><path d="M178.1 191.1c4.4 2.5 11.6 2.5 16 0s4.4-6.7 0-9.2-11.6-2.5-16 0-4.4 6.7 0 9.2z" opacity=".2"/><path d="M185.8 186.8c1.9 1.1 5 1.1 6.9 0s1.9-2.9 0-4-5-1.1-6.9 0-1.9 2.9 0 4z" class="Cs"/></g><linearGradient id="c" gradientUnits="userSpaceOnUse" x1="172.872" y1="184.802" x2="199.218" y2="184.802"><stop offset="0" stop-color="#3c5185"/><stop offset=".128" stop-color="#41588e"/><stop offset=".695" stop-color="#5573b1"/><stop offset="1" stop-color="#5d7dbe"/></linearGradient><path d="M186 192.9c-3.3 0-6.6-.7-9.1-2.2-2.6-1.5-4.1-3.6-4.1-5.9s1.5-4.4 4.1-5.9c5-2.9 13.1-2.9 18.1 0 2.6 1.5 4.1 3.6 4.1 5.9s-1.5 4.4-4.1 5.9c-2.4 1.5-5.7 2.2-9 2.2zm0-13.8c-2.9 0-5.7.6-7.9 1.8-1.9 1.1-2.9 2.4-2.9 3.8s1 2.8 2.9 3.8c4.3 2.5 11.5 2.5 15.7 0 1.9-1.1 2.9-2.4 2.9-3.8s-1-2.8-2.9-3.8c-2-1.2-4.9-1.8-7.8-1.8z" fill="url(#c)"/><path d="M166.4 199.3a1.1 1.1 0 0 1-1-.6c-.3-.6-.1-1.3.4-1.6l10.8-6.2c.6-.3 1.9 1 1.2 2l-10.8 6.2c-.2.2-.4.2-.6.2z" class="Ck"/><linearGradient id="d" gradientUnits="userSpaceOnUse" x1="167.968" y1="200.364" x2="164.859" y2="193.875"><stop offset="0" stop-color="#3c5185"/><stop offset=".128" stop-color="#41588e"/><stop offset=".695" stop-color="#5573b1"/><stop offset="1" stop-color="#5d7dbe"/></linearGradient><path d="M159.7 204.6c-.8 0-1.6-.4-2.1-1.2-.7-1.2-.3-2.6.9-3.3l15.2-8.7c1.2-.7 4 2.1 2.4 4.2l-15.2 8.7c-.4.2-.8.3-1.2.3z" fill="url(#d)"/><path d="M160.3 201.5a.55.55 0 0 1-.5-.3c-.1-.3-.1-.6.2-.7l12.9-7.6c.3-.1.9.5.5.9l-12.9 7.6c0 .1-.1.1-.2.1z" class="Cl Cm"/><radialGradient id="e" cx="148.088" cy="7894.584" r="13.549" gradientTransform="matrix(1 0 0 0.5172 0 -3893.1953)" gradientUnits="userSpaceOnUse"><stop offset="0" stop-color="#3c5185"/><stop offset=".057" stop-color="#506291"/><stop offset=".254" stop-color="#8d9ab8"/><stop offset=".434" stop-color="#bec5d7"/><stop offset=".591" stop-color="#e2e5ed"/><stop offset=".719" stop-color="#f7f8fa"/><stop offset=".802" stop-color="#fff"/></radialGradient><path d="M138.6 184c5.2-3 13.8-3 19 0s5.2 7.9 0 11c-5.2 3-13.8 3-19 0s-5.2-8 0-11z" fill="url(#e)"/><g class="Ck"><path d="M161.1 185c0-.3-.4-.5-.9-.5h-1.9c-.3 0-.8.3-.9.2-.1-.2-.1-.3.1-.5l1.3-.8c.3-.2-1.8-.1-2.2-.3v-1.6a1.28 1.28 0 0 0-1.2 0l-1.3.8c-.2.1-.5.2-.8.1-.2 0-.4-.1-.6-.1-.3-.1-.5-.2-.5-.4v-1.1c0-.3-.4-.5-.9-.5h-3c-.5 0-.9.2-.9.5v1.1c0 .2-.2.3-.5.4-.2 0-.4.1-.5.1-.3.1-.6 0-.8-.1l-1.3-.8a1.28 1.28 0 0 0-1.2 0l-.2 1.8c-.3.2-2.3 0-2 .2l1.3.8c.2.1.3.3.2.5-.1.1-.6-.2-.9-.2h-1.9c-.5 0-.9.2-.9.5v2.5c0 .3.4.5.9.5h1.1v2.2c0 .1.1.2.2.3l2.1 1.2c.2.1.5.2.8.1.2 0 .3-.1.5-.1l1.3-.8c.2-.1.5-.2.8-.1.2 0 .4.1.6.1.3.1.5.2.5.4v1.1c0 .3.4.5.9.5h3c.5 0 .9-.2.9-.5v-1.1c0-.2.2-.3.5-.4.2 0 .3-.1.5-.1.3-.1.6 0 .8.1l1.3.8c.1.1.3.1.4.1.3 0 .5 0 .8-.1l2.1-1.2c.1-.1.2-.2.2-.3v-2.1h1.1c.5 0 .9-.2.9-.5l.2-2.7zm-6.9 2.1c-.5 1.5-3.3 2.4-5.7 1.8-1.9-.4-3-1.6-2.7-2.7.5-1.5 3.3-2.4 5.7-1.8 2 .4 3.1 1.5 2.7 2.7z"/><path d="M159.2 182.1v-1.4h-2l-.4-.2a1.28 1.28 0 0 0-1.2 0l-.4.2h-2.7v-1c0-.3-.4-.5-.9-.5h-3c-.5 0-.9.2-.9.5v1H145l-.4-.2a1.28 1.28 0 0 0-1.2 0l-.4.2h-2v1.3c0 .1.1.3.3.4l1.3.8h15.1l1.3-.8c0-.1.1-.2.2-.3z"/></g><path d="M157.8 185.6h2.4c.5 0 .9-.2.9-.5v-1.7c0-.3-.4-.5-.9-.5h-1.9c-.3 0-.6-.1-.7-.3-.1-.1-.1-.2-.2-.3-.1-.2-.1-.3.1-.5l1.3-.8c.3-.2.3-.5 0-.7l-2.1-1.2c-.3-.2-.9-.2-1.2 0l-1.3.8c-.2.1-.5.2-.8.1-.2 0-.4-.1-.6-.1-.3-.1-.5-.2-.5-.4v-1.1c0-.3-.4-.5-.9-.5h-3c-.5 0-.9.2-.9.5v1.1c0 .2-.2.3-.5.4-.2 0-.4.1-.5.1-.3.1-.6 0-.8-.1l-1.3-.8a1.28 1.28 0 0 0-1.2 0l-2.1 1.2c-.3.2-.3.5 0 .7l1.3.8c.2.1.3.3.2.5-.1.1-.2.2-.2.3-.1.2-.4.3-.7.3h-1.9c-.5 0-.9.2-.9.5v1.7c0 .3.4.5.9.5h1.9c.3 0 .6.1.7.3.1.1.1.2.2.3.1.2.1.3-.1.5l-1.3.8c-.3.2-.3.5 0 .7l2.1 1.2c.3.2.9.2 1.2 0l1.3-.8c.2-.1.5-.2.8-.1.2 0 .4.1.6.1.3.1.5.2.5.4v1.1c0 .3.4.5.9.5h3c.5 0 .9-.2.9-.5V189c0-.2.2-.3.5-.4.2 0 .3-.1.5-.1.3-.1.6 0 .8.1l1.3.8a1.28 1.28 0 0 0 1.2 0l2.1-1.2c.3-.2.3-.5 0-.7l-1.3-.8c-.2-.1-.3-.3-.2-.5l.4-.6zm-12-1.8c.5-1.5 3.3-2.4 5.7-1.8 1.9.4 3 1.6 2.7 2.7-.5 1.5-3.3 2.4-5.7 1.8-1.9-.4-3-1.6-2.7-2.7z" class="Dn"/><defs ><path id="g" d="M55 156.4v2.1c0 .5.3 1 .7 1.3l.3.2c1.3.7 2.8.8 4.1.1l3.8-2.1c.4-.2.5-.9 0-1.1-.7-.4-1.6-1-2.4-.9-.4 0-.7.1-1.1.1l-1.8.2-3.6.1z"/><path id="h" d="M113.8 167l.5.3v.1l-.3.2h-.1l-.5-.3v-.1l.4-.2c-.1 0-.1 0 0 0z"/><path id="i" d="M112.7 167.6l.4-.2h.2l.4.2s.1.1 0 .1l-.4.2h-.2l-.4-.2c-.1 0-.1-.1 0-.1z"/><path id="j" d="M114.3 168.5l.4-.2h.2l.4.2s.1.1 0 .1l-.4.2h-.2l-.4-.2c-.1 0-.1 0 0-.1z"/><path id="k" d="M115.1 169l.4-.2h.2l.4.2s.1.1 0 .1l-.4.2h-.2l-.4-.2v-.1z"/><path id="l" d="M107.2 124.9l-10 5.8c-.7.4-.7 1.3 0 1.7l10 5.6c.6.4 1.4.4 2 0l10-5.6c.7-.4.7-1.3 0-1.7l-10-5.8c-.6-.4-1.4-.4-2 0z"/><path id="m" d="M107.2 125l-9.9 5.7a1.03 1.03 0 0 0 0 1.7l9.9 5.6c.6.3 1.4.3 2 0l9.9-5.6c.7-.4.7-1.3 0-1.7l-9.9-5.7c-.6-.4-1.4-.4-2 0z"/><path id="n" d="M107.3 125.2l-9.6 5.5c-.6.4-.6 1.3 0 1.6l9.6 5.4a2.12 2.12 0 0 0 1.9 0l9.6-5.4c.6-.4.6-1.3 0-1.6l-9.6-5.5a1.65 1.65 0 0 0-1.9 0z"/><path id="o" d="M107.3 125.2l-9.5 5.5c-.6.4-.6 1.3 0 1.6l9.5 5.4a2.12 2.12 0 0 0 1.9 0l9.5-5.4c.6-.4.6-1.3 0-1.6l-9.5-5.5a2.12 2.12 0 0 0-1.9 0z"/><path id="p" d="M107.3 125.3l-9.4 5.4c-.6.4-.6 1.3 0 1.6l9.4 5.3a2.12 2.12 0 0 0 1.9 0l9.4-5.3c.6-.4.6-1.2 0-1.6l-9.4-5.4a1.65 1.65 0 0 0-1.9 0z"/><path id="q" d="M107.3 125.3l-9.4 5.4c-.6.4-.6 1.2 0 1.6l9.4 5.3a2.12 2.12 0 0 0 1.9 0l9.4-5.3c.6-.3.6-1.2 0-1.6l-9.4-5.4a2.12 2.12 0 0 0-1.9 0z"/><path id="r" d="M107.3 125.4l-9.2 5.3c-.6.3-.6 1.2 0 1.6l9.2 5.2a2.12 2.12 0 0 0 1.9 0l9.2-5.2c.6-.3.6-1.2 0-1.6l-9.2-5.3a2.12 2.12 0 0 0-1.9 0z"/><path id="s" d="M107.3 125.5l-9.1 5.2c-.6.3-.6 1.2 0 1.5l9.1 5.1c.6.3 1.3.3 1.8 0l9.1-5.1c.6-.3.6-1.2 0-1.5l-9.1-5.2c-.5-.3-1.2-.3-1.8 0z"/><path id="t" d="M107.3 125.6l-8.9 5.1c-.6.3-.6 1.2 0 1.5l8.9 5a1.91 1.91 0 0 0 1.8 0l8.9-5c.6-.3.6-1.2 0-1.5l-8.9-5.1c-.5-.3-1.2-.3-1.8 0z"/><path id="u" d="M107.4 125.8l-8.6 5c-.6.3-.6 1.1 0 1.5l8.6 4.8a1.72 1.72 0 0 0 1.7 0l8.6-4.8c.6-.3.6-1.1 0-1.5l-8.6-5a1.72 1.72 0 0 0-1.7 0z"/><path id="v" d="M107.4 125.9l-8.5 4.9a.77.77 0 0 0 0 1.4l8.5 4.8a1.72 1.72 0 0 0 1.7 0l8.5-4.8a.77.77 0 0 0 0-1.4l-8.5-4.9a1.72 1.72 0 0 0-1.7 0z"/><path id="w" d="M107.4 125.9l-8.4 4.9a.77.77 0 0 0 0 1.4l8.5 4.8a1.72 1.72 0 0 0 1.7 0l8.5-4.8a.77.77 0 0 0 0-1.4l-8.4-4.9c-.7-.3-1.4-.3-1.9 0z"/><path id="x" d="M107.4 125.9l-8.4 4.8c-.6.3-.5 1.1 0 1.4l8.4 4.7a1.72 1.72 0 0 0 1.7 0l8.4-4.7a.77.77 0 0 0 0-1.4l-8.4-4.8a1.72 1.72 0 0 0-1.7 0z"/><path id="y" d="M107.4 126l-8.3 4.8c-.5.3-.5 1.1 0 1.4l8.4 4.7a1.72 1.72 0 0 0 1.7 0l8.4-4.7a.77.77 0 0 0 0-1.4l-8.3-4.8c-.7-.3-1.4-.3-1.9 0z"/><path id="z" d="M107.4 126l-8.3 4.8c-.5.3-.5 1.1 0 1.4l8.3 4.7a1.72 1.72 0 0 0 1.7 0l8.3-4.7c.5-.3.6-1.1 0-1.4l-8.3-4.8a1.72 1.72 0 0 0-1.7 0z"/><path id="AA" d="M107.4 126l-8.2 4.8c-.5.3-.5 1.1 0 1.4l8.3 4.6c.5.3 1.1.3 1.7 0l8.3-4.6c.5-.3.5-1.1 0-1.4l-8.2-4.8c-.7-.3-1.4-.3-1.9 0z"/><path id="AB" d="M107.4 126.1l-8.2 4.7c-.5.3-.5 1.1 0 1.4l8.2 4.6c.5.3 1.1.3 1.7 0l8.2-4.6c.5-.3.5-1.1 0-1.4l-8.2-4.7a1.72 1.72 0 0 0-1.7 0z"/><path id="AC" d="M107.4 126.1l-8.1 4.7c-.5.3-.5 1.1 0 1.4l8.1 4.6c.5.3 1.1.3 1.6 0l8.1-4.6c.5-.3.5-1.1 0-1.4l-8.1-4.7c-.4-.3-1.1-.3-1.6 0z"/><path id="AD" d="M107.4 126.2l-8 4.6c-.5.3-.5 1.1 0 1.4l8 4.5c.5.3 1.1.3 1.6 0l8-4.5c.5-.3.5-1.1 0-1.4l-8-4.6c-.5-.3-1.1-.3-1.6 0z"/><path id="AE" d="M107.3 125.4l-9.4 4.2v1.6c0 .4.2.7.5.9l8.9 5.1a1.91 1.91 0 0 0 1.8 0l8.9-5c.3-.2.5-.5.5-.9v-1.4l-9.4-4.4c-.5-.4-1.2-.4-1.8-.1z"/><path id="AF" d="M107.3 123.7l-9 5.2c-.6.3-.6 1.2 0 1.5l9 5a1.91 1.91 0 0 0 1.8 0l9-5c.6-.3.6-1.2 0-1.5l-9-5.2c-.5-.3-1.2-.3-1.8 0z"/><path id="AG" d="M122.4 133.3l-10.3 6c-.7.4-.7 1.4 0 1.8l10.3 5.8c.6.4 1.4.4 2.1 0l10.3-5.8c.7-.4.7-1.4 0-1.8l-10.3-6c-.6-.4-1.4-.4-2.1 0z"/><path id="AH" d="M122.4 133.3l-10.3 5.9c-.7.4-.7 1.4 0 1.7l10.3 5.8c.6.4 1.4.4 2.1 0l10.3-5.8c.7-.4.7-1.4 0-1.7l-10.3-5.9c-.6-.3-1.4-.3-2.1 0z"/><path id="AI" d="M122.4 133.4l-10.2 5.9c-.7.4-.7 1.4 0 1.7l10.2 5.8c.6.4 1.4.4 2.1 0l10.2-5.8c.7-.4.7-1.4 0-1.7l-10.2-5.9c-.6-.4-1.4-.4-2.1 0z"/><path id="AJ" d="M122.4 133.4l-10.2 5.9c-.7.4-.7 1.4 0 1.7l10.2 5.7c.6.4 1.4.4 2.1 0l10.2-5.7c.7-.4.7-1.3 0-1.7l-10.2-5.9c-.6-.4-1.4-.4-2.1 0z"/><path id="AK" d="M122.4 133.4l-10.1 5.8c-.7.4-.7 1.3 0 1.7l10.1 5.7c.6.4 1.4.4 2 0l10.1-5.7c.7-.4.7-1.3 0-1.7l-10.1-5.8c-.5-.3-1.3-.3-2 0z"/><path id="AL" d="M122.4 133.5l-10.1 5.8c-.7.4-.7 1.3 0 1.7l10.1 5.7c.6.4 1.4.4 2 0l10.1-5.7c.7-.4.7-1.3 0-1.7l-10.1-5.8c-.5-.4-1.3-.4-2 0z"/><path id="AM" d="M122.5 134l-9.3 5.4c-.6.4-.6 1.2 0 1.6l9.3 5.2a2.12 2.12 0 0 0 1.9 0l9.3-5.2c.6-.3.6-1.2 0-1.6l-9.3-5.4a1.65 1.65 0 0 0-1.9 0z"/><path id="AN" d="M122.5 134.1l-9.2 5.3c-.6.3-.6 1.2 0 1.6l9.2 5.2c.6.3 1.3.3 1.8 0l9.2-5.2c.6-.3.6-1.2 0-1.6l-9.2-5.3c-.5-.4-1.2-.4-1.8 0z"/><path id="AO" d="M122.5 134.1l-9.1 5.3c-.6.3-.6 1.2 0 1.6l9.1 5.1c.6.3 1.3.3 1.8 0l9.1-5.1c.6-.3.6-1.2 0-1.6l-9.1-5.3c-.5-.3-1.2-.3-1.8 0z"/><path id="AP" d="M122.6 134.3l-8.8 5.1c-.6.3-.6 1.2 0 1.5l8.8 5a1.91 1.91 0 0 0 1.8 0l8.8-5c.6-.3.6-1.2 0-1.5l-8.8-5.1c-.6-.3-1.3-.3-1.8 0z"/><path id="AQ" d="M122.6 134.8l-8 4.6c-.5.3-.5 1.1 0 1.4l8 4.5c.5.3 1.1.3 1.6 0l8-4.5c.5-.3.5-1.1 0-1.4l-8-4.6c-.4-.3-1.1-.3-1.6 0z"/><path id="AR" d="M138.4 142.3l-10.8 6.2c-.7.4-.7 1.4 0 1.8l10.8 6.1c.7.4 1.5.4 2.2 0l10.8-6.1c.7-.4.7-1.4 0-1.8l-10.8-6.2c-.7-.4-1.5-.4-2.2 0z"/><path id="AS" d="M138.5 143.3l-9.3 5.4c-.6.4-.6 1.2 0 1.6l9.3 5.3a2.12 2.12 0 0 0 1.9 0l9.3-5.3c.6-.3.6-1.2 0-1.6l-9.3-5.4a1.65 1.65 0 0 0-1.9 0z"/></defs></svg>