<svg xmlns="http://www.w3.org/2000/svg" xmlns:xlink="http://www.w3.org/1999/xlink" viewBox="0 0 174.8 179.3"><style><![CDATA[.AP{fill:#3c5185}.AQ{fill:#fff}.AR{fill:#f2b1b5}.AS{enable-background:new}.AT{fill:#edf3fa}.AU{fill:#a5cbef}.AV{fill:#4a65a3}.AW{fill:#5d7dbe}]]></style><linearGradient id="A" gradientUnits="userSpaceOnUse" x1="27.481" y1="181.225" x2="156.837" y2="10.711"><stop offset=".1" stop-color="#fff"/><stop offset=".43" stop-color="#f8fbfd"/><stop offset=".893" stop-color="#e6eef8"/><stop offset="1" stop-color="#e1ebf7"/></linearGradient><path d="M169.5 103.5c0 42.4-41.9 72.4-84.4 72.4S3.2 146 3.2 103.5 62.6 8.6 105.1 8.6s64.4 52.4 64.4 94.9z" fill="url(#A)"/><radialGradient id="B" cx="82.918" cy="-7812.76" r="59.041" gradientTransform="matrix(1 0 0 -0.5172 0 -3901.9639)" gradientUnits="userSpaceOnUse"><stop offset=".091" stop-color="#48486a"/><stop offset=".118" stop-color="#505070"/><stop offset=".351" stop-color="#8d8da3"/><stop offset=".564" stop-color="#bebeca"/><stop offset=".75" stop-color="#e2e2e7"/><stop offset=".901" stop-color="#f7f7f9"/><stop offset="1" stop-color="#fff"/></radialGradient><path d="M41.6 114.9c22.7-13.1 59.9-13.1 82.6 0s22.7 34.6 0 47.7-59.9 13.1-82.6 0-22.7-34.6 0-47.7z" fill="url(#B)"/><linearGradient id="C" gradientUnits="userSpaceOnUse" x1="37.218" y1="134.845" x2="127.72" y2="134.845"><stop offset=".004" stop-color="#a5cbef"/><stop offset=".442" stop-color="#cee3f6"/><stop offset="1" stop-color="#fff"/></linearGradient><path d="M127.7 122.7h-5.1c-2.1-2.3-4.8-4.5-8.1-6.4-17.6-10.2-46.5-10.2-64.1 0-3.4 1.9-6.1 4.1-8.1 6.4h-5.1v12c0 6.7 4.4 13.5 13.2 18.6 17.6 10.2 46.5 10.2 64.1 0 8.9-5.1 13.3-11.9 13.2-18.6v-12z" fill="url(#C)"/><path d="M50.4 104.2C68 94 96.9 94 114.5 104.2s17.6 26.8 0 37-46.5 10.2-64.1 0-17.6-26.8 0-37z" class="AQ"/><path d="M127.7 122.9v-10.4h-3.5c-2.2-3-5.4-5.9-9.7-8.3-12.4-7.2-4.1 20.3 0 37v12.1c8.6-5 13-11.5 13.2-18.1v-12.3z" fill="#ffda6a"/><linearGradient id="D" gradientUnits="userSpaceOnUse" x1="93.043" y1="70.349" x2="71.335" y2="98.26"><stop offset="0" stop-color="#3c5185"/><stop offset="1" stop-color="#7ea7df"/></linearGradient><path d="M114.5 83.9c-17.6-10.2-46.5-10.2-64.1 0l32 21.9 32.1-21.9z" fill="url(#D)"/><linearGradient id="E" gradientUnits="userSpaceOnUse" x1="61.522" y1="110.792" x2="72.066" y2="98.542"><stop offset="0" stop-color="#7ea7df"/><stop offset="1" stop-color="#3c5185"/></linearGradient><path d="M50.4 83.9v20.3l32.1 21.9v-20.3z" fill="url(#E)"/><linearGradient id="F" gradientUnits="userSpaceOnUse" x1="82.477" y1="105.045" x2="114.512" y2="105.045"><stop offset="0" stop-color="#7ea7df"/><stop offset="1" stop-color="#3c5185"/></linearGradient><path d="M82.5 105.8l32-21.9v20.3l-32 21.9z" fill="url(#F)"/><linearGradient id="G" gradientUnits="userSpaceOnUse" x1="82.518" y1="112.545" x2="127.768" y2="112.545"><stop offset=".15" stop-color="#ff9800"/><stop offset="1" stop-color="#ffc107"/></linearGradient><path d="M114.5 94c17.6 10.2 17.6 26.8 0 37l-32-15.1 32-21.9z" fill="url(#G)"/><path d="M82.5 115.9v10.2l32 15.1V131z" fill="#ffcd39"/><linearGradient id="H" gradientUnits="userSpaceOnUse" x1="112.029" y1="116.646" x2="121.764" y2="116.646"><stop offset="0" stop-color="#5d7dbe"/><stop offset=".305" stop-color="#5573b1"/><stop offset=".872" stop-color="#41588e"/><stop offset="1" stop-color="#3c5185"/></linearGradient><circle cx="116.9" cy="116.6" r="4.9" fill="url(#H)"/><use xlink:href="#p" class="AU"/><g class="AP"><use xlink:href="#q"/><path d="M132.3 139.6v-.3l1.7-1 .1.2zm.6.6v-.3l1.8-1v.2zm.9.6v-.3l1.8-1v.3zm-3.9-3.1c-1-.6-1-1.5 0-2.1s2.6-.6 3.6 0 1 1.5 0 2.1-2.6.6-3.6 0z"/></g><path d="M130.5 137.3c-.7-.4-.7-1 0-1.4s1.7-.4 2.4 0 .7 1 0 1.4-1.8.4-2.4 0z" fill="#363650"/><use xlink:href="#p" x="-4.7" y="2.8" class="AU"/><g class="AP"><use xlink:href="#q" x="-4.7" y="2.8"/><path d="M127.5 142.4v-.3l1.8-1v.3zm.7.6v-.3l1.8-1v.3zm.9.7v-.3l1.8-1.1v.3zm-4-3.2c-1-.6-1-1.5 0-2.1s2.6-.6 3.6 0 1 1.5 0 2.1-2.6.6-3.6 0z"/></g><path d="M125.7 140.2c-.7-.4-.7-1 0-1.4s1.7-.4 2.4 0 .7 1 0 1.4c-.6.4-1.7.4-2.4 0z" fill="#363650"/><linearGradient id="I" gradientUnits="userSpaceOnUse" x1="117.25" y1="123.997" x2="133.716" y2="123.997"><stop offset="0" stop-color="#5d7dbe"/><stop offset=".305" stop-color="#5573b1"/><stop offset=".872" stop-color="#41588e"/><stop offset="1" stop-color="#3c5185"/></linearGradient><path d="M131.6 137.7c-1.1 0-2.1.1-2.1-1v-10.9c0-1.9-1-3.6-2.6-4.5l-7.8-4.1c-1.6-.9-2-2.6-2-4.5v-.4c0-1.1.9-2.1 2.1-2.1 1.1 0 2.1.9 2.1 2.1v.4c0 .4.2.7.5.9l7.1 4.1c2.9 1.7 4.7 4.8 4.7 8.1v10.9c.1 1.1-.8 1-2 1z" fill="url(#I)"/><linearGradient id="J" gradientUnits="userSpaceOnUse" x1="112.518" y1="126.647" x2="128.984" y2="126.647"><stop offset="0" stop-color="#5d7dbe"/><stop offset=".305" stop-color="#5573b1"/><stop offset=".872" stop-color="#41588e"/><stop offset="1" stop-color="#3c5185"/></linearGradient><path d="M126.9 140.4c-1.1 0-2.1.1-2.1-1.1v-10.9c0-1.9-1-3.6-2.6-4.5l-8-3.7c-1.6-.9-1.7-3-1.7-4.9v-.4c0-1.1.9-2.1 2.1-2.1 1.1 0 2.1.9 2.1 2.1v.4c0 .4.2.7.5.9l7.1 4.1c2.9 1.7 4.7 3.8 4.7 7.1v11.9c0 1.2-.9 1.1-2.1 1.1z" fill="url(#J)"/><path d="M120.6 123l-5.5-2.5c-.5-.3-.5-1 0-1.4l8.4-4.9 6.2 3.7-9.1 5.1z" fill="#f6f8fb"/><path d="M121.4 122.5l-4.8-2.2c-.5-.3-.5-.9 0-1.2l7.7-4.5 5.4 3.2-8.3 4.7z" fill="#e5e9f4"/><g class="AT"><path d="M123.9 117.7c-.7 0-1.2-.6-1.2-1.2v-4.8c0-2.9-.4-4.2-1.2-7l-1.4-5.1c-.2-.7.2-1.3.9-1.5s1.3.2 1.5.9l1.4 5.1c.8 3 1.3 4.6 1.3 7.7v4.8c0 .5-.6 1.1-1.3 1.1z"/><path d="M117.3 95.3l-1 .6c-3.4 1.9-4.8 3.1-5.3 7-.6 4.4.6 16 .6 16 5.1-.3 10-6.6 10-6.6-.9-5.7.9-8.6 1-12.5 0-2-2.8-5.9-5.3-4.5z"/></g><path d="M122.6 99.8c0-2-2.8-6-5.3-4.5l-1 .6c-1.1.6-2 1.4-2.8 2.2.8-.7 1.6-1.4 2.5-1.9l1-.6c2.4-1.4 5.3 2.5 5.3 4.5 0 3.8-1.9 6.7-1 12.5l.3-.3c-.9-5.7 1-8.6 1-12.5z" opacity=".15" class="AQ AS"/><path d="M117.2 98.7h-.5c-.5 0-.9-.4-.9-.9v-2.9h2.3v2.9c0 .5-.5.9-.9.9z" class="AR"/><g class="AQ"><path d="M115.7 96l-.6.3.9 5.5 1.4-3.2z"/><path d="M117.4 98.6l.7-3.5h.3l1.3 4.6z"/></g><g class="AR"><path d="M119.4 121.3c-.4 0-.7-.2-1-.5l-3.7-4.8c-2-2.6-3-5.8-2.9-9.1l.3-4.6c0-.7.6-1.2 1.3-1.2s1.2.6 1.2 1.3l-.3 4.6a11.42 11.42 0 0 0 2.4 7.5l3.7 4.8c.4.5.3 1.3-.2 1.7-.2.2-.5.3-.8.3z"/><path d="M120.4 118.8l-3.8-1.4c-.2-.1-.3-.3-.2-.4l.1-.3c.1-.2.3-.3.4-.2l3.8 1.4c.2.1.3.3.2.4l-.1.3c-.1.2-.2.3-.4.2z"/></g><linearGradient id="K" gradientUnits="userSpaceOnUse" x1="120.076" y1="117.046" x2="130.913" y2="117.046"><stop offset="0" stop-color="#d3daed"/><stop offset="1" stop-color="#99a7d8"/></linearGradient><path d="M130.9 110.8h-.4l-9.1 5.2c-.2.1-.4.4-.4.7l-.8 6.3c0 .1 0 .1.1.1l.1.1 9.4-5.5c.2-.1.4-.4.4-.7l.7-6.2z" fill="url(#K)"/><path d="M131 111c0-.2-.2-.3-.4-.2l-9.2 5.3c-.2.1-.4.4-.4.7l-.9 6.1c0 .2.2.3.4.2l9.3-5.3c.2-.1.4-.4.4-.7l.8-6.1z" fill="#f6f8fb"/><path d="M126.4 116.5c-.4.1-.8.6-.9 1.1-.1.4.1.7.5.6s.8-.6.9-1.1-.1-.8-.5-.6z" fill="#e5e9f4"/><path d="M116 111.5c-.8-1.4-1.5-3.1-1.5-4.3 0 0-.1-4.7-.9-4.7s-1.2-.9-1.2-.1l-.3 4.6c-.2 3.3.9 6.6 2.9 9.2l.8 1.4c1.1-.5 2.1-1.6 2.9-2.2l-2.7-3.9z" opacity=".33" class="AP AS"/><path d="M118.2 116.2l-1.2-1.7s-2.5-4.8-2.4-7.4l.3-4.6c0-.8-.6-1.5-1.4-1.5s-1.5.6-1.5 1.4l-.3 4.6c-.2 3.3.9 6.6 2.9 9.2l1.6 1.9 2-1.9z" class="AT"/><path d="M116.1 95.4l-.3-.1c-.8-.2-1.4-2.8-1.2-3.6l.8-3.9 6.5 1.3-1.1 5.5c-.6 2.3-2.3 1.2-4.7.8z" class="AR"/><g class="AP"><path d="M122.1 88.9c-.1-.5-.5-1-.9-1.4-1.3-1.1-4.3-2.3-5.6-.6-.4-.5-1.1-.4-1.6-.1-.5.4-.7.9-.8 1.5-.2.7-.4 1.3-.2 2 .3 1.2.8 2.3 1.4 3.4.1.2.5.9.7.5.4-.8-.8-1.8-.1-2.4a.67.67 0 0 1 1 .1c.2.2.3.6.5.8.2.1.4.2.7.1 0 0 .1 0 .1-.1v-.1c-.2-.6-.3-1.3-.2-1.9 0-.2.1-.4.2-.5s.2-.1.3-.1c.3-.1.7-.2 1-.2.4 0 .7.2 1.1.4.4.1.8.1 1-.2.1-.1.1-.2.2-.3s.3 0 .4.1c.2.1.3.3.5.2.5-.3.3-1 .3-1.2z"/><path d="M120.7 93.8c-.1-.3-.2-.6-.5-.7-.2-.1-.4-.1-.6-.1-.3 0-.6 0-.8.2-.3.1-.4.3-.6.5-.1.2-.1.6-.2.7-.9-.3-.3-1.4-.6-2.1-.1-.2-.3-.4-.5-.5-.9-.2-.4 1.2-.6 1.6s-.6.8-.6 1.2c0 .6.7 1 1.1 1.3.5.3.9.9 1.5.9.3 0 .6-.1.8-.2.5-.2 1.1-.3 1.5-.8.3-.5.3-1.1.2-1.7 0-.1 0-.2-.1-.3z"/></g><radialGradient id="L" cx="138.906" cy="-7738.804" r="8.192" gradientTransform="matrix(1 0 0 -0.5172 0 -3901.9639)" gradientUnits="userSpaceOnUse"><stop offset=".091" stop-color="#3c5185"/><stop offset=".254" stop-color="#6f7fa5"/><stop offset=".437" stop-color="#a2acc5"/><stop offset=".609" stop-color="#cad0de"/><stop offset=".765" stop-color="#e7eaf0"/><stop offset=".901" stop-color="#f9f9fb"/><stop offset="1" stop-color="#fff"/></radialGradient><path d="M133.1 97.2c3.2-1.8 8.3-1.8 11.5 0s3.2 4.8 0 6.6-8.3 1.8-11.5 0c-3.1-1.8-3.1-4.8 0-6.6z" fill="url(#L)"/><linearGradient id="M" gradientUnits="userSpaceOnUse" x1="132.989" y1="100.295" x2="144.589" y2="100.295"><stop offset="0" stop-color="#3c5185"/><stop offset=".128" stop-color="#41588e"/><stop offset=".695" stop-color="#5573b1"/><stop offset="1" stop-color="#5d7dbe"/></linearGradient><path d="M144.6 98.7h-.6c-.3-.3-.6-.6-1-.8-2.3-1.3-6-1.3-8.2 0-.4.2-.8.5-1 .8h-.6v1.5c0 .9.6 1.7 1.7 2.4 2.3 1.3 6 1.3 8.2 0 1.1-.7 1.7-1.5 1.7-2.4v-1.5h-.2z" fill="url(#M)"/><path d="M134.7 96.3c2.3-1.3 6-1.3 8.2 0 2.3 1.3 2.3 3.4 0 4.7s-6 1.3-8.2 0c-2.3-1.2-2.3-3.4 0-4.7z" class="AV"/><path d="M141 99.7c.1-.1 0-.2-.1-.3h-.1c.2.1.4 0 .5-.1s0-.2-.1-.3l-.7-.3-.6-.3s.1-.1.3-.2c0 0 .1 0 .1-.1.1-.1.3-.2.4-.3l.2-.2c.1-.1.1-.1 0-.2l-.1-.1c-.1-.1-.3 0-.4 0-.2.1-.5.3-.7.4-.2 0-.8.2-.8.2l-.2-.1.2-.2v-.1l-.9-.4-1.8 1.8.9.4h.1l.2-.2.2.1v.1l.1.3c0 .1.1.1.1.1l1.2.5c.1.1.3 0 .5 0 .2-.1.1-.3 0-.4l.3.1c.1.1.3 0 .5 0 .2-.1.1-.3 0-.4l.3.1c.1.3.3.2.4.1z" class="AQ"/><radialGradient id="N" cx="152.376" cy="-7774.691" r="8.87" gradientTransform="matrix(1 0 0 -0.5172 0 -3901.9639)" gradientUnits="userSpaceOnUse"><stop offset=".091" stop-color="#3c5185"/><stop offset=".254" stop-color="#6f7fa5"/><stop offset=".437" stop-color="#a2acc5"/><stop offset=".609" stop-color="#cad0de"/><stop offset=".765" stop-color="#e7eaf0"/><stop offset=".901" stop-color="#f9f9fb"/><stop offset="1" stop-color="#fff"/></radialGradient><path d="M146.1 115.5c3.4-2 9-2 12.4 0s3.4 5.2 0 7.2-9 2-12.4 0-3.4-5.3 0-7.2z" fill="url(#N)"/><linearGradient id="O" gradientUnits="userSpaceOnUse" x1="145.981" y1="118.846" x2="158.54" y2="118.846"><stop offset="0" stop-color="#ffc107"/><stop offset=".85" stop-color="#ff9800"/></linearGradient><path d="M158.5 117.1h-.7c-.3-.3-.7-.6-1.1-.9-2.4-1.4-6.4-1.4-8.9 0-.5.3-.8.6-1.1.9h-.7v1.7c0 .9.6 1.9 1.8 2.6 2.4 1.4 6.4 1.4 8.9 0 1.2-.7 1.8-1.6 1.8-2.6v-1.7z" fill="url(#O)"/><linearGradient id="P" gradientUnits="userSpaceOnUse" x1="145.981" y1="117.196" x2="158.54" y2="117.196"><stop offset=".15" stop-color="#ff9800"/><stop offset="1" stop-color="#ffc107"/></linearGradient><path d="M147.8 114.6c2.4-1.4 6.4-1.4 8.9 0 2.4 1.4 2.4 3.7 0 5.1s-6.4 1.4-8.9 0c-2.4-1.4-2.4-3.7 0-5.1z" fill="url(#P)"/><path d="M153.5 118.4h-.1l-2.8-.2-.1-1.9c0-.2.1-.5.4-.6.5-.3 1.4-.3 1.9.2.3.2.4.5.4.7.3 0 .7.1 1 .4.5.4.6 1 .1 1.3-.3 0-.5.1-.8.1z" class="AQ"/><radialGradient id="Q" cx="24.987" cy="-7770.32" r="9.13" gradientTransform="matrix(1 0 0 -0.5172 0 -3901.9639)" gradientUnits="userSpaceOnUse"><stop offset=".091" stop-color="#3c5185"/><stop offset=".254" stop-color="#6f7fa5"/><stop offset=".437" stop-color="#a2acc5"/><stop offset=".609" stop-color="#cad0de"/><stop offset=".765" stop-color="#e7eaf0"/><stop offset=".901" stop-color="#f9f9fb"/><stop offset="1" stop-color="#fff"/></radialGradient><path d="M18.6 113.1c3.5-2 9.3-2 12.8 0s3.5 5.4 0 7.4-9.3 2-12.8 0-3.5-5.4 0-7.4z" fill="url(#Q)"/><linearGradient id="R" gradientUnits="userSpaceOnUse" x1="18.418" y1="116.595" x2="31.341" y2="116.595"><stop offset="0" stop-color="#ffc107"/><stop offset=".85" stop-color="#ff9800"/></linearGradient><path d="M31.3 114.8h-.7c-.3-.3-.7-.6-1.2-.9-2.5-1.5-6.6-1.5-9.1 0-.5.3-.9.6-1.2.9h-.7v1.7c0 1 .6 1.9 1.9 2.7 2.5 1.5 6.6 1.5 9.1 0 1.3-.7 1.9-1.7 1.9-2.7v-1.7z" fill="url(#R)"/><linearGradient id="S" gradientUnits="userSpaceOnUse" x1="18.407" y1="114.895" x2="31.33" y2="114.895"><stop offset=".15" stop-color="#ff9800"/><stop offset="1" stop-color="#ffc107"/></linearGradient><path d="M20.3 112.2c2.5-1.5 6.6-1.5 9.1 0s2.5 3.8 0 5.3-6.6 1.5-9.1 0-2.5-3.9 0-5.3z" fill="url(#S)"/><path d="M28.1 115.3c-.1-.6-.7-1.3-1.7-1.8-.9-.5-1.9-.8-2.8-.8-.8 0-1.5.2-1.9.7-.3.3-.4.6-.3 1 .1.6.7 1.3 1.7 1.9a12.2 12.2 0 0 0 1.7.7h.1v-.5h-.1c-.4-.1-.9-.3-1.4-.5-.8-.4-1.3-.9-1.4-1.4 0-.3 0-.5.2-.7.3-.4.9-.5 1.5-.5a4.56 4.56 0 0 1 2.2.6c.8.4 1.2.9 1.3 1.3 0 .2 0 .4-.2.6s-.5.4-.9.4c-.2 0-.4 0-.6-.1-.1 0-.1-.1-.1-.1s0-.1.3-.3l1.1-.7-.1-.1c-.2-.2-.5-.4-.8-.6-.6-.3-1.2-.5-1.8-.5-.5 0-.9.1-1.2.4-.1.1-.2.3-.1.5 0 .3.3.5.6.7.4.2.8.3 1.2.3h.2v.2c0 .3.3.4.5.5.4.2.8.3 1.3.3s1-.2 1.3-.5c.2-.3.3-.6.2-1zm-4.4-.5c0-.1 0-.1.1-.2.2-.2.5-.3.8-.3.4 0 .8.1 1.1.3.1.1.2.1.3.2l-.5.3c-.2.1-.4.2-.7.2s-.5-.1-.7-.2c-.3-.1-.4-.2-.4-.3z" class="AQ"/><radialGradient id="T" cx="57.523" cy="-7673.989" r="10.646" gradientTransform="matrix(1 0 0 -0.5172 0 -3901.9639)" gradientUnits="userSpaceOnUse"><stop offset=".091" stop-color="#3c5185"/><stop offset=".254" stop-color="#6f7fa5"/><stop offset=".437" stop-color="#a2acc5"/><stop offset=".609" stop-color="#cad0de"/><stop offset=".765" stop-color="#e7eaf0"/><stop offset=".901" stop-color="#f9f9fb"/><stop offset="1" stop-color="#fff"/></radialGradient><path d="M50 62.7c4.1-2.4 10.8-2.4 14.9 0s4.1 6.2 0 8.6-10.8 2.4-14.9 0-4.1-6.3 0-8.6z" fill="url(#T)"/><linearGradient id="U" gradientUnits="userSpaceOnUse" x1="49.848" y1="66.746" x2="64.921" y2="66.746"><stop offset="0" stop-color="#3c5185"/><stop offset=".128" stop-color="#41588e"/><stop offset=".695" stop-color="#5573b1"/><stop offset="1" stop-color="#5d7dbe"/></linearGradient><path d="M64.9 64.7h-.8c-.3-.4-.8-.7-1.4-1.1-2.9-1.7-7.7-1.7-10.7 0-.6.3-1 .7-1.4 1.1h-.8v2c0 1.1.7 2.2 2.2 3.1 2.9 1.7 7.7 1.7 10.7 0 1.5-.9 2.2-2 2.2-3.1v-2z" fill="url(#U)"/><path d="M52 61.6c2.9-1.7 7.7-1.7 10.7 0 2.9 1.7 2.9 4.5 0 6.2s-7.7 1.7-10.7 0c-2.9-1.8-2.9-4.5 0-6.2z" class="AP"/><path d="M57.6 66.5c-.6.2-1.4.2-2-.1-.5-.3-.5-.7 0-1 .1 0 .2-.1.3-.1l-.4-1.1a1.93 1.93 0 0 1-1-.3c-.5-.3-.5-.7 0-1 .6-.2 1.4-.2 2 .1.3.2.4.3.4.5l2.1.3c.1-.1.2-.1.3-.2.6-.2 1.4-.2 2 .1.5.3.5.7 0 1-.6.2-1.4.2-2-.1-.3-.1-.4-.3-.4-.5l-2.1-.3-.2.2c-.1 0-.2.1-.4.1l.4 1.1a1.69 1.69 0 0 1 1 .3c.5.3.5.8 0 1z" class="AQ"/><path d="M72 84.2l-3.2 1.5a1.21 1.21 0 0 0-.7.7c-.3.5-.2 1.1.1 1.6.6.6 1.6.8 2.4.6l3.9-1.3.4-.5h.4l.7.2 2.2-.3.1-3.1-3.5-1.2-2.8 1.8z" class="AP"/><linearGradient id="V" gradientUnits="userSpaceOnUse" x1="74.56" y1="68.491" x2="81.619" y2="68.491"><stop offset="0" stop-color="#5d7dbe"/><stop offset=".003" stop-color="#5d7dbe"/><stop offset=".412" stop-color="#4b659f"/><stop offset=".759" stop-color="#40568c"/><stop offset="1" stop-color="#3c5185"/></linearGradient><path d="M76.7 85c-1.1 0-1.7-.9-1.7-2l-.4-14.9.4-14.4c.1-1.1 2-1.9 3.1-1.8s3.7 2.5 3.6 3.6l-3.3 12.7.1 14.7c-.1 1.2-.7 2.1-1.8 2.1z" fill="url(#V)"/><path d="M82.3 87.8L78.8 92l-.6.9-.1.3c-.2.5-.1 1 .3 1.4l.2.2c.4.4.9.4 1.4.2l.5-.2c.5-.2.9-.5 1.3-.9l2-1.9.4-1 .2-.2.3.3.9-.8c.3-.2.4-.6.3-1l-.2-1.3-3.4-.2z" class="AP"/><path d="M77.2 57.1c-.5 0-1-.3-1.2-.7l-3.7-7.8a6.95 6.95 0 0 1 .5-6.7l4.1-5.9c.4-.6 1.2-.7 1.8-.3s.7 1.2.3 1.8l-4.1 5.9c-.8 1.2-1 2.8-.3 4.1l3.7 7.8c.3.6 0 1.4-.6 1.7-.1.1-.3.1-.5.1z" class="AR"/><path d="M73.9 44.1c-.3 0-.6-.1-.9-.3-.7-.5-.9-1.4-.4-2.1l4.1-5.9c.5-.7 1.4-.9 2.1-.4s.9 1.4.4 2.1l-4.1 5.9c-.2.5-.7.7-1.2.7z" class="AQ"/><linearGradient id="W" gradientUnits="userSpaceOnUse" x1="75.565" y1="70.835" x2="87.031" y2="70.835"><stop offset="0" stop-color="#5d7dbe"/><stop offset=".305" stop-color="#5573b1"/><stop offset=".872" stop-color="#41588e"/><stop offset="1" stop-color="#3c5185"/></linearGradient><path d="M84.1 89.5c-1.1 0-1.7-.9-1.7-2l-1.5-18.4-1.4-8.1-3.9-5.1 3.7-3.4c0-1.1 3.8.3 5 .3 1.1 0 2.9 4.1 2.8 5.2l-1.8 11.6.6 17.7c0 1.3-.6 2.2-1.8 2.2z" fill="url(#W)"/><path d="M84.8 37.3a5.88 5.88 0 0 1 3 5.2l-.2.9c-.7 3.6-.9 7.3-.7 11l.3 5.7c-3.6 1.7-10.5-1.2-12.4-4.6l.3-9.5-.3-6c-.2-3.6 3.6-6 6.7-4.4l3.3 1.7z" class="AQ"/><g class="AR"><path d="M80.2 39.1c.9 0 2.2-1.6 2.2-2.5v-2.5c0-.5-.4-.9-.9-.9h-1.2c-.5 0-.9.4-.9.9v2.5c0 .9 0 2.5.8 2.5z"/><path d="M80.9 35.6l1.5-.3c.7-.1 1.2-.8 1-1.6L82.3 28 76 29.3l.7 3.5c.4 1.9 2.3 3.2 4.2 2.8z"/></g><path d="M80.6 30.5c.5.2.9.8 1 1.2s0 .5-.2.8c-.1.2-.2.4-.1.6v.1h.1c.2 0 .4-.2.5-.3.2-.3.5-.5.8-.2s.1.6 0 .9c-.1.4-.3 1.2.1 1.5.3.2 1-.1 1.3-.3l.1-.1c.9-.7.7-2 .9-3 .1-.8-.1-1.5-.2-2.2s-.1-1.4-.6-2c-.5-.5-1.4-.7-2-.2-.3-.4-.8-.6-1.3-.7s-1 0-1.5.1c-.9.1-1.6.4-2.4.9-.4.2-.6.6-1 .9-.3.3-.3.7-.2 1.1.1.5.3.9.5 1.3 0 0 .1-.1.1-.2.1-.4.1-.8.4-1.1s.6-.2 1-.1c.1 0 .2.1.3.2.2.2.2.5.5.7.2.1.5.1.8.1s.5-.1.8-.1c.1 0 .2 0 .3.1z" fill="#48486a"/><linearGradient id="X" gradientUnits="userSpaceOnUse" x1="73.169" y1="35.369" x2="72.712" y2="31.902"><stop offset="0" stop-color="#3c5185"/><stop offset=".242" stop-color="#40568c"/><stop offset=".588" stop-color="#4b659f"/><stop offset=".997" stop-color="#5d7dbe"/><stop offset="1" stop-color="#5d7dbe"/></linearGradient><path d="M65.5 32.3l14.3-.9c.2.2.2 1 0 1.2l-11.9 4-2.4-4.3z" fill="url(#X)"/><path d="M66.6 32.5c-1-.6-1.8-.1-1.8 1s.8 2.5 1.8 3c1 .6 1.8.1 1.8-1s-.8-2.5-1.8-3z" class="AV"/><path d="M66.6 32.7c-.8-.5-1.5-.1-1.5.9s.7 2.2 1.5 2.7 1.5.1 1.5-.9-.7-2.2-1.5-2.7z" class="AU"/><path d="M86.5 40.8c-.4-.6-1.2-.8-1.8-.4l-4.4 2.7c-.6.4-1.3.4-1.9.2-.6-.3-1.1-.8-1.3-1.5l-1.3-5c-.7.8-1.1 2-1.1 3.2l.2 3.3c.5 1.1 1.4 1.9 2.5 2.3.8.3 1.7.4 2.5.3a4.49 4.49 0 0 0 1.8-.7l4.4-2.7c.6-.3.8-1.1.4-1.7z" opacity=".3" fill="#b7d5f2" class="AS"/><path d="M79.5 45c-.8 0-1.7-.2-2.4-.7-1.3-.8-2.1-2.1-2.3-3.6l-.8-8c-.1-.7.4-1.4 1.2-1.4.7-.1 1.4.4 1.4 1.2l.8 8c.1.7.4 1.3 1 1.6s1.3.4 1.9.1l4.8-2c.7-.3 1.4 0 1.7.7s0 1.4-.7 1.7l-4.8 2c-.6.2-1.2.4-1.8.4z" class="AR"/><path d="M80.8 44.9c-.6 0-1.2-.3-1.4-.9-.3-.8 0-1.7.8-2l4.8-2c.8-.3 1.7 0 2 .8s0 1.7-.8 2l-4.8 2c-.2.1-.4.1-.6.1z" class="AQ"/><path d="M76.4 35.3c-.3 0-.4-.2-.3-.3l.6-2.9c0-.2.2-.3.3-.2h.1c.2 0 .3.2.2.3l-.6 2.9c0 .2-.2.3-.3.2z" class="AR"/><g class="AP"><path d="M82.4 35.8l.8.5-.8 4.7-2.1-1.9z"/><path d="M80.3 39.1l-.8-3.8-.9-.1-1 4.5z"/></g><path d="M67.3 33.3l-1.5 2.2c.2.2.3.4.5.5l1.4-2.1c-.1-.2-.3-.4-.4-.6zm-1.7 2l1.4-2.2c-.2-.1-.3-.3-.5-.4s-.3-.1-.5-.2L65 34c.2.5.4.9.6 1.3z" fill="#b7d5f2"/><path d="M139.6 49.5l-43-25c-.5-.3-1.2.1-1.2.7V56c0 .9.5 1.6 1.2 2.1l43 25c.5.3 1.2-.1 1.2-.7V51.5c0-.8-.4-1.6-1.2-2z" class="AP"/><linearGradient id="Y" gradientUnits="userSpaceOnUse" x1="141.138" y1="86.299" x2="116.457" y2="34.257"><stop offset=".004" stop-color="#3c5185"/><stop offset="1" stop-color="#5d7dbe"/></linearGradient><path d="M140 82.9V52.1c0-.9-.5-1.6-1.2-2.1l-43-25c-.1-.1-.2-.1-.3-.1.1-.5.7-.7 1.2-.5l43 25c.7.4 1.2 1.2 1.2 2.1v30.8c0 .5-.4.8-.9.8-.1 0 0-.1 0-.2z" fill="url(#Y)"/><g fill="#2d3d64"><path d="M129.9 62.3h-.2v15l.2.1zm-27.3-.7l.2.1V47.1h-.2zm8.2 4.7l.2.1V51.1h-.2zm9.7 5.6l.2.1V47.1h-.2z"/><ellipse cx="102.7" cy="47.1" rx=".3" ry=".4"/><ellipse cx="110.9" cy="51.1" rx=".3" ry=".4"/><ellipse cx="120.6" cy="47.1" rx=".3" ry=".4"/><ellipse cx="129.8" cy="62" rx=".3" ry=".4"/></g><path d="M95.4 55.3v-.6c1 .2 2.1 0 3.1-.6l1-.6c1.7-1 3.8-1.1 5.5-.2l1.4.7c2.5 1.2 5.4 1.2 7.8-.1l.6-.3c1.4-.7 2.9-.9 4.4-.4s2.6 1.5 3.3 2.9l4.2 8.8c1.7 3.6 4.4 6.5 7.9 8.5l6.2 3.4v.7l-6.5-3.6c-3.6-2-6.4-5-8.2-8.7l-4.2-8.8c-.6-1.3-1.6-2.2-3-2.6-1.3-.4-2.7-.3-3.9.3l-.6.3c-2.6 1.4-5.7 1.4-8.3.1l-1.4-.7c-1.6-.8-3.4-.7-5 .2l-1 .6c-1 .7-2.2.9-3.3.7z" opacity=".1" fill="#05105d" class="AS"/><linearGradient id="Z" gradientUnits="userSpaceOnUse" x1="141.86" y1="64.037" x2="93.32" y2="64.037"><stop offset=".15" stop-color="#ff9800"/><stop offset="1" stop-color="#ffc107"/></linearGradient><path d="M141.5 76.4c.1 0 .2-.1.3-.1.1-.1 0-.3-.1-.4l-6.5-3.6c-3.5-1.9-6.2-4.9-7.9-8.5l-4.2-8.8c-.7-1.4-1.8-2.4-3.3-2.9s-3-.4-4.4.4l-.6.3c-2.4 1.3-5.3 1.3-7.8.1l-1.4-.7c-1.8-.9-3.8-.8-5.5.2l-1 .6c-1.4.8-3.1.9-4.5.1l-.8-.5c-.1-.1-.3 0-.4.1s0 .3.1.4l.8.5c1.6.9 3.5.9 5-.1l1-.6c1.5-.9 3.4-1 5-.2l1.4.7c2.6 1.3 5.7 1.3 8.3-.1l.6-.3a4.46 4.46 0 0 1 3.9-.3c1.3.4 2.4 1.4 3 2.6l4.2 8.8c1.8 3.7 4.6 6.7 8.2 8.7l6.6 3.6c-.1 0 0 0 0 0z" fill="url(#Z)"/><path d="M139.6 49.5l-13-7.5v14.6c0 .2.2.6.4.7l13.8 8V51.5c0-.8-.4-1.6-1.2-2z" opacity=".3" fill="#2d3d64" class="AS"/><path d="M128.1 33.3c0-.2.2-.3.4-.2l36 20.8c.2.1.4.4.4.7v22.2c0 .2-.2.3-.4.2l-36-20.8c-.2-.1-.4-.4-.4-.7V33.3z" class="AV"/><linearGradient id="a" gradientUnits="userSpaceOnUse" x1="160.209" y1="69.051" x2="146.972" y2="52.12"><stop offset=".15" stop-color="#ff9800"/><stop offset="1" stop-color="#ffc107"/></linearGradient><path d="M156 57.9c-.2-.4-.5-.9-.8-1.2l-.9-1.1c-.3-.3-.7-.7-1-.9-.3-.3-.7-.5-1-.7s-.7-.3-1-.4l.9-2.8c.5.2 1 .4 1.5.7s1 .6 1.4 1l1.3 1.2c.4.4.8.9 1.2 1.4s.7 1 1 1.5a11.94 11.94 0 0 1 .8 1.6l-.2.1-2.5 1.1c-.2-.6-.4-1.1-.7-1.5zm-.3 11.1c.3 0 .7 0 1-.1.5-.1.9-.3 1.4-.5.4-.2.8-.5 1.1-.9s.6-.8.8-1.2a5.27 5.27 0 0 0 .5-1.5c.1-.5.2-1.1.2-1.6 0-.6 0-1.1-.1-1.7l-2.9.5c.1.4.1.9.1 1.3s0 .7-.1 1.1c-.1.3-.1.6-.2.8s-.2.4-.3.5-.2.2-.4.3c-.1.1-.3.1-.5.2h-.6c-.3 0-.5-.1-.8-.2s-.6-.3-1-.4c-.3-.2-.7-.4-1-.7s-.7-.6-1-.9-.6-.7-.9-1.1-.6-.8-.8-1.2c-.3-.4-.5-.9-.7-1.3-.2-.5-.4-.9-.5-1.4l-.3-1.3c-.1-.4-.1-.9-.1-1.3s0-.7.1-1.1c.1-.3.1-.6.2-.8s.2-.4.3-.5a1.38 1.38 0 0 1 .4-.3c.1-.1.3-.1.5-.2v-2.9h-.2c-.4 0-.7 0-1.1.2-.3.1-.5.2-.7.3-.4.2-.8.5-1.1.9s-.6.8-.8 1.2a5.27 5.27 0 0 0-.5 1.5c-.1.5-.2 1.1-.2 1.6 0 .6 0 1.1.1 1.7s.2 1.1.4 1.7l.6 1.7a11.94 11.94 0 0 0 .8 1.6l1 1.5c.4.5.7 1 1.2 1.4.4.4.8.9 1.3 1.2.5.4.9.7 1.4 1s1 .5 1.5.7 1 .3 1.5.3c.1-.1.2-.1.4-.1z" fill="url(#a)"/><linearGradient id="b" gradientUnits="userSpaceOnUse" x1="164.918" y1="54.995" x2="128.161" y2="54.995"><stop offset=".004" stop-color="#3c5185"/><stop offset="1" stop-color="#5d7dbe"/></linearGradient><path d="M164.5 53.8l-36-20.8c-.2-.1-.4 0-.4.2v.2l35.8 20.7c.2.1.4.4.4.7v22l.2.1c.2.1.4 0 .4-.2V54.5c0-.3-.2-.6-.4-.7z" fill="url(#b)"/><path d="M138.6 44.1v1.5l-8-4.6v-1.6zm5.3 7.8v1.6l-13.3-7.7v-1.6zm0 4.1v1.5l-13.3-7.6v-1.6zm0 3.8v1.5l-13.3-7.6v-1.6z" class="AT"/><path d="M168.8 102.7c0 1.2-.9 1.7-1.9 1.1l-22.1-13.1c-1-.6-1.9-2.1-1.9-3.3l-.2-18.2c0-1.2.8-1.7 1.9-1.1l22.3 13.1c1 .6 1.9 2.1 1.9 3.3v18.2z" class="AP"/><linearGradient id="c" gradientUnits="userSpaceOnUse" x1="142.831" y1="94.232" x2="168.789" y2="94.232"><stop offset=".15" stop-color="#ff9800"/><stop offset="1" stop-color="#ffc107"/></linearGradient><path d="M168.8 102.6V89.9c-.1-.2-.2-.5-.4-.6-.5-.6-1.3-.7-2.1-.5-.7.1-1.4.5-2.1.9-1 .5-2 .9-3 1-1.1.1-2.2-.2-3-.9-.8-.8-1.2-2-2.2-2.4-.9-.4-1.9 0-2.8.3-2 .6-4.5.6-6-.9-.9-.9-1.4-2.3-2.6-2.6h-.2c-.5-.1-1 .1-1.5.3v3c0 1.2.9 2.7 1.9 3.3l1.9 1.1 3.7 2.2 10.4 6.2 6.1 3.6c.3.2.5.2.7.3h.3c.5-.1.7-.7.9-1.2-.1-.3 0-.3 0-.4z" fill="url(#c)"/><linearGradient id="d" gradientUnits="userSpaceOnUse" x1="142.875" y1="85.972" x2="168.775" y2="85.972"><stop offset="0" stop-color="#5d7dbe"/><stop offset=".996" stop-color="#3c5185"/></linearGradient><path d="M168.1 103.2V85c0-1.2-.9-2.7-1.9-3.3l-22.3-13.1c-.4-.2-.7-.3-1-.3.3-.5.9-.6 1.7-.2l22.3 13.1c1 .6 1.9 2.1 1.9 3.3v18.2c0 .8-.4 1.3-.9 1.3.1-.2.2-.5.2-.8z" fill="url(#d)"/><g class="AQ"><use xlink:href="#r"/><path d="M103 45.8c-.2-.1-.4-.3-.5-.5-.1-.3-.2-.5-.2-.9 0-.3 0-.6.1-.7s.3-.2.5 0c.2.1.4.3.5.6s.2.5.2.9c0 .3 0 .6-.1.7-.2 0-.3 0-.5-.1zm-.3-1.8c0 .1-.1.3-.1.5s0 .4.1.5c.1.2.1.3.2.3.1.1.2 0 .2-.1s.1-.3.1-.5 0-.4-.1-.5c-.1-.2-.1-.3-.2-.3s-.2 0-.2.1z"/><path d="M103.7 44.1l.6.3.1 2.1-.3-.2-.1-1.7-.3-.2v-.3zm1.1.7c.1-.1.2 0 .4 0a.78.78 0 0 1 .4.4c.1.2.2.3.2.5s0 .3-.1.3c.1.2.2.4.2.6s0 .3-.1.4-.2.1-.4 0a.78.78 0 0 1-.4-.4c-.1-.2-.2-.4-.2-.6s0-.4.2-.4c-.1-.2-.1-.3-.2-.5-.1-.1-.1-.2 0-.3zm.3 1.7l.2.2h.2c.1 0 .1-.1.1-.2s0-.2-.1-.2l-.2-.2h-.2s-.1.1-.1.2c0 0 .1.1.1.2zm0-.9c0 .1.1.1.1.1h.1l.1-.1c0-.1 0-.1-.1-.2 0-.1-.1-.1-.1-.2h-.1l-.1.1c0 .1.1.2.1.3zm4.7 1.8c0-.1.1-.1 0-.2 0-.1 0-.1-.1-.2 0-.1-.1-.1-.1-.1-.1-.1-.2 0-.3.1l-.3-.4c.1-.1.1-.2.2-.2s.2 0 .3.1.3.2.4.4.2.4.2.5v.3c0 .1-.1.2-.2.3l-.3.2.6.3v.4l-1.1-.6V48l.4-.4c.2 0 .3-.1.3-.2z"/><path d="M111.2 49.4c-.2-.1-.4-.3-.5-.5-.1-.3-.2-.5-.2-.9 0-.3 0-.6.1-.7s.3-.2.5 0c.2.1.4.3.5.6s.2.5.2.9c0 .3 0 .6-.1.7-.2 0-.3.1-.5-.1zm-.3-1.7c0 .1-.1.3-.1.5s0 .4.1.5c.1.2.1.3.2.3.1.1.2 0 .2-.1s.1-.3.1-.5 0-.4-.1-.5c-.1-.2-.1-.3-.2-.3s-.2 0-.2.1z"/><path d="M111.9 47.8l.6.3.1 2.1-.3-.2-.1-1.7-.3-.2v-.3zm1.5 2.4c.1.1.2 0 .2 0 0-.1.1-.2.1-.3h-.3c-.1-.1-.3-.2-.4-.4s-.2-.4-.2-.6 0-.4.1-.4c.1-.1.2-.1.4 0 .1.1.2.1.3.2s.1.2.2.3c.1.2.1.5.2.8v.5c0 .1-.1.2-.1.3-.1.1-.3.1-.4 0-.1 0-.1-.1-.2-.2l-.2-.2s-.1-.1-.1-.2l.2-.2v.1l.1.1c0 .2 0 .2.1.2zm0-.7h.2s.1-.1.1-.2 0-.2-.1-.3c0-.1-.1-.1-.2-.2h-.2s-.1.1-.1.2 0 .2.1.3.1.2.2.2zm6-5.3c0-.1.1-.1 0-.2 0-.1 0-.1-.1-.2 0-.1-.1-.1-.1-.1-.1-.1-.2 0-.3.1l-.3-.4c.1-.1.1-.2.2-.2s.2 0 .3.1.3.2.4.4.2.4.2.5v.3c0 .1-.1.2-.2.3l-.3.2.6.3v.4l-1.1-.6v-.3l.4-.4c.2-.1.3-.2.3-.2z"/><path d="M120.8 46.2c-.2-.1-.4-.3-.5-.5-.1-.3-.2-.5-.2-.9 0-.3 0-.6.1-.7s.3-.2.5 0c.2.1.4.3.5.6s.2.5.2.9c0 .3 0 .6-.1.7-.1 0-.3 0-.5-.1zm-.3-1.7c0 .1-.1.3-.1.5s0 .4.1.5c.1.2.1.3.2.3.1.1.2 0 .2-.1s.1-.3.1-.5 0-.4-.1-.5c-.1-.2-.1-.3-.2-.3s-.1 0-.2.1zm1.8 1.2c0-.1.1-.1 0-.2 0-.1 0-.1-.1-.2 0-.1-.1-.1-.1-.1-.1-.1-.2 0-.3.1l-.3-.4c.1-.1.1-.2.2-.2s.2 0 .3.1.3.2.4.4.2.4.2.5v.3c0 .1-.1.2-.2.3l-.3.2.6.3v.4l-1.1-.6v-.3l.4-.4c.2-.1.2-.1.3-.2z"/><path d="M123.6 47.7c-.2-.1-.4-.3-.5-.5-.1-.3-.2-.5-.2-.9 0-.3 0-.6.1-.7s.3-.2.5 0c.2.1.4.3.5.6s.2.5.2.9c0 .3 0 .6-.1.7-.1 0-.3 0-.5-.1zm-.3-1.7c0 .1-.1.3-.1.5s0 .4.1.5c.1.2.1.3.2.3.1.1.2 0 .2-.1s.1-.3.1-.5 0-.4-.1-.5c-.1-.2-.1-.3-.2-.3 0 0-.1 0-.2.1z"/><use xlink:href="#r" x="27" y="15.1"/><path d="M130 60.9c-.2-.1-.4-.3-.5-.6s-.2-.5-.2-.9c0-.3 0-.6.1-.7s.3-.2.5 0c.2.1.4.3.5.5.1.3.2.5.2.9 0 .3 0 .6-.1.7-.2.2-.3.2-.5.1zm-.3-1.8c0 .1-.1.3-.1.5s0 .4.1.5c.1.2.1.3.2.3.1.1.2 0 .2-.1s.1-.3.1-.5 0-.4-.1-.5c-.1-.2-.1-.3-.2-.3s-.2 0-.2.1zm1.8 1.3c0-.1.1-.1 0-.2 0-.1 0-.1-.1-.2 0-.1-.1-.1-.1-.1-.1-.1-.2 0-.3.1l-.3-.4c.1-.1.1-.2.2-.2s.2 0 .3.1.3.2.4.4.2.4.2.5v.3c0 .1-.1.2-.2.3l-.3.2.6.3v.4l-1.1-.6V61l.4-.4c.2-.1.2-.2.3-.2z"/><path d="M132 59.9l.6.3.1 2.1-.3-.2-.1-1.7-.3-.2v-.3z"/></g><path d="M126.8 36.6c0 1.7-1.2 2.4-2.7 1.5L92.9 19.6c-1.5-.9-2.7-3-2.7-4.7l-.3-8.3c0-1.7 1.2-2.4 2.6-1.5L124 23.6c1.5.9 2.7 3 2.7 4.7l.1 8.3z" class="AP"/><linearGradient id="e" gradientUnits="userSpaceOnUse" x1="90.318" y1="21.568" x2="126.865" y2="21.568"><stop offset=".004" stop-color="#3c5185"/><stop offset="1" stop-color="#5d7dbe"/></linearGradient><path d="M125.9 37.2v-8.3c0-1.7-1.2-3.8-2.7-4.7L91.7 5.7c-.5-.3-1-.4-1.4-.4.4-.7 1.3-.9 2.3-.3l31.5 18.5c1.5.9 2.7 3 2.7 4.7v8.3c0 1.1-.5 1.8-1.2 1.9.2-.2.3-.6.3-1.2z" fill="url(#e)"/><path d="M123.8 28.1v1.2L92.9 11.5v-1.2zm0 3.4v1.2L92.9 14.9v-1.3zm0 3.3V36L92.9 18.2V17z" class="AT"/><path d="M31.4 88.5v1.3c0 .4.2.7.5.9l4 2.5c.4.3.9.3 1.4 0l1.2-.7c.2-.1.4-.4.4-.7V91s-.2.1-.4-.1l-2.7-1.6v-.9h-4.4v.1z" class="AP"/><path d="M31.4 87.8v1.3c0 .4.2.7.5.9l4 2.5c.4.3.9.3 1.4 0l1.2-.7c.6-.3.6-1.2 0-1.5l-2.7-1.6v-.9h-4.4z" class="AW"/><path d="M34.1 90.3V90l1.6-.9v.3zm.6.5v-.2l1.5-.9v.2zm.8.6v-.3l1.5-.9v.3z" class="AQ"/><path d="M32 88.7c-.9-.5-.9-1.3 0-1.8s2.3-.5 3.1 0c.9.5.9 1.3 0 1.8-.8.5-2.2.5-3.1 0z" class="AP"/><path d="M32.6 88.4c-.6-.3-.6-.9 0-1.2s1.5-.3 2.1 0 .6.9 0 1.2-1.6.3-2.1 0z" class="AQ"/><path d="M33.6 88.5c-.6 0-1-.5-1-1V64.1c0-.6.5-1 1-1 .6 0 1 .5 1 1v23.4c0 .5-.4 1-1 1z" class="AR"/><linearGradient id="f" gradientUnits="userSpaceOnUse" x1="29.389" y1="74.246" x2="35.341" y2="74.246"><stop offset="0" stop-color="#5d7dbe"/><stop offset=".305" stop-color="#5573b1"/><stop offset=".872" stop-color="#41588e"/><stop offset="1" stop-color="#3c5185"/></linearGradient><path d="M33.6 87.6c-.9 0-1.3-.8-1.3-1.7l-.1-7.1L29.4 66c0-.9 3.3-5.2 4.2-5.2s1.7.8 1.7 1.7l-.1 16-.3 7.3c0 1.1-.3 1.8-1.3 1.8z" fill="url(#f)"/><path d="M38.2 65.1c-.4 0-.8-.3-1-.7l-2.7-8.5-1-8.5c-.1-.6.3-1.1.9-1.2s1.1.3 1.1.9l.9 8.3 2.7 8.3c.2.5-.1 1.1-.7 1.3 0 .1-.1.1-.2.1z" class="AR"/><linearGradient id="g" gradientUnits="userSpaceOnUse" x1="33.664" y1="49.488" x2="36.385" y2="49.488"><stop offset="0" stop-color="#a8d9fb"/><stop offset="1" stop-color="#fff"/></linearGradient><path d="M35.4 52.9c-.5 0-1-.4-1.1-.9l-.7-4.8c-.1-.6.3-1.1.9-1.2s1.1.3 1.2.9l.7 4.8c0 .6-.4 1.2-1 1.2z" fill="url(#g)"/><path d="M26.1 92.9v1.3c0 .4.2.7.5.9l4 2.5c.4.3.9.3 1.4 0l1.2-.7c.2-.1.4-.4.4-.7v-.8s-.2.1-.4-.1l-2.7-1.6v-.9h-4.4v.1z" class="AP"/><path d="M26.1 92.2v1.3c0 .4.2.7.5.9l4 2.5c.4.3.9.3 1.4 0l1.2-.7c.6-.3.6-1.2 0-1.5l-2.7-1.6v-.9h-4.4z" class="AW"/><path d="M28.8 94.7v-.3l1.6-.8v.2zm.6.5V95l1.5-.9.1.2zm.8.6v-.3l1.5-.9v.3z" class="AQ"/><path d="M26.7 93.1c-.9-.5-.9-1.3 0-1.8s2.3-.5 3.1 0c.9.5.9 1.3 0 1.8-.8.5-2.2.5-3.1 0z" class="AP"/><path d="M27.3 92.8c-.6-.3-.6-.9 0-1.2s1.5-.3 2.1 0 .6.9 0 1.2-1.6.3-2.1 0z" class="AQ"/><linearGradient id="h" gradientUnits="userSpaceOnUse" x1="27.033" y1="42.328" x2="35.459" y2="42.328"><stop offset=".15" stop-color="#ff9800"/><stop offset="1" stop-color="#ffc107"/></linearGradient><path d="M34.9 38.4l-.2-.4c-.1-.4-.5-.6-.9-.6s-.7.1-1.1.2l-1.9.7c-1.3.5-2.7 1.1-3 2.4-.2.9.1 1.9-.2 2.8-.1.3-.3.5-.4.8-.3.8.1 1.6.5 2.3.1.2.3.4.5.5.4.2.9-.1 1.2-.4s.5-.7.9-1c.5-.4 1.3-.5 1.9-.9 1.1-.8 1-2.6 2.1-3.5.3-.3.8-.4 1-.8.4-.6 0-1.4-.4-2.1z" fill="url(#h)"/><path d="M28.3 92.9c-.6 0-1-.5-1-1V68.8c0-.6.5-1 1-1 .6 0 1 .5 1 1v23.1c.1.6-.4 1-1 1z" class="AR"/><linearGradient id="i" gradientUnits="userSpaceOnUse" x1="25.163" y1="69.6" x2="35.141" y2="69.6"><stop offset="0" stop-color="#5d7dbe"/><stop offset=".305" stop-color="#5573b1"/><stop offset=".872" stop-color="#41588e"/><stop offset="1" stop-color="#3c5185"/></linearGradient><path d="M35.1 63.2l-.3-15.8-9.1 5 .9 7.1-.9 5.6-.1.4c-.1.1-.3.3-.3.5 0 .1-.1.2-.1.4-.2 1.2-.1 2.4.4 3.4l.5 1.1.7 9.9.2 9.1c0 .9.3 1.7 1.2 1.8 1 .1 1.5-.7 1.5-1.7l.7-8.7 1.7-13.5.4-.2c1.7-.9 2.7-2.6 2.6-4.4z" fill="url(#i)"/><path d="M38.8 52.4l4.1-3.5c.1-.1.1-.3 0-.4s-.3-.1-.4 0l-4 3.4c-.1.1-.1.3 0 .4.1 0 .2.1.3.1z" class="AP"/><linearGradient id="j" gradientUnits="userSpaceOnUse" x1="25.085" y1="56.52" x2="36.097" y2="56.52"><stop offset="0" stop-color="#a8d9fb"/><stop offset="1" stop-color="#fff"/></linearGradient><path d="M25.2 50.4c0-.9.7-2.1 1.5-2.6l4.5-2.6h2.4c.5 0 1 .2 1.3.6.3.3.4.7.4 1.2v1.6l.7 2.5c.1.5 0 1-.3 1.4l-.3.6.1 10.9c-1.5-.8-8 5-10.3 3.5-.3-.2 0-1.4 0-1.4v-.5l.7-3.5c.2-1.5.2-3.1 0-4.7l-.7-7z" fill="url(#j)"/><g class="AR"><path d="M30.3 48.2c-.7 0-1.2-.5-1.2-1.2v-4.2c0-.7.5-1.2 1.2-1.2s1.2.5 1.2 1.2V47c0 .7-.6 1.2-1.2 1.2z"/><path d="M31.3 45.1h-1.9v-6.6h5.1v3.4c0 1.7-1.4 3.2-3.2 3.2z"/></g><path d="M35.4 54.5l-5.1 3.6h-.2c-.1 0-.1-.1-.1-.1l-2.2-6.9c-.2-.5-1.3-.4-1.3-.4l1.5 8a1.98 1.98 0 0 0 1.4 1.4c.2.1.5.1.7.1.5 0 .9-.1 1.3-.4l3.9-2.8.1-2.5z" opacity=".25" class="AS AW"/><path d="M30.9 59.4c-.2 0-.5 0-.7-.1-.7-.2-1.2-.8-1.4-1.4L26.6 51c-.2-.5.1-1.1.7-1.3.5-.2 1.1.1 1.3.7l2.2 6.9c0 .1.1.1.1.1h.2l8-5.7c.5-.3 1.1-.2 1.4.2.3.5.2 1.1-.2 1.4l-8 5.7c-.5.2-.9.4-1.4.4z" class="AR"/><linearGradient id="k" gradientUnits="userSpaceOnUse" x1="26.447" y1="53.015" x2="30.248" y2="53.015"><stop offset="0" stop-color="#a8d9fb"/><stop offset="1" stop-color="#fff"/></linearGradient><path d="M29.1 56.6c-.5 0-.9-.3-1-.8l-1.6-5a1.08 1.08 0 0 1 .7-1.4 1.08 1.08 0 0 1 1.4.7l1.6 5a1.08 1.08 0 0 1-.7 1.4c-.1 0-.3.1-.4.1z" fill="url(#k)"/><linearGradient id="l" gradientUnits="userSpaceOnUse" x1="23.965" y1="44.583" x2="35.177" y2="44.583"><stop offset=".15" stop-color="#ff9800"/><stop offset="1" stop-color="#ffc107"/></linearGradient><path d="M27.4 49.3h-.2c-.1 0-.2 0-.3.1s-.2.2-.3.4c-.2.2-.2.5-.4.8-.1.3-.3.6-.3.9 0 .5.2 1.1.1 1.6a.55.55 0 0 0-.5-.3c-.6-.2-.9-.7-1-1.3-.1-.8 0-1.5-.3-2.2s-.3-1.5-.1-2.2c.2-1.1.7-1.9 1.1-2.9.3-.8.1-1.6.3-2.4.2-.7.8-1.3 1-2 .3-.8.4-1.2 1-1.8.4-.5.8-1 1.3-1.4.4-.2.9-.2 1.4-.3s.9-.3 1.4-.3c1-.1 2 .1 2.9.6.7.4 1 1.1.4 1.7-.7.7-1.6.6-2.4.8-.2 0-.3.1-.4.2s-.2.4-.1.5c.1.7.4 1-.3 1.5-.3.2-.6.3-.8.5s-.4.4-.5.7c0 .3 0 .5-.1.8s-.3.4-.4.6c-.3.6-.1 1.3-.4 1.8-.1.2-.2.3-.2.5s.1.4.2.6c.1.3.3.5.4.8.1.2.2.4.3.7.1.2 0 .5 0 .7 0 .3-.1.6-.2.9-.1.2-.2.4-.4.5-.3.2-.4.1-.6-.1-.6-.3-.8-1-1.6-1z" fill="url(#l)"/><path d="M34.4 36.6c-.8-.5-1.7-.7-2.6-.6.8 0 1.6.2 2.2.6.7.4 1 1.1.4 1.7-.7.7-1.6.6-2.4.8-.2 0-.3.1-.4.2-.2.2-.2.4-.2.6.1.7.4 1-.3 1.5-.3.2-.6.3-.8.5s-.4.4-.5.7c0 .3 0 .5-.1.8s-.3.4-.4.6c-.3.6-.1 1.3-.4 1.8-.1.2-.2.3-.2.5s.1.4.2.6c.1.3.3.5.4.8.1.2.2.4.3.7.1.2 0 .5 0 .7 0 .3-.1.6-.2.9-.1.2-.2.4-.4.5.1.1.2.1.4 0s.3-.3.4-.5c.1-.3.2-.6.2-.9v-.7c-.1-.2-.2-.5-.3-.7-.1-.3-.3-.5-.4-.8-.1-.2-.2-.4-.2-.6s.2-.3.2-.5c.3-.6.1-1.3.4-1.8.1-.2.4-.4.4-.6.1-.3 0-.5.1-.8s.2-.5.5-.7.6-.3.8-.5c.6-.5.4-.9.3-1.5 0-.2 0-.4.1-.5a.76.76 0 0 1 .4-.2c.9-.2 1.7-.1 2.4-.8.8-.7.4-1.4-.3-1.8z" fill="#fec55e"/><g class="AR"><path d="M40 52.4l.4-1c0-.2 0-.3-.2-.4-.2 0-.3 0-.4.2l-.3.9c0 .2 0 .3.2.4.1 0 .2 0 .3-.1z"/><path d="M40.4 52l.4-1c0-.2 0-.3-.2-.4-.2 0-.3 0-.4.2l-.3.9c0 .2 0 .3.2.4.1 0 .2 0 .3-.1z"/><path d="M40.5 53l.7-2.2c0-.2 0-.3-.2-.4-.2 0-.3 0-.4.2l-.6 2.1c0 .2 0 .3.2.4.1 0 .2 0 .3-.1zm-1.7-.8c.1 0 .1-.1 0 0l.7-1.1c.1-.2.1-.4-.1-.5s-.4-.1-.5.1l-.6 1c-.1.2-.1.4.1.5.1.1.3.1.4 0zm-2 12.1c0-.1.1-.1.1-.2l.5-2.1c0-.2-.1-.4-.3-.4s-.4.1-.4.3l-.5 2.1c0 .2.1.4.3.4.1.1.2 0 .3-.1z"/><circle cx="39" cy="52.1" r=".9"/><path d="M56.6 130c-.3 0-.7-.1-.9-.3-2.5-2-3.9-4.9-4.1-8.1s.9-6.2 3.1-8.5l.3-.3c.5-.6 1.4-.6 2-.1s.6 1.4.1 2l-.3.3c-1.7 1.8-2.5 4-2.4 6.5.1 2.4 1.2 4.6 3.1 6.1.6.5.7 1.4.2 2-.3.2-.7.4-1.1.4z"/></g><path d="M53.5 118.6c-1-.1-1.7-1.2-1.2-2.2.6-1.3 1.4-2.5 2.4-3.6l.3-.3a1.68 1.68 0 0 1 2.2-.1 1.68 1.68 0 0 1 .1 2.2l-.3.3c-.8.8-1.4 1.8-1.8 2.8-.4.6-1 1-1.7.9z" class="AQ"/><g class="AP"><path d="M48.3 150.6l-6.6 3.9v.7c0 .6.3 1.2.8 1.5l1.3.8c.3.2.8.2 1.1 0l5.1-3c.5-.3.8-.8.8-1.4v-.8l-2.5-1.7z"/><path d="M46.8 150.9l-4.3 2.5c-.9.6-.9 1.9 0 2.5l1.2.7c.5.3 1.1.3 1.6 0l4.9-2.9c1-.6 1-2.2 0-2.8l-.1-.1c-1.1-.5-2.4-.5-3.3.1z"/></g><path d="M49.8 152.3c-.1-.4-.3-.8-.7-1l-.1-.1c-.3-.2-.7-.3-1.1-.4-.3 0-.5.1-.8.3l-2.3 1.4c-.6.4-.6 1.2 0 1.6l.8.5c.3.2.7.2 1.1 0l2.7-1.6c.2-.2.4-.5.4-.7z" class="AR"/><g class="AP"><path d="M54.1 153.8l-6.6 3.9v.7c0 .6.3 1.2.8 1.5l1.3.8c.3.2.8.2 1.1 0l5.1-3c.5-.3.8-.8.8-1.4v-1l-2.5-1.5z"/><path d="M52.5 154l-4.3 2.5c-.9.6-.9 1.9 0 2.5l1.2.7c.5.3 1.1.3 1.6 0l4.9-2.9c1-.6 1-2.2 0-2.8l-.1-.1c-1.1-.5-2.3-.5-3.3.1z"/></g><path d="M55.6 155.4c-.1-.4-.3-.8-.7-1l-.1-.1c-.3-.2-.7-.3-1.1-.4-.3 0-.5.1-.8.3l-2.3 1.4c-.6.4-.6 1.2 0 1.6l.8.5c.3.2.7.2 1.1 0l2.7-1.6c.2-.2.3-.5.4-.7zm-7.1-2.2c-.8 0-1.4-.6-1.4-1.4v-9c0-.8.6-1.4 1.4-1.4s1.4.6 1.4 1.4v9c0 .8-.6 1.4-1.4 1.4z" class="AR"/><path d="M47.5 151.8v-9c0-.7.5-1.3 1.2-1.4h-.2c-.8 0-1.4.6-1.4 1.4v9c0 .8.6 1.4 1.4 1.4h.2c-.7-.1-1.2-.7-1.2-1.4z" opacity=".3" fill="#ef9ea3" class="AS"/><path d="M54.3 156.3c-.8 0-1.4-.6-1.4-1.4v-13.1c0-.8.6-1.4 1.4-1.4s1.4.6 1.4 1.4v13.1c0 .8-.7 1.4-1.4 1.4z" class="AR"/><linearGradient id="m" gradientUnits="userSpaceOnUse" x1="46.578" y1="134.158" x2="67.304" y2="134.158"><stop offset="0" stop-color="#5d7dbe"/><stop offset=".305" stop-color="#5573b1"/><stop offset=".872" stop-color="#41588e"/><stop offset="1" stop-color="#3c5185"/></linearGradient><path d="M58 122.6l-2.7 7.4-4.7 2.5c-2.1 1.2-4 2.8-4 6.6l-.1 2.4c-.1 2.5 8 3.4 9.7 4.1.9.4 1.2-4.2 1.2-4.2s.1-1.2 1.7-2.2l5.5-3.2c3.5-2 3.5-7 0-9l-6.6-4.4z" fill="url(#m)"/><path d="M47.2 141.6l.1-2.4c0-3.8 1.8-5.4 4-6.6l4.7-2.5 2.5-7.1-.5-.3-2.7 7.4-4.7 2.5c-2.1 1.2-4 2.8-4 6.6l-.1 2.4c-.1 2.5 8 3.4 9.7 4.1.1 0 .2 0 .3-.1-2.1-.8-9.4-1.7-9.3-4z" opacity=".15" fill="#ef9ea3" class="AS"/><path d="M46.6 135.3v.2c0 .1.1.2.2.3l6 3.5c.2.1.6.1.8 0l9.3-5.4c.1-.1.2-.2.2-.3v-.1L57 130c-.2-.1-.6-.1-.8 0l-9.6 5.3z" fill="#d1e1f2"/><path d="M46.7 135.1c-.2.1-.2.3 0 .5l6 3.5c.2.1.6.1.8 0l9.4-5.4c.2-.1.2-.3 0-.5l-6-3.5c-.2-.1-.6-.1-.8 0l-9.4 5.4z" class="AQ"/><linearGradient id="n" gradientUnits="userSpaceOnUse" x1="48.418" y1="134.245" x2="61.688" y2="134.245"><stop offset=".15" stop-color="#ff9800"/><stop offset="1" stop-color="#ffc107"/></linearGradient><path d="M48.4 134.6l5.9 3.4 7.4-4.2-5.9-3.4z" fill="url(#n)"/><path d="M51 137.1l-1.3-.7c-.1 0-.1-.1 0-.2 0-.1.1-.1.2 0l1.3.7c-.1 0 0 .1-.2.2zm2.3-32.1l.1-.5c0-.4.4-.8.8-1 .4-.1.9-.1 1.3-.1l2.4.1c1.6.1 3.3.3 4.2 1.6.6.9.5 2.2 1.2 3 .2.3.5.5.7.8.6.8.5 1.8.2 2.7-.1.3-.2.6-.4.8-.4.3-1 .2-1.5-.1-.4-.3-.8-.7-1.3-.9-.8-.3-1.6-.1-2.4-.3-1.5-.5-2-2.6-3.5-3.2-.5-.2-1-.2-1.4-.5-.7-.4-.6-1.5-.4-2.4z" class="AP"/><path d="M66.8 116.3c-.5-1.2-1.8-2.8-2.9-3.4l-4-2.3h-2.8c-.6 0-1.1.3-1.5.7-.3.4-.5 1.2-.5 1.7v1.5l-.8 2.9c-.1.5 0 1.1.3 1.6l.5.7c.9 1.3 1.4 2.9 1.2 4.6l-.3 5c2.1 4.4 11.5.5 11.5.5-.9-6.8 1.3-8.3-.7-13.5z" class="AQ"/><path d="M56.7 129.3l.3-5a7.59 7.59 0 0 0-1.2-4.6l-.5-.7a2.22 2.22 0 0 1-.3-1.6l.8-2.9V113c0-.5.2-1.4.5-1.7.4-.4.9-.7 1.5-.7H60h-2.8c-.6 0-1.1.3-1.5.7-.3.4-.5 1.2-.5 1.7v1.5l-.8 2.9c-.1.5 0 1.1.3 1.6l.5.7c.9 1.3 1.4 2.9 1.2 4.6l-.3 5c.8 1.7 2.7 2.1 4.7 2.1-1.8 0-3.4-.6-4.1-2.1z" opacity=".15" fill="#7ea7df" class="AS"/><g class="AR"><path d="M61 114.1c.8 0 1.4-.6 1.4-1.4v-4.9c0-.8-.6-1.4-1.4-1.4s-1.4.6-1.4 1.4v4.9c0 .8.7 1.4 1.4 1.4z"/><path d="M60.9 110.9l.8-.2-2.3-7.4-5.6 1.7.8 2.5c.8 2.7 3.6 4.2 6.3 3.4z"/></g><path d="M59.8 130.7l-.8.6c1.6.3 3.4 0 5-.4 3.2-3.9 4-9.3 1.8-14-.4-.8-1.5 1.3-1.5 1.3 2 4.3-.6 9.6-4.5 12.5z" opacity=".33" fill="#7ea7df" class="AS"/><path d="M59.4 133.6c-.4 0-.9-.1-1.2-.5-.5-.6-.5-1.5.1-2l2.7-2.4c3.2-2.9 4-7.7 1.9-11.4-.4-.7-.2-1.5.5-1.9s1.5-.2 1.9.5c2.8 4.9 1.8 11.2-2.4 14.9l-2.7 2.4c-.2.3-.5.4-.8.4z" class="AR"/><path d="M65.4 122.1c-.8 0-1.4-.6-1.6-1.4-.2-1.2-.6-2.4-1.3-3.5-.5-.8-.2-1.8.6-2.3s1.8-.2 2.3.6c.8 1.4 1.4 3 1.6 4.5.3 1.1-.6 2.1-1.6 2.1z" class="AQ"/><path d="M65.5 117.8c.4 0 .8.1 1.2.2.4.2.7.4 1.1.3.5-.1.7-.7.8-1.3.1-.4.1-.9 0-1.3-.1-.6-.6-1-.9-1.5-.5-.7-.8-1.6-.9-2.4-.1-.6 0-1.3-.1-2-.1-.8-.4-1.3-.8-1.9-.5-.7-.6-1.6-1.1-2.4-.5-.7-1.3-1.2-1.8-1.9-.6-.7-.9-1.2-1.7-1.7-.6-.4-1.2-.9-2-1-.6-.1-1 .1-1.6.2s-1.1 0-1.7.1c-1.1.3-2.2.8-3 1.7-.6.7-.8 1.5.1 2 1 .5 1.9.1 3 .1.2 0 .4 0 .6.1.4.3.2 1.4.4 1.9.1.5.4 1 .8 1.3s.8.4 1.3.6c.4.2.9.4 1.1.8.4.8-.1 1.7-.1 2.5 0 .5.2 1 .6 1.4.3.2.6.4.8.7s.2.7.3 1c.1.5.1.9.3 1.4.4.9 1 1.3 2 1.3.4 0 .7-.1 1.1-.1.1-.1.2-.1.2-.1z" class="AP"/><g class="AR"><path d="M58.6 131.1l-2.1 1.9c-.2.1-.2.4 0 .6.1.1.4.1.5 0l2.1-1.9-.5-.6z"/><path d="M60.8 130.4l-3.1.5c-.2 0-.4.3-.4.5s.3.4.5.3l3.1-.4-.1-.9zm-4.2-.4c-.3 0-.7-.1-.9-.3-3-2.5-4.5-6.3-4-10.1.1-.8.6-.6 1.3-.5.8.1 1.5.1 1.4.8-.3 2.9.8 5.8 3.1 7.7.6.5.7 1.4.2 2-.3.2-.7.4-1.1.4z"/><path d="M55.1 127l2.7.7c.2.1.4-.1.5-.3 0-.2-.1-.4-.3-.4l-2.7-.7-.2.7z"/><use xlink:href="#s"/><use xlink:href="#s" x="0.9" y="-0.1"/><use xlink:href="#s" x="1.7" y="-0.3"/><path d="M56.3 127.6l2.1 1.9c.2.1.4.1.5 0 .1-.2.1-.4 0-.5l-2.1-1.9-.5.5z"/></g><defs ><path id="p" d="M129.1 137.5v1.5a1.1 1.1 0 0 0 .6 1l4.7 2.9c.5.3 1.1.3 1.6 0l1.4-.8c.3-.2.5-.5.5-.8v-.9s-.2.1-.5-.1l-3.1-1.9v-1h-5.2v.1z"/><path id="q" d="M129.1 136.7v1.5a1.1 1.1 0 0 0 .6 1l4.7 2.9c.5.3 1.1.3 1.6 0l1.4-.8a1.03 1.03 0 0 0 0-1.7l-3.1-1.9v-1h-5.2z"/><path id="r" d="M101.6 43.7c0-.1.1-.1 0-.2 0-.1 0-.1-.1-.2 0-.1-.1-.1-.1-.1-.1-.1-.2 0-.3.1l-.3-.4c.1-.1.1-.2.2-.2s.2 0 .3.1.3.2.4.4.2.4.2.5v.3c0 .1-.1.2-.2.3l-.3.2.6.3v.4l-1.1-.6v-.3l.4-.4c.2 0 .3-.1.3-.2z"/><path id="s" d="M54.6 128.5l1.7 2.2c.1.2.4.2.5 0 .2-.1.2-.4 0-.5l-1.7-2.2-.5.5z"/></defs></svg>